<svg id="Layer_1" data-name="Layer 1" xmlns="http://www.w3.org/2000/svg" width="12in" height="12in" viewBox="0 0 864 864">
  <defs>
    <style>
      .cls-1 {
        fill: none;
      }

      .cls-2 {
        fill: 	#eedfa1;
      }
    </style>
  </defs>
  <g>
    <circle cx="432" cy="432" r="239.20693"/>
    <g>
      <path class="cls-1" d="M230.89047,300.03209l.93593,1.87186,3.26465.46627c.77536-1.17509,1.549-2.3497,2.34488-3.50984l-2.80151-.70014C232.797,300.09381,234.28339,299.12847,230.89047,300.03209Z"/>
      <path class="cls-1" d="M244.93034,578.02369h2.66819c-.495-.62057-.98222-1.24645-1.47115-1.87233h-.26087Z"/>
      <path class="cls-1" d="M229.01838,561.17556l3.74419,1.87185,1.87185-.93545.43638-1.30962c-.8959-1.3588-1.76746-2.734-2.63588-4.11162l-2.48038-2.06714Q229.48659,557.90006,229.01838,561.17556Z"/>
      <path class="cls-1" d="M233.69849,304.54248c.18613-.28883.36912-.57959.55645-.86794l-.55645-.83467Z"/>
      <polygon class="cls-1" points="215.914 536.84 217.787 538.711 217.787 535.904 216.851 535.904 215.914 536.84"/>
      <path class="cls-2" d="M386.2662,199.88017l-.59839,1.1963c.50485-.09933,1.01741-.17551,1.52323-.272Z"/>
      <path class="cls-2" d="M473.31418,529.35162l-.93592,4.68012H475.186Q474.25012,531.69192,473.31418,529.35162Z"/>
      <path class="cls-2" d="M473.31418,523.73557h-4.68011v.93641c3.46331,4.64348,5.97937,4.01615,8.42406-1.87233l-3.74395-2.80779C471.86907,523.29485,472.36042,520.11531,473.31418,523.73557Z"/>
      <polygon class="cls-2" points="473.314 552.752 475.186 553.688 477.058 551.815 475.186 549.943 473.314 552.752"/>
      <path class="cls-2" d="M452.7221,534.96766c1.6662.85348.23868.91423,1.87209,0Z"/>
      <polygon class="cls-2" points="454.594 592.999 458.338 589.255 454.594 587.383 454.594 592.999"/>
      <path class="cls-2" d="M467.69814,543.39149h.93593l2.808-3.74371-4.67988-2.80826C465.88053,540.39083,466.15658,540.699,467.69814,543.39149Z"/>
      <polygon class="cls-2" points="470.506 517.184 471.442 517.184 473.314 515.312 469.57 513.44 470.506 517.184"/>
      <path class="cls-2" d="M470.50616,481.61547l1.8721,2.80827C471.48331,481.92311,473.34866,483.43429,470.50616,481.61547Z"/>
      <path class="cls-2" d="M458.33814,514.37582q-.468,3.27575-.93592,6.552h.93592l2.808-4.68012Z"/>
      <path class="cls-2" d="M460.21024,539.64778h.93593c-.69628-5.18448-1.52565-5.9907-4.67988-8.42382Z"/>
      <polygon class="cls-2" points="458.338 583.64 460.21 585.512 463.954 581.768 459.274 581.768 458.338 583.64"/>
      <polygon class="cls-2" points="470.506 531.224 465.826 530.288 468.634 533.096 470.506 531.224"/>
      <polygon class="cls-2" points="465.826 503.144 463.018 503.144 465.826 505.952 465.826 503.144"/>
      <path class="cls-2" d="M463.01826,522.79965l1.87186,1.87233c.18733-3.20221,1.13266-1.34916-.93593-3.74419Z"/>
      <polygon class="cls-2" points="490.162 520.928 493.906 519.992 492.034 518.12 490.162 520.928"/>
      <path class="cls-2" d="M434.00211,480.68q.93628,3.7437,1.87209,7.48742l-5.616.93641c2.808,2.559,3.62605,2.246,7.48814,1.87185,1.65294,1.1235.743.21216.93592-1.87185l1.8721-.93641V493.784h.93593c4.81754-2.85793,7.72393-7.13252,10.29592-12.1685l-12.168-3.74371C437.7463,480.10237,437.62816,479.97507,434.00211,480.68Zm9.36,5.61556,1.8721,1.87186-1.8721.93641Zm-2.80778-.93593-2.808-1.87185.93592-.93593,1.8721,1.87186Z"/>
      <polygon class="cls-2" points="424.642 483.488 433.066 483.488 433.066 478.808 430.258 474.128 424.642 476 424.642 483.488"/>
      <polygon class="cls-2" points="434.002 261.656 430.258 259.784 432.13 262.592 434.002 261.656"/>
      <path class="cls-2" d="M427.45013,245.744v.93593l1.8721.93641h.93593q-.468-2.34054-.93593-4.68012Z"/>
      <polygon class="cls-2" points="452.722 485.36 456.466 485.36 454.594 481.615 452.722 482.552 451.786 483.488 452.722 485.36"/>
      <polygon class="cls-2" points="576.274 568.664 578.146 566.792 575.338 566.792 576.274 568.664"/>
      <polygon class="cls-2" points="444.298 223.28 445.234 220.472 445.234 219.536 441.49 219.536 442.426 222.344 444.298 223.28"/>
      <path class="cls-2" d="M435.8742,438.55993l-.93593,2.80778h.93593C436.79615,438.71519,437.39719,440.91879,435.8742,438.55993Z"/>
      <polygon class="cls-2" points="439.618 227.024 442.426 225.152 440.554 225.152 439.618 227.024"/>
      <polygon class="cls-2" points="442.426 233.576 447.106 231.704 447.106 227.024 440.554 229.832 439.618 231.704 442.426 233.576"/>
      <path class="cls-2" d="M440.55432,234.51237c1.666.85347.23868.91422,1.87185,0Z"/>
      <polygon class="cls-2" points="446.17 237.32 443.362 235.448 441.49 239.192 445.234 239.192 446.17 237.32"/>
      <path class="cls-2" d="M489.22615,488.16745l-1.87209,2.80826h2.808C489.6389,488.06233,491.21421,490.36044,489.22615,488.16745Z"/>
      <path class="cls-2" d="M483.61011,500.336l.93592-.93641h1.8721l-3.744-4.68012c-1.79712,2.80826-.162,1.57193-3.74395,2.80826C480.85729,499.57409,480.19284,499.34457,483.61011,500.336Z"/>
      <path class="cls-2" d="M479.86616,514.37582c9.22522.70448,7.93247,2.34006,14.976,0,2.76872-.69773,2.28388.51546,6.552,2.80778,1.02947-3.97323-2.42709-3.33385,2.808-5.61556-2.66119-2.79525-2.16792-4.251-3.74395-.93641l-13.10418-5.61556-2.808,4.67963Z"/>
      <polygon class="cls-2" points="499.522 501.271 496.714 499.4 495.778 501.271 498.586 503.144 499.522 501.271"/>
      <polygon class="cls-2" points="477.994 502.208 478.93 502.208 476.122 496.592 474.25 497.528 475.186 500.336 477.994 502.208"/>
      <path class="cls-2" d="M454.59419,505.95151h4.67988c-.65505-3.37966-.37418-2.82273-1.87185-4.68012l-4.68012,2.80827Z"/>
      <path class="cls-2" d="M500.45824,522.79965h.93593c.92194-2.65252,1.52275-.44892,0-2.80779Z"/>
      <path class="cls-2" d="M458.33814,454.47214l-.93592,1.87185C459.087,455.10477,457.9413,455.34008,458.33814,454.47214Z"/>
      <path class="cls-2" d="M464.89012,484.42374c-.44748-3.39171.05521-1.76963,1.87209-4.68012l-5.616-3.74371v1.87185h-1.8721C461.67127,481.19115,461.8762,482.85759,464.89012,484.42374Z"/>
      <polygon class="cls-2" points="470.506 479.744 473.314 478.808 469.57 472.256 467.698 476 468.634 478.808 470.506 479.744"/>
      <polygon class="cls-2" points="471.442 519.992 471.442 519.055 467.698 519.055 467.698 521.864 469.57 522.8 471.442 519.992"/>
      <path class="cls-2" d="M485.4822,535.90359l1.87186.93593c1.58109-2.17612,1.86365-1.87186.93616-4.68012Z"/>
      <path class="cls-2" d="M638.98584,381.464v-1.87186c2.4336-2.34584,2.71448-10.49627.93617-14.04035-1.85715-3.12554-1.46682-2.79283-5.616-3.74371l-2.808,2.80778q2.34018,7.95611,4.68012,15.91173Z"/>
      <polygon class="cls-2" points="381.586 211.112 381.586 213.92 384.394 213.92 381.586 211.112"/>
      <path class="cls-2" d="M645.53805,379.59217v.93545h2.80778l-1.87185-2.80778Q646.006,378.65577,645.53805,379.59217Z"/>
      <polygon class="cls-2" points="351.634 536.84 354.442 536.84 352.57 534.968 351.634 536.84"/>
      <polygon class="cls-2" points="384.394 201.752 383.458 203.624 386.266 203.624 384.394 201.752"/>
      <path class="cls-2" d="M334.78635,586.44752c2.72942,2.2253,1.45452-.92532,2.808,2.80778l3.74395-4.67964-4.67988-.93592Z"/>
      <polygon class="cls-2" points="351.634 539.648 353.506 537.776 349.762 536.84 351.634 539.648"/>
      <path class="cls-2" d="M353.50634,227.96039v2.80778l1.87185.93593C354.47505,228.31143,355.44015,229.79753,353.50634,227.96039Z"/>
      <path class="cls-2" d="M343.21042,488.16745h.93592l.93593-3.74371h-2.808Q342.74221,486.29559,343.21042,488.16745Z"/>
      <path class="cls-2" d="M647.40991,383.33588h2.808l-1.8721-1.87185Z"/>
      <polygon class="cls-2" points="338.53 579.896 342.274 579.896 342.274 578.96 336.658 577.088 338.53 579.896"/>
      <polygon class="cls-2" points="448.978 509.696 451.786 508.76 451.786 506.888 448.042 505.952 448.978 509.696"/>
      <path class="cls-2" d="M659.13383,489.48189a234.67626,234.67626,0,0,0,6.82248-44.80926l-2.63444.43927c3.02718-9.42581,1.10928-13.91113-.93592-23.40011H661.45c-2.41962,4.55813-2.48809,1.81592-2.808,7.4879-7.73237-5.81037-8.12632-7.86256-10.29617-16.84765l-1.87185-.93641c-3.88065,5.02536-4.42914,4.48435-7.48814,8.42431,2.42058,4.46361.9164,8.215,2.808,13.10394-3.755,2.36514-7.18726,4.29775-10.25952,6.56017l8.38767,1.86366v-3.74419h.93592l2.808,3.74419-8.42407,2.80778c-1.45259-3.91585.18733-2.30486-3.744-3.74371v-.90169a28.28706,28.28706,0,0,0-9.36,11.19737l-3.74395.93641,2.808-8.42382q-2.34018-2.34054-4.68011-4.68012c-2.645,4.72014-3.36206,11.5566,0,18.71951l-5.61581,2.80826,2.80778,10.29617-2.80778,1.87185v2.80778l-3.74419-1.87185-5.6158-6.552,4.67987.93641,2.808-9.36023c-2.53752-1.52468-2.73305-.45615-.93593-2.80827-2.68073-2.0329-5.50563-1.35495-8.42407-1.87185-.34549,4.07256.75824,4.32716-.93593,6.552-2.98787,1.801-.24808.91905-3.744,0-.12175,5.22113-3.12361,9.34963-4.68011,13.10395h-3.744L583.762,462.896c-3.47175-.76283-4.3937-.34911-7.4879.93592-.12729-5.55818-.82574-5.6064-2.808-6.55245-1.24694-2.68386-.58972-.271.93593-2.8073-6.22336-.87276-5.00005-2.47315-7.4879-6.55246l-.93617-2.80778c2.72653-1.79085,1.3441-.97354,4.68012-.93641-1.27105-6.82489-2.3784-4.67963,0-11.23161L565.978,430.1361H565.042c-.3303,5.01283-.20589,4.6454,1.8721,8.42383v.93593c-7.70609,1.13266-6.49025-.26183-12.168-4.68012l-10.29616,5.616c-2.78271-2.54113-2.06835-1.01741-2.80779-3.74371-5.90994,1.13893-4.64636.74836-4.68011,5.61557h-4.67988c-.22012-11.92837,1.10638-21.45738,5.6158-28.07975-9.43015-.60466-15.62651,6.41793-16.84789,3.74371-2.69375.60756-8.64853,3.79772-4.67988,4.68012l-2.808,1.87185c-3.4896,1.25273-1.41161-.78982-6.552-2.80778l.93592,3.74419-5.616,2.80779-.93593-4.67964c-1.827-1.57772-3.6046-2.12066-6.552-2.80826l4.67987,3.7437c-9.82795-2.17225-9.79517-7.95562-17.78382-5.61556v-5.61653h-4.68012c-1.80917,2.52763-1.14085,1.56326-.93592,4.68012-2.71448-2.246-2.95967-1.98227-3.74395-6.552-5.415,3.61159-7.10071,8.70494-14.04012,11.23209,2.12476,4.55089,4.5087,3.93128,4.68012,8.42383l1.87186.93641-6.552,2.80778-1.87185,2.80778c3.55662,1.29323,1.9355-.02507,3.74395,2.80826-3.72539-.947-5.99047-.37417-9.36.93593,2.3567,6.12138,1.26647,5.20136.93593,13.10443l1.8721-3.74468,1.87185-.93544c5.94273,7.64509,6.48181,9.46825,12.168,17.78406,2.354,2.085.54294,1.21656,3.74395.93545,1.87209,4.6724,2.16888,7.61375,7.48814,11.23209l.93593,1.87185.93592-4.67963c3.2039,2.396,2.6518,3.13085,5.61605,3.74419-1.69971,3.30492.54559,1.13989-2.808,2.80778l4.68011,3.74419,2.808-2.80826.93592-1.87186c-4.7522-5.01427-3.48091-2.93652-1.87209-11.23209l2.808-1.87185.93593,1.87185-3.74395,4.68012,3.74395,1.87185,2.808-.93592v-6.552c3.92,1.53673,4.92145,2.82031,9.36,1.87185l2.808,2.80778c-3.68319,3.28274-2.44566,1.72623-6.552-.93544-2.88855,2.56427-3.90115,7.50381-.93593,12.16753v1.87186c3.18992-4.92314,9.42822-12.65166,18.72-13.10395q-2.34018,6.08425-4.68012,12.1685c-4.14826-.77729-3.91512-1.17364-6.552-2.80826l-5.616,2.80826.93617,4.67964-2.808-1.87186c.27412,5.89668,1.18208,6.755-1.8721,8.42383l2.808,3.74419,5.616-5.616c-1.36,3.70079-1.30287,3.93128-4.68012,5.616l4.68012.93593a156.41878,156.41878,0,0,0,14.976-15.91173l.93593,1.87186c-2.12476,3.61641-2.65541,4.50267-1.8721,9.35975h.93617c2.38852-2.32752,4.28208-5.63244,1.87186-7.4879l5.616-2.80826q-.468,5.14831-.93592,10.29616l1.87185.93593c1.7636-2.26147-.1666-1.57386,2.808-3.74371H535.09l-2.80778,10.29568L528.538,500.336l-5.61581,1.87185-2.808,1.87186,7.4879,8.42382-2.808-1.87185c-.07113,4.61647.601,3.79482-.93593,5.616L524.794,518.12l-5.616-7.48838-.93592-1.87186h-.93593l3.74395,11.23209-7.4879,2.80779c-1.19631,5.129-.08246,16.57473,2.808,17.78406-1.02971,4.01325-.28087,2.62744-2.808,4.67964-1.80941-2.52667-1.1411-1.56278-.93617-4.67964l-1.87185-1.87234-8.42407,4.68012-.93593-1.87185c-1.73154-1.23055.19456-2.38394-.93593-5.616.96486-5.37157-1.7149-1.46006-2.808-4.67963l-5.616,4.67963,2.808,5.616h-6.552c.69918,6.64551-.56633,7.119-2.808,12.168l-2.808,1.87233.93593-3.74467-1.87186-.93545c-3.35193,4.5615-4.81585,5.35615-2.808,11.23209l-2.808.93545-3.74395-2.80778c.97426,16.84813-7.89535,20.70709-14.976,33.69579l1.87185.93641c-8.9294.18709-5.98179-1.393-11.23185-3.74419,0,0-10.44854,5.01041-21.528,0,2.18359,7.54046,7.59181,12.007,12.168,16.84813-3.96021,3.29721-5.24162,2.749-9.36,1.87186,1.15966,3.40618-.08053,5.96515-.93593,9.36023,5.70959,8.01108,13.99021,1.21657,18.72-2.80826l.93593,4.68012-1.8721,3.74371c-7.69283,1.5835-14.56135,5.13434-22.46394,1.87185l-.93592,1.87234h1.87185l-2.80778,1.87185h-3.74419l8.42407-10.29616-.93593-1.87185-6.552-.93593,2.808,3.74419-5.61605-2.80826c-2.2969,4.37875-3.07395,4.75582-5.616,1.87185-2.97173,3.44089-.49521,2.71472,0,10.29616l-11.23209-3.74419c-2.22482,3.52528-2.43915,3.02718-4.67988,4.68012,2.33355,2.67807,2.747,3.14242,7.4879,3.74419-2.64119,3.63425-1.77831.61672-.93593,4.67964v.93641c-6.57343.28063-13.92848.217-15.912-4.68012l-3.74395,4.68012c.56151,3.17183.73462,2.24169-.93616,4.68012,1.11482-8.70495-3.3312-11.07876-8.42383-15.91221l4.67988-3.74371-.93593,4.67963,5.616-.93592v-.93593c-2.30076-3.83774-3.04019-4.69892-8.42406-5.61605l.93592,2.80827c-8.17767-3.43511-17.57792-6.27134-23.39986-10.29617l-2.808,2.80779c3.89006,1.22813,2.96715.48411,4.68012,3.74419l-13.10419-4.68012-1.87185-2.80778,9.36,2.80778h.93592c-2.64142-8.85153-8.44167-10.435-13.10394-19.65592l5.616-6.552-4.68012-1.87234c-3.08118,1.38-2.546,1.84051-4.67987,3.74419l-4.68012-2.80778h-.93593c-2.15755,3.48285-.55138,1.13025,0,5.61556-3.25646,4.39949-1.97962,4.60828-6.552,4.68012l2.808,7.48838v.93593c-5.45234,1.05358-4.7334-3.00934-8.42407.93593-2.3849-3.03489-2.66384-2.35212.93593-3.74371l-3.74395-4.68012-5.616,4.68012,3.74419-9.36024c-2.84636-1.45187-3.00934-1.0044-4.68012-3.74419h-.93593c-3.13012,4.37393-.35947.68519.93593,7.4879l-.93593,2.80827-2.808.93592c-.82454-8.26229-4.095-6.212-2.808-10.29616-9.65751-2.45337-13.8388-10.61778-27.14406-12.16754v-5.61652l-5.61581,1.87233,1.87186-3.74419c-4.67144-2.84057-7.04718-6.92615-11.23185-7.4879l-1.8721-.93593,2.808,12.168-.93592,2.80778-4.68012-1.87185L240.25047,559.3037l3.74395-1.87185c-2.7668-8.69771-11.086-12.11932-8.42407-20.59233h-4.67988l2.808-4.68012c-5.56927-1.82942-6.38441-6.5621-12.168-10.29568l.93592,2.80826-1.87185,1.87186-.93617-1.87186c-1.57893-.52269,0-4.43613.93617-7.48838a65.32634,65.32634,0,0,1-10.46565-6.17394,233.94008,233.94008,0,0,0,22.306,45.68106l3.13543,2.613-.49955,1.49864q5.21777,7.90982,11.05658,15.349h.67506l.93593,1.87233h-.13984a234.50585,234.50585,0,0,0,183.74,88.57652c97.558,0,181.21812-59.45476,216.75732-144.10193.11548-.8583.21843-1.70791.25-2.50642l.67217.16781a233.14667,233.14667,0,0,0,8.05447-23.25835l-1.2385-.30956C656.92444,494.44988,658.03179,492.03074,659.13383,489.48189Zm-193.30755-37.818-4.68011-1.87185-4.67988-4.68012,5.6158,4.68012c.8771-.87806,1.91429-.90362,3.74419-2.80826l.93593,2.80826Zm2.80779,2.80827h.93616l.93593,2.8073h-2.808Zm5.616,15.91173c1.889,1.68476.69363-.0217,1.8721,2.80778Zm.93593-2.80779-6.552-.93641q2.34017-4.67962,4.68011-9.36023c3.41824,1.49767,1.40389,1.57579,4.67988,1.87233Zm3.74419-7.48838v-2.80826l1.87185,1.87233Zm3.74395-2.80826-5.616-3.74371c-.05617-6.61369.42023-6.52979,3.74395-9.36024h-3.74395l.93593-2.80778h6.552c-.5615,3.17232-.73461,2.24169.93617,4.68012l-3.74395,1.87185,1.87186,3.74419-2.808-.93641c3.08239,2.977,4.35055,2.56717,9.36,1.87234C487.86614,456.5388,487.09946,455.13274,482.67418,457.27944Zm8.42407-9.35976-3.74419-5.616h1.87209l1.8721,2.80826Zm-2.808-14.9758-1.87209-.93592c-.15165-4.18347,2.19781-2.76391-1.8721-3.74419l2.808-3.7442.93616.93641c.90869,2.73208,1.19149,3.01464,5.61581,4.68012Zm6.552,12.168.93592-1.87185,7.4879,3.74371V449.792l-3.744.93544C497.51714,447.11009,499.18141,446.84344,494.8422,445.1119Zm3.74395,22.46418,3.744-5.61652h1.87209C502.96562,466.35133,502.99648,466.359,498.58615,467.57608Zm4.67987-29.01615c-1.55-2.951.54849-.99234-2.80778-4.68012h4.67988V430.1361h2.808l.93593,1.87186-1.87185,3.7437Zm8.42407,6.552-3.74395,2.80778-.93592-3.74419Zm-2.808,17.78407q-.468-3.27648-.93593-6.552c1.77831.56127,5.56735,3.89174,7.4879,6.552Zm4.68012,27.14381c-4.331.57622-5.352,1.0208-8.42407-.93592h8.42407ZM437.7463,617.33553l-4.68012.93593,1.87209-2.80779h1.87186l.93617.93593ZM272.0744,602.35925l.93593-1.87186,8.42407,1.87186C277.89248,606.23025,277.71094,603.76338,272.0744,602.35925Zm3.74395-5.61557.93617-1.87185,5.6158,4.68012-.93592,1.87185Zm6.552,11.23209.93617-1.87185.93593,1.87185Zm7.48815-9.36023-2.808.93641v-2.80827h2.808Zm35.56788,8.42382-.93593-5.61556,3.744.93545,1.87186,2.80826Zm27.14406,32.75987v3.74467h-3.74419q-.468-2.34054-.93593-4.68012Zm-3.74419,7.48838q2.34018,2.33982,4.68012,4.68012C350.09558,650.19954,350.30509,651.31243,348.82622,647.28761Zm21.528-6.552-2.808-.93641,2.808-3.74371,3.744,1.87185C369.95378,639.20517,372.19258,637.246,370.35423,640.73564Zm4.68012,1.87185,3.74395.93641-2.808,1.87186Zm14.9758,14.9758-10.29592-2.80778c-2.03194-1.88584-.77319-.26858-.93593-4.67964l12.168,1.87186,1.87185,1.87185C390.10394,657.10882,390.64953,653.34,390.01015,657.58329Zm10.29617,0-.93617-2.80778,2.808.93593Zm64.5838-69.26343,1.87209,2.80778-2.808-1.87234Zm-1.87186,12.16753c-1.21029,2.7938.0393,1.1235-1.87209,2.80827l-.93593-2.80827Zm-22.46394,14.04036v-.93641l2.80778-1.87186h.93617C445.51507,614.3069,443.30135,613.67042,440.55432,614.52775Zm2.80778-3.74419-3.74395-1.87186c2.72195-5.4926,3.64-4.14007,9.36-6.55245l4.68012,2.80826C448.59818,609.28588,444.1635,608.86686,443.3621,610.78356Zm9.36.93592-.93593,2.80827-1.8721.93592v-4.68011l.93617.93592Zm3.74419,19.65592c1.41522,3.61979.95931,4.14393-.93617,8.42383,3.1,2.29907,1.72889,2.355,3.74395-.93545,1.97962,1.24839,3.26007,1.85691,4.68012,3.74371l2.808,2.80827c-11.71307-1.52468-15.25691-6.199-18.72-15.91221Zm-4.68012,9.36024-.93593,2.80826v-2.80826Zm-4.67988,12.16753-.93617,1.87234-.93592-1.87234Zm-5.616-2.8073,1.87185.93545-.93593,2.80826C440.58976,651.406,441.51267,652.96152,441.49025,650.09587Zm-13.10395-5.61652h2.808c-1.04658,3.38689-.73774,2.74943-2.808,4.68011l-1.87209-.93592Zm-14.04011-21.52778,2.808.93593v.93593q-.93592,2.34054-1.87209,4.68012C412.27591,626.78883,412.96858,627.1008,414.34619,622.95157Zm-7.4879,10.29569h.93593l-.93593,3.74419h-.93593C404.95823,633.76416,404.639,636.40462,406.85829,633.24726Zm22.46394,29.95256v-6.552l-17.78406,3.74371c-1.32241-4.114-2.59731-6.27954-1.87186-10.29569h-3.74395l-2.808-2.80826,4.67988-3.74371,18.72,11.23161c2.51413-4.11837,4.52847-4.77366,9.36-6.552h.93593l-2.808,8.42431c5.65076-2.3121,9.76816,1.18714,19.65616,0l1.87185,2.80778Zm30.888-15.91221-.93617,2.80826-2.80778,1.87186c.06533-4.698-.28088-2.9076.93593-5.61653h2.808Zm5.616,5.61556.93593-1.87185h.93593l.93593,1.87185Zm2.80779-18.71951.93616-1.87185h2.808Zm19.65615-70.19984,2.808-4.68012c1.74552,1.217,1.3441,2.0059,2.80778,4.68012Zm15.912,0-.93617-2.80826,3.7442.9364Zm94.53588-97.34415.93593,4.68012-1.87209.93593Q598.27023,469.44795,598.73807,466.63967Zm.93593,34.63172-2.808,2.80827-.93593-2.80827Zm-3.74395,17.78407h-4.68012l3.74419-4.67964Zm-3.744.9364-3.74419,2.80779,1.8721-2.80779Zm0-14.97579h.93593l-1.8721,2.80729Zm-.93617,4.67963c-1.11289,4.13814-1.463,1.02369.93617,4.68012l-2.808.93593-.93617-4.68012,1.8721-.93593ZM587.506,477.87176h1.8721l.93593,1.87186-4.67988,1.87185Zm-10.29592,25.272.93593,1.87234h-1.87186Zm-4.68012,3.74419V517.1836l-2.808,1.87186v-4.67964l-.93593-1.87234C570.64483,509.44111,569.86537,509.92763,572.52994,506.88792Zm-3.744,18.71951c-2.24627,1.09553-1.22789,2.32125-2.808,0Zm-7.4879-34.63172c1.37954,1.651,2.02085,4.13621,2.808,6.552v.93593H563.17C559.88649,495.15532,561.428,494.38382,561.29809,490.97571Zm-18.72-.93593,1.87186.93593v.93593l-1.87186.93592-.93593-1.87185Zm-5.616-17.78406v.93593l-2.808.93641-.93592-2.80827Zm-11.23185-8.42383h.93592l-1.87209,2.80778Zm7.4879,29.95208c.32017-6.03555-1.3863-7.62243-8.42407-8.42431V480.68l2.808-3.74419,10.29592.93592c-1.81471,3.82761-1.33662,9.61291-2.808,14.9758Zm-7.4879,24.336H528.538l-3.744,2.80778Zm1.87185,19.65592c4.00506-1.6269.96414-.974,4.68012.93544,1.61822-5.33493,3.54818-7.66,6.552-11.23161L535.09,525.60743l.93617,2.80826-2.808.93593c.18708-5.74238,1.91043-4.26785,4.67987-9.35976l-3.74395-4.68011h12.168c-2.09848-1.8-2.00687-1.084-5.616-1.87186a85.83425,85.83425,0,0,0,.93616-18.72047h.93593c1.46754,6.23228,2.62817,5.50177,4.67988,8.42431l1.87209.93593.93593-.93593c-1.3617-3.72973.05521-2.19106-2.808-2.80778,1.259-6.6812,2.50665-9.29563,4.68012-15.91221,5.31636,3.99493,7.0602,9.828,7.4879,18.72h4.68011c-2.39237,5.08178-1.59122,2.45964-5.616,0-2.17708,4.35609-4.96075,7.96526-4.68012,14.03987-2.33427-3.42932.01977,2.36658,1.8721,4.68012-2.90157,4.64251-3.26755,1.87185-.93593,5.616l-2.808,4.67964-9.36-10.29568c.53451,4.94291,7.08166,13.291,8.42407,14.03987-6.62888,6.75787-18.428,7.40689-29.01616,10.29617C525.43993,542.524,528.14115,543.3534,527.60206,537.77593Zm21.528,6.552c-1.84678,1.49768-1.27755,1.26912-4.68011,1.87186l.93616-1.87186ZM535.09,549.94346H534.154l-.93592-2.80778C535.10684,548.82045,533.91173,547.114,535.09,549.94346Zm-3.744-.93544-2.808,3.74371v-4.68012l.93617.93641Zm-4.67988,12.16754V559.3037C527.51961,560.96966,527.5806,559.54238,526.66613,561.17556Zm1.87186,49.608-1.87186-3.7442,3.744,1.87234Zm4.68012-42.11962-3.744-5.61653c3.844-.01447,1.2925,1.20113,3.744-.93545l3.74395,5.61557Zm6.552-22.46418h.93593l.93616,2.80826-2.808.93544Zm.93593,5.61556v-1.87186C541.55972,551.60991,541.62048,550.18263,540.706,551.81532Zm15.912-13.104,2.808-1.87185v4.68012h5.616q-.468-4.2124-.93593-8.42383c6.179.04725,8.72351-2.50931,11.3958-6.22457l-.16395-.3274c.17528-.01881.27678-.01591.42457-.026,1.0056-1.42053,2.04544-2.98764,3.31938-4.65408,3.77964,1.90079,5.616,2.62069,7.48815,6.552h3.744l-1.8721-3.74371c3.77119.40408,2.84274-.24832,5.616-2.80826l.93616.93593c-4.446,9.0309-14.12811,21.44531-25.2722,20.59184V549.008H568.786l-3.74395-.93641,2.808-4.68012c-7.15012.13019-7.4797,1.543-7.48789,8.42383-9.902-1.68477-11.25355,11.04982-10.29617,15.91221l-2.808-2.80778-6.552,2.80778C545.71932,561.1582,556.24355,548.14876,556.618,538.71137Zm24.336,20.59233H584.698l-1.87185,3.74371h-2.808Zm-10.29592-1.87185-3.744,3.74371.93592-3.74371Zm-10.29592,1.87185L553.81,561.17556l2.808-6.552C559.31847,556.29436,558.96358,556.43275,560.36217,559.3037Zm-3.7442,35.56813v-1.87234C557.47169,594.66545,557.53244,593.23817,556.618,594.87183Zm12.168-3.74419c-3.2133,3.53347-3.87414,1.26381-10.29592.93592v-.93592l6.552-1.87234,3.74395.93641Zm-1.87185-4.68012,1.87185-2.80778h.93593l.93617,2.80778Zm4.67987-.93593v-2.80826l3.74395.93641Zm18.72-22.46418a24.27606,24.27606,0,0,1-13.104,7.48838q.93593,2.33982,1.87185,4.68012c-11.64942.28063-8.56607,1.24115-15.912,7.48742l-4.67988-2.80778v4.68011l-5.616-.93592v6.552c-2.6976-2.80826-2.90156-5.37736-.93592-10.29616h-5.616v-6.552l5.616-2.80778q-.468,3.27574-.93593,6.552h.93593c4.05014-2.911,2.58236-.72424,1.87185-4.68011l.93617-2.80827c3.101,2.80827,1.52275.4412,1.87185,4.68012,6.9452-1.76577,7.75214-9.10468,14.04012-12.16754,4.39924-2.62117,5.177,1.98758,8.42382,5.61557,1.8721-3.23356,6.6325-4.91736,11.2321-5.61557Zm-.93593-9.35975-8.42407,4.68011a99.02972,99.02972,0,0,1,4.81272-8.82934l-.1326-.53041.2083.41613a46.024,46.024,0,0,1,4.47158-6.03266C591.92017,547.221,590.46276,550.2241,589.37808,553.68766Zm6.552-13.104v1.87185c-1.68476-2.1086-1.81954-3.2403-1.87209-7.4879h5.616Zm2.808,4.67964-.93616-.93545.93616-1.87234h.93593q.468.93666.93593,1.87234Zm2.808-26.20789q-.468.93592-.93617,1.87233-.468-4.21167-.93593-8.42431l3.744.93641Zm5.6158-8.42383-2.808-.93593q.468-.93592.93617-1.87234h1.87185ZM627.754,550.87987c-3.14315-1.29564-1.95166-.53908-3.744-2.80826l3.744,1.87185Zm2.808-.93641q.468-1.40316.93593-2.80778h.93592q.468.93593.93617,1.87234Zm2.808-11.23209c-3.34711-2.79669-1.47043-5.38507,0-8.42382,1.39738,1.26092.96679,3.36133,1.87186,6.552h-2.808Q632.90183,537.77545,633.37,538.71137Zm7.4879-11.23161-1.87209.93593,2.808-5.616Q641.32589,525.13947,640.85793,527.47976Zm.93593-97.34366v-2.80826l1.8721,1.87185Zm3.74419,73.00763h-.93617q.468-1.87185.93617-3.74419l.93593.93641Q646.006,501.73911,645.53805,503.14373Zm5.61581.93593h-.93593V500.336l2.808,1.87185Zm2.808-6.552-4.67988.93593v-3.74419l4.67988,1.87234Z"/>
      <path class="cls-2" d="M395.6262,210.17633c-2.7369,2.01651-2.30052,1.3101-6.552.93544v-5.61556l-3.744-.93641-4.68011,4.68012c4.89252,1.66548,6.11414,2.29136,10.29616,3.74419-3.06816,4.534-5.00294,6.81477-12.168,7.4879,2.16768,3.80013,2.32029,4.61261,6.552,6.552l4.67988-1.87185-2.80778-5.61605c21.48486-.00626,29.53909.92484,45.86381,0v6.552h3.744c-2.193-6.33306-5.70959-11.58168-2.808-17.78407-2.04038-1.5512-3.40594-1.07817-8.42383-.93592l2.808-4.68012c-9.00727,1.48658-9.989,1.19-15.912,5.616q.93594-3.27575,1.87186-6.552c-3.55662.53475-5.9191.85492-8.42383-1.87185-1.56349-.89977-1.94587-1.12688-1.89283-1.64571-3.33939.38671-6.66432.81682-9.95935,1.34193q1.71417,3.42764,3.42811,6.85575C396.59491,209.8253,397.56,208.33871,395.6262,210.17633Zm-12.168,14.9758q.46833-1.87185.93617-3.74371l2.808,2.8073ZM419.02631,208.304l6.552,1.87234-1.8721,1.87185-4.67987-.93641Zm-10.29617-3.74419h.93617c-.11789,2.95774,1.0126.58056-.93617,2.80827l-1.87185,1.87185C407.29057,205.40267,406.70664,207.85122,408.73014,204.5598Z"/>
      <polygon class="cls-2" points="448.042 257.912 445.234 257.912 446.17 259.784 448.042 257.912"/>
      <path class="cls-2" d="M631.49794,439.53009l.0364-.026-.0364-.00819Z"/>
      <path class="cls-2" d="M411.53817,198.00783h1.87209l-.608-.608c-.893.06992-1.79036.12392-2.68072.204q-.22748,1.13844-.45519,2.27641Z"/>
      <path class="cls-2" d="M388.1383,201.752l-.94726-.9475c-.50582.09644-1.01838.17262-1.52323.272l-.33754.67555Z"/>
      <path class="cls-2" d="M665.194,417.9676h-2.808q.468,2.80851.93592,5.61653Q664.25781,420.77562,665.194,417.9676Z"/>
      <path class="cls-2" d="M652.09,383.33588h-1.87209C651.88413,384.18936,650.45661,384.25011,652.09,383.33588Z"/>
      <polygon class="cls-2" points="517.306 478.808 514.498 478.808 515.434 480.68 517.306 478.808"/>
      <path class="cls-2" d="M227.14652,323.43172l2.808,1.87234h.93593q-.93592-2.80851-1.87209-5.616c2.48519-1.19824,3.40617-3.02621,9.36-2.80826-.73847-4.11789.5767-2.83768-1.87185-3.74371,3.49393-4.13139,3.46307-3.1646,8.42382-.93641q.46833-4.21095.93617-8.42383l4.67988.93641,2.808-1.87234-2.808-4.67963h4.68012q.468-3.74444.93592-7.48838c3.38834-1.59122,3.8469-1.476,8.42407-.93593l6.552-14.03987h16.84789q.468-3.74372.93593-7.48839c5.5131-1.2913-.03544.244,5.616.93641,2.73787-3.09372,2.13682-4.7023,6.552-6.552,3.10842-1.71755.33054-.86312,3.74395.93593,2.13127-4.74811,5.45692-5.23319,14.976-4.68012q.468-2.33982.93592-4.67964l4.68012,3.74371c2.51775-3.04453,2.749-3.48911,8.42407-3.74371q-.93628-4.21239-1.8721-8.42431l11.2321-2.80778-.93617,2.80778,5.616-1.87185-6.552-5.61605q.468-2.34054.93593-4.68011l5.616-.93593c1.2103,2.79428-.0393,1.123,1.8721,2.80778-2.05919,2.47845-.63456,1.83666-4.68012,2.80826l12.168,4.68012q.93592-4.21239,1.87209-8.42382l-4.68011.93544c-2.75185-2.68482-2.44566-2.545-1.87186-6.552,1.02947-4.01325.28063-2.627,2.80778-4.68012l3.74419,2.80826-1.87209-2.80826,12.168-4.67964.93592-1.87233-.93592-.93545-14.976,5.61557-9.88293-9.123c-.97836.3896-1.96709.757-2.9387,1.15918q-.141.70591-.28232,1.41184a62.21375,62.21375,0,0,0-9.38869,2.85841,235.915,235.915,0,0,0-94.5137,80.21008l.94244.2353v3.74419l-3.28732-.46965c-.28425.4306-.55475.87132-.83611,1.30432l1.31541,1.97312h-1.87186v-1.10518q-2.8009,4.34764-5.41593,8.82067l3.54384.70882C229.38339,317.11505,228.55981,318.78535,227.14652,323.43172Zm120.74377-94.53588-2.808,2.80826-.93593-1.87185,5.616-3.74419C349.27176,227.95171,350.82754,227.2347,347.89029,228.89584Zm-2.808-2.80778-3.74395-2.80778C344.48146,224.57543,343.29,223.81936,345.08227,226.08806Zm-3.74395-.93593v4.68012h-.93593q-.93593-2.34054-1.87209-4.68012ZM289.85847,261.6557l2.808.93641.93593,1.87186-4.68012-.93593Zm-11.2321-3.74371h.93593l1.8721,1.87186-3.74395,2.80826-.93593-2.80826Zm.93593,12.168q-.468,1.40389-.93593,2.80778l-1.87185.93641q-.46833-2.34054-.93617-4.68012Zm-36.50381,21.52826c3.026.98993-.11524,3.11011-1.8721,4.67963v1.87234h-.93592Z"/>
      <path class="cls-2" d="M587.506,552.75173l-1.66355-3.32758c-.02435.03857-.05135.0757-.0757.11428l.80333,3.2133Z"/>
      <polygon class="cls-2" points="647.41 366.488 643.666 366.488 645.538 369.296 647.41 366.488"/>
      <path class="cls-2" d="M401.24224,617.33553l1.8721,2.80778h-4.68012l.93593,1.87234h-1.87186v3.74419c4.74546-1.31638,5.6973-2.82948,8.42407.93544l2.80778-2.80778-3.74395-6.552Z"/>
      <polygon class="cls-2" points="406.858 567.728 404.986 567.728 404.986 569.599 406.858 567.728"/>
      <polygon class="cls-2" points="394.69 615.464 393.754 617.336 396.562 620.143 397.498 617.336 394.69 615.464"/>
      <path class="cls-2" d="M402.17817,519.99186v-.9364l-.93593-2.80779h-3.74395c-.74425,3.52721-1.2168.54391.93593,3.74419Z"/>
      <polygon class="cls-2" points="395.626 611.719 403.114 609.848 398.434 605.168 395.626 610.784 395.626 611.719"/>
      <path class="cls-2" d="M358.18622,534.96766h-1.87186C357.98032,535.82114,356.553,535.88189,358.18622,534.96766Z"/>
      <path class="cls-2" d="M441.49025,496.59176c-1.33012.96389.09354,1.33276-3.74395.93592l-.93617,2.80827c2.78946,2.15248,4.57138,5.23174,9.36,7.48741C446.50259,500.578,446.11781,498.874,441.49025,496.59176Z"/>
      <polygon class="cls-2" points="438.682 592.064 440.554 592.999 442.426 590.192 439.618 590.192 438.682 592.064"/>
      <polygon class="cls-2" points="429.322 622.952 427.45 621.08 426.514 622.952 429.322 622.952"/>
      <path class="cls-2" d="M420.89816,611.71948c1.67078,2.70026,1.80941,2.34585,4.68012,3.74419C423.83252,612.23735,424.81811,612.92977,420.89816,611.71948Z"/>
      <polygon class="cls-2" points="414.346 531.224 416.218 529.352 411.538 527.48 414.346 531.224"/>
      <polygon class="cls-2" points="390.946 408.608 391.882 408.608 393.754 405.8 390.946 405.8 390.946 408.608"/>
      <polygon class="cls-2" points="361.93 303.776 364.738 300.968 362.866 300.968 361.93 303.776"/>
      <path class="cls-2" d="M365.67436,490.03978l1.87185,1.87186h3.74419q-.93628-3.27574-1.87209-6.552Z"/>
      <path class="cls-2" d="M357.25029,300.968l3.74395,3.74419c-.65505-3.38014-.37442-2.82321-1.87186-4.68012Z"/>
      <polygon class="cls-2" points="372.226 582.703 375.034 582.703 373.162 580.831 372.226 582.703"/>
      <polygon class="cls-2" points="407.794 359 404.986 359 404.986 360.872 407.794 359.936 407.794 359"/>
      <path class="cls-2" d="M359.12238,492.84756l-2.808-4.68011C357.36071,491.55434,357.05187,490.91688,359.12238,492.84756Z"/>
      <polygon class="cls-2" points="399.37 351.512 401.242 352.448 399.37 348.704 399.37 351.512"/>
      <path class="cls-2" d="M394.69027,380.52762c4.39924.72907,6.8543-4.48628,12.168-4.67964l-2.808-7.4879-7.4879-1.87185c-.6066,4.04508-.55139,4.305.93592,7.48742l-4.68012-.93545Q393.75447,376.78392,394.69027,380.52762Z"/>
      <path class="cls-2" d="M375.03435,307.52l2.808-.93592v-.93641l-3.74419-2.80779C373.53668,306.01219,373.36357,305.08639,375.03435,307.52Z"/>
      <polygon class="cls-2" points="387.202 558.368 384.394 556.495 386.266 559.304 387.202 559.304 387.202 558.368"/>
      <path class="cls-2" d="M383.45818,625.75984l-.93593,3.74371,1.8721,1.87185c6.82706-3.55662,6.11294-3.60436,11.23185-3.74371l.93617-2.80826-4.68012-1.87186Z"/>
      <polygon class="cls-2" points="439.618 243.872 442.426 243.872 439.618 242 439.618 243.872"/>
      <path class="cls-2" d="M352.57041,446.98376v-2.80827h-3.74419C347.60942,446.76291,349.82314,446.12643,352.57041,446.98376Z"/>
      <polygon class="cls-2" points="343.21 440.432 343.21 443.24 346.018 443.24 343.21 440.432"/>
      <polygon class="cls-2" points="352.57 291.608 355.378 288.8 352.57 287.864 352.57 291.608"/>
      <path class="cls-2" d="M574.402,536.83952l2.808.93641h3.744l-6.552-8.42431-1.8721,3.74419C576.02026,535.40549,573.77857,532.93476,574.402,536.83952Z"/>
      <path class="cls-2" d="M346.01844,256.04014l-1.8721-3.74419q.468,1.87257.93593,3.74419Z"/>
      <polygon class="cls-2" points="343.21 294.416 339.466 290.672 337.594 293.48 339.466 295.352 343.21 295.352 343.21 294.416"/>
      <path class="cls-2" d="M337.59437,274.76013q-.93593,3.27575-1.8721,6.552l3.744,6.552h5.616q-.468,3.74371-.93593,7.4879l7.4879-1.87185c-.37442-2.05943-.84985-1.87185-1.87185-5.616l3.744-1.87233-3.744-4.67964c6.59392,2.16358,7.35313,5.68789,12.168,4.67964a65.41442,65.41442,0,0,1,2.80778,10.29616c4.15405-.98559,3.02525-1.77831,5.616,0l-1.87185-.93593.93593,2.80827,3.74395.93544-1.87186-2.80778c3.64269-1.75372,4.0798,1.74118,4.67988-4.67963,3.6504,3.45728.88264,1.80627,0,7.48741l7.4879-1.87185c3.61111,3.276,4.11837,7.58193,3.74419,14.9758,3.744-1.87186,1.80821-.19239,1.87185-3.74371l2.808-.93593q-.93592,3.27575-1.8721,6.552c5.03477,2.92206,5.55336,3.08889,11.23209,4.67963h.93593v-.93544c-2.01506-4.35609-1.39449-5.009-7.4879-5.61653q.468-3.275.93593-6.552l-5.616.93641q.46833-2.80779.93617-5.616c3.31987,1.67368,6.3562,3.38737,9.36,2.80778h1.87185c-.34332-3.80832-1.2467-3.167.93617-8.42383l-7.48814-.93592c1.23922-4.11837.93617-3.93128,3.744-7.4879-2.72364-1.80724-2.106-1.18136-5.61581-.93641,2.309-2.83045,5.35374-3.506,7.4879-6.552v-7.48742c-4.4571-.14755-.92941,1.47164-8.42407,0v9.35975L388.1383,283.184l-4.68012,5.616c3.891,1.435,4.84382.4007,9.36-1.87185-3.62967,7.39435-7.52816,5.82483-13.10394,7.4879v-4.68012c-5.0543-.38093-5.70959-.0757-11.23185,2.80778-2.5122-4.15646-6.94062-10.19249-7.48814-13.10394l-22.46394-4.67964Zm8.42407,17.78358v-2.80778l1.87185,1.87234Zm0-5.61556-2.808-1.87186C346.00421,286.26659,344.33343,285.01675,346.01844,286.92815Z"/>
      <path class="cls-2" d="M333.85042,285.99174c-1.685-1.88825.02146-.69339-2.808-1.87186l1.87185,1.87186Z"/>
      <polygon class="cls-2" points="325.426 418.904 327.298 419.84 329.17 417.032 324.49 416.096 325.426 418.904"/>
      <path class="cls-2" d="M342.27425,247.61631h-7.4879V251.36h6.552Z"/>
      <polygon class="cls-2" points="326.362 443.24 328.234 441.368 326.362 441.368 326.362 443.24"/>
      <path class="cls-2" d="M324.49042,276.632h-1.87209C324.28453,277.48594,322.857,277.54669,324.49042,276.632Z"/>
      <path class="cls-2" d="M331.97832,447.91968l12.168.93593v.93641c-5.57192,2.05219-6.803,5.37736-6.552,13.10395,3.15423,2.60767,8.35656,5.4521,14.03987,2.80778,3.77867-2.192,4.20179-4.92459,5.61605-9.35976-6.94689-5.01813-13.01691-10.52183-23.39987-12.1685Z"/>
      <polygon class="cls-2" points="364.738 283.184 366.61 285.056 367.546 285.056 365.674 281.312 364.738 283.184"/>
      <path class="cls-2" d="M330.10623,309.39233,328.23437,307.52q.468,1.40389.93593,2.80778Z"/>
      <path class="cls-2" d="M419.02631,441.36771l1.87185-1.87185-4.67988-4.68012q.93594,3.27575,1.87186,6.552Z"/>
      <path class="cls-2" d="M408.73014,492.84756v.93641c5.27442,1.692,13.60205,2.274,17.78407,4.67964q.93593-4.21167,1.87209-8.42383l-2.808.93593c1.54517-3.48718.366-2.19974,3.74395-3.74371v-.93641c-3.59327.58056-4.66975.68374-6.552,2.80827l-2.808-.93641,2.808-5.61557-3.74395-.93641C418.05831,485.02551,410.79873,490.48725,408.73014,492.84756Z"/>
      <polygon class="cls-2" points="415.282 287.864 413.41 285.992 414.346 288.8 415.282 287.864"/>
      <path class="cls-2" d="M424.64211,226.08806v-3.74419h-2.80778q.468,2.34054.93593,4.68011Z"/>
      <path class="cls-2" d="M428.3863,230.76817c4.86721.59695,6.80753.66832,10.29592-1.87233h-5.616l-3.74395-7.48742-3.74395,6.552C429.21084,227.42565,427.717,226.85377,428.3863,230.76817Z"/>
      <path class="cls-2" d="M406.85829,282.248l.93593,4.68012-5.616-1.87186c1.2168,3.76879,1.46585,4.74425,4.68012,6.552,2.71424,2.80054.93593,1.46006,4.67988,1.87185,1.77276-5.6551-2.90157-5.94634-1.87186-11.23209Z"/>
      <path class="cls-2" d="M405.92236,270.08h.93593c-1.462-3.97226-1.24308-2.99487-4.68012-4.67963C402.08463,269.25788,402.02749,268.08038,405.92236,270.08Z"/>
      <path class="cls-2" d="M366.61028,227.024l-2.808-1.87185C362.024,227.76752,363.89581,226.52733,366.61028,227.024Z"/>
      <path class="cls-2" d="M390.01015,278.50432c-1.21005-2.79428.0393-1.1235-1.87185-2.80826Z"/>
      <polygon class="cls-2" points="373.162 284.12 370.354 284.12 373.162 287.864 373.162 284.12"/>
      <polygon class="cls-2" points="386.266 278.504 383.458 277.568 381.586 280.376 383.458 281.312 386.266 278.504"/>
      <path class="cls-2" d="M390.01015,260.72026l-5.6158-.93641c-.97547,2.46109.773,1.98179-1.8721,1.87185l-.93593,2.80827,3.74395.93641Z"/>
      <polygon class="cls-2" points="391.882 257.912 388.138 256.04 388.138 259.784 390.946 259.784 391.882 257.912"/>
      <path class="cls-2" d="M309.51438,291.60827c1.754-2.70219,1.2074-.68278,0-3.7442Z"/>
      <polygon class="cls-2" points="286.115 312.2 286.115 316.88 287.986 315.008 286.115 312.2"/>
      <path class="cls-2" d="M261.77848,299.09568v-.93544h-3.74395l2.80778,2.80778Q261.31064,300.03209,261.77848,299.09568Z"/>
      <path class="cls-2" d="M245.86651,347.76776c-1.68476-1.88873.02146-.69339-2.808-1.87186l1.87185,1.87186Z"/>
      <path class="cls-2" d="M251.48256,345.8959l1.87185-3.74371,1.8721-.93641a25.97582,25.97582,0,0,1,4.67987,10.29617h.93593c3.09734-15.89341,3.22463-13.12082,11.23209-22.4637h-3.744c.18709-6.4213-.0094-10.18767-2.808-12.1685-1.95624,2.90181-2.70315,2.79138-5.616,4.68012l5.616,6.552q-.468,1.40462-.93593,2.80826l-1.87209.93593c-3.03924-3.94719-2.56549-4.94677-11.23185-3.74419q.468,2.80778.93592,5.616l4.67988-3.74419c-1.54421,4.97908-2.09848,4.53546-.93593,8.42431h-4.67987l-4.68012,11.23161c1.82508-2.02326,2.194-2.9886,2.808-6.552Z"/>
      <path class="cls-2" d="M273.9465,308.45592q-.468,1.40462-.93617,2.80826l3.74419-2.80826Z"/>
      <path class="cls-2" d="M278.62637,307.52q.468-.93592.93593-1.87233l-3.74395-1.87186-1.87185,1.87186q.468.93664.93593,1.87233Z"/>
      <path class="cls-2" d="M263.65033,290.67186l-2.808,2.80826v3.74371C263.599,294.89438,264.28682,294.024,263.65033,290.67186Z"/>
      <path class="cls-2" d="M540.706,535.90359l-.93593,1.87234,1.87209.93544h.93593C541.36781,535.91758,542.6174,537.58836,540.706,535.90359Z"/>
      <polygon class="cls-2" points="548.194 519.055 548.194 520.928 550.066 519.055 548.194 519.055"/>
      <polygon class="cls-2" points="527.602 481.615 529.474 483.488 531.346 481.615 528.538 479.744 527.602 481.615"/>
      <path class="cls-2" d="M241.18639,431.07155q-.468,1.87257-.93592,3.74419l2.808.93592C242.4032,432.372,242.68407,432.92894,241.18639,431.07155Z"/>
      <path class="cls-2" d="M246.80244,445.1119l.93593-1.87185-5.61581-5.61653c.06727,4.70808.09355,3.78807-1.87209,7.48838l2.808,2.80778Z"/>
      <path class="cls-2" d="M584.698,530.28755l-.93593-4.68012c-2.471.95087-.75727-.46772-1.87209,1.87233l-2.808-1.87233c-2.45216,1.89018-.47013.71123-3.31938.91037-.087.123-.17383.2329-.26062.35344l2.64408,5.28816Z"/>
      <path class="cls-2" d="M290.79439,495.65583c4.007-.42336,1.5201.39009,4.67988-1.87186v5.61557l2.808,1.87185,5.61605-8.42383-.93593-.93592a49.008,49.008,0,0,1-13.10394-1.87186Q290.32642,492.84757,290.79439,495.65583Z"/>
      <polygon class="cls-2" points="312.322 450.727 306.706 448.856 310.45 452.6 311.386 452.6 312.322 450.727"/>
      <polygon class="cls-2" points="311.386 461.96 314.194 462.896 312.322 460.088 311.386 461.96"/>
      <polygon class="cls-2" points="299.218 505.016 303.898 505.952 300.154 502.208 299.218 505.016"/>
      <path class="cls-2" d="M317.93845,599.552h-1.87209C317.73232,600.40542,316.305,600.46618,317.93845,599.552Z"/>
      <polygon class="cls-2" points="321.682 468.512 318.874 468.512 319.81 470.384 321.682 468.512"/>
      <path class="cls-2" d="M299.21846,590.19171l.93593,3.74371c3.07009-3.36953,2.748-2.246,0-5.61556Z"/>
      <path class="cls-2" d="M288.9223,298.16024v1.87185l1.87209,1.87186C290.35343,299.43611,291.413,300.45883,288.9223,298.16024Z"/>
      <path class="cls-2" d="M325.42635,456.344l-3.744,2.80778-.93617,2.80779v.93641h6.55222C327.06724,458.85812,327.06435,458.39185,325.42635,456.344Z"/>
      <path class="cls-2" d="M260.84231,356.19158l1.8721-1.87185h-2.808Z"/>
      <path class="cls-2" d="M244.93034,556.49544l.93617,2.80826q2.33982,2.33982,4.67988,4.68012C249.85469,558.81042,249.44,557.91211,244.93034,556.49544Z"/>
      <polygon class="cls-2" points="445.234 214.856 434.002 209.24 434.002 213.92 443.362 216.728 445.234 214.856"/>
      <path class="cls-2" d="M311.38648,298.16024l3.74395-1.87234-7.48814-4.67963c-2.43361,2.55222-3.114,2.75908-8.42383,2.80778l-2.808,2.80778v.93641C302.28566,299.43418,311.19915,296.3096,311.38648,298.16024Z"/>
      <polygon class="cls-2" points="308.578 262.592 308.578 265.4 310.45 264.464 308.578 262.592"/>
      <path class="cls-2" d="M622.13794,434.81574l4.68012-.93593-3.74419-2.80826Q622.6059,432.94412,622.13794,434.81574Z"/>
      <polygon class="cls-2" points="607.162 313.136 607.162 316.88 609.97 314.072 607.162 313.136"/>
      <polygon class="cls-2" points="616.522 432.944 618.394 433.88 619.33 432.944 617.458 431.072 616.522 432.008 616.522 432.944"/>
      <path class="cls-2" d="M445.2342,387.07959q.468-2.33909.93592-4.67963l-3.74395-1.87234-2.808.93641Z"/>
      <polygon class="cls-2" points="605.29 325.304 605.29 327.176 608.098 327.176 605.29 325.304"/>
      <path class="cls-2" d="M629.62584,404.86366H627.754C629.42,405.71713,627.99267,405.77837,629.62584,404.86366Z"/>
      <path class="cls-2" d="M616.5219,406.73551q-.468,2.34054-.93593,4.68012l2.808-2.80778Z"/>
      <path class="cls-2" d="M625.88189,412.352l3.744-1.87186-7.4879-2.80826c-1.023,3.25284.06558,1.77831.93593,7.4879Z"/>
      <path class="cls-2" d="M607.1619,403.92773l1.8721,1.87234q.468-.93594.93592-1.87234l-2.808-1.87186Z"/>
      <polygon class="cls-2" points="559.426 253.232 558.49 255.104 561.298 255.104 559.426 253.232"/>
      <polygon class="cls-2" points="586.57 320.624 588.442 318.752 585.634 315.944 586.57 318.752 586.57 320.624"/>
      <path class="cls-2" d="M549.13007,244.80805l3.74395,3.74371C551.30257,245.21309,552.66451,246.3144,549.13007,244.80805Z"/>
      <path class="cls-2" d="M594.058,329.04825h3.744c.83032-3.05418-1.35519-2.71472,0-7.48838-5,.24157-3.65041-.271-7.4879-2.80827q-.468,3.27646-.93593,6.55246C595.31406,324.48,592.9441,325.54949,594.058,329.04825Z"/>
      <polygon class="cls-2" points="570.658 383.336 570.658 388.016 572.53 388.952 574.402 386.144 570.658 383.336"/>
      <path class="cls-2" d="M592.1861,406.73551c-.08631-4.25193-.17238-5.36386-1.87209-7.48742L584.698,402.9918l-6.552-4.68012c-3.25453,3.276-3.43125,2.571-7.4879.93641l-.93617,2.80778c3.59351,4.26785,5.76118,7.69235,3.74419,12.168,5.672.90073,3.32565,3.05032,9.36,6.552,1.1288-3.74371,1.33276-3.39557.93592-7.48839h4.67988l.93617,1.87234-2.808,3.74419,13.10394,3.74371c-3.62509,9.99865,2.266,11.78082,5.616,21.52777h.93592c2.23061-2.43987,1.57989-2.17033,1.8721-4.67963H612.778q-2.33982-4.68036-4.67988-9.35976l4.67988-5.61653,2.808.93641-2.808.93593q2.34018,2.33982,4.68011,4.67964,2.33982-7.01946,4.67988-14.03939c-3.49876-2.29908-2.82755.33078-1.87185-3.74468l-2.808-.93544q.468,3.7437.93593,7.4879v3.74419H614.65c-2.32125-4.36-2.27544-11.78179-4.68012-13.10395v-1.87233l-3.744,7.4879c2.43361,1.83617.87807.91374,3.744.93641l-7.4879,3.74371c1.60907-5.69368-1.0502-6.88613,2.808-7.48839-1.31879-4.439-2.50666-5.04272-6.552-6.552l1.87186-5.61556Z"/>
      <polygon class="cls-2" points="562.234 383.336 561.298 385.208 567.85 388.952 562.234 383.336"/>
      <path class="cls-2" d="M453.65827,228.89584c-.25556,2.98233.02049,2.25471.93592,5.61653l1.8721.93544h.93593l-.93593-5.61556Z"/>
      <polygon class="cls-2" points="444.298 212.048 445.234 213.92 447.106 212.048 444.298 212.048"/>
      <path class="cls-2" d="M570.65809,415.15982l.93592-1.87234-5.616-1.87185,3.74395,10.29616c1.143,1.79422,7.51346,2.1819,5.616-2.80778Z"/>
      <polygon class="cls-2" points="447.106 220.472 448.042 222.344 446.17 222.344 452.722 226.088 454.594 224.216 447.106 220.472"/>
      <polygon class="cls-2" points="477.994 399.248 479.866 397.376 476.122 396.44 477.994 399.248"/>
      <polygon class="cls-2" points="442.426 432.008 442.426 435.752 447.106 434.816 449.914 431.072 450.85 428.264 445.234 424.52 442.426 432.008"/>
      <polygon class="cls-2" points="473.314 402.056 473.314 402.992 475.186 404.864 477.058 403.928 477.994 401.12 475.186 401.12 473.314 402.056"/>
      <path class="cls-2" d="M546.32205,270.08c-.35851,3.045-1.50322,1.92249,2.808,3.74419Z"/>
      <path class="cls-2" d="M496.71405,410.48018l1.8721.93545h.93592q.468-2.33982.93617-4.68012h-4.68012Z"/>
      <polygon class="cls-2" points="572.53 432.944 574.402 433.88 575.338 432.944 573.466 431.072 572.53 432.944"/>
      <path class="cls-2" d="M568.786,408.60785c-3.7589-5.22355-2.205-5.941-8.42382-7.4879q.468-10.29665.93592-20.59233l-2.808-.93545-3.74395,3.74371-3.744-3.74371c1.84389,6.96087,4.04628,12.45492,1.87185,18.71951,5.2127,1.76192,7.798,3.9713,10.29593,8.42383h-1.87186l-1.87209,2.80826c5.5102,1.38726,2.61056-.70592,8.42406,1.87186Z"/>
      <path class="cls-2" d="M536.02613,432.008v2.80778l2.808.93592C537.68269,433.684,537.82879,433.42752,536.02613,432.008Z"/>
      <path class="cls-2" d="M552.874,401.12l1.8721,2.80778C553.53583,401.13393,554.78542,402.80471,552.874,401.12Z"/>
      <path class="cls-2" d="M472.37826,237.32015l-1.8721,3.74419,6.552.93544C475.33865,239.33907,475.61205,238.77925,472.37826,237.32015Z"/>
      <polygon class="cls-2" points="477.058 208.304 474.25 208.304 475.186 210.176 477.058 208.304"/>
      <path class="cls-2" d="M444.29827,204.5598l-.93617,1.87234C445.04687,205.19292,443.90143,205.42871,444.29827,204.5598Z"/>
      <polygon class="cls-2" points="479.866 212.048 479.866 213.92 482.674 213.92 479.866 212.048"/>
      <path class="cls-2" d="M488.29022,246.6799H493.906c-1.79712-2.80778-.16178-1.57145-3.74395-2.80778Z"/>
      <path class="cls-2" d="M543.514,288.8l3.74395.93593c1.49767-3.93128,1.88246-2.3796-.93593-5.616L544.45,285.99174Z"/>
      <path class="cls-2" d="M486.41813,227.024l2.808,2.80827h.93593c-1.008-2.91049-.74884-2.98378-2.808-4.68012Z"/>
      <path class="cls-2" d="M487.35406,214.85645l-3.74395-.93641.93592,3.74371Z"/>
      <polygon class="cls-2" points="456.466 211.112 453.658 209.24 451.786 212.048 456.466 211.112"/>
      <path class="cls-2" d="M448.97815,212.98411l3.74395-5.616-.93593-1.87186h-2.808l-2.808,1.87186q.93594,2.80778,1.8721,5.616Z"/>
      <path class="cls-2" d="M463.95419,229.83225l-1.8721,4.68012h.93617l2.808-1.87234q-.46831-1.87185-.93616-3.74419c-1.22428-3.32517-4.91857-5.07841-8.42383-6.552C455.17451,227.79741,456.75174,229.935,463.95419,229.83225Z"/>
      <polygon class="cls-2" points="461.146 361.808 458.338 366.488 461.146 366.488 461.146 368.36 463.954 367.424 466.762 363.68 463.018 360.872 461.146 361.808"/>
      <polygon class="cls-2" points="465.826 247.616 463.018 244.808 463.954 247.616 463.954 249.488 465.826 247.616"/>
      <polygon class="cls-2" points="470.506 288.8 473.314 288.8 467.698 283.184 468.634 285.992 470.506 288.8"/>
      <path class="cls-2" d="M477.99406,257.912l-8.42383-1.87185V257.912c2.10861,1.68477,3.24031,1.81978,7.4879,1.87186Z"/>
      <polygon class="cls-2" points="567.85 572.408 572.53 572.408 569.722 569.599 567.85 572.408"/>
      <path class="cls-2" d="M516.37021,242.93619,509.818,246.6799l-.93593,1.87186c3.56337,3.7114,1.48273,3.53636,5.616,2.80826q.468,3.74372.93592,7.4879v.93593c-2.95774-.11766-.58031,1.01259-2.808-.93593-3.34229-1.92923-1.123.11042-.93593-3.74419l-9.36,1.87234-1.87186-4.68012c2.909.30233,6.60622.717,7.4879,1.87233l2.808-1.87233c-2.57682-1.14375-1.52951-.67555-3.74395-.93593-2.64336-2.382-10.81645-2.706-15.912-3.74371l-11.23209,8.42383-.93593,1.87185,12.168,6.552v.93641l-12.168,7.48741-1.8721,2.80827c5.83689-.27051,3.904.53812,9.36,1.87185l-4.67988,4.68012c-.55234,4.50942,4.99716,11.49778,5.61581,16.84765l3.74419-2.80778c1.21656,3.82906,1.53962,3.28419,3.74395,5.61605,4.16514-.60081,15.33069-3.22536,20.59184-5.61605,2.62094,3.65065,5.21173,3.03827,6.552,9.35976,9.98251-1.678,27.8929,3.23259,29.95209.93641l1.87185,4.68011H559.426q.468,4.67964.93617,9.35976l3.74394-3.74419c5.18353,2.29039,5.5307,2.90181,7.4879,8.42431l12.168.93592q.468-5.61557.93593-11.23209c-9.81952-3.35362-16.51181-5.06394-24.33579-12.168l3.74394-2.80778c-3.86377-2.74751-8.07689-.215-11.23209-7.48838-4.52-2.50738-2.99511-1.37375-10.29592-.93544l.93593,5.61556c-6.12789-2.17708-5.368-3.03055-10.29592-6.552l-.93593.93641,3.74395,5.61556-8.42407,3.74419c-2.65083-4.30064-3.96672-13.9878-9.36-15.91173,2.45795-3.11686,3.21619-4.01952,8.42406-4.68012v-.9364l-5.616-1.87186c1.74552-3.22632.76017-2.53342,4.68012-3.74371-.616-4.76546-.717-3.98384-2.808-6.552,4.562-.92869,7.5665-.65529,11.23185.93544l1.8721-.93544c-1.45452-4.09137-1.47526-3.50744-5.616-4.68012l1.8721-4.68012c-.14321-4.08365-1.18884-3.31456,4.67988-3.74371v-.93641l-8.42407-4.68011c2.26146-1.76192,1.57434.16683,3.74419-2.80779l-12.168-1.87185q.468-2.33982.93593-4.68012c-4.72111-3.83773-9.651-8.40309-14.976-11.23161l-.93593,5.61557C507.75881,238.963,509.39126,241.71915,516.37021,242.93619ZM485.4822,282.248v-.93593l1.87186-.93593Zm8.42383-28.07975-.93593-1.87233,2.808-1.87186h1.8721l-2.808,3.74419Zm6.55221,11.2321-3.74419-.93641c-4.35126-6.70628-1.32987-.60081-.93593-8.42383l1.8721,1.87185c1.31035.21313.22374.17986.93593-.93592l2.808.93592C499.67011,263.2016,499.58379,259.68018,500.45824,265.40038Zm26.20789-3.74468-.93592,1.87234H524.794q-.93592-2.80851-1.87186-5.616C525.7384,259.59676,525.146,258.37972,526.66613,261.6557ZM521.986,252.296c.85372,1.666.91447.23868,0,1.87233Zm-2.808,44.92788-1.87185-1.87186c-1.68477-1.81784-.76668-3.20028,0-6.552H519.178Zm0-10.29568c-3.61569-.26038-1.1288.79271-3.744-.93641Zm-3.744-4.68012h-3.74395l-.93592-3.74371,5.616-2.80826c2.39792,3.42353-2.39527,1.51262,1.87186,5.616Zm0-33.69627.93617-2.80779h.93593Z"/>
      <path class="cls-2" d="M540.706,273.8242c-1.92707-2.0464-1.26261-1.81688-4.67988-2.80826C537.95319,273.06234,537.28874,272.83282,540.706,273.8242Z"/>
      <path class="cls-2" d="M565.042,576.15136c3.07009-3.36954,2.748-2.246,0-5.61557Z"/>
      <polygon class="cls-2" points="544.45 254.168 546.322 251.36 548.194 250.424 541.642 248.552 539.77 250.424 540.706 253.232 544.45 254.168"/>
      <polygon class="cls-2" points="540.706 283.184 542.578 281.312 540.706 281.312 540.706 283.184"/>
      <path class="cls-2" d="M502.3301,221.40842l.93592,3.74371C503.984,222.55314,505.26735,223.911,502.3301,221.40842Z"/>
      <path class="cls-2" d="M492.9701,228.89584V233.576l1.8721-.93593C493.93882,229.24687,494.90392,230.73346,492.9701,228.89584Z"/>
      <polygon class="cls-2" points="504.202 228.896 500.458 228.896 504.202 232.64 504.202 228.896"/>
      <path class="cls-2" d="M507.01022,244.80805l.93592-2.80827-6.552-4.67963q.468,3.7437.93593,7.4879l2.808.93592Z"/>
      <path class="cls-2" d="M529.47416,267.27223l-1.8721,3.74371v.93641H535.09C533.16651,268.94446,533.18074,268.66382,529.47416,267.27223Z"/>
      <path class="cls-2" d="M472.37826,252.296l-.93617,1.87233c2.734,1.85016,4.51714,1.62594,7.48814-.93641l-3.74419-2.80778Z"/>
      <path class="cls-2" d="M478.93023,247.61631l1.87185-1.87234-3.74395-1.87185q.468,2.80777.93593,5.61605h.93617Z"/>
    </g>
  </g>
</svg>
