<svg id="Layer_1" data-name="Layer 1" xmlns="http://www.w3.org/2000/svg" width="12in" height="12in" viewBox="0 0 864 864">
  <defs>
    <style>
      .cls-1 {
        fill: none;
      }

      .cls-2 {
        fill: #f4f095;
      }
    </style>
  </defs>
  <g>
    <path d="M484.585,190.907a1.99772,1.99772,0,0,0-.6793-.12173C350.90009,190.78528,242.691,298.99441,242.691,432A241.21173,241.21173,0,0,0,483.90567,673.21472a1.99405,1.99405,0,0,0,.6793-.1178C565.088,644.18147,621.309,545.03884,621.309,432,621.309,318.96508,565.088,219.82246,484.585,190.907Z"/>
    <g>
      <path class="cls-1" d="M478.573,649.25089l1.87249.93551c2.06981-1.9309,1.76108-1.29283,2.80752-4.68h-2.80752Z"/>
      <path class="cls-1" d="M515.07712,601.51428h-2.808l.936,2.8085C515.11639,602.63778,513.86675,604.30805,515.07712,601.51428Z"/>
      <path class="cls-1" d="M495.42107,612.74631l-2.808,1.872v.9365c2.74715-.85747,4.96077-.22088,3.744-2.8085Z"/>
      <path class="cls-1" d="M467.341,630.53084q.93576-2.33976,1.872-4.6805v-.93551l-2.808-.93649C465.02775,628.12777,464.3347,627.8156,467.341,630.53084Z"/>
      <path class="cls-1" d="M494.48507,654.8669l.936-2.80849-1.872-.93552C493.57164,653.98833,492.6484,652.4329,494.48507,654.8669Z"/>
      <polygon class="cls-1" points="502.909 644.571 503.845 641.763 502.909 641.763 502.909 644.571"/>
      <polygon class="cls-1" points="498.229 655.802 499.165 653.93 497.293 653.93 498.229 655.802"/>
      <path class="cls-1" d="M501.03708,603.38628c-5.72006,2.41241-6.6384,1.05969-9.36,6.55251l3.744,1.872c.80152-1.91716,5.23563-1.498,10.296-5.616Z"/>
      <polygon class="cls-1" points="501.973 616.49 503.845 615.555 504.781 612.746 502.909 612.746 501.973 611.811 501.973 616.49"/>
      <path class="cls-1" d="M457.98147,638.01837h.93551l.936-3.744h-.936C456.698,637.43184,457.017,634.7912,457.98147,638.01837Z"/>
      <path class="cls-1" d="M404.62934,644.57088v-3.7445l-4.68-.93551q.46824,2.339.93551,4.68Z"/>
      <path class="cls-1" d="M508.5251,652.9949l2.808-1.872.936-2.80849v-.9365h-2.808C508.24435,650.08725,508.59038,648.29673,508.5251,652.9949Z"/>
      <path class="cls-1" d="M405.56534,652.9949q-2.34049-2.34123-4.6805-4.6805C402.36418,652.33916,402.15411,651.22646,405.56534,652.9949Z"/>
      <path class="cls-1" d="M376.54927,602.45077q.46751,2.808.936,5.61553l4.67952-1.87152-1.87151-2.8085Z"/>
      <path class="cls-1" d="M419.60488,640.82638l2.8085.93649c1.83814-3.48976-.40051-1.53039,3.744-2.8085l-3.744-1.872Z"/>
      <polygon class="cls-1" points="495.421 487.322 495.421 490.13 497.293 489.194 495.421 487.322"/>
      <polygon class="cls-1" points="452.365 658.61 454.237 656.738 451.429 655.802 452.365 658.61"/>
      <polygon class="cls-1" points="427.093 643.634 428.029 646.442 430.837 644.571 427.093 643.634"/>
      <polygon class="cls-1" points="489.805 484.514 492.613 486.386 492.613 485.451 490.741 483.579 489.805 484.514"/>
      <path class="cls-1" d="M430.83691,651.12289c.163,4.411-1.09552,2.79378.93649,4.67952l10.29554,2.80752c.63954-4.24269.09375-.47414,2.808-3.743l-1.87152-1.872Z"/>
      <path class="cls-1" d="M550.64521,258.0029c-.71268,1.11614.374,1.14951-.936.936l-1.8725-1.87152c-.39364,7.82276-3.41516,1.7174.93649,8.42353l3.744.9365c-.87465-5.72007-.78826-2.1989.93551-7.48851Z"/>
      <polygon class="cls-1" points="537.541 283.275 539.413 281.403 537.541 282.339 537.541 283.275"/>
      <path class="cls-1" d="M573.10926,278.595l5.616,1.872v.93649c-5.20814.66065-5.96647,1.56279-8.42451,4.67952,5.39317,1.924,6.70957,11.61144,9.36,15.912l8.42451-3.7445-3.744-5.615.93551-.93649c1.43812,1.02729,2.37265,1.81212,3.154,2.48455Q583.45242,284.117,577.779,274.77929c.00392.02748.00638.04417.00981.07166C573.86906,276.06132,574.85463,275.36827,573.10926,278.595Z"/>
      <polygon class="cls-1" points="589.021 474.219 589.021 473.282 585.277 472.347 586.213 475.155 589.021 474.219"/>
      <polygon class="cls-1" points="577.789 464.859 576.853 467.666 578.725 464.859 577.789 464.859"/>
      <path class="cls-1" d="M576.85327,481.707v4.67952c7.03744.802,8.74355,2.38884,8.42353,8.42451l1.872-.9365c1.47149-5.36274.99343-11.14809,2.808-14.976l-10.296-.93551Zm6.55153.93551-1.872,1.872-1.872-1.872.936-1.872Z"/>
      <polygon class="cls-1" points="593.701 492.003 594.637 493.875 596.509 492.939 596.509 492.003 594.637 491.067 593.701 492.003"/>
      <path class="cls-1" d="M511.33311,639.89087c-2.01533,3.29048-.644,3.23453-3.744.93551,1.89557-4.28,2.35105-4.80419.936-8.424l-8.424-1.87152c3.46326,9.71293,7.007,14.38705,18.72005,15.91155l-2.808-2.808C514.59317,641.74765,513.31261,641.13952,511.33311,639.89087Z"/>
      <path class="cls-1" d="M569.36525,296.379l1.87152,1.87151V289.827h-1.87152C568.59859,293.17833,567.68025,294.56148,569.36525,296.379Z"/>
      <polygon class="cls-1" points="549.709 251.451 547.837 251.451 545.029 253.323 545.965 255.195 546.901 255.195 549.709 251.451"/>
      <polygon class="cls-1" points="339.11 600.579 341.917 599.642 341.917 597.771 339.11 597.771 339.11 600.579"/>
      <path class="cls-1" d="M571.23677,287.955l-3.74352-.9365C570.10836,288.74815,567.62086,287.69484,571.23677,287.955Z"/>
      <path class="cls-1" d="M543.15719,560.33067l-2.808,4.68h5.61553C544.50107,562.33667,544.90256,561.54742,543.15719,560.33067Z"/>
      <polygon class="cls-1" points="556.261 565.011 559.069 563.139 555.325 562.203 556.261 565.011"/>
      <polygon class="cls-1" points="520.693 635.21 524.437 633.339 521.629 633.339 520.693 635.21"/>
      <path class="cls-1" d="M592.76482,552.84216c.91441-1.63248.854-.20516,0-1.872Z"/>
      <polygon class="cls-1" points="516.013 590.282 518.821 592.155 516.949 589.347 516.013 590.282"/>
      <path class="cls-1" d="M578.72528,560.33067v1.872C579.63919,560.5697,579.57833,561.997,578.72528,560.33067Z"/>
      <polygon class="cls-1" points="592.765 547.227 591.829 547.227 590.893 550.97 593.701 550.035 592.765 547.227"/>
      <polygon class="cls-1" points="576.853 521.955 580.597 519.147 577.789 519.147 576.853 521.955"/>
      <polygon class="cls-1" points="581.533 550.035 580.597 549.099 580.597 553.779 583.405 550.035 581.533 550.035"/>
      <path class="cls-1" d="M587.14881,550.97016c-1.178-2.82912.01668-1.123-1.872-2.80752l.936,2.80752Z"/>
      <path class="cls-1" d="M393.39731,224.30731l3.74352,2.808C395.34883,224.84673,396.54006,225.6026,393.39731,224.30731Z"/>
      <path class="cls-1" d="M618.85509,448.592c.05006-1.02681.10405-2.05067.1443-3.08042-.25425.163-.55218.35782-.96251.62728Z"/>
      <path class="cls-1" d="M581.53279,564.07419l3.744,5.617,3.68511-.92177.02945-.05889-3.71456-5.57184C582.82562,565.27573,585.37693,564.06,581.53279,564.07419Z"/>
      <path class="cls-1" d="M514.14063,450.81938l-5.61553-4.6805,4.68,4.6805,4.68,1.87151.936-1.87151-.936-2.8085C516.05533,449.91528,515.01822,449.9408,514.14063,450.81938Z"/>
      <path class="cls-1" d="M603.99685,485.451c-2.17337,6.61632-3.42105,9.23045-4.68,15.912,2.863.617,1.44646-.92225,2.808,2.808l-.936.93551-1.872-.93551c-2.05165-2.92286-3.21245-2.192-4.68-8.42451h-.93552a85.8485,85.8485,0,0,1-.93649,18.72c3.60952.78826,3.51774.07215,5.616,1.872h-12.168l3.744,4.6805c-2.76972,5.09182-4.49251,3.61738-4.68,9.35954l2.8085-.936-.93649-2.80849,3.744,1.873c-3.00385,3.57124-4.93377,5.89628-6.55153,11.231-3.71652-1.90931-.67537-2.56211-4.6805-.93551.53892,5.57773-2.16208,4.74823-5.616,8.424,9.94509-2.71377,20.90226-3.51676,27.69625-9.1956q.2989-.85625.59488-1.71592c-2.16012-2.167-7.23083-9.0994-7.69907-13.424l8.94184,9.83563c.66555-2.02563,1.28105-4.08759,1.90685-6.14169-.32934-.4761-.20075-.57917.36665-1.18141q.5507-1.83544,1.08472-3.68266c-1.6212-2.61315-3.0706-6.45189-1.068-3.51037-.28075-6.07445,2.50321-9.684,4.68-14.03955.29254.17866.51095.35438.75538.53205.054-.2405.11387-.47806.16737-.71856C611.02742,495.20169,609.27419,489.41635,603.99685,485.451Zm-10.29554,54.28716-1.872-.93551.93551-1.872c1.91127,1.68451.66163.01374,1.872,2.80752Zm6.55153-17.78356v-1.872h1.872Z"/>
      <path class="cls-1" d="M596.50883,547.22664c.90312-.16,1.51567-.26112,1.97851-.35192q.29376-.75833.58359-1.5196h-1.62561Z"/>
      <polygon class="cls-1" points="398.077 293.571 399.949 292.635 398.077 290.763 398.077 293.571"/>
      <path class="cls-1" d="M613.136,495.95462q.32542-1.658.63464-3.32436a7.18838,7.18838,0,0,0-.41377-.62776C613.42559,493.7999,613.04471,494.86548,613.136,495.95462Z"/>
      <path class="cls-1" d="M520.69313,467.66644l6.55153.93649,2.8085-8.42451c-3.27626-.29646-1.26191-.374-4.68-1.872Q523.03264,462.98668,520.69313,467.66644Z"/>
      <path class="cls-1" d="M395.26931,286.083l2.808,1.872C396.39232,286.04371,398.06309,287.29335,395.26931,286.083Z"/>
      <polygon class="cls-1" points="334.429 609.003 336.301 609.003 335.366 607.131 334.429 609.003"/>
      <polygon class="cls-1" points="521.629 455.499 520.693 455.499 519.757 458.306 522.565 458.306 521.629 455.499"/>
      <path class="cls-1" d="M526.30915,471.41094l1.872,2.808C527.00268,471.38885,528.19784,473.09594,526.30915,471.41094Z"/>
      <path class="cls-1" d="M330.68515,273.91445q.46825-1.40253.936-2.80751l-3.744-.93552q.46824,2.33976.936,4.67953Z"/>
      <path class="cls-1" d="M532.86067,451.7544l2.8085.93649-1.872-3.7445,3.744-1.87151c-1.67077-2.43842-1.498-1.50781-.9365-4.68h-6.55152l-.9365,2.80751h3.744c-3.32337,2.83059-3.8,2.74666-3.744,9.36l5.61651,3.744c4.42527-2.14687,5.19194-.74066,7.48753-4.67952C537.21134,454.3219,535.94305,454.73125,532.86067,451.7544Z"/>
      <path class="cls-1" d="M287.62905,306.675l-1.31541-1.97311c-.1875.28762-.37008.57868-.5566.86778V306.675Z"/>
      <path class="cls-1" d="M293.24506,297.315c1.75715-1.56966,4.89843-3.69,1.872-4.67952l-2.80752,6.55153h.93551Z"/>
      <path class="cls-1" d="M518.82113,652.05841l-.87563,1.75126c.67-.45156,1.335-.91294,1.99962-1.3748l-.188-.37646Z"/>
      <path class="cls-1" d="M483.39734,667.62736a234.50637,234.50637,0,0,1-183.74015-88.57664h.14038l-.93649-1.8725h-.67489q-5.82069-7.4463-11.0568-15.34906l.49966-1.49849-3.13539-2.61266a233.96009,233.96009,0,0,1-22.306-45.681,65.35669,65.35669,0,0,0,10.46585,6.1736c-.936,3.05194-2.51547,6.96578-.936,7.4885l.936,1.87152,1.87152-1.87152-.93552-2.808c5.78339,3.73321,6.59865,8.46574,12.16754,10.29553l-2.80751,4.68h4.67952c-2.66174,8.47311,5.65724,11.89464,8.42451,20.59255l-3.744,1.87151,10.29554,19.656,4.6805,1.872.93551-2.808-2.80752-12.168,1.872.936c4.18477.562,6.56036,4.64712,11.23153,7.48753l-1.87151,3.7445,5.61552-1.8725v5.617c13.30527,1.54953,17.48661,9.7139,27.14407,12.16753-1.28694,4.08366,1.98342,2.03349,2.808,10.29554l2.808-.93551.936-2.8085c-1.29529-6.80283-4.066-3.11379-.936-7.488h.936c1.67076,2.73978,1.83372,2.29264,4.68,3.7445l-3.744,9.36052,5.616-4.68051,3.744,4.68051c-3.5997,1.391-3.32092.70875-.936,3.743,3.69051-3.94524,2.97194.1178,8.424-.93551v-.936l-2.808-7.48851c4.572-.07166,3.2954-.28075,6.552-4.68-.55169-4.48565-2.15766-2.13263,0-5.61552h.936l4.68,2.80751c2.13411-1.90342,1.59862-2.36381,4.67953-3.744l4.6805,1.8725-5.616,6.552c4.66185,9.22063,10.46242,10.804,13.104,19.65556h-.936l-9.36-2.80751,1.87151,2.80751,13.10453,4.6805c-1.713-3.26-.79023-2.516-4.68-3.744l2.80751-2.80849c5.82216,4.02525,15.22243,6.86172,23.40055,10.29651l-.93649-2.80849c5.38434.91735,6.12352,1.77874,8.42451,5.616v.93649l-5.616.93551.93551-4.67952-4.67952,3.744c5.09279,4.83315,9.53868,7.20727,8.42353,15.91155,1.67076-2.43841,1.498-1.50781.93649-4.67952l3.744-4.6805c1.98293,4.89744,9.33843,4.96125,15.91155,4.6805v-.93649c-.84226-4.063-1.70513-1.04546.936-4.67952-4.74087-.60175-5.15415-1.06607-7.48753-3.7445,2.24012-1.65261,2.45511-1.15491,4.67952-4.68l11.232,3.744c-.49475-7.58127-2.97145-6.85485,0-10.296,2.54247,2.88359,3.319,2.50664,5.616-1.87152l5.616,2.808-2.80752-3.7445,6.55153.93649.936,1.87152-8.424,10.296h3.744l2.808-1.872h-1.872l.936-1.872c7.90228,3.26252,14.77087-.2886,22.46406-1.872l1.872-3.74352-.936-4.68c-4.72958,4.02476-13.01028,10.81924-18.71956,2.808.855-3.395,2.09533-5.95419.93552-9.36052,4.1185.8776,5.40005,1.42536,9.36-1.87151-4.57645-4.841-9.98435-9.30751-12.168-16.848,11.07938,5.01033,21.52805,0,21.52805,0,5.24986,2.351,2.30246,3.931,11.232,3.744l-1.872-.936c7.08063-12.98917,15.95032-16.848,14.976-33.69608l3.744,2.80752,2.808-.93551c-2.008-5.87566-.54433-6.67031,2.808-11.232l1.872.93551-.936,3.745,2.808-1.87249c2.24159-5.04912,3.50743-5.52227,2.808-12.168h6.552l-2.8085-5.616,5.61651-4.67952c1.09306,3.21932,3.773-.69206,2.808,4.67952,1.13037,3.23208-.79562,4.38552.93551,5.616l.9365,1.872,8.42353-4.6805,1.872,1.87249c-.20467,3.11723-.87318,2.15325.93649,4.68,2.52677-2.05262,1.77777-.66654,2.80752-4.68-2.89-1.2089-4.00415-12.65493-2.80752-17.784l7.488-2.80752-3.744-11.232h.93552l.936,1.87151,5.6165,7.48851-.93649-1.8725c1.53726-1.82145.86483-.99981.93649-5.616l2.80752,1.872-7.488-8.424,2.8085-1.872,5.61552-1.87152,3.7445,5.61553,2.80752-10.29554h-.936c-2.97488,2.16945-1.044,1.48229-2.808,3.74352l-1.872-.936q.46825-5.14777.9365-10.296l-5.616,2.808c2.41,1.85532.51635,5.16053-1.872,7.488h-.9365c-.78335-4.8572-.25228-5.74314,1.872-9.36l-.93551-1.87152a156.47176,156.47176,0,0,1-14.976,15.912l-4.6805-.93649c3.37736-1.68451,3.31994-1.9152,4.6805-5.616l-5.616,5.616-2.8085-3.744c3.0544-1.6688,2.14637-2.52677,1.872-8.42353l2.8085,1.872-.93649-4.68,5.616-2.808c2.63671,1.63445,2.40406,2.031,6.55251,2.808l4.67952-12.16852c-9.29131.452-15.52969,8.18057-18.72005,13.104v-1.872c-2.96458-4.66332-1.9525-9.603.9365-12.16754,4.10623,2.66174,2.86838,4.21864,6.55152.93551l-2.80751-2.808c-4.439.94877-5.4403-.33474-9.36-1.87151v6.552l-2.80849.93551-3.744-1.87152,3.744-4.68-.93552-1.872-2.80849,1.872c-1.60893,8.29543-2.88016,6.21777,1.872,11.232l-.93551,1.872-2.808,2.808-4.68-3.7445c3.35331-1.66782,1.10828.4977,2.80752-2.80751-2.9636-.61353-2.41191-1.34781-5.616-3.744l-.93551,4.67952-.936-1.872c-5.31907-3.61836-5.616-6.55938-7.48851-11.232-3.20067.28125-1.38952,1.14952-3.74352-.93551-5.6862-8.31555-6.22513-10.13847-12.168-17.78355l-1.872.935-1.872,3.7445c.33082-7.90276,1.42045-6.98247-.936-13.104,3.36951-1.3105,5.63466-1.8828,9.36-.936-1.80869-2.83353-.187-1.51518-3.744-2.808l1.872-2.808,6.552-2.808-1.872-.9365c-.1713-4.492-2.55523-3.8726-4.68-8.42353,6.93927-2.52725,8.62526-7.62054,14.04-11.232.78434,4.56958,1.02975,4.30552,3.744,6.55153-.20516-3.11674-.87367-2.15227.93551-4.67952h4.68051v5.616c7.98866-2.33976,7.95577,3.44363,17.78355,5.616l-4.67952-3.744c2.94691.68764,4.72467,1.23049,6.55152,2.8085l.9365,4.67952,5.616-2.80752-.93649-3.7445c5.14089,2.01778,3.06274,4.06059,6.5525,2.808l2.80752-1.872c-3.96832-.8825,1.98637-4.07286,4.6805-4.6805,1.22117,2.6745,7.41734-4.34772,16.84755-3.74352-4.5092,6.6227-5.8359,16.15156-5.61552,28.07958h4.67952c.03387-4.867-1.23-4.47632,4.6805-5.615.73919,2.726.02455,1.20252,2.80752,3.74352l10.29652-5.616c5.67736,4.41791,4.46159,5.81284,12.16754,4.68v-.936c-2.07816-3.77837-2.20233-3.41074-1.872-8.424h.936l1.26044.75636c-.00147-5.832-.188-11.6026-.4815-17.33347l-.77894-2.14294.68961.22971c-.01423-.24738-.02061-.4977-.03534-.74507-4.08955-1.69236-2.16061-.08639-7.20628-1.35664l1.872-2.8085h1.872c-2.4983-4.45227-5.083-6.66147-10.296-8.42353,2.17435-6.26488-.028-11.75868-1.87151-18.71955l3.744,3.74352,3.74351-3.74352,2.808.93551q-.46824,10.29627-.93551,20.59254c3.9531.98312,4.76885,1.64132,5.80155,3.32485q-.69354-8.84368-1.82293-17.49839l-3.04311-1.739.936-1.872,1.85777,1.85826a305.35365,305.35365,0,0,0-21.50154-78.525c-6.46858-.76912-14.84843-1.98882-20.60433-1.02092-1.33995-6.32182-3.931-5.70927-6.55152-9.36-5.26164,2.39032-16.42692,5.01525-20.592,5.616-2.20479-2.3319-2.52775-1.78709-3.744-5.616l-3.744,2.80752c-.61893-5.35-6.16868-12.33835-5.616-16.84755l4.67952-4.68c-5.456-1.33406-3.52314-2.14244-9.36-1.872l1.8725-2.8085,12.168-7.487v-.9365l-12.168-6.552.936-1.87152,11.232-8.424c5.09574,1.0376,13.26846,1.36155,15.91155,3.74352,2.2146.26063,1.16718-.20762,3.744.936l-2.80752,1.8725c-.882-1.1554-4.57939-1.57015-7.488-1.8725l1.872,4.68,9.36-1.872c-.1875,3.85444-2.407,1.81507.93551,3.744,2.22785,1.94857-.1497.8182,2.8085.936v-.936q-.05228-.416-.10406-.832-4.67952-6.501-9.70556-12.51553l-.4869.24345-2.80751-.93552q-.23192-1.85384-.46334-3.7067-3.718-4.22306-7.60385-8.17223l-1.29284.64642v-1.97508c-1.08276-1.08227-2.18171-2.1346-3.28263-3.18545.12909.3902.2729.83587.47414,1.417h-.93552l-2.80849-2.8085.57622-1.15147c-16.635-15.27839-35.2142-26.94136-55.1456-34.10151h-.00049v-.00343c-132.11032,0-239.20626,107.09643-239.20626,239.20675S351.7965,671.20841,483.90682,671.20841v-.00392h.00049c3.1722-1.1397,6.2963-2.43351,9.39782-3.796C490.01857,667.5449,486.71777,667.62736,483.39734,667.62736ZM569.36525,479.835l-1.872,1.872-.93649-1.872Zm37.4401-74.88018-1.8725-2.80752C606.84461,403.83177,605.595,402.161,606.80535,404.95478ZM588.0853,435.84285v-2.808c1.80231,1.41946,1.656,1.67616,2.80752,3.744Zm-35.56809-28.08056q-.46824,2.34123-.93649,4.6805h-.93551l-1.872-.93551-.93649-3.745ZM542.2207,244.89887c3.58252,1.23688,1.9471,0,3.744,2.808h-5.61553ZM295.11707,448.94639l-2.80752-2.80751c1.96526-3.70033,1.93925-2.78,1.872-7.488l5.616,5.616-.93649,1.872Zm-2.80752-13.10354q.46751-1.87224.93551-3.7445c1.498,1.85728,1.21725,1.30069,1.872,4.6805Zm2.80752-88.92022c2.83009,1.179,1.12349-.01669,2.80849,1.872h-.93649Zm2.80849,213.408-.93649-2.808c4.5097,1.41652,4.92444,2.31473,5.616,7.488Q300.26533,562.67018,297.92556,560.33067Zm14.97555-203.112q-.4675-.93576-.936-1.872h2.8085Zm0-4.68h-.936a25.96752,25.96752,0,0,0-4.67952-10.29554l-1.872.936q-.9365,1.87226-1.872,3.74352l-1.872-2.808c-.61451,3.56338-.98312,4.52883-2.80849,6.552l4.6805-11.23154h4.67952c-1.16227-3.8888-.60813-3.44509.93649-8.42451l-4.6805,3.7445q-.4675-2.808-.93551-5.616c8.666-1.20252,8.19235-.2032,11.232,3.744l1.872-.936q.46751-1.40475.93551-2.808l-5.616-6.55251c2.913-1.88869,3.65959-1.77776,5.616-4.67952,2.79868,1.98048,2.995,5.74657,2.8085,12.16852h3.744C316.12583,339.41793,315.9987,336.64575,312.90111,352.53865Zm.936-53.35164v.93551q-.46751.93649-.936,1.87249l-2.808-2.808Zm-.936-.9365v-3.743l2.808-2.80849C316.34572,295.05132,315.65807,295.92106,312.90111,298.25051Zm12.168,14.04053q.46825-1.40475.93649-2.808h2.80752Zm5.616-3.744h-3.744q-.46825-.93649-.93552-1.872l1.87152-1.872,3.744,1.872Q331.15364,307.61152,330.68515,308.547Zm7.488,9.36v-4.6805l1.872,2.8085Zm14.04,277.0557q-.46752-1.87224-.936-3.744l.936-1.872C354.96133,592.71674,355.28332,591.59275,352.21321,594.96275Zm-.936-88.91972.936-2.8085,3.744,3.744Zm-.936-3.745-2.808-1.87151V494.811c-3.15993,2.26172-.67292,1.44842-4.68,1.872q-.46751-2.808-.936-5.616a49.02558,49.02558,0,0,0,13.104,1.872l.936.93551Zm-9.36-201.239v-1.872c2.49093,2.299,1.43124,1.27614,1.872,3.744Zm17.784,148.82388,5.616,1.87151-.936,1.8725h-.936Zm4.68,13.104.936-1.872,1.872,2.808Zm0-163.79991c-.187-1.85041-9.10038,1.27418-14.976,0v-.9365l2.808-2.80751c5.30974-.0486,5.99-.25523,8.424-2.80752l7.488,4.67952Zm-2.808-32.75959v-2.8085l1.872,1.872Zm.936,26.20806V288.891C362.78066,291.95225,363.327,289.933,361.57323,292.63548Zm6.552,307.94329h1.872C368.36379,601.49317,369.79111,601.43231,368.12525,600.57877Zm3.744-129.16783-.936-1.8725h2.808Zm.93551-7.488v-.936l.93649-2.8085,3.744-2.80751c1.63788,2.04772,1.64083,2.514,1.872,6.552Zm1.87249-186.264h1.872C374.9158,278.57336,376.34361,278.513,374.67726,277.659Zm3.744,166.60792v-1.872h1.872Zm.936-23.39956-1.872-.9365-.936-2.808,4.68.936Zm1.872-109.51277q-.46824-1.40326-.936-2.80751l1.87151,1.872Zm1.872-26.20757c2.82912,1.17847,1.123-.0162,2.808,1.87151h-.936Zm6.552,305.13528c-1.3532-3.73321-.079-.58212-2.808-2.80751l1.872-2.808,4.68.936Zm4.68-9.36h-3.744l-1.872-2.80752,5.616,1.872Zm1.872-91.72774h-.936q-.4675-1.87224-.936-3.74352h2.80752Q396.67331,487.32249,396.20532,489.19449Zm-6.552-25.27157c-.25081-7.72656.98018-11.05189,6.552-13.10354v-.93649l-12.168-.9365,1.872-3.744c10.3829,1.64672,16.45293,7.15034,23.40006,12.16853-1.41456,4.43509-1.83765,7.168-5.616,9.36C398.00959,469.375,392.80783,466.53067,389.6533,463.92292Zm5.616-167.54392h-3.7445l-1.87151-1.87152,1.87151-2.80849,3.7445,3.744Zm2.808,147.88787h-2.808v-2.808Zm2.80752.93551h3.7445v2.8085C401.88219,447.15341,399.66857,447.79,400.88484,445.20238Zm3.7445-152.5669V288.891l2.808.936Zm-.936,248.03914-1.872-2.808,3.744.936Zm0-2.808.936-1.872,1.87151,1.872Zm4.68-1.872h1.87151C408.61189,536.909,410.03921,536.84815,408.37335,535.99461Zm0-46.80012,2.808,4.68C409.11106,491.9436,409.41929,492.58167,408.37335,489.19449Zm.936-187.19948,1.872-.936c1.497,1.85728,1.21676,1.2997,1.872,4.6805Zm4.68,2.808.936-2.808h1.872Zm5.61552,188.136-1.872-1.872,3.744-4.6805q.93649,3.27625,1.87249,6.5525Zm4.68051,90.79125.93551-1.87152,1.872,1.87152Zm5.616-276.11921-2.8085.936c-1.67076-2.43351-1.497-1.50781-.93551-4.6805l3.744,2.80849ZM447.685,628.65884c-5.11881.13939-4.40466.187-11.232,3.74352l-1.872-1.87152.93649-3.744,8.42353-2.80849,4.68051,1.872Zm-11.232-71.13618,2.80849,1.872v.936h-.93649Zm12.16852-190.00749,7.488,1.872,2.80752,7.48753c-5.31367.19338-7.76877,5.40888-12.16754,4.68q-.93649-3.74376-1.87249-7.48753l4.68.93551C448.06976,371.8202,448.01479,371.56006,448.62145,367.51517Zm2.80751-14.97652v-2.80752l1.872,3.744Zm8.424-64.58367-.936-4.68h2.8085c-1.02975,5.28569,3.64437,5.57723,1.87151,11.23251-3.744-.41229-1.96575.92864-4.68-1.872-3.21392-1.8082-3.46326-2.78347-4.68-6.55251Zm-5.616-21.52756c3.43724,1.68451,3.21834.70727,4.68,4.67952h-.93551C454.08629,269.10732,454.14322,270.28481,454.237,266.42742Zm5.616,93.59925v.93649l-2.808.93551v-1.872Zm-.936,208.728-1.872,1.872v-1.872Zm-8.42353,37.44009,4.67952,4.67952-7.488,1.872v-.93551Zm-.93649-88.92022h3.744l.936,2.808v.93649h-3.74352C448.34069,517.81889,448.81287,520.80212,449.557,517.27456Zm-3.744-110.44778-1.872,2.808h-.93551v-2.808Zm0,211.53554.93649-1.872,2.80752,1.872-.93551,2.808Zm12.16852,9.36c-2.727-3.76462-3.67873-2.2519-8.42451-.93551v-3.744h1.872l-.93551-1.87249H455.173l-1.872-2.808h3.744l3.744,6.55251Zm8.42353-95.47125-2.808-3.744,4.68,1.87152Zm6.552,80.49522c3.92021,1.21037,2.93464.51831,4.68,3.744C474.76669,615.09245,474.62778,615.44682,472.957,612.74631Zm6.552,9.36051,1.872,1.87152h-2.808ZM481.381,488.259c-3.37786,1.54364-2.1989.2567-3.744,3.74352l2.80849-.93551q-.93648,4.21127-1.87249,8.42353c-4.18232-2.40553-12.50964-2.98765-17.784-4.67952v-.9365c2.06833-2.35988,9.32811-7.82177,10.29651-11.232l3.74352.93649-2.808,5.61552,2.808.936c1.88231-2.12429,2.95918-2.22737,6.552-2.808Zm-15.91155-201.2405,1.87151,1.8725-.936.936ZM468.277,435.84285l4.68,4.68-1.87152,1.872H470.149Q469.21325,439.11862,468.277,435.84285Zm24.33606-200.30351h1.872C492.8516,236.45375,494.27892,236.39288,492.61306,235.53934Zm2.808.93551,2.808,1.8725-.936,1.872h-3.744Zm-.936,8.424h-2.808v-1.872Zm0,136.65585,3.744,1.87249q-.46826,2.33976-.936,4.67952l-5.616-5.616Zm2.808-122.61581h2.808l-1.872,1.872Zm1.872-26.20758-4.68,1.87152-2.808-1.87152.936-1.872,6.552-2.8085Zm-4.68-6.5525-2.808,1.872.936-1.872Zm-.936-5.616h3.744v.93649l-.936,2.808-1.872-.93649Zm3.744-4.67952-1.872,1.872-9.36-2.8085v-4.67952Zm-.936-2.808h2.808l-1.872,1.87152Zm-15.91155,18.71956c-.66948-3.91384.8241-3.34252-2.80849-2.80752l3.744-6.552,3.744,7.48752h5.616C487.25277,232.46334,485.31254,232.39217,480.44552,231.79484Zm7.48753,210.6h-.936l.936-2.808C489.45608,441.94576,488.85531,439.74245,487.93305,442.39487Zm-1.872-179.71245-1.872.9365-1.872-2.808Zm-4.68-14.039-1.872-.93649v-.936l1.872-2.80752q.46824,2.33976.936,4.68Zm.936,226.51158,2.808,4.68v4.67952h-8.424V477.027Zm-5.616-248.03963-1.872.93551q-.4675-2.33976-.936-4.68h2.808Zm15.912,366.91094-1.872-.93551.936-1.872h2.808Zm5.616-85.17572c-4.78849-2.25583-6.57067-5.33526-9.36-7.48753l.936-2.808c3.83775.39658,2.41387.02748,3.744-.9365C498.17656,499.90085,498.56137,501.605,498.22908,508.85054Zm5.616.9365-2.808.93551-.936-3.744,3.744.93649Zm.93551,26.20757h1.8725C505.01963,536.909,506.44744,536.84815,504.7806,535.99461Zm1.8725,58.03165v-5.616l3.744,1.872Zm6.552-53.35164h-.936l-3.744-8.42353C511.67963,534.68411,512.50864,535.49053,513.20511,540.67462Zm-3.744-18.72005q.46824-3.2755.936-6.55152l2.808,1.87151-2.808,4.68Zm2.808,64.58367-1.872-1.87151.936-1.87151h4.68Zm4.68-60.83917-1.872-1.87249.936-1.872C518.082,524.3498,517.13662,522.49644,516.94912,525.69907Zm-1.872-21.52805h2.808v2.80752Zm7.488,28.08007-1.872,1.872-2.808-2.8085Zm-1.872,12.16754h-.936c-1.54168-2.69266-1.81752-3.0009-.936-6.552l4.67952,2.808Zm6.55153,10.296-1.87151-.936,1.87151-2.80849,1.872,1.872Zm-2.80752-19.656.936-4.68q.93574,2.33976,1.87151,4.68Zm-3.744-9.35954v-.93649h4.68c-.95368-3.62032-1.44548-.44076,0-3.74352l3.74351,2.80752C526.67236,529.71549,524.15639,530.34276,520.69313,525.69907Zm3.744-40.2481-1.872-2.80849C525.4075,484.46147,523.54188,482.95022,524.43714,485.451Zm.936,30.88759-1.8725,1.872h-.93551l-.936-3.744Zm14.04,21.52805-1.872-.936,2.808-3.744C541.27635,535.99461,540.99413,535.6903,539.41318,537.86661Zm2.80752-15.912,1.872-2.80751,1.872,1.872Zm11.232,1.872h-.93551l.93551-2.80752C554.97575,523.378,554.375,521.17416,553.45272,523.82658Zm-4.67952-23.40006,2.80752,1.87151-.93551,1.873-2.8085-1.873Zm-7.488-11.232c1.98784,2.193.4123-.10552.93552,2.808h-2.80752Zm11.232,22.46406c1.576-3.31454,1.08276-1.85875,3.744.93649-5.23513,2.28185-1.77875,1.6423-2.8085,5.61553-4.26772-2.29216-3.78327-3.50547-6.55152-2.80752-7.04333,2.33976-5.751.70433-14.976,0l4.67952-4.6805,2.8085-4.67952Zm-17.784-15.912,3.74352,4.68h-1.872l-.93551.93649c-3.41712-.99146-2.753-.76225-4.68-2.808C534.57071,497.31813,532.93626,498.555,534.73317,495.74651Zm-6.552,1.872,2.808,5.616h-.936l-2.8085-1.87152-.93551-2.808Zm-6.552-24.33606,3.744,6.55251-2.808.93551-1.872-.93551-.936-2.808Zm-1.872,46.80012h3.74352v.93649l-1.87151,2.80752-1.872-.93551Zm-6.552-41.1841V477.027l5.616,3.74352c-1.817,2.91059-2.31964,1.28891-1.872,4.6805-3.01415-1.56671-3.21882-3.23257-5.616-6.5525Zm-2.808-23.39957c-.39708.86827.74851.63316-.936,1.872Zm.936,51.47964h-4.68l-1.8725-1.872,4.68051-2.8085C510.9591,504.15581,510.67786,503.59872,511.33311,506.97854ZM504.7806,483.579l1.8725-.93649,1.872,3.744h-3.7445l-.93551-1.872Zm-.93551-.93649c-2.57192,5.03586-5.47858,9.31045-10.296,12.16852h-.936v-5.61651l-1.872.936c-.19289,2.084.71709,2.996-.936,1.872-3.8623.3745-4.68.68715-7.488-1.872l5.616-.936q-.93576-3.74376-1.872-7.48752c3.62572-.70483,3.744-.5777,5.616-2.8085Zm-1.872-50.54413-2.808,3.7445-4.68.936v-3.744l2.808-7.488,5.616,3.744Zm-3.744-208.72753h1.872l-.936-1.87152,7.488,3.74352-1.8725,1.8725Zm10.296,13.104-1.872-.93551c-.91539-3.36166-1.19123-2.63426-.936-5.61651l2.808.9365q.46752,2.808.936,5.61552Zm20.59156,168.47993-1.872.936-1.87151-1.872v-.936l1.87151-.93551h2.8085Zm2.8085-6.552-1.872,1.8725-1.872-2.8085Zm-8.42451-143.20737.93649-1.8725,2.80752-1.87151,3.7445,2.80751C528.0182,256.821,526.235,257.0458,523.50065,255.19539Zm7.48851-6.552v1.87152h-.936q-.46826-2.80728-.9365-5.616l3.744,1.872Zm-6.552-10.296c3.23355,1.45873,2.96066,2.01876,4.67952,4.67952l-6.55152-.93551Zm-2.808,18.72,8.424,1.87152-.9365,1.872c-4.24759-.052-5.37894-.187-7.48752-1.872Zm3.744,32.75959h-2.808l-1.872-2.8085-.936-2.80751Zm-9.36,78.62371-2.808.93649v-1.872h-2.808l2.808-4.68,1.872-.93649,3.744,2.8085Zm-.936-122.61533,2.808,2.808-1.872,1.87152v-1.87152Zm1.872-15.91253q.46825,1.87152.936,3.744l-2.808,1.8725h-.93649l1.87249-4.68c-7.20285.10258-8.77938-2.035-7.488-7.48851C512.03008,224.84476,515.725,226.598,516.94912,229.92283Zm-8.424-17.784-4.68.93649,1.872-2.808Zm-7.488-5.61552h2.808l.93551,1.872-3.74352,5.616h-.936q-.93576-2.80875-1.872-5.616Zm-4.68-.9365c-.39658.86876.749.63317-.936,1.872Zm-34.1766-6.956c.89036-.08,1.78759-.134,2.6804-.20418l.60862.60813H463.597l-1.87151,1.87249Q461.95224,199.769,462.18047,198.63081Zm-24.45386,3.47258.59832-1.19614.92471.92423.94729.94778h-2.80751Zm-1.27368.67587,1.872,1.872h-2.80752Zm6.5525,11.232c-4.18231-1.45284-5.404-2.07914-10.29651-3.744l4.6805-4.68051,3.744.9365v5.61552c4.251.3745,3.81469,1.08129,6.55152-.93551,1.93385-1.83765.96889-.35094,1.872-3.7445q-1.714-3.42792-3.42792-6.85535c3.2954-.52518,6.62024-.95514,9.95932-1.34191-.053.5188.32934.74556,1.89311,1.64573,2.50419,2.727,4.867,2.40652,8.42353,1.872q-.93576,3.27552-1.872,6.55152c5.92327-4.42576,6.90492-4.1293,15.91253-5.616l-2.80849,4.6805c5.01819-.14234,6.38366-.61549,8.424.93551-2.90176,6.20255.615,11.45094,2.808,17.78454h-3.744v-6.55251c-16.32483.92521-24.37926-.00589-45.86363,0l2.80752,5.616-4.67952,1.872c-4.23189-1.93925-4.38454-2.75156-6.55251-6.55153C438.002,220.82589,439.9368,218.545,443.00543,214.01129Zm-9.36.93551v-2.808l2.80752,2.808Zm3.744,51.48062-3.744-.9365.93551-2.8085c2.64554.11.89674.58948,1.872-1.87151l5.616.936Zm4.67952,13.104-1.872-2.8085C442.10821,278.40746,440.85906,276.73669,442.06894,279.53145Zm-3.744,0-2.80752,2.80751-1.872-.93551,1.872-2.8085Zm1.872-18.72054v-3.74352l3.744,1.87152-.93551,1.872ZM431.7734,290.763v4.68c5.57577-1.66292,9.4739-.09326,13.10355-7.488-4.51608,2.27252-5.46877,3.30717-9.35954,1.872l4.67952-5.616,4.68-1.872v-9.35953c7.4944,1.47149,3.96733-.14774,8.424,0V280.467c-2.13411,3.04606-5.17869,3.72143-7.488,6.55152,3.51038-.24443,2.89243-.87072,5.616.9365-2.80751,3.55651-2.50468,3.37-3.744,7.488l7.488.936c-2.18269,5.25673-1.27909,4.61522-.936,8.424h-1.87151c-3.00385.57917-6.04009-1.1343-9.36-2.808q-.46824,2.80728-.93649,5.616l5.616-.936q-.46824,3.27625-.93551,6.55153c6.0931.60764,5.47269,1.26044,7.48753,5.6165v.93552h-.936c-5.67884-1.59077-6.19715-1.75765-11.232-4.67953q.93649-3.27551,1.872-6.552l-2.80751.936c-.06381,3.55112,1.872,1.87151-1.872,3.74352.374-7.39378-.1335-11.69978-3.744-14.976l-7.488,1.872c.8825-5.68081,3.65026-4.02967,0-7.487-.60028,6.421-1.03761,2.9258-4.68,4.67952l1.87152,2.80752-3.744-.93551-.93551-2.808,1.872.936c-2.59106-1.77875-1.46216-.98557-5.616,0a65.48006,65.48006,0,0,0-2.808-10.29652c-4.815,1.00816-5.57429-2.516-12.168-4.67952l3.744,4.67952-3.744,1.8725c1.0219,3.7445,1.497,3.557,1.872,5.6165l-7.488,1.87152q.46824-3.74376.93551-7.488h-5.616l-3.744-6.552q.93648-3.27551,1.87249-6.55152h.936l22.46406,4.67952c.54727,2.91157,4.976,8.94724,7.488,13.104C426.06315,290.68691,426.71889,290.3821,431.7734,290.763Zm-44.92811-38.37609v-3.74352h7.488q-.46824,1.87225-.936,3.74352Zm9.36.936,1.872,3.7445h-.93649Q396.67331,255.19515,396.20532,253.32289Zm19.65555-27.14406,2.8085,1.872C415.95462,227.55412,414.08311,228.79443,415.86087,226.17883Zm3.744,59.90414h-.93551l-1.872-1.872.93551-1.872Zm5.616,2.808-2.80752-3.744h2.80752ZM280.34129,314.3898q2.61216-4.47631,5.41575-8.82011v-1.70316l.5566.83538c.28173-.4334.55169-.87416.83636-1.30461l3.28755.46923v-3.744l-.94239-.23511a235.91258,235.91258,0,0,1,94.51317-80.21,62.22564,62.22564,0,0,1,9.389-2.85856q.14063-.70532.28222-1.41161c.97184-.40248,1.96036-.76961,2.93857-1.15933l9.88275,9.123,14.976-5.61552.93649.93551-.93649,1.872-12.16754,4.68,1.872,2.808-3.744-2.808c-2.52774,2.05312-1.77874.667-2.808,4.68-.57378,4.0071-.88005,3.86721,1.87151,6.552l4.6805-.93551q-.93649,4.212-1.872,8.424l-12.16852-4.6805c4.04586-.97134,2.621-.32984,4.6805-2.808-1.91127-1.685-.66163-.01325-1.872-2.808l-5.616.936q-.46824,2.3405-.936,4.68l6.552,5.616-5.616,1.872.936-2.80752-11.232,2.80752q.93574,4.21126,1.872,8.42451c-5.6754.25424-5.90609.69893-8.424,3.74352l-4.6805-3.74352q-.46752,2.339-.93551,4.67952c-9.519-.55316-12.84488-.06774-14.976,4.68-3.41319-1.79887-.63562-2.6534-3.744-.936-4.41546,1.84992-3.8142,3.45835-6.552,6.5525-5.65135-.693-.10258-2.22834-5.616-.93649q-.4675,3.74449-.936,7.488h-16.848l-6.55153,14.04c-4.57743-.54039-5.03586-.65525-8.42451.936q-.4675,3.743-.93551,7.488h-4.6805l2.80849,4.67952-2.80849,1.873-4.67953-.93649q-.46824,4.212-.93649,8.42353c-4.96027-2.22834-4.92984-3.19478-8.42353.93649,2.44823.90606,1.13332-.374,1.872,3.744-5.9542-.21792-6.87547,1.60991-9.36,2.808q.93576,2.80727,1.872,5.616h-.936l-2.808-1.87249c1.41308-4.64615,2.23669-6.31642,4.67952-9.35954Zm127.09605-81.65847-1.872-.93649v-2.80752C407.49919,230.82448,406.53423,229.33875,407.43734,232.73133Z"/>
      <path class="cls-1" d="M486.06105,657.67491l2.808-8.424h-.936c-4.83118,1.77777-6.84553,2.43351-9.36,6.55152L459.853,644.57088l-4.68,3.74352,2.8085,2.80849h3.744c-.72544,4.01593.54923,6.18145,1.87151,10.29554l17.784-3.74352v6.552l25.58962-3.65566c.16394-.09228.32493-.19094.48837-.2837l-1.74193-2.61266C495.829,658.86221,491.71191,655.36264,486.06105,657.67491Z"/>
      <path class="cls-1" d="M397.14083,232.73133l2.8085-2.8085c2.93709-1.661,1.38118-.94434,1.872-2.80751l-5.616,3.744Z"/>
      <path class="cls-1" d="M563.74924,283.275h3.744l2.80752-.936c-4.26723-4.10329.52616-2.192-1.872-5.616l-5.616,2.8085Z"/>
      <polygon class="cls-1" points="344.726 263.619 341.917 262.682 340.981 264.555 345.661 265.491 344.726 263.619"/>
      <polygon class="cls-1" points="333.493 260.811 331.621 258.939 330.685 258.939 328.813 260.811 329.75 263.619 333.493 260.811"/>
      <path class="cls-1" d="M393.39731,230.85933v-4.6805h-2.808q.93576,2.33976,1.872,4.6805Z"/>
      <polygon class="cls-1" points="530.989 461.115 532.861 460.178 530.989 458.306 530.989 461.115"/>
      <path class="cls-1" d="M540.34918,426.48332l-.936-.93649-2.8085,3.744c4.06992.98017,1.72083-.43929,1.872,3.744l1.87249.936,5.61553-2.808C541.54041,429.498,541.2577,429.21525,540.34918,426.48332Z"/>
      <path class="cls-1" d="M555.32473,450.81938v-2.8085l-7.488-3.744-.93551,1.872c4.33889,1.73163,2.675,1.99814,4.67952,5.61552Z"/>
      <polygon class="cls-1" points="477.637 211.203 471.086 209.331 471.086 212.139 475.765 213.075 477.637 211.203"/>
      <path class="cls-1" d="M461.72548,205.58677H460.789c-2.02318,3.29147-1.43959.84324-1.872,4.68051l1.872-1.872C462.73756,206.16742,461.60719,208.54448,461.72548,205.58677Z"/>
      <path class="cls-1" d="M550.64521,468.60293c4.41006-1.21724,4.37913-1.2246,5.616-5.616h-1.872Z"/>
      <path class="cls-1" d="M436.45293,222.43531q-.46752,1.87224-.93552,3.74352l3.744-.936Z"/>
      <polygon class="cls-1" points="328.813 595.899 327.877 597.771 333.493 602.451 334.429 600.579 328.813 595.899"/>
      <polygon class="cls-1" points="486.997 616.49 485.125 619.299 489.805 618.362 489.805 617.427 488.869 616.49 486.997 616.49"/>
      <path class="cls-1" d="M565.62124,491.067v-.93649h-8.42451C560.26929,492.0879,561.29021,491.64322,565.62124,491.067Z"/>
      <polygon class="cls-1" points="539.413 443.33 543.157 448.946 543.157 446.139 541.285 443.33 539.413 443.33"/>
      <path class="cls-1" d="M560.00523,457.37091q.46751,3.27624.93551,6.552h6.55251C565.57216,461.26265,561.783,457.93241,560.00523,457.37091Z"/>
      <polygon class="cls-1" points="563.749 446.139 559.069 445.202 560.005 448.946 563.749 446.139"/>
      <path class="cls-1" d="M560.94074,433.03485l-.93551-1.872h-2.8085v3.744h-4.67952c3.35626,3.68806,1.25749,1.72917,2.80752,4.68l3.744-2.808Z"/>
      <path class="cls-1" d="M324.13363,603.38628c5.63614,1.40376,5.81774,3.87065,9.35953,0l-8.424-1.872Z"/>
      <path class="cls-1" d="M285.757,303.86653v1.70316c.18652-.2891.3691-.58016.5566-.86778Z"/>
      <path class="cls-2" d="M438.32493,200.90725l-.59832,1.19614c.50506-.09914,1.01748-.17522,1.523-.27191Z"/>
      <path class="cls-2" d="M525.37315,530.3786l-.936,4.68h2.80752Q526.30964,532.71885,525.37315,530.3786Z"/>
      <path class="cls-2" d="M525.37315,524.76258h-4.68v.93649c3.46326,4.64369,5.97923,4.01642,8.42353-1.87249l-3.74351-2.80752C523.92767,524.32182,524.41947,521.14226,525.37315,524.76258Z"/>
      <polygon class="cls-2" points="525.373 553.779 527.245 554.715 529.117 552.842 527.245 550.97 525.373 553.779"/>
      <path class="cls-2" d="M504.7806,535.99461c1.66684.85354.239.91441,1.8725,0Z"/>
      <polygon class="cls-2" points="506.653 594.026 510.397 590.282 506.653 588.41 506.653 594.026"/>
      <path class="cls-2" d="M519.75713,544.41863h.936l2.80752-3.744-4.67952-2.808C517.93961,541.41773,518.21545,541.726,519.75713,544.41863Z"/>
      <polygon class="cls-2" points="522.565 518.211 523.501 518.211 525.373 516.339 521.629 514.467 522.565 518.211"/>
      <path class="cls-2" d="M522.56514,482.64248l1.872,2.80849C523.54188,482.95022,525.4075,484.46147,522.56514,482.64248Z"/>
      <path class="cls-2" d="M510.39711,515.40305q-.46825,3.27552-.936,6.55152h.936l2.808-4.68Z"/>
      <path class="cls-2" d="M512.26911,540.67462h.936c-.69647-5.18409-1.52548-5.99051-4.68-8.42353Z"/>
      <polygon class="cls-2" points="510.397 584.667 512.269 586.538 516.013 582.795 511.333 582.795 510.397 584.667"/>
      <polygon class="cls-2" points="522.565 532.251 517.885 531.315 520.693 534.123 522.565 532.251"/>
      <polygon class="cls-2" points="517.885 504.171 515.077 504.171 517.885 506.979 517.885 504.171"/>
      <path class="cls-2" d="M515.07712,523.82658l1.872,1.87249c.1875-3.20263,1.13283-1.34927-.936-3.7445Z"/>
      <polygon class="cls-2" points="542.221 521.955 545.965 521.019 544.093 519.147 542.221 521.955"/>
      <path class="cls-2" d="M486.06105,481.707q.93576,3.74376,1.872,7.48752l-5.616.936c2.808,2.55915,3.62572,2.2465,7.488,1.872,1.65309,1.124.74311.212.936-1.872l1.872-.936V494.811h.936c4.81744-2.85807,7.7241-7.13266,10.296-12.16852l-12.168-3.744C489.80506,481.12927,489.68677,481.00214,486.06105,481.707Zm9.36,5.61552,1.872,1.872-1.872.936Zm-2.808-.936-2.808-1.872.936-.93551,1.872,1.872Z"/>
      <polygon class="cls-2" points="476.701 484.514 485.125 484.514 485.125 479.835 482.317 475.155 476.701 477.027 476.701 484.514"/>
      <polygon class="cls-2" points="486.061 262.682 482.317 260.811 484.189 263.619 486.061 262.682"/>
      <path class="cls-2" d="M479.509,246.77088v.936l1.872.93649h.936q-.4675-2.34049-.936-4.68Z"/>
      <polygon class="cls-2" points="504.781 486.386 508.525 486.386 506.653 482.642 504.781 483.579 503.845 484.514 504.781 486.386"/>
      <polygon class="cls-2" points="496.357 224.307 497.293 221.499 497.293 220.563 493.549 220.563 494.485 223.371 496.357 224.307"/>
      <path class="cls-2" d="M487.93305,442.39487c.92226-2.65242,1.523-.44911,0-2.808l-.936,2.808Z"/>
      <polygon class="cls-2" points="491.677 228.051 494.485 226.179 492.613 226.179 491.677 228.051"/>
      <polygon class="cls-2" points="491.677 232.731 494.485 234.603 499.165 232.731 499.165 228.051 492.613 230.859 491.677 232.731"/>
      <path class="cls-2" d="M494.48507,235.53934h-1.872C494.27892,236.39288,492.8516,236.45375,494.48507,235.53934Z"/>
      <polygon class="cls-2" points="497.293 240.219 498.229 238.347 495.421 236.475 493.549 240.219 497.293 240.219"/>
      <path class="cls-2" d="M541.28518,489.19449l-1.872,2.808h2.80752C541.69748,489.089,543.273,491.3875,541.28518,489.19449Z"/>
      <path class="cls-2" d="M535.66917,501.363l.93551-.93649h1.872l-3.74352-4.68c-1.79691,2.8085-.16246,1.57162-3.744,2.8085C532.91614,500.60076,532.25205,500.37155,535.66917,501.363Z"/>
      <path class="cls-2" d="M531.92516,515.40305c9.22505.70433,7.93271,2.33976,14.976,0,2.76825-.69795,2.2838.51536,6.55152,2.80752,1.02975-3.97323-2.42663-3.33368,2.8085-5.61553-2.66125-2.79524-2.168-4.251-3.744-.93649l-13.104-5.61552-2.8085,4.67952Z"/>
      <polygon class="cls-2" points="551.581 502.298 548.773 500.427 547.837 502.298 550.645 504.171 551.581 502.298"/>
      <polygon class="cls-2" points="530.053 503.235 530.989 503.235 528.181 497.619 526.309 498.555 527.245 501.363 530.053 503.235"/>
      <path class="cls-2" d="M506.6531,506.97854h4.68c-.65525-3.37982-.374-2.82273-1.872-4.68051l-4.68051,2.8085Z"/>
      <path class="cls-2" d="M552.51721,523.82658h.93551c.92226-2.65242,1.523-.44861,0-2.80752Z"/>
      <path class="cls-2" d="M510.39711,455.4989l-.936,1.872C511.14562,456.13206,510,456.36717,510.39711,455.4989Z"/>
      <path class="cls-2" d="M516.94912,485.451c-.44763-3.39159.055-1.76991,1.872-4.6805l-5.616-3.74352v1.87152h-1.872C513.7303,482.2184,513.935,483.88426,516.94912,485.451Z"/>
      <polygon class="cls-2" points="522.565 480.77 525.373 479.835 521.629 473.282 519.757 477.027 520.693 479.835 522.565 480.77"/>
      <polygon class="cls-2" points="523.501 521.019 523.501 520.083 519.757 520.083 519.757 522.891 521.629 523.827 523.501 521.019"/>
      <path class="cls-2" d="M537.54118,536.93061l1.872.936c1.581-2.17631,1.86317-1.872.936-4.68Z"/>
      <polygon class="cls-2" points="433.645 214.947 436.453 214.947 433.645 212.139 433.645 214.947"/>
      <polygon class="cls-2" points="403.693 537.867 406.501 537.867 404.629 535.995 403.693 537.867"/>
      <polygon class="cls-2" points="436.453 202.779 435.517 204.651 438.325 204.651 436.453 202.779"/>
      <path class="cls-2" d="M386.84529,587.47474c2.729,2.22539,1.45481-.9257,2.808,2.80751l3.744-4.67952-4.68-.936Z"/>
      <polygon class="cls-2" points="403.693 540.675 405.565 538.803 401.821 537.867 403.693 540.675"/>
      <path class="cls-2" d="M405.56534,231.79484l1.872.93649c-.90311-3.39258.06185-1.90685-1.872-3.744Z"/>
      <path class="cls-2" d="M395.26931,489.19449h.936q.46824-1.87224.93551-3.74352h-2.80752Q394.80083,487.32249,395.26931,489.19449Z"/>
      <polygon class="cls-2" points="390.589 580.922 394.333 580.922 394.333 579.987 388.717 578.115 390.589 580.922"/>
      <polygon class="cls-2" points="501.037 510.723 503.845 509.787 503.845 507.915 500.101 506.979 501.037 510.723"/>
      <path class="cls-2" d="M617.10088,431.16284c-.33032,5.01328-.20615,4.64565,1.872,8.424v.936c-7.706,1.13283-6.49018-.2621-12.16754-4.68l-10.29652,5.616c-2.783-2.541-2.06833-1.01748-2.80752-3.74352-5.9105,1.13871-4.64663.748-4.6805,5.615h-4.67952c-.22038-11.928,1.10632-21.45688,5.61552-28.07958-9.43021-.6042-15.62638,6.418-16.84755,3.74352-2.69413.60764-8.64882,3.798-4.6805,4.6805l-2.80752,1.872c-3.48976,1.25258-1.41161-.79023-6.5525-2.808l.93649,3.7445-5.616,2.80752-.9365-4.67952c-1.82685-1.578-3.60461-2.12086-6.55152-2.8085l4.67952,3.744c-9.82778-2.17239-9.79489-7.95578-17.78355-5.616v-5.616h-4.68051c-1.80918,2.52725-1.14067,1.56278-.93551,4.67952-2.71426-2.246-2.95967-1.982-3.744-6.55153-5.41477,3.61149-7.10076,8.70478-14.04,11.232,2.12478,4.55093,4.50871,3.93151,4.68,8.42353l1.872.9365-6.552,2.808-1.872,2.808c3.557,1.29283,1.93532-.02552,3.744,2.808-3.72536-.9468-5.99051-.3745-9.36.936,2.35645,6.12156,1.26682,5.20127.936,13.104l1.872-3.7445,1.872-.935c5.9429,7.64508,6.48183,9.468,12.168,17.78355,2.354,2.085.54285,1.21676,3.74352.93551,1.8725,4.67265,2.16944,7.61367,7.48851,11.232l.936,1.872.93551-4.67952c3.20411,2.3962,2.65242,3.13048,5.616,3.744-1.69924,3.30521.54579,1.13969-2.80752,2.80751l4.68,3.7445,2.808-2.808.93551-1.872c-4.75216-5.01426-3.48093-2.9366-1.872-11.232l2.80849-1.872.93552,1.872-3.744,4.68,3.744,1.87152,2.80849-.93551v-6.552c3.91973,1.53677,4.921,2.82028,9.36,1.87151l2.80751,2.808c-3.68314,3.28313-2.44529,1.72623-6.55152-.93551-2.889,2.56456-3.90108,7.50422-.9365,12.16754v1.872c3.19036-4.92346,9.42874-12.652,18.72005-13.104L567.49325,488.259c-4.14845-.777-3.9158-1.17356-6.55251-2.808l-5.616,2.808.93649,4.68-2.8085-1.872c.27437,5.89676,1.1824,6.75473-1.872,8.42353l2.8085,3.744,5.616-5.616c-1.36056,3.70082-1.30314,3.93151-4.6805,5.616l4.6805.93649a156.47176,156.47176,0,0,0,14.976-15.912l.93551,1.87152c-2.12429,3.61688-2.65536,4.50282-1.872,9.36h.9365c2.38835-2.32749,4.282-5.6327,1.872-7.488l5.616-2.808q-.46825,5.14851-.9365,10.296l1.872.936c1.764-2.26123-.16688-1.57407,2.808-3.74352h.936l-2.80752,10.29554-3.7445-5.61553-5.61552,1.87152-2.8085,1.872,7.488,8.424-2.80752-1.872c-.07166,4.6162.60077,3.79456-.93649,5.616l.93649,1.8725-5.6165-7.48851-.936-1.87151h-.93552l3.744,11.232-7.488,2.80752c-1.19663,5.12911-.08245,16.57514,2.80752,17.784-1.02975,4.01347-.28075,2.62739-2.80752,4.68-1.80967-2.52676-1.14116-1.56278-.93649-4.68l-1.872-1.87249-8.42353,4.6805-.9365-1.872c-1.73113-1.2305.19486-2.38394-.93551-5.616.965-5.37158-1.71494-1.4602-2.808-4.67952l-5.61651,4.67952,2.8085,5.616h-6.552c.69943,6.64576-.56641,7.11891-2.808,12.168l-2.808,1.87249.936-3.745-1.872-.93551c-3.35234,4.56172-4.816,5.35637-2.808,11.232l-2.808.93551-3.744-2.80752c.97429,16.848-7.8954,20.70691-14.976,33.69608l1.872.936c-8.92957.187-5.98217-1.393-11.232-3.744,0,0-10.44867,5.01033-21.52805,0,2.18368,7.54053,7.59158,12.007,12.168,16.848-3.96,3.29687-5.24152,2.74911-9.36,1.87151,1.15981,3.40633-.0805,5.96548-.93552,9.36052,5.70928,8.01123,13.99,1.21675,18.71956-2.808l.936,4.68-1.872,3.74352c-7.69319,1.5834-14.56178,5.13452-22.46406,1.872l-.936,1.872h1.872l-2.808,1.872h-3.744l8.424-10.296-.936-1.87152-6.55153-.93649,2.80752,3.7445-5.616-2.808c-2.29705,4.37816-3.07354,4.75511-5.616,1.87152-2.97145,3.44117-.49475,2.71475,0,10.296l-11.232-3.744c-2.22441,3.52511-2.4394,3.02741-4.67952,4.68,2.33338,2.67843,2.74666,3.14275,7.48753,3.7445-2.64113,3.63406-1.77826.61647-.936,4.67952v.93649c-6.57312.28075-13.92862.21694-15.91155-4.6805l-3.744,4.6805c.5615,3.17171.73427,2.24111-.93649,4.67952,1.11515-8.70428-3.33074-11.0784-8.42353-15.91155l4.67952-3.744-.93551,4.67952,5.616-.93551v-.93649c-2.301-3.83727-3.04017-4.69866-8.42451-5.616l.93649,2.80849c-8.17812-3.43479-17.57839-6.27126-23.40055-10.29651l-2.80751,2.80849c3.88978,1.22805,2.967.484,4.68,3.744l-13.10453-4.6805-1.87151-2.80751,9.36,2.80751h.936c-2.64162-8.85153-8.44219-10.43493-13.104-19.65556l5.616-6.552-4.6805-1.8725c-3.08091,1.3802-2.54542,1.84059-4.67953,3.744l-4.68-2.80751h-.936c-2.15766,3.48289-.55169,1.12987,0,5.61552-3.25662,4.39926-1.98,4.60835-6.552,4.68l2.808,7.48851v.936c-5.45208,1.05331-4.73351-3.00973-8.424.93551-2.38492-3.03427-2.6637-2.352.936-3.743l-3.744-4.68051-5.616,4.68051,3.744-9.36052c-2.84629-1.45186-3.00925-1.00472-4.68-3.7445h-.936c-3.13,4.37423-.35928.68519.936,7.488l-.936,2.8085-2.808.93551c-.82459-8.26205-4.09495-6.21188-2.808-10.29554-9.65746-2.45363-13.8388-10.618-27.14407-12.16753v-5.617l-5.61552,1.8725,1.87151-3.7445c-4.67117-2.84041-7.04676-6.92554-11.23153-7.48753l-1.872-.936,2.80752,12.168-.93551,2.808-4.6805-1.872-10.29554-19.656,3.744-1.87151c-2.76727-8.69791-11.08625-12.11944-8.42451-20.59255h-4.67952l2.80751-4.68c-5.56889-1.82979-6.38415-6.56232-12.16754-10.29553l.93552,2.808-1.87152,1.87152-.936-1.87152c-1.57947-.52272,0-4.43656.936-7.4885a65.35669,65.35669,0,0,1-10.46585-6.1736,233.96009,233.96009,0,0,0,22.306,45.681l3.13539,2.61266-.49966,1.49849q5.21844,7.91012,11.0568,15.34906h.67489l.93649,1.8725h-.14038a234.50637,234.50637,0,0,0,183.74015,88.57664c3.32043,0,6.62123-.08246,9.90779-.21891q6.9589-3.05832,13.66553-6.83718L481.381,664.22693v-6.552l-17.784,3.74352c-1.32228-4.11409-2.59695-6.27961-1.87151-10.29554h-3.744l-2.8085-2.80849,4.68-3.74352L478.573,655.80241c2.51449-4.118,4.52884-4.77375,9.36-6.55152h.936l-2.808,8.424c5.65086-2.31227,9.7679,1.1873,19.656,0l1.74193,2.61266c3.55161-2.01925,7.05364-4.1671,10.48647-6.4779l.87563-1.75126h.936l.188.37646c27.95932-19.40868,51.73879-48.33885,69.01679-83.66546l-3.68511.92177-3.744-5.617c3.84414-.01424,1.29283,1.20154,3.744-.93551l3.71456,5.57184c3.43577-7.02861,6.59325-14.32619,9.496-21.8358-.46284.0908-1.07539.19191-1.97851.35192l.93649-1.87152h1.62561q1.37825-3.62817,2.67009-7.32408c-6.794,5.67884-17.75116,6.48183-27.69625,9.1956,3.45394-3.67579,6.15494-2.84629,5.616-8.424,4.00513-1.6266.964-.9738,4.6805.93551,1.61776-5.33477,3.54768-7.65981,6.55153-11.231l-3.744-1.873.93649,2.80849-2.8085.936c.1875-5.74216,1.91029-4.26772,4.68-9.35954l-3.744-4.6805h12.168c-2.09827-1.79985-2.00649-1.08374-5.616-1.872a85.8485,85.8485,0,0,0,.93649-18.72h.93552c1.46756,6.23249,2.62836,5.50165,4.68,8.42451l1.872.93551.936-.93551c-1.36154-3.73026.055-2.191-2.808-2.808,1.259-6.68159,2.50664-9.29572,4.68-15.912,5.27734,3.96538,7.03057,9.75072,7.47476,18.53354.59292-2.65487,1.13626-5.33821,1.66439-8.02989-.09129-1.08914.28959-2.15472.22087-3.95212a7.18838,7.18838,0,0,1,.41377.62776,329.99711,329.99711,0,0,0,5.08445-44.03824l-.81821-2.45314c.41033-.26946.70826-.46432.96251-.62728.17768-4.47681.2994-8.97325.2994-13.51043,0-.02749-.00147-.05448-.00147-.082l-1.26044-.75636Zm-99.21575,21.52805-4.68-1.87151-4.68-4.6805,5.61553,4.6805c.87759-.87858,1.9147-.9041,3.7445-2.8085l.936,2.8085Zm2.808,2.808h.936l.936,2.80752h-2.808Zm5.616,15.912c1.88869,1.685.69353-.02209,1.872,2.808Zm.93551-2.808-6.55153-.93649q2.33976-4.67952,4.68-9.36c3.4181,1.498,1.40375,1.57554,4.68,1.872Zm3.7445-7.488v-2.80849l1.87151,1.872Zm3.744-2.80849-5.61651-3.744c-.056-6.61337.42064-6.52944,3.744-9.36h-3.744l.9365-2.80751h6.55152c-.5615,3.1722-.73427,2.24159.9365,4.68l-3.744,1.87151,1.872,3.7445-2.8085-.93649c3.08238,2.97685,4.35067,2.5675,9.36,1.8725C539.92511,457.56576,539.15844,456.15955,534.73317,458.30642Zm8.424-9.36-3.744-5.616h1.872l1.872,2.8085Zm-2.808-14.97554-1.87249-.936c-.15118-4.1833,2.19791-2.76384-1.872-3.744l2.8085-3.744.936.93649c.90852,2.73193,1.19123,3.01464,5.61553,4.67952Zm6.552,12.168.93551-1.872,7.488,3.744v2.8085l-3.744.935C549.57619,448.137,551.24009,447.87051,546.9012,446.13888Zm3.744,22.46405,3.744-5.616h1.872C555.02434,467.37833,555.05527,467.38569,550.64521,468.60293Zm4.67952-29.01607c-1.55-2.95084.54874-.99195-2.80752-4.68h4.67952v-3.744h2.8085l.93551,1.872-1.872,3.744Zm8.42451,6.552-3.744,2.80751-.93649-3.744Zm-2.8085,17.784q-.46751-3.27625-.93551-6.552c1.77777.5615,5.56693,3.89174,7.488,6.552Zm4.6805,27.14407c-4.331.57623-5.35195,1.02091-8.42451-.93649h8.42451ZM489.80506,618.36232l-4.68.93649,1.872-2.80849h1.872l.936.93649Zm-165.67143-14.976.93551-1.872,8.424,1.872C329.95137,607.25693,329.76977,604.79,324.13363,603.38628Zm3.74352-5.61552.936-1.872,5.616,4.68-.936,1.872Zm6.552,11.232.9365-1.87151.93551,1.87151Zm7.488-9.36051-2.80751.93649v-2.808h2.80751Zm35.56809,8.424q-.46824-2.80728-.936-5.61553l3.744.93551,1.87151,2.8085Zm27.14407,32.76008v3.7445h-3.7445q-.46752-2.3405-.93551-4.68Zm-3.7445,7.488q2.3405,2.33976,4.6805,4.6805C402.15411,651.22646,402.36418,652.33916,400.88484,648.3144Zm21.52854-6.55153-2.8085-.93649,2.8085-3.744,3.744,1.872C422.01287,640.23248,424.25152,638.27311,422.41338,641.76287Zm4.67952,1.87151,3.744.9365-2.80751,1.87151Zm14.976,14.97555-10.29554-2.80752c-2.032-1.88574-.77353-.26848-.93649-4.67952l12.16852,1.872,1.87152,1.872C442.16269,658.13579,442.70848,654.36724,442.06894,658.60993Zm10.29652,0-.9365-2.80752,2.808.936Zm6.55152-20.59156h-.93551c-.96447-3.22717-1.28351-.58653.93551-3.744h.936Zm10.296-12.168q-.93576,2.3405-1.872,4.6805c-3.0063-2.71524-2.31325-2.40307-.936-6.5525l2.808.93649Zm11.23251,24.33606-1.87249-.93551,1.87249-3.7445H483.253C482.2066,648.89357,482.51533,648.2555,480.44552,650.1864Zm34.6316-48.67212c-1.21037,2.79377.03927,1.1235-1.872,2.8085l-.936-2.8085Zm-22.46406,14.04053v-.9365l2.808-1.872h.936C497.57383,615.33393,495.36021,614.69734,492.61306,615.55481Zm2.808-3.744-3.744-1.872c2.72162-5.49282,3.64-4.1401,9.36-6.55251l4.68,2.8085C500.6567,610.3128,496.22259,609.89364,495.42107,611.8108Zm9.35953.93551-.93551,2.8085-1.872.93551V611.8108l.936.93551ZM494.48507,654.8669c-1.83667-2.434-.91343-.87857-.936-3.744l1.872.93552Zm3.744.93551-.936-1.872h1.872Zm4.68-11.23153v-2.808h.936Zm9.36,3.74352-.936,2.80849-2.808,1.872c.06528-4.69817-.28075-2.90765.936-5.617h2.808Zm-12.168-17.78356,8.424,1.87152c1.41505,3.61983.95957,4.144-.936,8.424,3.10005,2.299,1.72868,2.355,3.744-.93551,1.9795,1.24865,3.26006,1.85678,4.68,3.74351l2.808,2.808C507.10809,644.91789,503.56434,640.24377,500.10108,630.53084Zm15.912-40.24859.936-.93551,1.872,2.808Zm4.68,44.92811.936-1.87151h2.808Zm19.65605-70.19968,2.808-4.68c1.74537,1.21675,1.34388,2.006,2.80752,4.68Zm15.912,0-.93649-2.808,3.744.936Zm36.5036-12.16852v-1.872C593.61886,552.637,593.67923,551.20968,592.76482,552.84216Zm-.93551-5.61552h.93551l.93649,2.80849-2.80849.935Zm-4.6805,3.74352h-.936l-.936-2.80752C587.16549,549.84715,585.97083,548.141,587.14881,550.97016Zm-6.552-1.87152.936.93649h1.872l-2.808,3.74352Zm-1.87151,11.232c.85305,1.66635.91391.239,0,1.872Zm-1.872-38.3761.93551-2.80751h2.808Zm12.16754-48.67212v.9365l-2.808.936-.936-2.808Zm-11.232-8.42353h.9365l-1.872,2.80752Zm9.36,29.01558-1.872.9365c.32-6.03567-1.38609-7.62251-8.42353-8.42451V481.707l2.80752-3.744,10.296.93551C588.14224,482.72641,588.6203,488.51176,587.14881,493.8745Zm9.36-.93551-1.872.93551-.93552-1.872.93552-.93551,1.872.93551Z"/>
      <path class="cls-2" d="M602.3359,536.31512c.41033-1.19909.84618-2.379,1.24277-3.58842l-8.94184-9.83563C595.10507,527.21572,600.17578,534.14813,602.3359,536.31512Z"/>
      <path class="cls-2" d="M605.86885,518.21057c-2.00256-2.94152-.55316.89722,1.068,3.51037q2.39792-8.36954,4.36735-17.01787c-.24443-.17767-.46284-.35339-.75538-.53205C608.37206,508.5266,605.5881,512.13612,605.86885,518.21057Z"/>
      <path class="cls-2" d="M605.48552,526.585c.12025-.39511.24787-.78532.36665-1.18141C605.28477,526.00584,605.15618,526.10891,605.48552,526.585Z"/>
      <path class="cls-2" d="M437.38942,228.05083l4.67952-1.872-2.80752-5.616c21.48437-.00589,29.5388.92521,45.86363,0v6.55251h3.744c-2.193-6.3336-5.70976-11.582-2.808-17.78454-2.04036-1.551-3.40583-1.07785-8.424-.93551l2.80849-4.6805c-9.00761,1.48671-9.98926,1.19025-15.91253,5.616q.9365-3.27551,1.872-6.55152c-3.55651.53451-5.91934.855-8.42353-1.872-1.56377-.90017-1.94612-1.12693-1.89311-1.64573-3.33908.38677-6.66392.81673-9.95932,1.34191q1.714,3.42718,3.42792,6.85535c-.90312,3.39356.06184,1.90685-1.872,3.7445-2.73683,2.0168-2.30049,1.31-6.55152.93551v-5.61552l-3.744-.9365-4.6805,4.68051c4.89253,1.66487,6.1142,2.29117,10.29651,3.744-3.06863,4.53374-5.00346,6.8146-12.16852,7.488C433.00488,225.29927,433.15753,226.11158,437.38942,228.05083Zm33.69608-18.72,6.55153,1.8725-1.872,1.872-4.67952-.93649Zm-10.29651-3.744h.93649c-.11829,2.95771,1.01208.58065-.93649,2.8085l-1.872,1.872C459.3494,206.43,458.76581,208.87824,460.789,205.58677Zm-24.33606,16.84854,2.80849,2.80751-3.744.936Q435.98567,224.30731,436.45293,222.43531Z"/>
      <polygon class="cls-2" points="500.101 258.939 497.293 258.939 498.229 260.811 500.101 258.939"/>
      <path class="cls-2" d="M465.46949,199.03476l-.60862-.60813c-.89281.07018-1.79.12418-2.6804.20418q-.22749,1.13822-.455,2.27644l1.87151-1.87249Z"/>
      <path class="cls-2" d="M439.24964,201.83148c-.50555.09669-1.018.17277-1.523.27191l-.33719.67587h2.80751Z"/>
      <polygon class="cls-2" points="569.365 479.835 566.557 479.835 567.493 481.707 569.365 479.835"/>
      <path class="cls-2" d="M282.01353,326.33107h.936q-.93649-2.80874-1.872-5.616c2.48456-1.1981,3.40583-3.02593,9.36-2.808-.73869-4.118.57622-2.838-1.872-3.744,3.49369-4.13127,3.46326-3.16483,8.42353-.93649q.46825-4.21128.93649-8.42353l4.67953.93649,2.80849-1.873-2.80849-4.67952h4.6805q.46751-3.74451.93551-7.488c3.38865-1.59126,3.84708-1.4764,8.42451-.936l6.55153-14.04h16.848q.46824-3.743.936-7.488c5.51343-1.29185-.03534.24345,5.616.93649,2.73782-3.09415,2.13656-4.70258,6.552-6.5525,3.10839-1.7174.33082-.86287,3.744.936,2.13116-4.74775,5.457-5.23317,14.976-4.68q.46824-2.33976.93551-4.67952l4.6805,3.74352c2.51793-3.04459,2.74862-3.48928,8.424-3.74352q-.93576-4.21275-1.872-8.42451l11.232-2.80752-.936,2.80752,5.616-1.872-6.552-5.616q.46751-2.33976.936-4.68l5.616-.936c1.21037,2.79476-.03927,1.123,1.872,2.808-2.0595,2.47817-.63464,1.83667-4.6805,2.808l12.16852,4.6805q.93576-4.21275,1.872-8.424l-4.6805.93551c-2.75156-2.68481-2.44529-2.54492-1.87151-6.552,1.02926-4.013.28026-2.62689,2.808-4.68l3.744,2.808-1.872-2.808,12.16754-4.68.93649-1.872-.93649-.93551-14.976,5.61552-9.88275-9.123c-.97821.38972-1.96673.75685-2.93857,1.15933q-.14135.70531-.28222,1.41161a62.22564,62.22564,0,0,0-9.389,2.85856,235.91258,235.91258,0,0,0-94.51317,80.21005l.94239.23511v3.744L287.15,303.3973c-.28467.43045-.55463.87121-.83636,1.30461l1.31541,1.97311h-1.872v-1.10533q-2.80063,4.34748-5.41575,8.82011l3.54375.70924c-2.44283,3.04312-3.26644,4.71339-4.67952,9.35954Zm117.9358-96.40824-2.8085,2.8085-.93551-1.872,5.616-3.744C401.33051,228.97849,402.88642,228.26188,399.94933,229.92283Zm-2.8085-2.80751-3.74352-2.808C396.54006,225.6026,395.34883,224.84673,397.14083,227.11532Zm-3.74352-.93649v4.6805h-.936q-.9365-2.34049-1.872-4.6805Zm-51.48013,36.50359,2.8085.9365.93551,1.872-4.68-.936Zm-11.232-3.74351h.936l1.872,1.872-3.74352,2.808-.93649-2.808Zm.936,12.168q-.46752,1.404-.936,2.80751l-1.872.9365q-.46824-2.33976-.936-4.67953Zm-36.50409,21.52854c3.02642.9895-.11486,3.10986-1.872,4.67952v1.872h-.93551Z"/>
      <path class="cls-2" d="M453.301,618.36232l1.872,2.808h-4.67952l.93551,1.87249h-1.872v3.744c4.74578-1.31639,5.69749-2.82911,8.42451.93551l2.80752-2.80751-3.744-6.55251Z"/>
      <polygon class="cls-2" points="458.917 568.755 457.045 568.755 457.045 570.627 458.917 568.755"/>
      <polygon class="cls-2" points="446.749 616.49 445.813 618.362 448.621 621.17 449.557 618.362 446.749 616.49"/>
      <path class="cls-2" d="M454.237,521.01906v-.93649l-.936-2.808h-3.744c-.74409,3.52756-1.21627.54433.93649,3.7445Z"/>
      <polygon class="cls-2" points="447.685 612.746 455.173 610.874 450.493 606.195 447.685 611.811 447.685 612.746"/>
      <path class="cls-2" d="M410.24486,535.99461h-1.87151C410.03921,536.84815,408.61189,536.909,410.24486,535.99461Z"/>
      <path class="cls-2" d="M493.54907,497.61851c-1.33014.964.09374,1.33308-3.744.9365l-.936,2.808c2.78936,2.15227,4.57154,5.2317,9.36,7.48753C498.56137,501.605,498.17656,499.90085,493.54907,497.61851Z"/>
      <polygon class="cls-2" points="490.741 593.091 492.613 594.026 494.485 591.219 491.677 591.219 490.741 593.091"/>
      <polygon class="cls-2" points="481.381 623.978 479.509 622.107 478.573 623.978 481.381 623.978"/>
      <path class="cls-2" d="M472.957,612.74631c1.67076,2.70051,1.80967,2.34614,4.68,3.744C475.89166,613.26462,476.87723,613.95668,472.957,612.74631Z"/>
      <polygon class="cls-2" points="466.405 532.251 468.277 530.379 463.597 528.507 466.405 532.251"/>
      <polygon class="cls-2" points="443.005 409.635 443.941 409.635 445.813 406.827 443.005 406.827 443.005 409.635"/>
      <polygon class="cls-2" points="413.989 304.803 416.797 301.995 414.925 301.995 413.989 304.803"/>
      <path class="cls-2" d="M417.73288,491.067l1.872,1.872h3.7445q-.93649-3.27625-1.87249-6.5525Z"/>
      <path class="cls-2" d="M409.30935,301.995l3.744,3.7445c-.65525-3.3808-.375-2.82322-1.872-4.6805Z"/>
      <polygon class="cls-2" points="424.285 583.73 427.093 583.73 425.221 581.859 424.285 583.73"/>
      <polygon class="cls-2" points="457.045 361.899 459.853 360.963 459.853 360.027 457.045 360.027 457.045 361.899"/>
      <path class="cls-2" d="M411.18135,493.8745l-2.808-4.68C409.41929,492.58167,409.11106,491.9436,411.18135,493.8745Z"/>
      <polygon class="cls-2" points="451.429 352.539 453.301 353.475 451.429 349.731 451.429 352.539"/>
      <path class="cls-2" d="M446.74944,381.55472c4.39877.72887,6.85387-4.48663,12.16754-4.68l-2.80752-7.48753-7.488-1.872c-.60666,4.04489-.55169,4.305.93551,7.48753l-4.68-.93551Q445.81343,377.811,446.74944,381.55472Z"/>
      <path class="cls-2" d="M427.0929,308.547l2.8085-.936v-.936l-3.744-2.80849C425.59589,307.03922,425.42214,306.11352,427.0929,308.547Z"/>
      <polygon class="cls-2" points="439.261 559.395 436.453 557.523 438.325 560.331 439.261 560.331 439.261 559.395"/>
      <path class="cls-2" d="M435.51741,626.78683l-.93649,3.744,1.872,1.87152c6.82736-3.55652,6.11321-3.60413,11.232-3.74352l.9365-2.8085-4.68051-1.872Z"/>
      <polygon class="cls-2" points="491.677 244.899 494.485 244.899 491.677 243.027 491.677 244.899"/>
      <path class="cls-2" d="M404.62934,445.20238h-3.7445c-1.21627,2.58763.99735,1.951,3.7445,2.8085Z"/>
      <polygon class="cls-2" points="395.269 444.267 398.077 444.267 395.269 441.459 395.269 444.267"/>
      <polygon class="cls-2" points="404.629 292.635 407.437 289.827 404.629 288.891 404.629 292.635"/>
      <path class="cls-2" d="M396.20532,253.32289q.46824,1.87225.93551,3.7445h.93649Z"/>
      <polygon class="cls-2" points="389.653 294.507 391.525 296.379 395.269 296.379 395.269 295.443 391.525 291.699 389.653 294.507"/>
      <path class="cls-2" d="M413.05336,280.467l-22.46406-4.67952h-.936q-.93576,3.27479-1.87249,6.55152l3.744,6.552h5.616q-.46752,3.74376-.93551,7.488l7.488-1.87152c-.375-2.05949-.85011-1.872-1.872-5.6165l3.744-1.8725-3.744-4.67952c6.59374,2.16356,7.353,5.68768,12.168,4.67952a65.48006,65.48006,0,0,1,2.808,10.29652c4.15385-.98557,3.02495-1.77875,5.616,0l-1.872-.936.93551,2.808,3.744.93551-1.87152-2.80752c3.64241-1.75372,4.07974,1.74145,4.68-4.67952,3.65026,3.45737.8825,1.80623,0,7.487l7.488-1.872c3.61051,3.27626,4.118,7.58226,3.744,14.976,3.744-1.872,1.8082-.1924,1.872-3.74352l2.80751-.936q-.93574,3.27552-1.872,6.552c5.03488,2.92188,5.55319,3.08876,11.232,4.67953h.936v-.93552c-2.01484-4.35606-1.39443-5.00886-7.48753-5.6165q.46752-3.27478.93551-6.55153l-5.616.936q.46824-2.80728.93649-5.616c3.31994,1.67371,6.35618,3.38718,9.36,2.808H454.237c-.34309-3.8088-1.24669-3.16729.936-8.424l-7.488-.936c1.23933-4.118.9365-3.93151,3.744-7.488-2.72358-1.80722-2.10563-1.18093-5.616-.9365,2.30933-2.83009,5.35391-3.50546,7.488-6.55152v-7.48753c-4.45669-.14774-.92962,1.47149-8.424,0V282.339l-4.68,1.872-4.67952,5.616c3.89077,1.43517,4.84346.40052,9.35954-1.872-3.62965,7.39476-7.52778,5.8251-13.10355,7.488v-4.68c-5.05451-.38088-5.71025-.07607-11.232,2.808C418.02934,289.4142,413.60063,283.37853,413.05336,280.467Zm-17.784,5.616c2.79378,1.21038,1.123-.03926,2.808,1.872Zm2.808,7.488v-2.808l1.872,1.8725Z"/>
      <path class="cls-2" d="M385.90929,287.01848c-1.685-1.88771.02111-.693-2.808-1.87151l1.872,1.87151Z"/>
      <polygon class="cls-2" points="377.485 419.931 379.357 420.867 381.229 418.059 376.549 417.123 377.485 419.931"/>
      <path class="cls-2" d="M394.33331,248.64337h-7.488v3.74352h6.552Q393.86482,250.51537,394.33331,248.64337Z"/>
      <polygon class="cls-2" points="378.421 444.267 380.293 442.395 378.421 442.395 378.421 444.267"/>
      <path class="cls-2" d="M374.67726,277.659c1.66635.854.23854.91441,1.872,0Z"/>
      <path class="cls-2" d="M409.30935,457.37091c-6.94713-5.01819-13.01716-10.52181-23.40006-12.16853l-1.872,3.744,12.168.9365v.93649c-5.57184,2.05165-6.80283,5.377-6.552,13.10354,3.15453,2.60775,8.35629,5.45208,14.04,2.808C407.4717,464.53891,407.89479,461.806,409.30935,457.37091Z"/>
      <polygon class="cls-2" points="418.669 286.083 419.605 286.083 417.733 282.339 416.797 284.211 418.669 286.083"/>
      <path class="cls-2" d="M381.22928,311.35454l.93551-.93551-1.87151-1.872Q380.76078,309.951,381.22928,311.35454Z"/>
      <path class="cls-2" d="M472.957,440.52286l-4.68-4.68q.93649,3.27552,1.872,6.552h.93649Z"/>
      <path class="cls-2" d="M474.829,490.1305l-2.808-.936,2.808-5.61552-3.74352-.93649c-.9684,3.41025-8.22818,8.87214-10.29651,11.232v.9365c5.2744,1.69187,13.60172,2.274,17.784,4.67952q.93576-4.21128,1.87249-8.42353l-2.80849.93551c1.54511-3.48682.36615-2.19988,3.744-3.74352v-.93649C477.7882,487.90313,476.71133,488.00621,474.829,490.1305Z"/>
      <polygon class="cls-2" points="465.469 287.018 466.405 289.827 467.341 288.891 465.469 287.018"/>
      <path class="cls-2" d="M474.829,228.05083l1.872-.93551v-3.7445h-2.808Q474.36126,225.71132,474.829,228.05083Z"/>
      <path class="cls-2" d="M485.12505,229.92283l-3.744-7.48752-3.744,6.552c3.63259-.535,2.139-1.10632,2.80849,2.80752,4.867.59733,6.80725.6685,10.29554-1.872Z"/>
      <path class="cls-2" d="M458.917,292.63548c2.71426,2.80064.936,1.45971,4.68,1.872,1.77286-5.65528-2.90126-5.94682-1.87151-11.23251H458.917l.936,4.68-5.616-1.872C455.45372,289.852,455.70306,290.82728,458.917,292.63548Z"/>
      <path class="cls-2" d="M458.917,271.10694c-1.46167-3.97225-1.24277-2.995-4.68-4.67952-.09375,3.85739-.15068,2.6799,3.7445,4.67952Z"/>
      <path class="cls-2" d="M418.66937,228.05083l-2.8085-1.872C414.08311,228.79443,415.95462,227.55412,418.66937,228.05083Z"/>
      <path class="cls-2" d="M442.06894,279.53145c-1.20988-2.79476.03927-1.124-1.872-2.8085Z"/>
      <polygon class="cls-2" points="425.221 288.891 425.221 285.147 422.413 285.147 425.221 288.891"/>
      <polygon class="cls-2" points="433.645 281.403 435.517 282.339 438.325 279.531 435.517 278.595 433.645 281.403"/>
      <path class="cls-2" d="M436.45293,260.81091c-.97527,2.461.77353,1.98146-1.872,1.87151l-.93551,2.8085,3.744.9365,4.67952-4.68051Z"/>
      <polygon class="cls-2" points="443.941 258.939 440.197 257.067 440.197 260.811 443.005 260.811 443.941 258.939"/>
      <path class="cls-2" d="M361.57323,288.891v3.7445C363.327,289.933,362.78066,291.95225,361.57323,288.891Z"/>
      <polygon class="cls-2" points="338.173 317.907 340.045 316.035 338.173 313.227 338.173 317.907"/>
      <path class="cls-2" d="M312.90111,301.995q.469-.93576.936-1.87249V299.187h-3.744Z"/>
      <path class="cls-2" d="M295.11707,346.92263l1.872,1.872h.93649C296.24056,346.90594,297.94716,348.10159,295.11707,346.92263Z"/>
      <path class="cls-2" d="M317.58112,317.90705c-1.95642,2.90176-2.703,2.79083-5.616,4.67952l5.616,6.55251q-.46824,1.40474-.93551,2.808l-1.872.936c-3.03968-3.94721-2.566-4.94653-11.232-3.744q.46824,2.80726.93551,5.616l4.6805-3.7445c-1.54462,4.97942-2.09876,4.53571-.93649,8.42451h-4.67952l-4.6805,11.23154c1.82537-2.02318,2.194-2.98863,2.80849-6.552l1.872,2.808q.93576-1.87151,1.872-3.74352l1.872-.936a25.96752,25.96752,0,0,1,4.67952,10.29554h.936c3.09759-15.8929,3.22472-13.12072,11.23252-22.46308h-3.744C320.57613,323.65362,320.3798,319.88753,317.58112,317.90705Z"/>
      <path class="cls-2" d="M325.06914,312.291l3.744-2.808h-2.80752Q325.53739,310.887,325.06914,312.291Z"/>
      <path class="cls-2" d="M326.00563,306.675q.46752.93649.93552,1.872h3.744q.46825-.93649.936-1.872l-3.744-1.872Z"/>
      <path class="cls-2" d="M315.70912,291.699l-2.808,2.80849v3.743C315.65807,295.92106,316.34572,295.05132,315.70912,291.699Z"/>
      <path class="cls-2" d="M592.76482,536.93061l-.93551,1.872,1.872.93551h.93552C593.42645,536.94435,594.67609,538.61512,592.76482,536.93061Z"/>
      <polygon class="cls-2" points="600.253 521.955 602.125 520.083 600.253 520.083 600.253 521.955"/>
      <polygon class="cls-2" points="581.533 484.514 583.405 482.642 580.597 480.77 579.661 482.642 581.533 484.514"/>
      <path class="cls-2" d="M293.24506,432.09835q-.46751,1.873-.93551,3.7445l2.80752.936C294.46231,433.399,294.74306,433.95563,293.24506,432.09835Z"/>
      <path class="cls-2" d="M299.79757,444.26687l-5.616-5.616c.06724,4.708.09325,3.78769-1.872,7.488l2.80752,2.80751,3.744-2.80751Z"/>
      <path class="cls-2" d="M341.91718,491.067q.46826,2.808.936,5.616c4.0071-.42358,1.52009.38972,4.68-1.872v5.61552l2.808,1.87151,5.616-8.42353-.936-.93551A49.02558,49.02558,0,0,1,341.91718,491.067Z"/>
      <polygon class="cls-2" points="364.381 451.754 358.765 449.883 362.509 453.627 363.445 453.627 364.381 451.754"/>
      <polygon class="cls-2" points="363.445 462.987 366.253 463.923 364.381 461.115 363.445 462.987"/>
      <polygon class="cls-2" points="351.277 506.043 355.957 506.979 352.213 503.235 351.277 506.043"/>
      <path class="cls-2" d="M369.99725,600.57877h-1.872C369.79111,601.43231,368.36379,601.49317,369.99725,600.57877Z"/>
      <polygon class="cls-2" points="371.869 471.411 373.741 469.538 370.933 469.538 371.869 471.411"/>
      <path class="cls-2" d="M351.27721,591.21875q.46824,1.8715.936,3.744c3.07011-3.37,2.74812-2.246,0-5.616Z"/>
      <path class="cls-2" d="M340.98118,299.187v1.872l1.872,1.872C342.41242,300.46315,343.47211,301.486,340.98118,299.187Z"/>
      <path class="cls-2" d="M373.74126,460.17842l-.93649,2.8085v.936h6.55251c-.23118-4.038-.23413-4.50429-1.872-6.552Z"/>
      <path class="cls-2" d="M312.90111,357.21866l1.8725-1.872h-2.8085Q312.43335,356.28241,312.90111,357.21866Z"/>
      <path class="cls-2" d="M296.98907,557.52266l.93649,2.808q2.33976,2.33976,4.67953,4.68C301.91351,559.83739,301.49877,558.93918,296.98907,557.52266Z"/>
      <polygon class="cls-2" points="486.061 214.947 495.421 217.755 497.293 215.883 486.061 210.267 486.061 214.947"/>
      <path class="cls-2" d="M351.27721,295.443l-2.808,2.80751v.9365c5.87566,1.27418,14.789-1.85041,14.976,0l3.744-1.872-7.488-4.67952C357.26723,295.18777,356.587,295.3944,351.27721,295.443Z"/>
      <polygon class="cls-2" points="360.637 266.427 362.509 265.491 360.637 263.619 360.637 266.427"/>
      <path class="cls-2" d="M497.29308,388.10673q.46751-2.33976.936-4.67952l-3.744-1.87249-2.808.936Z"/>
      <path class="cls-2" d="M613.35687,386.23473l3.04311,1.739c-.07755-.58653-.16884-1.16767-.24934-1.75273l-1.85777-1.85826Z"/>
      <path class="cls-2" d="M505.7171,229.92283c-.25523,2.98225.02061,2.25485.936,5.61651l1.872.93551h.936q-.46826-2.808-.936-5.61552Z"/>
      <polygon class="cls-2" points="499.165 213.075 496.357 213.075 497.293 214.947 499.165 213.075"/>
      <path class="cls-2" d="M618.81582,414.58573c-.03239-.63709-.0535-1.2781-.08933-1.91323l-.68961-.22971Z"/>
      <polygon class="cls-2" points="499.165 221.499 500.101 223.371 498.229 223.371 504.781 227.115 506.653 225.243 499.165 221.499"/>
      <polygon class="cls-2" points="530.053 400.275 531.925 398.403 528.181 397.467 530.053 400.275"/>
      <polygon class="cls-2" points="494.485 433.035 494.485 436.779 499.165 435.843 501.973 432.098 502.909 429.291 497.293 425.547 494.485 433.035"/>
      <polygon class="cls-2" points="525.373 403.083 525.373 404.019 527.245 405.891 529.117 404.955 530.053 402.147 527.245 402.147 525.373 403.083"/>
      <path class="cls-2" d="M550.64521,412.44279h.93551q.46824-2.33976.93649-4.6805h-4.6805l.93649,3.745Z"/>
      <path class="cls-2" d="M612.42136,402.14726q.4675-10.297.93551-20.59254l-2.808-.93551-3.74351,3.74352-3.744-3.74352c1.84353,6.96087,4.04586,12.45467,1.87151,18.71955,5.213,1.76206,7.79773,3.97126,10.296,8.42353h-1.872l-1.872,2.8085c5.04567,1.27025,3.11673-.33572,7.20628,1.35664-.12761-2.16257-.2994-4.30846-.46824-6.45532C617.19021,403.78858,616.37446,403.13038,612.42136,402.14726Z"/>
      <path class="cls-2" d="M588.0853,433.03485v2.808l2.80752.936C589.74134,434.711,589.88761,434.45431,588.0853,433.03485Z"/>
      <path class="cls-2" d="M604.93285,402.14726l1.8725,2.80752C605.595,402.161,606.84461,403.83177,604.93285,402.14726Z"/>
      <path class="cls-2" d="M524.43714,238.34735l-1.872,3.744,6.55152.93551C527.3978,240.36611,527.67069,239.80608,524.43714,238.34735Z"/>
      <path class="cls-2" d="M496.35707,205.58677l-.936,1.872C497.10607,206.21994,495.96049,206.45553,496.35707,205.58677Z"/>
      <path class="cls-2" d="M542.2207,244.89887l-1.87152,2.808h5.61553C544.1678,244.89887,545.80322,246.13575,542.2207,244.89887Z"/>
      <path class="cls-2" d="M541.28518,230.85933h.93552c-.20124-.58114-.34505-1.02681-.47414-1.417-.89428-.85355-1.78758-1.71053-2.69365-2.543l-.57622,1.15147Z"/>
      <polygon class="cls-2" points="508.525 212.139 505.717 210.267 503.845 213.075 508.525 212.139"/>
      <path class="cls-2" d="M501.03708,214.01129l3.74352-5.616-.93551-1.872h-2.808l-2.808,1.872q.93576,2.808,1.872,5.616Z"/>
      <path class="cls-2" d="M516.01312,230.85933l-1.87249,4.68h.93649l2.808-1.8725q-.46826-1.8715-.936-3.744c-1.22411-3.32484-4.919-5.07807-8.424-6.552C507.23374,228.82437,508.81027,230.96191,516.01312,230.85933Z"/>
      <polygon class="cls-2" points="513.205 362.835 510.397 367.515 513.205 367.515 513.205 369.387 516.013 368.451 518.821 364.707 515.077 361.899 513.205 362.835"/>
      <polygon class="cls-2" points="517.885 248.643 515.077 245.835 516.013 248.643 516.013 250.515 517.885 248.643"/>
      <polygon class="cls-2" points="522.565 289.827 525.373 289.827 519.757 284.211 520.693 287.018 522.565 289.827"/>
      <path class="cls-2" d="M530.05316,258.93891l-8.424-1.87152v1.87152c2.10858,1.685,3.23993,1.82,7.48752,1.872Z"/>
      <path class="cls-2" d="M567.49325,260.81091c-2.9582-.1178-.58065,1.01257-2.8085-.936-3.34251-1.92894-1.123.11043-.93551-3.744l-9.36,1.872-1.872-4.68c2.90863.30235,6.606.7171,7.488,1.8725l2.80752-1.8725c-2.57683-1.14362-1.52941-.67537-3.744-.936-2.64309-2.382-10.81581-2.70592-15.91155-3.74352l-11.232,8.424-.936,1.87152,12.168,6.552v.9365l-12.168,7.487-1.8725,2.8085c5.83689-.27044,3.904.53794,9.36,1.872l-4.67952,4.68c-.55267,4.5092,4.99708,11.49756,5.616,16.84755l3.744-2.80752c1.21626,3.82892,1.53922,3.28411,3.744,5.616,4.16513-.60076,15.33041-3.22569,20.592-5.616,2.62051,3.65075,5.21157,3.0382,6.55152,9.36,5.7559-.9679,14.13575.2518,20.60433,1.02092q-2.956-6.89855-6.21826-13.5124c-.78139-.67243-1.71592-1.45726-3.154-2.48455l-.93551.93649,3.744,5.615-8.42451,3.7445c-2.65045-4.3006-3.96685-13.988-9.36-15.912,2.458-3.11673,3.21637-4.01887,8.42451-4.67952V280.467l-5.616-1.872c1.74537-3.22668.7598-2.53363,4.67952-3.744-.00343-.02749-.00589-.04418-.00981-.07166q-4.95193-8.16635-10.38978-15.73633.05154.416.10406.832ZM537.54118,283.275v-.936l1.872-.93551Zm8.42353-28.07958-.93552-1.8725,2.80752-1.87151h1.8725l-2.808,3.744Zm6.5525,11.232-3.744-.9365c-4.35165-6.70613-1.33013-.60077-.93649-8.42353l1.8725,1.87152c1.31.2135.22332.18013.936-.936l2.80751.936C551.729,264.22852,551.64256,260.70735,552.51721,266.42742Zm18.71956,31.82309-1.87152-1.87151c-1.685-1.81752-.76666-3.20067,0-6.552h1.87152Zm0-10.29553c-3.61591-.26014-1.12841.79317-3.74352-.9365Zm-.936-5.616-2.80752.936h-3.744l-.93649-3.74352,5.616-2.8085C570.82693,280.14694,566.03354,278.23567,570.30077,282.339Z"/>
      <path class="cls-2" d="M546.322,233.95643c-.43242-.44076-.85748-.8933-1.29284-1.32866v1.97508Z"/>
      <path class="cls-2" d="M557.19673,246.77088l.4869-.24345q-1.85826-2.2308-3.75775-4.39877.23118,1.85384.46334,3.7067Z"/>
      <path class="cls-2" d="M524.43714,253.32289l-.93649,1.8725c2.73438,1.85041,4.51755,1.62561,7.48851-.9365l-3.7445-2.80751Z"/>
      <path class="cls-2" d="M530.05316,250.51489h.936v-1.87152l1.87151-1.87249-3.744-1.872Q529.58491,247.70689,530.05316,250.51489Z"/>
    </g>
  </g>
</svg>
