<svg id="Layer_1" data-name="Layer 1" xmlns="http://www.w3.org/2000/svg" width="12in" height="12in" viewBox="0 0 864 864">
  <defs>
    <style>
      .cls-1 {
        fill: none;
      }

      .cls-2 {
        fill: #ead5e0;
      }
    </style>
  </defs>
  <g>
    <path d="M365.15167,190.78332a238.84994,238.84994,0,0,0-106.399,24.71792,2.00776,2.00776,0,0,0,0,3.60462C340.528,259.377,391.32636,340.95206,391.32636,431.998c0,91.0499-50.79838,172.62494-132.57366,212.89218a2.00775,2.00775,0,0,0,0,3.60461,238.78874,238.78874,0,0,0,106.399,24.72185c133.00951,0,241.21864-108.20913,241.21864-241.21864C606.37031,298.99245,498.16118,190.78332,365.15167,190.78332Z"/>
    <g>
      <polygon class="cls-1" points="522.743 522.896 526.487 520.089 524.615 520.089 522.743 522.896"/>
      <polygon class="cls-1" points="526.487 505.113 525.551 507.92 527.423 505.113 526.487 505.113"/>
      <polygon class="cls-1" points="530.231 519.152 529.295 514.473 525.551 519.152 530.231 519.152"/>
      <path class="cls-1" d="M534.91078,521.02422q.46788-.93649.93625-1.872.93576-2.808,1.87176-5.616l-3.74376-.9365Q534.44291,516.81245,534.91078,521.02422Z"/>
      <polygon class="cls-1" points="533.975 501.368 530.231 501.368 531.167 504.176 533.975 501.368"/>
      <path class="cls-1" d="M541.4628,507.92018H539.591q-.46824.93649-.93625,1.872l2.808.936Z"/>
      <path class="cls-1" d="M533.039,466.73608q-.46788,2.808-.93625,5.616l1.87225-.93552Z"/>
      <path class="cls-1" d="M522.74275,510.72819l.93625,4.68,2.808-.93551c-2.39915-3.65664-2.049-.54236-.93625-4.6805H524.615Z"/>
      <path class="cls-1" d="M504.023,519.15221l2.808-1.872V506.98467c-2.66469,3.03919-1.88526,2.55327-3.744,5.615l.936,1.873Z"/>
      <path class="cls-1" d="M478.75089,546.29628c3.40264-.60273,2.83329-.3745,4.68-1.87151h-3.74376Z"/>
      <path class="cls-1" d="M503.087,525.70374h-2.808C501.85891,528.02534,500.84069,526.79926,503.087,525.70374Z"/>
      <polygon class="cls-1" points="511.511 503.24 510.575 505.113 512.447 505.113 511.511 503.24"/>
      <path class="cls-1" d="M499.34294,541.61627h-5.616v-4.6805l-2.808,1.872c-.3745,9.43757-10.89876,22.44688-15.912,29.01656l6.552-2.808,2.808,2.808c-.95736-4.8626.39413-17.597,10.29627-15.91253.00809-6.88087.33768-8.29346,7.48777-8.42353l-2.808,4.67952,3.744.9365h.936v-5.616c11.14393.85306,20.82618-11.56088,25.27207-20.59205l-.93625-.936c-2.77316,2.55965-1.84477,3.21245-5.616,2.808l1.87225,3.744h-3.744c-1.872-3.93151-3.70843-4.65106-7.48827-6.552-1.27393,1.66635-2.31375,3.23355-3.3192,4.65449,2.84924-.19928.867.97968,3.3192-.911l2.808,1.87249c1.11491-2.33976-.59881-.92127,1.87225-1.87249l.936,4.6805-6.552,1.872-2.64407-5.28814c-2.67229,3.715-5.217,6.27176-11.396,6.22415Q498.87518,537.40425,499.34294,541.61627Zm9.36-12.168,6.552,8.424h-3.744l-2.808-.93649c-.6236-3.90451,1.61824-1.4337-1.872-3.74352Z"/>
      <polygon class="cls-1" points="523.679 477.968 521.807 477.968 519.935 481.712 524.615 479.84 523.679 477.968"/>
      <path class="cls-1" d="M509.639,526.64023l.16393.32787c.08663-.12074.17351-.23069.26063-.35339C509.91555,526.62452,509.81419,526.62158,509.639,526.64023Z"/>
      <polygon class="cls-1" points="502.151 557.528 501.215 561.272 504.959 557.528 502.151 557.528"/>
      <path class="cls-1" d="M492.79093,591.2239v.93649c6.42194.32787,7.08259,2.59745,10.296-.93649v-.93551l-3.744-.9365Z"/>
      <polygon class="cls-1" points="503.087 583.736 501.215 586.544 504.959 586.544 504.023 583.736 503.087 583.736"/>
      <path class="cls-1" d="M513.38273,567.82433c-3.2468-3.62817-4.02451-8.237-8.42377-5.616-6.288,3.06274-7.09487,10.402-14.04,12.16754-.34922-4.23876,1.229-1.872-1.872-4.68l-.936,2.808c.71047,3.956,2.17828,1.76943-1.872,4.68051h-.93576q.46788-3.27625.93576-6.552l-5.616,2.808v6.55152h5.616c-1.96551,4.919-1.76157,7.488.936,10.29652v-6.552l5.616.936v-4.6805l4.68,2.808c7.34592-6.24623,4.26256-7.20678,15.91179-7.48753q-.93576-2.3405-1.87176-4.68a24.27536,24.27536,0,0,0,13.104-7.48851v-.93551C520.01524,562.90676,515.255,564.59078,513.38273,567.82433Zm-14.03979,8.42353v-5.61552C502.09107,574.00185,502.41305,572.87835,499.34294,576.24786Zm2.808-3.744,1.872-2.808,2.808,2.808Zm8.424-3.743-.936-1.873h2.808Z"/>
      <polygon class="cls-1" points="505.895 585.608 509.639 583.736 505.895 582.8 505.895 585.608"/>
      <path class="cls-1" d="M533.039,542.55178l-.93625,1.873.93625.935,1.87175-.935q-.46786-.9365-.93575-1.873Z"/>
      <path class="cls-1" d="M475.00688,550.0398v1.872C475.92129,550.27932,475.86067,551.70664,475.00688,550.0398Z"/>
      <path class="cls-1" d="M490.91892,594.9684c.91441-1.634.85379-.20664,0-1.8725Z"/>
      <polygon class="cls-1" points="475.007 546.296 474.071 546.296 473.135 550.04 475.943 549.104 475.007 546.296"/>
      <path class="cls-1" d="M490.91892,554.7203l-2.808,6.55153,6.55227-1.87152C493.26457,556.52948,493.61944,556.39107,490.91892,554.7203Z"/>
      <path class="cls-1" d="M520.14335,549.52051l1.66365,3.32779h-.936l-.80324-3.21343a98.97139,98.97139,0,0,0-4.81278,8.82944l8.424-4.68c1.08472-3.46375,2.542-6.46662.936-10.296A46.00628,46.00628,0,0,0,520.14335,549.52051Z"/>
      <path class="cls-1" d="M467.51911,547.23228l.93576,2.80752h.936C468.21264,547.21069,469.4078,548.91679,467.51911,547.23228Z"/>
      <path class="cls-1" d="M519.935,549.10429l.13277.53058c.0243-.03878.05129-.07559.07559-.11436Z"/>
      <path class="cls-1" d="M498.40694,498.56016v-.936c-.787-2.41535-1.4283-4.90088-2.808-6.552.13007,3.40829-1.41161,4.17986,1.872,7.488Z"/>
      <polygon class="cls-1" points="515.255 559.4 514.319 563.144 517.127 563.144 518.999 559.4 515.255 559.4"/>
      <path class="cls-1" d="M528.35877,535.06425c.05276,4.2476.18749,5.379,1.87225,7.48753v-1.87151l3.744-5.616Z"/>
      <polygon class="cls-1" points="403.871 632.408 402.935 634.28 406.679 632.408 403.871 632.408"/>
      <polygon class="cls-1" points="478.751 492.008 478.751 491.072 476.879 490.137 475.943 491.072 476.879 492.944 478.751 492.008"/>
      <path class="cls-1" d="M313.07922,650.19254c.16271,4.411-1.096,2.79377.936,4.67952l10.29578,2.80751c.63954-4.24268.09375-.47413,2.808-3.74352l-1.87176-1.87151Z"/>
      <polygon class="cls-1" points="334.607 657.68 336.479 655.808 333.671 654.872 334.607 657.68"/>
      <polygon class="cls-1" points="400.127 653 402.935 653 401.999 651.128 401.063 651.128 400.127 653"/>
      <path class="cls-1" d="M397.31918,600.58392h-2.808l.936,2.8085C397.35845,601.70742,396.10881,603.3777,397.31918,600.58392Z"/>
      <polygon class="cls-1" points="399.191 588.416 398.255 589.352 401.063 591.224 399.191 588.416"/>
      <path class="cls-1" d="M287.80716,652.06454q-2.34013-2.34123-4.68-4.6805C284.606,651.4088,284.39642,650.2961,287.80716,652.06454Z"/>
      <path class="cls-1" d="M425.39925,559.40031l-2.808,4.68H428.207C426.74337,561.40631,427.14462,560.61707,425.39925,559.40031Z"/>
      <polygon class="cls-1" points="369.239 615.56 367.367 618.368 372.047 617.432 372.047 616.496 371.111 615.56 369.239 615.56"/>
      <polygon class="cls-1" points="441.311 562.208 437.567 561.272 438.503 564.08 441.311 562.208"/>
      <path class="cls-1" d="M286.8714,643.64052V639.896l-4.68026-.93551q.46825,2.33829.936,4.68Z"/>
      <path class="cls-1" d="M301.84719,639.896l2.808.93649c1.83838-3.48976-.40052-1.53088,3.744-2.8085l-3.744-1.872Z"/>
      <path class="cls-1" d="M377.66313,611.816l-2.808,1.872v.9365c2.74714-.85747,4.96076-.22087,3.744-2.8085Z"/>
      <polygon class="cls-1" points="309.335 642.704 310.271 645.512 313.079 643.641 309.335 642.704"/>
      <path class="cls-1" d="M390.76716,652.06454l2.80777-1.872.93624-2.8085v-.9365h-2.808C390.48641,649.1569,390.83244,647.36637,390.76716,652.06454Z"/>
      <polygon class="cls-1" points="460.031 518.217 459.095 521.024 462.839 518.217 460.031 518.217"/>
      <path class="cls-1" d="M389.83092,659.55207l-1.87176-2.808c-9.88791,1.1878-14.00543-2.31178-19.656,0l2.808-8.424h-.936c-4.83143,1.77826-6.84577,2.434-9.36,6.552L342.095,643.64052l-4.67976,3.74352,2.808,2.8085h3.744c-.72543,4.01592.54948,6.18144,1.87176,10.29553l17.78405-3.744v6.55251Z"/>
      <path class="cls-1" d="M341.15929,637.088l.93575-3.7445h-.93575c-2.21927,3.158-1.90023.51733-.936,3.7445Z"/>
      <path class="cls-1" d="M349.58306,629.6q.93614-2.33976,1.872-4.68v-.936l-2.808-.936C347.26956,627.19741,346.57676,626.88524,349.58306,629.6Z"/>
      <path class="cls-1" d="M472.19887,477.96811l-10.29578-.93551-2.80825,3.744v4.67952c7.03794.802,8.74429,2.38884,8.42427,8.42451l1.87176-.93649C470.86236,487.5814,470.3843,481.79556,472.19887,477.96811Zm-8.42377,5.616-1.872-1.872.93576-1.872,2.808,1.872Z"/>
      <polygon class="cls-1" points="471.263 473.288 471.263 472.352 467.519 471.417 468.455 474.225 471.263 473.288"/>
      <polygon class="cls-1" points="460.031 463.929 459.095 466.736 460.967 463.929 460.031 463.929"/>
      <polygon class="cls-1" points="381.407 653 379.535 653 380.471 654.872 381.407 653"/>
      <polygon class="cls-1" points="386.087 640.833 385.151 640.833 385.151 643.641 386.087 640.833"/>
      <path class="cls-1" d="M401.06319,645.512l-2.808-2.808c-1.4202-1.88673-2.70051-2.49536-4.68025-3.74352-2.01508,3.29049-.644,3.23453-3.744.93551,1.89556-4.28,2.35154-4.80419.93624-8.424l-8.424-1.872C385.80616,639.31341,389.35015,643.98753,401.06319,645.512Z"/>
      <polygon class="cls-1" points="384.215 615.56 386.087 614.624 387.023 611.816 385.151 611.816 384.215 610.88 384.215 615.56"/>
      <path class="cls-1" d="M365.49535,644.57554H362.6871l-1.872,3.7445,1.872.936C364.75739,647.32514,364.44866,647.96272,365.49535,644.57554Z"/>
      <path class="cls-1" d="M383.27915,602.45593c-5.72007,2.41191-6.63816,1.05969-9.36,6.5525l3.744,1.872c.80127-1.91716,5.23587-1.498,10.296-5.616Z"/>
      <path class="cls-1" d="M377.66313,651.12805l-1.872-.93551c.02258,2.86543-.90042,1.31.936,3.74351Z"/>
      <path class="cls-1" d="M451.60707,295.44864l1.87176,1.87151v-8.42353h-1.87176C450.8404,292.248,449.92231,293.63063,451.60707,295.44864Z"/>
      <polygon class="cls-1" points="419.783 282.345 421.655 280.473 419.783 281.409 419.783 282.345"/>
      <path class="cls-1" d="M456.28684,252.39253v1.8725C457.20149,252.63108,457.14062,254.05839,456.28684,252.39253Z"/>
      <path class="cls-1" d="M452.54307,281.40861c-4.26723-4.1033.52592-2.19252-1.872-5.616l-5.616,2.8085.936,3.74352h3.744Z"/>
      <path class="cls-1" d="M432.887,257.07255c-.71218,1.11613.3745,1.149-.936.936l-1.872-1.87152c-.39389,7.82277-3.41541,1.71691.936,8.42353l3.74425.9365c-.87465-5.72007-.78826-2.1989.93576-7.48851Z"/>
      <path class="cls-1" d="M460.03109,263.62456l.936-1.87249c-1.52008-3.27577-.92766-2.05852-3.744-3.74352q.93614,2.80727,1.87176,5.616Z"/>
      <polygon class="cls-1" points="450.671 245.841 449.735 248.648 451.607 245.841 450.671 245.841"/>
      <polygon class="cls-1" points="431.951 250.521 430.079 250.521 427.271 252.393 428.207 254.265 429.143 254.265 431.951 250.521"/>
      <path class="cls-1" d="M580.7749,500.43217l-.936-.936q-.46788,1.87226-.936,3.744h.936Q580.30714,501.83617,580.7749,500.43217Z"/>
      <path class="cls-1" d="M307.4632,623.048c5.38386.91735,6.12329,1.77875,8.424,5.616v.936l-5.616.936.936-4.67952-4.68,3.74351c5.0928,4.83364,9.53869,7.20727,8.42378,15.912,1.67076-2.43841,1.49775-1.50781.93624-4.67952l3.744-4.6805c1.98343,4.89745,9.33843,4.96076,15.912,4.6805V639.896c-.8425-4.063-1.70537-1.04546.93576-4.67952-4.74087-.60224-5.15439-1.06656-7.48777-3.7445,2.24061-1.6531,2.4551-1.15491,4.67976-4.68l11.232,3.744c-.495-7.58128-2.9717-6.85535,0-10.296,2.54223,2.88359,3.3192,2.50664,5.61626-1.872l5.616,2.808-2.808-3.744,6.55177.936.936,1.872-8.424,10.296h3.74425l2.80777-1.872h-1.872l.936-1.872c7.90252,3.262,14.77112-.28861,22.46406-1.872l1.872-3.744-.936-4.67952c-4.72983,4.02476-13.01028,10.81876-18.72,2.808.8555-3.395,2.09582-5.95419.936-9.36051,4.11851.87759,5.3998,1.42535,9.36-1.87152-4.5762-4.841-9.98435-9.3075-12.168-16.84853,11.07963,5.01083,21.52805,0,21.52805,0,5.25011,2.35154,2.30246,3.9315,11.23179,3.7445l-1.87176-.93649c7.08063-12.98869,15.95032-16.84755,14.976-33.6956l3.744,2.80752,2.808-.93551c-2.008-5.87566-.54408-6.67031,2.808-11.232l1.87176.93551-.936,3.745,2.80826-1.87249c2.24159-5.04911,3.50718-5.52227,2.808-12.168H429.143l-2.808-5.616,5.616-4.67952c1.09331,3.21932,3.773-.69206,2.80825,4.67952,1.13037,3.23208-.79562,4.385.93576,5.616l.936,1.872,8.424-4.6805,1.87176,1.8725c-.20492,3.11722-.87317,2.15324.93625,4.67952,2.52726-2.05214,1.77826-.666,2.808-4.67952-2.89047-1.2094-4.00439-12.65493-2.808-17.784l7.488-2.80751-3.744-11.232h.936l.93576,1.87151,5.616,7.48851-.93575-1.8725c1.537-1.82144.86483-.9998.93575-5.616l2.80825,1.87151-7.488-8.42353,2.808-1.872,5.61577-1.872,3.74426,5.616,2.80776-10.29554h-.936c-2.97465,2.16945-1.04423,1.48229-2.808,3.74352l-1.87176-.936q.46788-5.14776.936-10.29652l-5.61626,2.8085c2.41044,1.85532.51684,5.16053-1.87176,7.488h-.93624c-.78311-4.8572-.25253-5.74363,1.87225-9.36l-.936-1.87152a156.38722,156.38722,0,0,1-14.976,15.91155l-4.68-.936c3.37712-1.68451,3.31994-1.9152,4.68-5.616l-5.616,5.616-2.808-3.744c3.05415-1.6688,2.14613-2.52725,1.872-8.42353l2.808,1.87151-.936-4.67952,5.616-2.808c2.63671,1.63444,2.40357,2.03054,6.552,2.808q2.34014-6.08425,4.68-12.16852c-9.2918.452-15.53018,8.18058-18.72005,13.10354v-1.87151c-2.96507-4.66381-1.9525-9.603.936-12.16754,4.10624,2.66174,2.86887,4.21815,6.552.93551l-2.808-2.808c-4.43852.94827-5.44-.33475-9.36-1.872v6.55251l-2.808.93551-3.744-1.872,3.744-4.67953-.936-1.872-2.808,1.872c-1.60892,8.29543-2.88016,6.21777,1.872,11.232l-.93576,1.872-2.808,2.808-4.68025-3.7445c3.35355-1.66782,1.10828.4977,2.808-2.80751-2.96409-.61353-2.41215-1.3483-5.616-3.744l-.936,4.67952-.93576-1.872c-5.31931-3.61835-5.616-6.55937-7.48826-11.232-3.20092.28075-1.38977,1.14951-3.744-.93551-4.73744-6.92848-5.93849-9.38751-9.63219-14.42435-.06675.75979-.132,1.52008-.20614,2.27742l.47855-.95711c-.35732.78189.51733.67832-.53255,1.554a238.55054,238.55054,0,0,1-4.05592,26.01174l.84446-.42211,1.872,3.744h-3.45785a239.22111,239.22111,0,0,1-88.22006,136.75254c3.10913,1.19417,6.29237,2.3805,9.31,3.64781ZM451.60707,478.9046l-1.872,1.872-.936-1.872ZM388.89516,593.0959v-5.616l3.744,1.872Zm6.552-53.35164h-.936l-3.744-8.42353C393.92145,533.75375,394.7507,534.56017,395.44718,539.74426Zm-3.744-18.72q.46788-3.27552.936-6.55153l2.808,1.87151-2.808,4.68Zm2.808,64.58367-1.872-1.87152.93576-1.872h4.68025Zm4.67977-60.83966-1.87176-1.872.936-1.872C400.32376,523.41944,399.37843,521.56609,399.19094,524.76823Zm-1.87176-21.52806h2.808v2.808Zm7.48777,28.08056-1.872,1.87152-2.80776-2.808Zm-1.872,12.16754h-.936c-1.54144-2.69266-1.81753-3.0009-.93576-6.5525l4.67977,2.80849Zm6.552,10.296-1.87176-.936,1.87176-2.8085,1.872,1.872Zm-2.80777-19.65605.936-4.68q.93574,2.33976,1.87176,4.68Zm-3.74425-9.36v-.936h4.68026c-.95392-3.62032-1.44524-.44076,0-3.74351l3.74376,2.80751C408.91442,528.78464,406.39821,529.41192,402.935,524.76823Zm3.74425-40.24761-1.87225-2.8085C407.64956,483.53111,405.78419,482.01938,406.6792,484.52062Zm.936,30.88758-1.87225,1.872h-.936l-.93575-3.744ZM421.655,536.93577l-1.87176-.93552,2.808-3.744C423.51866,535.06425,423.23619,534.75994,421.655,536.93577Zm2.808-15.91155,1.872-2.80752,1.872,1.872Zm11.232,1.872h-.93576l.93576-2.80751C437.21781,522.44761,436.617,520.24381,435.695,522.89622Zm-4.68-23.40006,2.808,1.87152-.936,1.87249-2.808-1.87249Zm-7.488-11.23252c1.98808,2.193.41278-.105.936,2.8085h-2.808Zm11.23227,22.46455c1.576-3.31454,1.08276-1.85875,3.74377.93649-5.23514,2.28185-1.77851,1.6423-2.808,5.61553-4.268-2.29215-3.78328-3.50547-6.552-2.80752-7.04357,2.33976-5.75074.70384-14.976,0l4.68-4.6805,2.808-4.67952Zm-17.78429-15.912,3.744,4.68h-1.872l-.936.936c-3.41712-.991-2.75279-.76176-4.67977-2.808C416.813,496.38777,415.17808,497.62416,416.975,494.81615Zm-6.55177,1.872,2.808,5.616H412.295l-2.808-1.872-.936-2.808Zm-6.552-24.33606,3.744,6.5525-2.80826.93551-1.872-.93551-.936-2.80849ZM401.999,519.15221h3.744v.9365l-1.87176,2.80751-1.87225-.936Zm-6.55177-41.1841v-1.872l5.616,3.744c-1.817,2.91059-2.31964,1.28842-1.87225,4.68051-3.01391-1.56671-3.21883-3.23257-5.616-6.55251Zm-3.744,23.39957c1.49775,1.85777,1.21675,1.30068,1.87176,4.6805h-4.67977l-1.87225-1.872Zm-2.808,33.69657c-1.63346.91441-.2059.85355-1.87225,0Zm-2.808-28.07958v1.872l-2.808.93551-.936-3.744Zm-12.168,83.30372h2.808l-1.872,2.80751-1.872-.93551Zm-12.168,30.88758,1.872,1.872h-2.808Zm-1.872-5.616c-2.87059-1.39787-3.00925-1.04349-4.68-3.744C359.11905,613.02632,358.13347,612.33426,359.87909,615.56Zm-16.848,8.424-2.80776,2.808c-2.72678-3.76512-3.67873-2.25191-8.424-.93551v-3.744H333.671l-.936-1.8725h4.68026l-1.872-2.808H339.287Zm-13.104-13.10354,2.808-5.616,4.68026,4.67953-7.48827,1.872Zm-.93575,4.67952,2.808,1.872-.936,2.808-2.808-2.808ZM317.759,625.85648l8.42427-2.8085,4.68,1.872-.93625,2.8085c-5.1188.13939-4.40465.18651-11.23178,3.74352l-1.872-1.872Z"/>
      <polygon class="cls-1" points="576.095 427.424 576.095 430.232 577.967 429.296 576.095 427.424"/>
      <polygon class="cls-1" points="584.519 504.176 585.455 504.176 587.327 502.304 584.519 500.432 584.519 504.176"/>
      <polygon class="cls-1" points="588.263 496.688 583.583 494.816 583.583 498.56 588.263 497.624 588.263 496.688"/>
      <path class="cls-1" d="M274.4263,225.24847c.40861.23854.80593.49328,1.21283.73378v-.73378Z"/>
      <path class="cls-1" d="M400.12719,451.76054l.936-1.872-.936-2.808c-1.8298,1.9044-2.86715,1.92993-3.74426,2.808l-3.5386-2.94887c-.00662.10945-.01079.2194-.01767.32836l2.62052,2.62051Z"/>
      <path class="cls-1" d="M275.63913,223.37646l3.744,2.8085C277.59089,223.91588,278.78237,224.67224,275.63913,223.37646Z"/>
      <path class="cls-1" d="M284.06339,226.185,280.21582,228.75c.45622.2832.91735.55954,1.37161.84618l.60371-.60371C285.12848,227.33153,283.57257,228.04813,284.06339,226.185Z"/>
      <path class="cls-1" d="M397.31918,431.168c-.15682-4.10918-2.164-3.98647-4.13151-7.41145.09276,2.73684.14872,5.4835.14872,8.24291,0,.882-.038,1.75519-.04761,2.63475l5.90216-2.52971Z"/>
      <path class="cls-1" d="M393.21883,438.51171c-.016.59586-.01227,1.19614-.03239,1.79053.43855.07313.843.10356,1.32473.22578C393.54008,439.00646,393.545,438.68644,393.21883,438.51171Z"/>
      <path class="cls-1" d="M453.47883,287.02462l-3.74377-.93649C452.35018,287.8173,449.86317,286.76448,453.47883,287.02462Z"/>
      <polygon class="cls-1" points="463.775 549.104 462.839 548.168 462.839 552.848 465.647 549.104 463.775 549.104"/>
      <path class="cls-1" d="M476.87913,521.96022l9.35978,10.296,2.808-4.68c-2.33142-3.744-1.96551-.9733.936-5.616-1.85237-2.31326-4.20637-8.1094-1.872-4.68-.28075-6.07445,2.503-9.684,4.68-14.04,4.02476,2.45952,3.22373,5.082,5.616,0h-4.68c-.42776-8.89226-2.17165-14.72522-7.488-18.71955-2.17337,6.61631-3.421,9.23044-4.68,15.91155,2.86322.617,1.44621-.92177,2.808,2.808l-.936.936-1.872-.936c-2.05165-2.92237-3.21245-2.192-4.67977-8.424h-.936a85.81788,85.81788,0,0,1-.93625,18.72005c3.60928.78826,3.5175.07215,5.616,1.872h-12.168l3.744,4.68051c-2.76947,5.09181-4.49276,3.61737-4.67976,9.35953l2.808-.936-.93625-2.8085,3.74425,1.87249c-3.00384,3.57173-4.93377,5.89677-6.552,11.23154-3.716-1.90931-.67513-2.5621-4.68-.93551.53893,5.57773-2.16232,4.74823-5.61625,8.424,10.58831-2.88948,22.38748-3.53835,29.01631-10.296C483.96075,535.25126,477.41364,526.90331,476.87913,521.96022Zm5.616-2.808h1.87176l-1.87176,1.872Zm-6.552,19.65556-1.87225-.93551.936-1.872c1.91152,1.68451.66188.01375,1.87225,2.80752Z"/>
      <path class="cls-1" d="M576.09489,522.89622l-2.80826,5.616,1.87225-.936Q575.62676,525.23647,576.09489,522.89622Z"/>
      <path class="cls-1" d="M365.15152,192.79221A238.17454,238.17454,0,0,0,259.6407,217.305c1.56794.77256,3.10937,1.58978,4.65793,2.39523.65353-.31315,1.29528-.64642,1.952-.95318a62.16454,62.16454,0,0,1,9.3885-2.85857q.14135-.70605.28246-1.41161c.97159-.40247,1.96036-.76961,2.93857-1.15932l9.883,9.123,14.976-5.61552.936.93551-.936,1.872-12.168,4.67952,1.87225,2.8085-3.74425-2.8085c-2.52726,2.05361-1.77826.66753-2.80776,4.68051-.29965,2.09287-.51414,3.05292-.26995,3.87653q1.77432,1.18239,3.52289,2.39915l3.29907-.65918q-.28639,1.28768-.5723,2.57536a240.44592,240.44592,0,0,1,27.643,22.99611l3.8169.63611-1.58463,1.58487q4.97586,4.94455,9.667,10.16448a5.59934,5.59934,0,0,1,3.14986-.51733v4.10919q2.94533,3.42349,5.76915,6.952l-.15313-.76519h2.808c-.62432,3.20459.8403,4.5789,1.70145,6.42047a237.88646,237.88646,0,0,1,47.47181,133.75557c6.49189-2.58959,8.26671-7.49244,13.53865-11.00821.78434,4.56957,1.02951,4.30551,3.744,6.55152-.20492-3.11673-.87342-2.15226.93576-4.68h4.68026v5.61651c7.98866-2.34026,7.95577,3.44362,17.7838,5.616l-4.68-3.744c2.94741.68764,4.72517,1.2305,6.552,2.8085l.936,4.67952,5.616-2.808-.936-3.744c5.14041,2.01778,3.0625,4.06059,6.552,2.808l2.808-1.872c-3.96856-.8825,1.98612-4.07286,4.68-4.6805,1.22142,2.6745,7.41758-4.34821,16.84779-3.74352-4.50945,6.6227-5.8359,16.15157-5.61576,28.07958h4.67976c.03387-4.867-1.22976-4.47632,4.68026-5.615.73943,2.726.025,1.20252,2.80776,3.743l10.296-5.616c5.67785,4.41841,4.46208,5.81333,12.168,4.68051v-.936c-2.07791-3.77836-2.20233-3.41074-1.872-8.424h.936l4.68,2.808c-2.37829,6.552-1.271,4.40662,0,11.23154-3.33589-.03731-1.95349-.85453-4.68.93649l.936,2.80752c2.488,4.07973,1.26461,5.67982,7.488,6.5525-1.52573,2.53658-2.183.12369-.936,2.80752,1.98244.94631,2.68089.99441,2.808,6.55251,3.09416-1.285,4.01617-1.69924,7.488-.936l2.808,10.29554h3.744c1.55641-3.75432,4.55829-7.88264,4.68-13.10354,3.49589.91882.75611,1.80034,3.744,0,1.69408-2.2254.59046-2.47965.936-6.55251,2.91844.51733,5.74314-.161,8.424,1.872-1.79716,2.352-1.60156,1.284.93576,2.8085l-2.808,9.36-4.67977-.9365,5.61577,6.552,3.74426,1.872v-2.808l2.80776-1.872-2.80776-10.29553,5.61576-2.8085c-3.36214-7.16309-2.645-13.9993,0-18.71956q2.34014,2.33976,4.68,4.68l-2.808,8.424,3.744-.9365a28.28911,28.28911,0,0,1,9.36-11.19718v-.03435l.03632.00785c3.07232-2.26221,6.50465-4.19459,10.25971-6.55987-1.89164-4.8891-.38751-8.64047-2.80826-13.104,3.05907-3.93985,3.60756-3.399,7.48827-8.424l1.87176.93649c2.16993,8.985,2.56382,11.03668,10.29627,16.84706.32-5.672.38849-2.92924,2.808-7.48753h.936c2.045,9.48911,3.96291,13.97427.93575,23.40006l2.6345-.43929a234.66518,234.66518,0,0,1-6.82246,44.80933c-1.10214,2.54886-2.20944,4.96764-3.29981,7.1096l1.23835.30971a233.09455,233.09455,0,0,1-8.05443,23.2587l-.67218-.16786c-.03142.79808-.13449,1.64818-.24983,2.50614C546.85745,607.242,463.1974,666.697,365.6394,666.697a233.72074,233.72074,0,0,1-100.71546-22.71977c-1.75347.91833-3.50449,1.8401-5.28324,2.71622A238.16811,238.16811,0,0,0,365.15152,671.2067c132.11033,0,239.207-107.09693,239.207-239.20725S497.26185,192.79221,365.15152,192.79221Zm-77.34436,38.07227V228.057c1.93384,1.83715.96888.35093,1.872,3.744Zm10.296-5.616,2.808,1.872C298.19668,226.62376,296.32492,227.86407,298.10318,225.24847ZM550.82282,406.83193l1.872,1.8725-2.808,2.808Q550.3547,409.17268,550.82282,406.83193Zm-9.36-93.59925,2.808.93552-2.808,2.808Zm-1.87176,12.168,2.808,1.87152h-2.808Zm4.67977,78.62371q-.46788.93649-.936,1.872l-1.872-1.872v-1.872ZM524.615,318.84821c3.83752,2.53707,2.48775,3.04949,7.48778,2.808-1.35517,4.77376.83047,4.43411,0,7.48851h-3.744c-1.11368-3.49859,1.25626-4.5681-4.67977-3.744Q524.14688,322.12521,524.615,318.84821Zm-1.87225,0L520.871,320.7207v-1.87249l-.936-2.807Zm-29.01582-65.51967,1.872,1.872h-2.808Zm-6.552-4.68051-3.744-3.74351C486.96533,246.41086,485.60354,245.30945,487.17491,248.648Zm-6.552,21.52855,2.808,3.744C479.11975,272.09914,480.26435,273.22165,480.6229,270.17658Zm.936,19.65556-3.744-.93552.936-2.80849,1.872-1.872C483.44146,287.45262,483.05665,285.90112,481.5589,289.83214ZM475.94313,248.648l6.552,1.8725-1.87225.936-1.872,2.8085-3.744-.93649-.936-2.808Zm.936,32.76058-1.87225,1.872v-1.872Zm-1.87225-7.488c-3.41712-.99147-2.75279-.76176-4.67976-2.808C473.74424,272.10356,473.0799,271.87434,475.00688,273.92059ZM437.567,225.24847q-.46824-1.87152-.936-3.74352C439.56837,224.00766,438.28487,222.65,437.567,225.24847Zm.936,3.744v3.744l-3.74377-3.744Zm3.744,13.104-.936,2.808-1.872.936-2.808-.936q-.46788-3.74377-.936-7.48753Zm-14.976-13.104c1.93385,1.83764.96864.35094,1.872,3.744l-1.872.936Zm.936,17.784h-5.61577l1.87176-2.808C428.04528,245.2049,426.40986,243.96851,428.207,246.77652ZM424.463,229.929h-.936l-2.808-2.8085.936-1.872C423.71425,226.94476,423.45509,227.01838,424.463,229.929Zm-2.808-14.976-2.808,2.80752q-.46788-1.87225-.936-3.744Zm-7.488-2.8085,2.808,1.872h-2.808Zm-1.872,37.4401q-.46788-2.808-.936-5.616l3.744,1.872-1.87176,1.872v1.872Zm.93625,3.744c-2.971,2.5621-4.75413,2.78641-7.48826.93649l.93624-1.8725,2.80777-1.872ZM411.359,208.40043l-1.872,1.87249-.936-1.87249ZM406.6792,237.417c3.2338,1.45873,2.96041,2.01827,4.67977,4.67952l-6.552-.93551Zm-2.808,18.72,8.42377,1.87152-.936,1.87151c-4.2476-.052-5.37919-.18651-7.48777-1.87151Zm-4.68026-27.14455q.46824,1.87151.93625,3.744l-2.808,1.87249h-.93625l1.87225-4.68c-7.2026.10258-8.77987-2.035-7.488-7.48851C394.27239,223.91392,397.96682,225.66714,399.19094,228.99248Zm-1.87176,15.912,2.808,2.808-1.872,1.872v-1.872Zm-6.552-33.69609-4.68.936,1.872-2.808Zm-7.488-5.61552h2.808l.93576,1.872-3.74376,5.616h-.936q-.93574-2.80875-1.872-5.616Zm-5.616,29.95109,2.808,1.873-.936,1.87151h-3.744Zm-2.808-.935h1.872C375.09391,235.52339,376.52123,235.46253,374.85513,234.609Zm1.872-.93649-2.808-1.87152.936-1.872,6.552-2.8085v4.6805Zm-.936-14.04h3.744v.936l-.936,2.808-1.872-.936Zm.936,5.616-2.808,1.872.936-1.872Zm.936-8.42353-9.36-2.8085v-4.68l11.232,5.6165Zm.936-4.68051h2.808l-1.872,1.872Zm0-7.488c-.39683.86876.74876.63316-.936,1.872Zm-34.1766-6.956c.89036-.08049,1.78759-.13448,2.68064-.20418l.60789.60813h-1.872l-1.87176,1.8725Q344.1948,198.83867,344.42253,197.70045ZM319.96868,201.173l.59856-1.19613.92471.92422.94729.94778h-2.808Zm-1.27345.67587,1.872,1.872H317.759Zm6.552,58.03116h-2.808v-3.743l3.744,1.87152Zm14.976,10.29652c-3.89494-1.99962-3.83776-.82213-3.74426-4.67952,3.437,1.68451,3.21809.70728,4.68026,4.67952Zm8.42377,18.72-.936-2.80849,1.872,1.87249Zm-27.14382-69.26417,2.80776,5.616-4.67977,1.872c-4.23164-1.93925-4.38429-2.75156-6.552-6.552,7.165-.67292,9.09988-2.95379,12.168-7.48753-4.18207-1.45284-5.40373-2.07913-10.29627-3.7445l4.68025-4.68,3.744.93649v5.61552c4.25128.3745,3.81494,1.08129,6.55177-.93551,1.93385-1.83765.96889-.35094,1.87225-3.7445q-1.71432-3.42792-3.42816-6.85584c3.29491-.52469,6.62-.95514,9.95932-1.34191-.053.51929.32934.746,1.89287,1.64623,2.50467,2.72653,4.86726,2.40651,8.42377,1.872q-.93576,3.27479-1.87176,6.55153c5.923-4.42577,6.90467-4.12931,15.9118-5.616l-2.808,4.6805c5.01794-.14233,6.38366-.61549,8.424.93552-2.90176,6.20254.615,11.45093,2.808,17.78453h-3.744v-6.55251C351.04228,220.55717,342.9881,219.62656,321.50324,219.63245Zm-5.616-5.616v-2.808l2.808,2.808ZM358.94309,226.185l-1.872.93551q-.46788-2.33976-.93576-4.68h2.80777Zm2.808,20.59156v-.936l1.872-2.80752q.46788,2.33976.936,4.67952h-.936Zm4.68,15.912-1.872-2.8085,3.744,1.872Zm-3.744-31.82408c-.66924-3.91383.82458-3.34251-2.808-2.80751l3.744-6.552,3.744,7.48753h5.616C369.49483,231.533,367.55436,231.46132,362.6871,230.86448Zm11.232,13.104v-1.872l2.808,1.872Zm6.552,15.91155-.936-1.87151h2.808Zm0-37.4396h1.872l-.936-1.872,7.488,3.74351-1.87225,1.873Zm10.296,13.10354-1.872-.935c-.91539-3.36166-1.19148-2.63425-.936-5.6165l2.808.93649q.46788,2.808.936,5.615Zm7.488,131.97633-2.808.936v-1.87151h-2.808l2.808-4.68,1.872-.93649,3.744,2.8085Zm6.55177-78.62371-1.872-2.80849-.936-2.80752,5.61626,5.616Zm6.552,115.1278-1.872.93551-1.87176-1.87151v-.936l1.87176-.936h2.808Zm.936-4.67952-1.87176-2.8085,3.74377.936ZM433.823,411.51244h-.936l-1.872-.93551-.936-3.745h4.68025Q434.29066,409.17318,433.823,411.51244ZM470.32712,434.912v-2.80751c1.80255,1.41946,1.65653,1.67616,2.808,3.744ZM456.28684,305.74418c-1.3402-6.32133-3.931-5.70878-6.55178-9.35954-5.26114,2.39032-16.42691,5.01525-20.592,5.616-2.20429-2.33191-2.52725-1.7871-3.74376-5.616l-3.74425,2.80752c-.61869-5.35-6.1682-12.33835-5.61577-16.84755l4.67976-4.68c-5.456-1.33406-3.52314-2.14245-9.36-1.872l1.87225-2.8085,12.168-7.487v-.9365l-12.168-6.552.93576-1.87152,11.23227-8.42451c5.09549,1.0381,13.26846,1.362,15.91179,3.744,2.2146.26014,1.16718-.20811,3.744.936l-2.808,1.8725c-.88177-1.1554-4.57891-1.57015-7.48778-1.8725l1.87176,4.68,9.36-1.872c-.18725,3.85445-2.40652,1.81458.93575,3.744,2.22785,1.94857-.1497.8182,2.80825.93551v-.93551q-.46824-3.74376-.936-7.488c-4.13323.72839-2.05263.90312-5.616-2.8085l.93576-1.87151,6.55226-3.74352c-6.97879-1.21724-8.61127-3.97371-11.232-9.36051q.46788-2.80728.936-5.61552c5.325,2.82813,10.2548,7.39378,14.976,11.23153q-.46826,2.33976-.936,4.68l12.168,1.872c-2.16994,2.97439-1.48278,1.046-3.74426,2.80751l8.424,4.68051v.93649c-5.86854.429-4.82308-.34014-4.67976,3.74352l-1.872,4.68c4.1406,1.17307,4.16146.589,5.616,4.6805l-1.87225.93551c-3.66524-1.59125-6.66982-1.86415-11.23179-.93551,2.09092,2.568,2.192,1.78611,2.808,6.55153-3.92,1.21037-2.93464.51733-4.68,3.744l5.616,1.872v.936c-5.20789.66065-5.96621,1.56328-8.424,4.68,5.39318,1.924,6.70908,11.61143,9.36,15.912l8.424-3.7445-3.744-5.615.936-.93649c4.92788,3.52117,4.16784,4.37472,10.29578,6.55152q-.46788-2.80727-.93576-5.615c7.30077-.43879,5.77578-1.5726,10.29578.935,3.15527,7.27353,7.36826,4.74088,11.232,7.48851l-3.74376,2.80752c7.824,7.10419,14.51613,8.81472,24.33581,12.16852q-.46824,5.61528-.936,11.232l-12.168-.936c-1.95716-5.52226-2.30442-6.13383-7.488-8.42451l-3.74376,3.7445q-.46861-4.681-.93625-9.36h-5.616l-1.872-4.68C484.1799,308.97675,466.26947,304.06605,456.28684,305.74418Zm13.104-33.6956h-7.48778v-.936l1.872-3.74352C467.48156,268.76006,467.46733,269.04081,469.39087,272.04858ZM508.703,386.24087l-1.872,2.80751-1.872-.93551v-4.6805Zm-6.552,2.80751-6.552-3.744.936-1.872Zm-14.976,12.168c1.91152,1.685.66188.01424,1.872,2.808Zm6.552,8.424,1.872-2.8085h1.872c-2.498-4.45276-5.08323-6.66147-10.296-8.42353,2.17435-6.26488-.028-11.75917-1.87176-18.72l3.74377,3.744,3.744-3.744,2.808.93551q-.46788,10.297-.93575,20.59254c6.21874,1.54659,4.66479,2.26417,8.42377,7.488l-.936,2.808C496.33738,408.93463,499.23717,411.0275,493.72693,409.64043Zm14.976,24.33606-1.872-.936.936-1.8725,1.872,1.8725Zm-4.68-12.168-3.744-10.296,5.616,1.87151-.936,1.8725,4.68,3.744C511.53625,423.99018,505.16584,423.60243,504.023,421.80846Zm47.73612,9.35953,1.87176,1.8725-.936.936-1.872-.936v-.936l.93625-.9365q-2.34049-2.339-4.68026-4.67952l2.808-.936-2.808-.936-4.67976,5.616q2.33976,4.67952,4.67976,9.36h-4.67976c-.29229,2.50909.35855,2.23963-1.87225,4.67952H539.591c-3.35012-9.7468-9.24124-11.52947-5.616-21.52757l-13.104-3.744,2.808-3.744-.93625-1.8725H518.063c.39683,4.093.19289,3.7445-.936,7.48851-6.0342-3.50154-3.68806-5.65135-9.36-6.552,2.01705-4.47582-.15068-7.89982-3.744-12.168l.936-2.80751c4.05666,1.63444,4.23336,2.33927,7.488-.9365l6.552,4.68,5.616-3.74352c1.69973,2.1233,1.78562,3.23551,1.872,7.487l8.42377-5.61552q-.93574,2.808-1.87175,5.61552c4.04537,1.50929,5.23317,2.113,6.552,6.552-3.85837.60224-1.19908,1.79495-2.808,7.48851l7.48778-3.744c-2.86593-.02258-1.31026.90017-3.744-.93649l3.744-7.48753v1.8725c2.40479,1.32228,2.3589,8.74354,4.68025,13.104h3.74377v-3.7445q-.46788-3.74451-.93576-7.48753l2.808.935c-.95588,4.07532-1.62708,1.44548,1.87176,3.7445Q554.09908,424.14847,551.75907,431.168Zm4.67977,3.744q.46788-1.8715.936-3.744l3.74425,2.8085Zm3.744-22.46307-2.808,2.80752c-.87048-5.70977-1.95888-4.23484-.936-7.488l7.488,2.8085Zm1.872-7.489h1.872C562.29364,405.87483,563.721,405.814,562.05485,404.95993Zm11.23178-25.27157v1.872l-2.80776-.93649q-2.34012-7.95578-4.68-15.91155l2.808-2.80752c4.14918.95073,3.759.61795,5.616,3.74352C576.00114,369.19257,575.72039,377.3432,573.28663,379.68836Zm8.42427-13.10354-1.872,2.808-1.872-2.808Zm-1.872,14.03905v-.93551q.46824-.935.936-1.872l1.87176,2.80752Zm4.68,2.8085h-2.808q.46788-.93576.93576-1.872l1.87225,1.872h1.872C584.75745,384.34677,586.185,384.28591,584.51891,383.43237ZM597.62269,423.681q-.46786-2.80875-.93575-5.617h2.808Q598.55846,420.87271,597.62269,423.681Z"/>
      <polygon class="cls-1" points="421.655 442.4 425.399 448.016 425.399 445.209 423.527 442.4 421.655 442.4"/>
      <path class="cls-1" d="M317.759,225.24847l3.74426-.9365-2.808-2.807Q318.22735,223.37721,317.759,225.24847Z"/>
      <path class="cls-1" d="M432.887,467.67258c4.41031-1.21725,4.37963-1.22461,5.616-5.61651h-1.872Z"/>
      <path class="cls-1" d="M437.567,449.88853v-2.808l-7.488-3.744-.936,1.872c4.33938,1.73163,2.675,1.99815,4.68,5.61552Z"/>
      <polygon class="cls-1" points="445.991 445.209 441.311 444.272 442.247 448.016 445.991 445.209"/>
      <path class="cls-1" d="M422.59124,425.55247l-.93624-.936-2.808,3.744c4.06992.98017,1.72034-.43978,1.872,3.744l1.87225.936,5.61577-2.808C423.78272,428.56712,423.49976,428.28489,422.59124,425.55247Z"/>
      <path class="cls-1" d="M443.18305,432.10449l-.936-1.872h-2.808v3.744h-4.67977c3.35626,3.68757,1.25774,1.72869,2.80776,4.68l3.744-2.808Z"/>
      <path class="cls-1" d="M442.24705,456.44055q.46788,3.27626.936,6.552h6.552C447.81447,460.3323,444.0253,457.00205,442.24705,456.44055Z"/>
      <path class="cls-1" d="M463.7751,563.14383l3.744,5.617,3.74376-.9365-3.74376-5.616C465.06769,564.34537,467.619,563.1296,463.7751,563.14383Z"/>
      <path class="cls-1" d="M460.96709,561.27183c.91441-1.633.85355-.20566,0-1.87152Z"/>
      <polygon class="cls-1" points="462.839 610.88 464.711 609.008 460.967 607.136 462.839 610.88"/>
      <path class="cls-1" d="M447.86306,490.13663v-.93649h-8.424C442.51111,491.15706,443.532,490.71286,447.86306,490.13663Z"/>
      <polygon class="cls-1" points="403.871 454.569 402.935 454.569 401.999 457.376 404.807 457.376 403.871 454.569"/>
      <path class="cls-1" d="M408.551,470.48009l1.87225,2.808C409.24474,470.4585,410.4399,472.16509,408.551,470.48009Z"/>
      <path class="cls-1" d="M566.73486,536.93577h2.808c-.90508-3.19036-.47463-5.29109-1.872-6.55153-1.47027,3.03869-3.34694,5.62681,0,8.42353Q567.203,537.872,566.73486,536.93577Z"/>
      <path class="cls-1" d="M402.935,466.73608l6.552.9365,2.808-8.42452c-3.276-.29645-1.26166-.3745-4.67976-1.872Q405.27472,462.05632,402.935,466.73608Z"/>
      <path class="cls-1" d="M566.73486,547.23228h-.936q-.46788,1.40327-.936,2.80752l2.808-.93551Q567.203,548.1678,566.73486,547.23228Z"/>
      <path class="cls-1" d="M562.05485,550.97629v-.93649l-3.744-1.872C560.10333,550.43737,558.91186,549.68051,562.05485,550.97629Z"/>
      <path class="cls-1" d="M343.03105,204.65642c-2.02343,3.29147-1.43959.84274-1.87176,4.68l1.87176-1.87152c1.94882-2.22834.8182.14921.93624-2.80849Z"/>
      <path class="cls-1" d="M569.54287,444.272l8.424-2.80752-2.808-3.7445h-.936v3.7445l-8.3877-1.86415-.03632.0265v.90116C569.73012,441.96712,568.09027,440.35623,569.54287,444.272Z"/>
      <path class="cls-1" d="M415.103,450.824l2.808.9365-1.87176-3.7445,3.744-1.872c-1.671-2.43841-1.49775-1.50781-.93625-4.67952h-6.552l-.936,2.80752h3.744c-3.32362,2.83009-3.80021,2.74665-3.744,9.36l5.616,3.744c4.42528-2.14687,5.19219-.74065,7.488-4.67952C419.45365,453.39155,418.18536,453.80089,415.103,450.824Z"/>
      <polygon class="cls-1" points="413.231 460.185 415.103 459.248 413.231 457.376 413.231 460.185"/>
      <polygon class="cls-1" points="353.327 211.208 358.007 212.144 359.879 210.273 353.327 208.4 353.327 211.208"/>
      <path class="cls-2" d="M320.56724,199.9769l-.59856,1.19613c.50481-.09963,1.01748-.17522,1.52327-.27191Z"/>
      <path class="cls-2" d="M407.61521,529.44824l-.936,4.68H409.487Q408.55084,531.78849,407.61521,529.44824Z"/>
      <path class="cls-2" d="M407.61521,523.83222H402.935v.936c3.46326,4.64369,5.97947,4.01641,8.424-1.872l-3.74376-2.80751C406.17,523.39146,406.66129,520.2119,407.61521,523.83222Z"/>
      <polygon class="cls-2" points="407.615 552.848 409.487 553.784 411.359 551.912 409.487 550.04 407.615 552.848"/>
      <path class="cls-2" d="M388.89516,535.06425h-1.87225C388.68926,535.9178,387.2617,535.97866,388.89516,535.06425Z"/>
      <polygon class="cls-2" points="388.895 593.096 392.639 589.352 388.895 587.48 388.895 593.096"/>
      <path class="cls-2" d="M401.999,543.48827h.936l2.808-3.744-4.67977-2.80849C400.18142,540.48737,400.45751,540.79561,401.999,543.48827Z"/>
      <polygon class="cls-2" points="404.807 517.28 405.743 517.28 407.615 515.408 403.871 513.536 404.807 517.28"/>
      <path class="cls-2" d="M404.80695,481.71212l1.87225,2.8085C405.78419,482.01938,407.64956,483.53111,404.80695,481.71212Z"/>
      <path class="cls-2" d="M392.63917,514.47269q-.46825,3.27479-.936,6.55153h.936l2.808-4.68Z"/>
      <path class="cls-2" d="M394.51117,539.74426h.936c-.69648-5.18409-1.52573-5.99051-4.68-8.42353Z"/>
      <polygon class="cls-2" points="392.639 583.736 394.511 585.608 398.255 581.864 393.575 581.864 392.639 583.736"/>
      <polygon class="cls-2" points="404.807 531.321 400.127 530.384 402.935 533.192 404.807 531.321"/>
      <polygon class="cls-2" points="400.127 503.24 397.319 503.24 400.127 506.048 400.127 503.24"/>
      <path class="cls-2" d="M397.31918,522.89622l1.87176,1.872c.18749-3.20214,1.13282-1.34879-.93576-3.744Z"/>
      <polygon class="cls-2" points="424.463 521.024 428.207 520.089 426.335 518.217 424.463 521.024"/>
      <polygon class="cls-2" points="366.431 262.689 368.303 261.752 364.559 259.88 366.431 262.689"/>
      <path class="cls-2" d="M363.6231,243.033l-1.872,2.80752v.936l1.872.936h.936Q364.09122,245.37276,363.6231,243.033Z"/>
      <path class="cls-2" d="M388.89516,481.71212l-.84446.42211c-.23707,1.11123-.48886,2.21656-.74139,3.3219h3.45785Z"/>
      <polygon class="cls-2" points="510.575 568.761 512.447 566.888 509.639 566.888 510.575 568.761"/>
      <polygon class="cls-2" points="378.599 223.376 379.535 220.568 379.535 219.632 375.791 219.632 376.727 222.44 378.599 223.376"/>
      <polygon class="cls-2" points="373.919 227.12 376.727 225.248 374.855 225.248 373.919 227.12"/>
      <polygon class="cls-2" points="381.407 227.12 374.855 229.929 373.919 231.801 376.727 233.672 381.407 231.801 381.407 227.12"/>
      <path class="cls-2" d="M374.85513,234.609c1.6661.85355.23878.91441,1.872,0Z"/>
      <polygon class="cls-2" points="380.471 237.417 377.663 235.544 375.791 239.289 379.535 239.289 380.471 237.417"/>
      <path class="cls-2" d="M423.527,488.26364l-1.872,2.8085h2.808C423.93978,488.15861,425.51508,490.45665,423.527,488.26364Z"/>
      <path class="cls-2" d="M417.911,500.43217l.936-.936h1.872l-3.744-4.68c-1.7969,2.808-.162,1.57162-3.74376,2.808C415.1582,499.67041,414.49387,499.44119,417.911,500.43217Z"/>
      <path class="cls-2" d="M414.167,514.47269c9.22529.70384,7.93246,2.33976,14.976,0,2.76874-.69795,2.28406.51537,6.552,2.80752,1.0295-3.97323-2.42713-3.33368,2.808-5.61553-2.661-2.79524-2.16773-4.251-3.74377-.93649L421.655,505.11267l-2.808,4.67952Z"/>
      <polygon class="cls-2" points="433.823 501.368 431.015 499.496 430.079 501.368 432.887 503.24 433.823 501.368"/>
      <polygon class="cls-2" points="412.295 502.304 413.231 502.304 410.423 496.688 408.551 497.624 409.487 500.432 412.295 502.304"/>
      <path class="cls-2" d="M393.57493,506.04818c-.655-3.37982-.374-2.82273-1.87176-4.6805l-4.68026,2.80849,1.87225,1.872Z"/>
      <path class="cls-2" d="M434.75927,522.89622h.93576c.922-2.65241,1.52278-.44861,0-2.80751Z"/>
      <path class="cls-2" d="M392.63917,454.56854l-.47855.95711c-.01939.19829-.03412.39855-.054.59684C393.1565,455.24686,392.28185,455.35043,392.63917,454.56854Z"/>
      <path class="cls-2" d="M399.19094,484.52062c-.44739-3.39209.05522-1.76992,1.87225-4.68051l-5.616-3.744v1.872h-1.87225C395.97211,481.28805,396.177,482.95391,399.19094,484.52062Z"/>
      <polygon class="cls-2" points="404.807 479.84 407.615 478.905 403.871 472.352 401.999 476.096 402.935 478.905 404.807 479.84"/>
      <polygon class="cls-2" points="405.743 520.089 405.743 519.152 401.999 519.152 401.999 521.96 403.871 522.896 405.743 520.089"/>
      <path class="cls-2" d="M419.78324,536.00025l1.87176.93552c1.58119-2.17583,1.86366-1.87152.93624-4.67953Z"/>
      <path class="cls-2" d="M568.60687,361.9048l-2.808,2.80752q2.34014,7.95578,4.68,15.91155l2.80776.93649v-1.872c2.43376-2.34516,2.71451-10.49579.93625-14.04C572.36585,362.52275,572.75605,362.85553,568.60687,361.9048Z"/>
      <polygon class="cls-2" points="315.887 214.016 318.695 214.016 315.887 211.208 315.887 214.016"/>
      <path class="cls-2" d="M580.7749,377.81635q-.46788.93649-.936,1.872v.93551h2.80776Z"/>
      <polygon class="cls-2" points="318.695 201.849 317.759 203.721 320.567 203.721 318.695 201.849"/>
      <path class="cls-2" d="M287.80716,228.057v2.80751l1.872.93649C288.776,228.4079,289.741,229.89412,287.80716,228.057Z"/>
      <path class="cls-2" d="M581.7109,383.43237h2.808l-1.87225-1.872Q582.17878,382.49686,581.7109,383.43237Z"/>
      <polygon class="cls-2" points="386.087 508.857 386.087 506.985 382.343 506.048 383.279 509.792 386.087 508.857"/>
      <path class="cls-2" d="M582.39683,522.59485c.11534-.858.21841-1.70806.24983-2.50614l.67218.16786a233.09455,233.09455,0,0,0,8.05443-23.2587l-1.23835-.30971c1.09037-2.142,2.19767-4.56074,3.29981-7.1096a234.66518,234.66518,0,0,0,6.82246-44.80933l-2.6345.43929c3.02716-9.42579,1.10927-13.911-.93575-23.40006h-.936c-2.41951,4.55829-2.488,1.81556-2.808,7.48753-7.73245-5.81038-8.12634-7.862-10.29627-16.84706l-1.87176-.93649c-3.88071,5.02506-4.4292,4.48417-7.48827,8.424,2.42075,4.46356.91662,8.21493,2.80826,13.104-3.75506,2.36528-7.18739,4.29766-10.25971,6.55987l8.3877,1.86415V437.72h.936l2.808,3.7445-8.424,2.80752c-1.4526-3.9158.18725-2.30491-3.744-3.744v-.90116a28.28911,28.28911,0,0,0-9.36,11.19718l-3.744.9365,2.808-8.424q-2.34013-2.34051-4.68-4.68c-2.645,4.72026-3.36214,11.55647,0,18.71956l-5.61576,2.8085,2.80776,10.29553-2.80776,1.872v2.808l-3.74426-1.872-5.61577-6.552,4.67977.9365,2.808-9.36c-2.53732-1.5245-2.73292-.45646-.93576-2.8085-2.68088-2.033-5.50558-1.35467-8.424-1.872-.34554,4.07286.75808,4.32711-.936,6.55251-2.9879,1.80034-.24812.91882-3.744,0-.12173,5.2209-3.12361,9.34922-4.68,13.10354h-3.744l-2.808-10.29554c-3.47185-.76323-4.39386-.349-7.488.936-.12712-5.5581-.82557-5.6062-2.808-6.55251-1.24694-2.68383-.58972-.27094.936-2.80752-6.22341-.87268-5-2.47277-7.488-6.5525l-.936-2.80752c2.72653-1.791,1.34413-.9738,4.68-.93649-1.271-6.82492-2.37829-4.67952,0-11.23154l-4.68-2.808h-.936c-.33032,5.01328-.2059,4.64566,1.872,8.424v.936c-7.70595,1.13282-6.49018-.2621-12.168-4.68051l-10.296,5.616c-2.78273-2.54051-2.06833-1.017-2.80776-3.743-5.91,1.13871-4.64639.748-4.68026,5.615h-4.67976c-.22014-11.928,1.10631-21.45688,5.61576-28.07958-9.43021-.60469-15.62637,6.418-16.84779,3.74352-2.69389.60764-8.64857,3.798-4.68,4.6805l-2.808,1.872c-3.48952,1.25258-1.41161-.79023-6.552-2.808l.936,3.744-5.616,2.808-.936-4.67952c-1.82685-1.578-3.60461-2.12086-6.552-2.8085l4.68,3.744c-9.828-2.17239-9.79514-7.95627-17.7838-5.616V413.384H411.359c-1.80918,2.52775-1.14068,1.56328-.93576,4.68-2.7145-2.246-2.95967-1.98195-3.744-6.55152-5.27194,3.51577-7.04676,8.41862-13.53865,11.00821.01619.4118.03313.8236.04712,1.23589,1.96747,3.425,3.97469,3.30227,4.13151,7.41145l1.87176.9365-5.90216,2.52971q-.021,1.94218-.06995,3.87751c.32616.17473.32125.49475,1.29234,2.01631-.48174-.12222-.88618-.15265-1.32473-.22578-.07583,2.22245-.2059,4.43018-.34211,6.63742l3.5386,2.94887c.87711-.87808,1.91446-.90361,3.74426-2.808l.936,2.808-.936,1.872-4.68-1.872-2.62052-2.62051c-.12614,2.00158-.28467,3.99286-.4599,5.98021,3.6937,5.03684,4.89475,7.49587,9.63219,14.42435,2.35424,2.085.54309,1.21626,3.744.93551,1.87225,4.67265,2.16895,7.61367,7.48826,11.232l.93576,1.872.936-4.67952c3.20386,2.39571,2.65192,3.13048,5.616,3.744-1.69972,3.30521.54555,1.13969-2.808,2.80751l4.68025,3.7445,2.808-2.808.93576-1.872c-4.75217-5.01426-3.48093-2.9366-1.872-11.232l2.808-1.872.936,1.872-3.744,4.67953,3.744,1.872,2.808-.93551v-6.55251c3.92,1.53726,4.9215,2.82028,9.36,1.872l2.808,2.808c-3.68315,3.28264-2.44578,1.72623-6.552-.93551-2.8885,2.56456-3.90107,7.50373-.936,12.16754v1.87151c3.18987-4.923,9.42825-12.65149,18.72005-13.10354q-2.34014,6.08427-4.68,12.16852c-4.14844-.77746-3.9153-1.17356-6.552-2.808l-5.616,2.808.936,4.67952-2.808-1.87151c.27413,5.89628,1.18215,6.75473-1.872,8.42353l2.808,3.744,5.616-5.616c-1.36008,3.70081-1.3029,3.9315-4.68,5.616l4.68.936a156.38722,156.38722,0,0,0,14.976-15.91155l.936,1.87152c-2.12478,3.61639-2.65536,4.50282-1.87225,9.36h.93624c2.3886-2.32749,4.2822-5.6327,1.87176-7.488l5.61626-2.8085q-.46824,5.14924-.936,10.29652l1.87176.936c1.76378-2.26123-.16664-1.57407,2.808-3.74352h.936l-2.80776,10.29554-3.74426-5.616-5.61577,1.872-2.808,1.872,7.488,8.42353-2.80825-1.87151c-.07092,4.61621.60126,3.79457-.93575,5.616l.93575,1.8725-5.616-7.48851-.93576-1.87151h-.936l3.744,11.232-7.488,2.80751c-1.19638,5.12912-.08246,16.57465,2.808,17.784-1.02975,4.01347-.28075,2.62738-2.808,4.67952-1.80942-2.52628-1.14117-1.5623-.93625-4.67952l-1.87176-1.8725-8.424,4.6805-.936-1.872c-1.73138-1.231.19461-2.38394-.93576-5.616.96472-5.37158-1.71494-1.4602-2.80825-4.67952l-5.616,4.67952,2.808,5.616h-6.55177c.69918,6.64576-.56641,7.11892-2.808,12.168l-2.80826,1.87249.936-3.745-1.87176-.93551c-3.35209,4.56172-4.816,5.35637-2.808,11.232l-2.808.93551-3.744-2.80752c.97429,16.848-7.8954,20.70691-14.976,33.6956l1.87176.93649c-8.92933.187-5.98168-1.393-11.23179-3.7445,0,0-10.44842,5.01083-21.52805,0,2.18368,7.541,7.59183,12.00753,12.168,16.84853-3.96022,3.29687-5.24151,2.74911-9.36,1.87152,1.15982,3.40632-.0805,5.96548-.936,9.36051,5.70976,8.01075,13.99021,1.21675,18.72-2.808l.936,4.67952-1.872,3.744c-7.69294,1.5834-14.56154,5.134-22.46406,1.872l-.936,1.872h1.872l-2.80777,1.872h-3.74425l8.424-10.296-.936-1.872-6.55177-.936,2.808,3.744-5.616-2.808c-2.29706,4.37864-3.074,4.75559-5.61626,1.872-2.9717,3.44068-.495,2.71475,0,10.296l-11.232-3.744c-2.22466,3.5251-2.43915,3.02691-4.67976,4.68,2.33338,2.67794,2.7469,3.14226,7.48777,3.7445-2.64113,3.63406-1.77826.61647-.93576,4.67952v.93649c-6.57361.28026-13.92861.21695-15.912-4.6805l-3.744,4.6805c.56151,3.17171.73452,2.24111-.93624,4.67952,1.11491-8.70477-3.331-11.0784-8.42378-15.912l4.68-3.74351-.936,4.67952,5.616-.936v-.936c-2.30073-3.83726-3.04016-4.69866-8.424-5.616l.936,2.8085c-3.01759-1.26731-6.20083-2.45364-9.31-3.64781a239.53568,239.53568,0,0,1-34.16531,21.76856A233.72074,233.72074,0,0,0,365.6394,666.697C463.1974,666.697,546.85745,607.242,582.39683,522.59485Zm3.05783-18.41868h-.93575v-3.744l2.808,1.872Zm-1.87176-9.36,4.67977,1.872v.936l-4.67977.936Zm-3.744,4.68.936.936q-.46788,1.40327-.936,2.808h-.936Q579.37077,501.36867,579.8389,499.49616Zm-3.744-69.26368v-2.808l1.872,1.87151Zm0,92.66374q-.46825,2.33976-.936,4.68l-1.87225.936Zm-8.424,7.488c1.39737,1.26044.96692,3.36117,1.872,6.55153h-2.808q.46788.93648.936,1.872C564.32393,536.01105,566.2006,533.42293,567.67087,530.38424Zm-1.872,16.848h.936q.46788.93576.936,1.872l-2.808.93551Q565.3311,548.63654,565.79886,547.23228Zm-3.744,2.80752v.93649c-3.143-1.29578-1.95152-.53892-3.744-2.8085ZM402.935,454.56854h.93625l.93575,2.80752h-2.808Zm5.616,15.91155c1.88894,1.685.69378-.02159,1.87225,2.808Zm.936-2.80751-6.552-.9365q2.34012-4.67952,4.68026-9.36c3.4181,1.4975,1.40375,1.57555,4.67976,1.872Zm3.74425-7.488v-2.8085l1.87176,1.872Zm3.74376-2.8085-5.616-3.744c-.0562-6.61337.42039-6.52993,3.744-9.36h-3.744l.936-2.80752h6.552c-.5615,3.17171-.73477,2.24111.93625,4.67952l-3.744,1.872,1.87176,3.7445-2.808-.9365c3.08238,2.97685,4.35067,2.56751,9.36,1.8725C422.16717,456.63541,421.40026,455.22919,416.975,457.37606Zm8.42427-9.36L421.655,442.4h1.872l1.87225,2.8085Zm-2.808-14.97555-1.87225-.936c-.15166-4.18379,2.19792-2.76384-1.872-3.744l2.808-3.744.93624.936c.90852,2.73242,1.19148,3.01465,5.61577,4.68Zm6.55177,12.168.936-1.872,7.488,3.744v2.808l-3.744.93551C431.818,447.20667,433.48239,446.94015,429.143,445.20852Zm3.744,22.46406,3.744-5.61651h1.872C437.26665,466.448,437.29733,466.45533,432.887,467.67258Zm4.68-29.01608c-1.55-2.95132.5485-.99244-2.80776-4.68H439.439v-3.744h2.808l.936,1.872-1.872,3.744Zm8.424,6.552-3.744,2.80752-.936-3.744Zm-2.808,17.784q-.46788-3.277-.936-6.552c1.77825.5615,5.56742,3.89175,7.488,6.552Zm4.68,27.14407c-4.331.57623-5.352,1.02043-8.424-.93649h8.424Zm14.97579,120.74381-1.87176-3.7445,3.744,1.87249Zm-1.87176-49.60861v-1.87152C461.82064,561.06617,461.8815,559.63885,460.96709,561.27183Zm6.552,7.489-3.744-5.617c3.84389-.01423,1.29259,1.20154,3.744-.93551l3.74376,5.616Zm-4.68026-15.91253v-4.68051l.93625.9365h1.87176Zm4.68026-5.616c1.88869,1.68451.69353-.02159,1.87176,2.80752h-.936Zm5.616,2.80752.93576-3.74352h.936l.93625,2.808Zm1.87176,1.872v-1.872C475.86067,551.70664,475.92129,550.27932,475.00688,551.9118Zm15.912,43.0566v-1.8725C491.77271,594.76176,491.83333,593.33444,490.91892,594.9684Zm12.168-3.7445c-3.21343,3.53394-3.87408,1.26436-10.296.93649v-.93649l6.552-1.872,3.744.9365Zm-1.872-4.67952,1.872-2.808h.936l.936,2.808Zm4.68-.93649v-2.808l3.744.93649Zm18.72-22.46406a24.27536,24.27536,0,0,1-13.104,7.48851q.93576,2.33976,1.87176,4.68c-11.64923.28075-8.56587,1.2413-15.91179,7.48753l-4.68-2.808v4.6805l-5.616-.936v6.552c-2.69757-2.8085-2.90151-5.37748-.936-10.29652h-5.616v-6.55152l5.616-2.808q-.46788,3.27552-.93576,6.552h.93576c4.05028-2.91108,2.58247-.72446,1.872-4.68051l.936-2.808c3.101,2.808,1.52278.44125,1.872,4.68,6.94517-1.7655,7.75208-9.1048,14.04-12.16754,4.39926-2.621,5.177,1.98784,8.42377,5.616,1.87225-3.23355,6.63251-4.91757,11.23227-5.616Zm-36.50409-1.872,2.808-6.55153c2.70052,1.67077,2.34565,1.80918,3.74426,4.68Zm13.104,0,.936-3.74352h2.808Zm13.104,1.872.936-3.74352h3.744l-1.872,3.74352Zm9.36-9.35953-8.424,4.68a98.97139,98.97139,0,0,1,4.81278-8.82944l-.13277-.53058.20836.41622a46.00628,46.00628,0,0,1,4.47165-6.03224C526.221,547.31768,524.76372,550.32055,523.679,553.7843Zm6.552-11.23252c-1.68476-2.10858-1.81949-3.23993-1.87225-7.48753H533.975l-3.744,5.616Zm2.808,2.808-.93625-.935.93625-1.873h.936q.46788.93723.93575,1.873Zm6.552-37.43961h1.87176v2.808l-2.808-.936Q539.12267,508.85643,539.591,507.92018Zm-1.87225,5.616q-.93576,2.808-1.87176,5.616-.46788.93576-.93625,1.872-.46786-4.21128-.93575-8.42452ZM533.039,466.73608l.936,4.6805-1.87225.93552Q532.571,469.54409,533.039,466.73608Zm.936,34.6316-2.80825,2.80849-.93576-2.80849Zm-3.744,17.78453h-4.68026l3.74426-4.67952Zm-3.744.9365-3.74426,2.80751,1.87225-2.80751Zm0-14.976h.936l-1.87225,2.80751Zm-.93625,4.67952c-1.1127,4.13814-1.4629,1.02386.93625,4.6805l-2.808.93551-.93625-4.68,1.87225-.936ZM521.807,477.96811h1.872l.936,1.872-4.68,1.872Zm-10.296,25.27206.936,1.8725h-1.872ZM509.8029,526.9681l-.16393-.32787c.17522-.01865.27658-.01571.42456-.02552,1.00545-1.42094,2.04527-2.98814,3.3192-4.65449,3.77984,1.901,5.61626,2.62051,7.48827,6.552h3.744l-1.87225-3.744c3.77125.40444,2.84286-.24836,5.616-2.808l.93625.936c-4.44589,9.03117-14.12814,21.44511-25.27207,20.59205v5.616h-.936l-3.744-.9365,2.808-4.67952c-7.15009.13007-7.47968,1.54266-7.48777,8.42353-9.90214-1.68451-11.25363,11.04993-10.29627,15.91253l-2.808-2.808-6.552,2.808c5.01328-6.56968,15.53754-19.579,15.912-29.01656l2.808-1.872v4.6805h5.616q-.46788-4.21275-.936-8.424C504.58593,533.23986,507.13061,530.68315,509.8029,526.9681Zm-31.052,19.32818.93625-1.87151h3.74376C481.58418,545.92178,482.15353,545.69355,478.75089,546.29628ZM506.831,506.98467v10.29554l-2.808,1.872v-4.67952l-.936-1.873C504.9457,509.53794,504.16627,510.02386,506.831,506.98467Zm-3.744,18.71907c-2.24626,1.09552-1.228,2.3216-2.808,0Zm-7.488-34.6316c1.37971,1.65114,2.021,4.13667,2.808,6.552v.936h-.936C494.18732,495.252,495.729,494.48043,495.59893,491.07214Zm-18.7198-.93551,1.87176.93551v.936l-1.87176.936-.936-1.872Zm-5.61626-17.78453v.936l-2.808.93649-.93576-2.808Zm-11.23178-8.42353h.936l-1.87225,2.80751Zm7.488,29.95207c.32-6.03567-1.38633-7.6225-8.42427-8.42451v-4.67952l2.80825-3.744,10.29578.93551c-1.81457,3.82745-1.33651,9.61329-2.808,14.976Zm-7.488,24.33606h2.80776l-3.744,2.80752Zm1.872,19.65556c4.00489-1.62659.964-.9738,4.68.93551,1.61824-5.33477,3.54817-7.65981,6.552-11.23154l-3.74425-1.87249.93625,2.8085-2.808.936c.187-5.74216,1.91029-4.26772,4.67976-9.35953l-3.744-4.68051h12.168c-2.09852-1.79985-2.00674-1.08374-5.616-1.872a85.81788,85.81788,0,0,0,.93625-18.72005h.936c1.46732,6.232,2.62812,5.50165,4.67977,8.424l1.872.936.936-.936c-1.3618-3.72977.05521-2.191-2.808-2.808,1.259-6.68111,2.50664-9.29524,4.68-15.91155,5.31637,3.99433,7.06026,9.82729,7.488,18.71955h4.68c-2.39228,5.082-1.59125,2.45952-5.616,0-2.17706,4.35607-4.96077,7.96559-4.68,14.04-2.33436-3.42939.01964,2.36675,1.872,4.68-2.90151,4.64271-3.26742,1.872-.936,5.616l-2.808,4.68-9.35978-10.296c.53451,4.94309,7.08162,13.291,8.424,14.04-6.62883,6.75768-18.428,7.40655-29.01631,10.296C459.74077,542.62049,462.442,543.45,461.90309,537.87226ZM441.311,562.20832l-2.808,1.872-.936-2.80849Zm-15.91179-2.808c1.74537,1.21676,1.34412,2.006,2.80776,4.68h-5.61577ZM372.04712,617.432l-4.68.936,1.872-2.808h1.872l.936.93649ZM286.8714,639.896v3.7445h-3.74426q-.46787-2.3405-.936-4.68Zm-3.74426,7.488q2.34013,2.33976,4.68,4.6805C284.39642,650.2961,284.606,651.4088,283.12714,647.384Zm21.52806-6.55153-2.808-.93649,2.808-3.744,3.744,1.872C304.25468,639.30163,306.49358,637.34275,304.6552,640.83251Zm4.68,1.87152,3.744.93649-2.808,1.87151ZM324.311,657.67957l-10.29578-2.80751c-2.032-1.88575-.77329-.26848-.936-4.67952l12.168,1.872,1.87176,1.87151C324.40475,657.20544,324.95054,653.43689,324.311,657.67957Zm10.29627,0-.93625-2.80751,2.808.936Zm59.9039-10.29553-.93624,2.8085-2.80777,1.872c.06528-4.69817-.28075-2.90764.936-5.617h2.808Zm9.36-14.976h2.808L402.935,634.28Zm-.93625,20.592h-2.80776l.936-1.872h.93576Zm-3.744-64.58367,1.87225,2.80752-2.808-1.872Zm-1.87176,12.16754c-1.21037,2.79378.03927,1.1235-1.872,2.8085l-.936-2.8085Zm-22.46405,14.04053v-.9365l2.808-1.872h.936C379.81589,614.40358,377.60227,613.767,374.85513,614.62445Zm2.808-3.744-3.744-1.872c2.72187-5.49281,3.64-4.14059,9.36-6.5525l4.68,2.80849C382.899,609.38244,378.4644,608.96328,377.66313,610.88044Zm9.35978.93551-.93576,2.8085-1.87225.93551v-4.67952l.93625.93551Zm3.74425,19.656c1.4153,3.61983.95932,4.144-.93624,8.424,3.1,2.299,1.72893,2.355,3.744-.93551,1.97974,1.24816,3.26,1.85679,4.68025,3.74352l2.808,2.808c-11.713-1.5245-15.257-6.19862-18.72005-15.912Zm-4.68,9.36051-.936,2.808v-2.808Zm-4.68,12.16754-.936,1.872-.936-1.872Zm-5.616-2.80751,1.872.93551-.936,2.808C374.89071,651.50255,375.81371,653.058,375.79113,650.19254Zm-13.104-5.617h2.80825c-1.04669,3.38718-.738,2.7496-2.80825,4.6805l-1.872-.936Zm-14.04-21.52756,2.808.936v.936q-.93576,2.3405-1.872,4.68C346.57676,626.88524,347.26956,627.19741,348.64706,623.048Zm-7.48777,10.29553h.93575l-.93575,3.7445h-.936C339.25906,633.86084,338.94,636.50148,341.15929,633.34351Zm4.67976,27.14456c-1.32228-4.11409-2.59719-6.27961-1.87176-10.29553h-3.744l-2.808-2.8085,4.67976-3.74352,18.72005,11.23154c2.51425-4.118,4.52859-4.77376,9.36-6.552h.936l-2.808,8.424c5.65062-2.31178,9.76814,1.1878,19.656,0l1.87176,2.808-26.20782,3.7445v-6.55251Z"/>
      <path class="cls-2" d="M367.36711,226.185h3.744c-2.193-6.3336-5.70977-11.582-2.808-17.78453-2.04036-1.551-3.40608-1.07785-8.424-.93552l2.808-4.6805c-9.00713,1.48671-9.98877,1.19025-15.9118,5.616q.93576-3.27552,1.87176-6.55153c-3.55651.53451-5.9191.85453-8.42377-1.872-1.56353-.90018-1.94588-1.12694-1.89287-1.64623-3.33932.38677-6.66441.81722-9.95932,1.34191q1.71433,3.42792,3.42816,6.85584c-.90336,3.39356.0616,1.90685-1.87225,3.7445-2.73683,2.0168-2.30049,1.31-6.55177.93551v-5.61552l-3.744-.93649-4.68025,4.68c4.89254,1.66537,6.1142,2.29166,10.29627,3.7445-3.06815,4.53374-5.003,6.81461-12.168,7.48753,2.16772,3.80045,2.32037,4.61276,6.552,6.552l4.67977-1.872-2.80776-5.616c21.48486-.00589,29.539.92472,45.86387,0Zm-49.60813-.93649q.46861-1.87152.93625-3.74352l2.808,2.807Zm25.27207-17.78356-1.87176,1.87152c.43217-3.83727-.15167-1.38854,1.87176-4.68h.93624C343.84925,207.61412,344.97987,205.23657,343.03105,207.46491Zm14.976,4.67952-4.67976-.936v-2.808l6.55177,1.87249Z"/>
      <polygon class="cls-2" points="380.471 259.88 382.343 258.009 379.535 258.009 380.471 259.88"/>
      <path class="cls-2" d="M565.79886,439.59251v.03435l.03632-.0265Z"/>
      <path class="cls-2" d="M347.71106,198.1044l-.60789-.60813c-.893.0697-1.79028.12369-2.68064.20418q-.22749,1.13823-.45524,2.27645l1.87176-1.8725Z"/>
      <path class="cls-2" d="M321.49195,200.90112c-.50579.09669-1.01846.17228-1.52327.27191l-.33745.67587h2.808Z"/>
      <path class="cls-2" d="M597.62269,423.681q.93613-2.80875,1.87225-5.617h-2.808Q597.15482,420.87271,597.62269,423.681Z"/>
      <path class="cls-2" d="M586.39091,383.43237h-1.872C586.185,384.28591,584.75745,384.34677,586.39091,383.43237Z"/>
      <polygon class="cls-2" points="451.607 478.905 448.799 478.905 449.735 480.777 451.607 478.905"/>
      <path class="cls-2" d="M290.12434,235.26816q1.3705.94827,2.72677,1.91618.286-1.28842.5723-2.57536Z"/>
      <path class="cls-2" d="M286.8714,228.99248c1.0295-4.013.2805-2.6269,2.80776-4.68051l3.74425,2.8085-1.87225-2.8085,12.168-4.67952.936-1.872-.936-.93551-14.976,5.61552-9.883-9.123c-.97821.38971-1.967.75685-2.93857,1.15932q-.141.70531-.28246,1.41161a62.16454,62.16454,0,0,0-9.3885,2.85857c-.65672.30676-1.29847.64-1.952.95318,3.42006,1.77825,6.80675,3.61247,10.12767,5.54828h1.21283v.73378q2.30368,1.3613,4.57669,2.76776l3.84757-2.56505c-.49082,1.86317,1.06509,1.14657-1.87225,2.80752l-.60371.60371c1.68892,1.06607,3.3538,2.166,5.014,3.27282C286.35726,232.0454,286.57175,231.08535,286.8714,228.99248Zm-11.23227-5.616c3.14324,1.29578,1.95176.53942,3.744,2.8085Z"/>
      <path class="cls-2" d="M521.807,552.8483l-1.66365-3.32779c-.0243.03877-.05129.07558-.07559.11436l.80324,3.21343Z"/>
      <polygon class="cls-2" points="581.711 366.585 577.967 366.585 579.839 369.393 581.711 366.585"/>
      <path class="cls-2" d="M337.41528,620.24H332.735l.936,1.8725h-1.87176v3.744c4.7453-1.3164,5.69725-2.82961,8.424.93551l2.80776-2.808-3.744-6.552h-3.74377Z"/>
      <polygon class="cls-2" points="331.799 617.432 328.991 615.56 328.055 617.432 330.863 620.24 331.799 617.432"/>
      <polygon class="cls-2" points="332.735 605.264 329.927 610.88 329.927 611.816 337.415 609.944 332.735 605.264"/>
      <polygon class="cls-2" points="376.727 590.288 373.919 590.288 372.983 592.16 374.855 593.096 376.727 590.288"/>
      <polygon class="cls-2" points="363.623 623.048 361.751 621.176 360.815 623.048 363.623 623.048"/>
      <path class="cls-2" d="M359.87909,615.56c-1.74562-3.2257-.76-2.53364-4.68-3.744C356.86984,614.51647,357.0085,614.16209,359.87909,615.56Z"/>
      <path class="cls-2" d="M329.927,627.72848l.93625-2.8085-4.68-1.872-8.42427,2.8085L316.82323,629.6l1.872,1.872C325.52236,627.915,324.80821,627.86787,329.927,627.72848Z"/>
      <polygon class="cls-2" points="373.919 243.969 376.727 243.969 373.919 242.097 373.919 243.969"/>
      <path class="cls-2" d="M508.703,536.93577l2.808.93649h3.744l-6.552-8.424-1.872,3.744C510.32121,535.50207,508.07937,533.03126,508.703,536.93577Z"/>
      <path class="cls-2" d="M332.39341,272.56591q1.59321,1.77875,3.14986,3.59186v-4.10919A5.59934,5.59934,0,0,0,332.39341,272.56591Z"/>
      <polygon class="cls-2" points="348.647 288.897 349.583 287.961 347.711 286.088 348.647 288.897"/>
      <path class="cls-2" d="M357.07108,227.12047l1.872-.93551v-3.7445h-2.80777Q356.6032,224.781,357.07108,227.12047Z"/>
      <path class="cls-2" d="M363.6231,221.505l-3.744,6.552c3.63259-.535,2.13877-1.10632,2.808,2.80751,4.86726.59684,6.80773.6685,10.296-1.872h-5.616Z"/>
      <path class="cls-2" d="M343.96729,282.34461h-2.808l.15313.76519c1.48254,1.86072,2.92875,3.7499,4.35632,5.65528C344.80759,286.92351,343.343,285.5492,343.96729,282.34461Z"/>
      <path class="cls-2" d="M336.479,265.49706c-.0935,3.85739-.15068,2.6799,3.74426,4.67952h.936C339.69712,266.20434,339.916,267.18157,336.479,265.49706Z"/>
      <path class="cls-2" d="M300.91119,227.12047l-2.808-1.872C296.32492,227.86407,298.19668,226.62376,300.91119,227.12047Z"/>
      <path class="cls-2" d="M320.4941,260.18045c.7544.72985,1.48769,1.4813,2.23227,2.221l1.58463-1.58487Z"/>
      <polygon class="cls-2" points="322.439 259.88 325.247 259.88 326.183 258.009 322.439 256.137 322.439 259.88"/>
      <path class="cls-2" d="M475.00688,536.00025l-.936,1.872,1.87225.93551h.936C475.66876,536.014,476.9184,537.68476,475.00688,536.00025Z"/>
      <polygon class="cls-2" points="482.495 519.152 482.495 521.024 484.367 519.152 482.495 519.152"/>
      <polygon class="cls-2" points="461.903 481.712 463.775 483.584 465.647 481.712 462.839 479.84 461.903 481.712"/>
      <path class="cls-2" d="M518.999,530.38424l-.936-4.6805c-2.47106.95122-.75734-.46727-1.87225,1.87249l-2.808-1.87249c-2.45216,1.89065-.47.71169-3.3192.911-.08712.1227-.174.23265-.26063.35339l2.64407,5.28814Z"/>
      <polygon class="cls-2" points="368.303 209.336 368.303 214.016 377.663 216.825 379.535 214.953 368.303 209.336"/>
      <path class="cls-2" d="M556.43884,434.912l4.68025-.93551-3.74425-2.8085Q556.907,433.041,556.43884,434.912Z"/>
      <polygon class="cls-2" points="541.463 313.233 541.463 316.976 544.271 314.168 541.463 313.233"/>
      <polygon class="cls-2" points="550.823 433.04 552.695 433.976 553.631 433.04 551.759 431.168 550.823 432.104 550.823 433.04"/>
      <polygon class="cls-2" points="539.591 325.401 539.591 327.272 542.399 327.272 539.591 325.401"/>
      <path class="cls-2" d="M563.92686,404.95993h-1.872C563.721,405.814,562.29364,405.87483,563.92686,404.95993Z"/>
      <path class="cls-2" d="M550.82282,406.83193q-.46788,2.34125-.936,4.68051l2.808-2.808Z"/>
      <path class="cls-2" d="M557.37484,415.25645l2.808-2.80752,3.744-1.872-7.488-2.8085C555.416,411.02161,556.50436,409.54668,557.37484,415.25645Z"/>
      <path class="cls-2" d="M541.4628,404.02442l1.872,1.872q.46824-.93576.936-1.872l-2.808-1.872Z"/>
      <polygon class="cls-2" points="493.727 253.329 492.791 255.201 495.599 255.201 493.727 253.329"/>
      <polygon class="cls-2" points="520.871 320.721 522.743 318.848 519.935 316.041 520.871 318.848 520.871 320.721"/>
      <path class="cls-2" d="M483.4309,244.90452l3.744,3.74351C485.60354,245.30945,486.96533,246.41086,483.4309,244.90452Z"/>
      <path class="cls-2" d="M528.35877,329.14472h3.744c.83047-3.0544-1.35517-2.71475,0-7.48851-5,.24149-3.65026-.27093-7.48778-2.808q-.46824,3.27625-.936,6.5525C529.615,324.57662,527.24509,325.64613,528.35877,329.14472Z"/>
      <polygon class="cls-2" points="504.959 388.113 506.831 389.048 508.703 386.241 504.959 383.432 504.959 388.113"/>
      <path class="cls-2" d="M554.56708,413.384l-2.808-.935q.46788,3.743.93576,7.48753v3.7445h-3.74377c-2.32135-4.36049-2.27546-11.78175-4.68025-13.104v-1.8725l-3.744,7.48753c2.43375,1.83666.87808.91391,3.744.93649l-7.48778,3.744c1.60893-5.69356-1.05036-6.88627,2.808-7.48851-1.31884-4.439-2.50664-5.04273-6.552-6.552q.93574-2.808,1.87175-5.61552l-8.42377,5.61552c-.08639-4.25152-.17228-5.36373-1.872-7.487l-5.616,3.74352-6.552-4.68c-3.25465,3.27577-3.43135,2.57094-7.488.9365l-.936,2.80751c3.59333,4.26821,5.76106,7.69221,3.744,12.168,5.672.90067,3.32583,3.05048,9.36,6.552,1.12889-3.744,1.33283-3.39552.936-7.48851h4.67976l.93625,1.8725-2.808,3.744,13.104,3.744c-3.62523,9.9981,2.26589,11.78077,5.616,21.52757h.93576c2.2308-2.43989,1.58-2.17043,1.87225-4.67952h4.67976q-2.33976-4.681-4.67976-9.36l4.67976-5.616,2.808.936-2.808.936q2.34014,2.33976,4.68026,4.67952,2.33976-7.01928,4.67977-14.03954C552.94,414.82943,553.6112,417.45927,554.56708,413.384Z"/>
      <polygon class="cls-2" points="495.599 385.304 502.151 389.048 496.535 383.432 495.599 385.304"/>
      <path class="cls-2" d="M387.95916,228.99248c-.25548,2.98225.02061,2.25484.936,5.6165l1.872.935h.936q-.46788-2.80727-.936-5.615Z"/>
      <polygon class="cls-2" points="378.599 212.144 379.535 214.016 381.407 212.144 378.599 212.144"/>
      <path class="cls-2" d="M504.959,415.25645l.936-1.8725-5.616-1.87151,3.744,10.296c1.14289,1.794,7.5133,2.18172,5.616-2.808Z"/>
      <polygon class="cls-2" points="381.407 220.568 382.343 222.44 380.471 222.44 387.023 226.185 388.895 224.312 381.407 220.568"/>
      <polygon class="cls-2" points="412.295 399.345 414.167 397.472 410.423 396.536 412.295 399.345"/>
      <polygon class="cls-2" points="407.615 402.152 407.615 403.088 409.487 404.96 411.359 404.024 412.295 401.216 409.487 401.216 407.615 402.152"/>
      <path class="cls-2" d="M480.6229,270.17658c-.35855,3.04507-1.50315,1.92256,2.808,3.744Z"/>
      <path class="cls-2" d="M431.015,410.57693l1.872.93551h.936q.46786-2.33976.93624-4.68051H430.079Z"/>
      <polygon class="cls-2" points="506.831 433.04 508.703 433.976 509.639 433.04 507.767 431.168 506.831 433.04"/>
      <path class="cls-2" d="M503.087,408.70443c-3.759-5.22385-2.205-5.94143-8.42377-7.488q.46787-10.29627.93575-20.59254l-2.808-.93551-3.744,3.744-3.74377-3.744c1.84378,6.96087,4.04611,12.45516,1.87176,18.72,5.2128,1.76206,7.798,3.97077,10.296,8.42353h-1.872l-1.872,2.8085c5.51024,1.38707,2.61045-.7058,8.424,1.872Z"/>
      <path class="cls-2" d="M470.32712,432.10449V434.912l2.808.9365C471.98365,433.78065,472.12967,433.524,470.32712,432.10449Z"/>
      <path class="cls-2" d="M487.17491,401.21641l1.872,2.808C487.83679,401.23065,489.08643,402.90141,487.17491,401.21641Z"/>
      <path class="cls-2" d="M406.6792,237.417l-1.87225,3.744,6.552.93551C409.63961,239.43526,409.913,238.87572,406.6792,237.417Z"/>
      <polygon class="cls-2" points="411.359 208.4 408.551 208.4 409.487 210.273 411.359 208.4"/>
      <path class="cls-2" d="M378.59913,204.65642l-.936,1.872C379.34789,205.28958,378.2023,205.52518,378.59913,204.65642Z"/>
      <polygon class="cls-2" points="414.167 212.144 414.167 214.016 416.975 214.016 414.167 212.144"/>
      <path class="cls-2" d="M422.59124,246.77652H428.207c-1.79715-2.808-.16173-1.57162-3.744-2.808Z"/>
      <path class="cls-2" d="M477.81489,288.89662l3.744.93552c1.49775-3.931,1.88256-2.37952-.936-5.616l-1.872,1.872Z"/>
      <path class="cls-2" d="M420.719,227.12047l2.808,2.8085h.936c-1.00791-2.91059-.74875-2.98421-2.808-4.6805Z"/>
      <path class="cls-2" d="M421.655,214.95293l-3.744-.93649q.46788,1.87226.936,3.744Z"/>
      <polygon class="cls-2" points="390.767 211.208 387.959 209.336 386.087 212.144 390.767 211.208"/>
      <path class="cls-2" d="M383.27915,213.08093l3.74376-5.616-.93576-1.872h-2.808l-2.808,1.872q.93576,2.80728,1.872,5.616Z"/>
      <path class="cls-2" d="M398.25518,229.929l-1.87225,4.68h.93625l2.808-1.87249q-.46825-1.87152-.93625-3.744c-1.22412-3.32534-4.91855-5.07856-8.42378-6.552C389.47531,227.894,391.05258,230.03155,398.25518,229.929Z"/>
      <polygon class="cls-2" points="395.447 361.905 392.639 366.585 395.447 366.585 395.447 368.456 398.255 367.52 401.063 363.777 397.319 360.968 395.447 361.905"/>
      <polygon class="cls-2" points="400.127 247.713 397.319 244.905 398.255 247.713 398.255 249.585 400.127 247.713"/>
      <polygon class="cls-2" points="401.999 283.281 402.935 286.088 404.807 288.897 407.615 288.897 401.999 283.281"/>
      <path class="cls-2" d="M412.295,258.00855,403.8712,256.137v1.87152c2.10858,1.685,3.24017,1.81948,7.48777,1.87151Z"/>
      <polygon class="cls-2" points="502.151 572.504 506.831 572.504 504.023 569.696 502.151 572.504"/>
      <path class="cls-2" d="M488.11091,311.36068h5.616q.46788,4.67952.93625,9.36l3.74376-3.7445c5.1836,2.29068,5.53086,2.90225,7.488,8.42451l12.168.936q.46788-5.616.936-11.232c-9.81968-3.3538-16.51183-5.06433-24.33581-12.16852l3.74376-2.80752c-3.86377-2.74763-8.07676-.215-11.232-7.48851-4.52-2.50762-2.995-1.37381-10.29578-.935q.46788,2.80728.93576,5.615c-6.12794-2.1768-5.3679-3.03035-10.29578-6.55152l-.936.93649,3.744,5.615-8.424,3.7445c-2.65094-4.3006-3.96684-13.988-9.36-15.912,2.45781-3.11674,3.21613-4.01937,8.424-4.68v-.936l-5.616-1.872c1.74537-3.22668.76-2.53364,4.68-3.744-.616-4.76542-.71709-3.98353-2.808-6.55153,4.562-.92864,7.56655-.65574,11.23179.93551l1.87225-.93551c-1.45456-4.09151-1.47542-3.50743-5.616-4.6805l1.872-4.68c-.14332-4.08366-1.18878-3.31454,4.67976-3.74352v-.93649l-8.424-4.68051c2.26148-1.76156,1.57432.16688,3.74426-2.80751l-12.168-1.872q.46788-2.33976.936-4.68c-4.72124-3.83775-9.65108-8.4034-14.976-11.23153q-.46824,2.808-.936,5.61552c2.62076,5.3868,4.25324,8.14327,11.232,9.36051l-6.55226,3.74352-.93576,1.87151c3.56338,3.71162,1.48278,3.53689,5.616,2.8085q.46788,3.74376.936,7.488v.93551c-2.95795-.11731-.5804,1.01306-2.80825-.93551-3.34227-1.92943-1.123.11044-.93575-3.744l-9.36,1.872-1.87176-4.68c2.90887.30235,6.606.7171,7.48778,1.8725l2.808-1.8725c-2.57683-1.14411-1.52941-.67586-3.744-.936-2.64333-2.382-10.8163-2.70591-15.91179-3.744L414.167,256.137l-.93576,1.87152,12.168,6.552v.9365l-12.168,7.487-1.87225,2.8085c5.83688-.27044,3.904.53795,9.36,1.872l-4.67976,4.68c-.55243,4.5092,4.99708,11.49756,5.61577,16.84755l3.74425-2.80752c1.21651,3.82892,1.53947,3.28411,3.74376,5.616,4.16514-.60077,15.33091-3.2257,20.592-5.616,2.62076,3.65076,5.21158,3.03821,6.55178,9.35954,9.98263-1.67813,27.89306,3.23257,29.95207.93649Zm-27.14382-49.60861-.936,1.87249h-.93625q-.93576-2.80873-1.87176-5.616C460.03943,259.69355,459.447,258.4763,460.96709,261.75207Zm-4.68025-9.35954c.85378,1.66586.91465.23855,0,1.8725Zm-36.5036,29.95208v-.936l1.87176-.936ZM428.207,254.265l-.936-1.8725,2.808-1.872h1.872l-2.808,3.7445Zm6.55226,11.232-3.74425-.9365c-4.35141-6.70662-1.32989-.60076-.936-8.42353l1.872,1.87152c1.3105.213.22382.18013.936-.936l2.808.936C433.971,263.29816,433.88462,259.777,434.75927,265.49706Zm15.9118-19.65654h.936l-1.872,2.80751Zm-4.68,36.50409-.936-3.74352,5.616-2.8085c2.39792,3.4235-2.39523,1.51272,1.872,5.616l-2.808.936Zm7.48777,14.97554-1.87176-1.87151c-1.68476-1.818-.76667-3.20067,0-6.552h1.87176Zm-3.74377-11.232,3.74377.93649C449.86317,286.76448,452.35018,287.8173,449.73506,286.08813Z"/>
      <path class="cls-2" d="M475.00688,273.92059c-1.927-2.04625-1.26264-1.817-4.67976-2.808C472.25409,273.15883,471.58976,272.92912,475.00688,273.92059Z"/>
      <path class="cls-2" d="M499.34294,576.24786c3.07011-3.36951,2.74813-2.246,0-5.61552Z"/>
      <polygon class="cls-2" points="478.751 254.265 480.623 251.457 482.495 250.521 475.943 248.648 474.071 250.521 475.007 253.329 478.751 254.265"/>
      <polygon class="cls-2" points="475.007 283.281 476.879 281.409 475.007 281.409 475.007 283.281"/>
      <path class="cls-2" d="M436.631,221.505q.46788,1.87225.936,3.74352C438.28487,222.65,439.56837,224.00766,436.631,221.505Z"/>
      <path class="cls-2" d="M427.271,228.99248v4.68l1.872-.936C428.23965,229.34342,429.20486,230.83012,427.271,228.99248Z"/>
      <polygon class="cls-2" points="438.503 228.992 434.759 228.992 438.503 232.736 438.503 228.992"/>
      <path class="cls-2" d="M436.631,244.90452l2.808.936,1.872-.936.936-2.808-6.552-4.67952Q436.16291,241.16,436.631,244.90452Z"/>
      <path class="cls-2" d="M463.7751,267.36906l-1.872,3.74352v.936h7.48778C467.46733,269.04081,467.48156,268.76006,463.7751,267.36906Z"/>
      <path class="cls-2" d="M406.6792,252.39253l-.93624,1.8725c2.73413,1.84992,4.5173,1.62561,7.48826-.93649l-3.74425-2.808Z"/>
      <path class="cls-2" d="M413.23122,247.71252l1.87176-1.872-3.744-1.872q.46824,2.808.936,5.616h.93625Z"/>
    </g>
  </g>
</svg>
