<svg id="Layer_1" data-name="Layer 1" xmlns="http://www.w3.org/2000/svg" width="12in" height="12in" viewBox="0 0 864 864">
  <defs>
    <style>
      .cls-1 {
        fill: none;
      }

      .cls-2 {
        fill: #f7fbb4;
      }
    </style>
  </defs>
  <g>
    <path d="M605.2473,644.89022C523.472,604.623,472.67364,523.04794,472.67364,431.998c0-91.046,50.79838-172.621,132.57366-212.89218a2.00776,2.00776,0,0,0,0-3.60462,238.84994,238.84994,0,0,0-106.399-24.71792c-133.00951,0-241.21864,108.20913-241.21864,241.21472,0,133.00951,108.20913,241.21864,241.21864,241.21864a238.78874,238.78874,0,0,0,106.399-24.72185,2.00775,2.00775,0,0,0,0-3.60461Z"/>
    <g>
      <polygon class="cls-1" points="514.105 653.928 512.233 653.928 513.169 655.8 514.105 653.928"/>
      <polygon class="cls-1" points="467.305 658.608 469.177 656.737 466.369 655.8 467.305 658.608"/>
      <path class="cls-1" d="M515.97693,603.38408c-5.72007,2.41289-6.63791,1.06018-9.36,6.5525l3.744,1.872c.80152-1.91667,5.23612-1.498,10.29652-5.616Z"/>
      <polygon class="cls-1" points="516.913 616.489 518.785 615.553 519.721 612.744 517.849 612.744 516.913 611.809 516.913 616.489"/>
      <path class="cls-1" d="M510.36091,612.7441l-2.80751,1.872v.9365c2.74665-.857,4.96076-.22087,3.744-2.8085Z"/>
      <polygon class="cls-1" points="442.033 643.633 442.969 646.441 445.777 644.569 442.033 643.633"/>
      <path class="cls-1" d="M434.54522,640.82417l2.808.93649c1.83814-3.48976-.40051-1.53039,3.744-2.8085l-3.744-1.872Z"/>
      <polygon class="cls-1" points="492.577 211.202 486.025 209.329 486.025 212.137 490.705 213.073 492.577 211.202"/>
      <path class="cls-1" d="M451.39326,222.43359q-.46824,1.8715-.936,3.74352l3.744-.9365Z"/>
      <path class="cls-1" d="M476.66532,205.58457h-.936c-2.02367,3.29146-1.44008.84323-1.872,4.6805l1.872-1.872C477.67789,206.1657,476.54752,208.54227,476.66532,205.58457Z"/>
      <path class="cls-1" d="M498.19338,645.50467h-2.808l-1.8725,3.744,1.8725.93551C497.45567,648.25378,497.14694,648.89136,498.19338,645.50467Z"/>
      <path class="cls-1" d="M523.465,652.99269l2.80849-1.872.93552-2.808v-.9365h-2.80752C523.1842,650.08505,523.53072,648.29452,523.465,652.99269Z"/>
      <path class="cls-1" d="M510.36091,652.0562l-1.872-.93552c.02258,2.86593-.90017,1.31051.93649,3.744Z"/>
      <polygon class="cls-1" points="532.825 653.928 535.633 653.928 534.697 652.056 533.761 652.056 532.825 653.928"/>
      <path class="cls-1" d="M530.01745,601.51207H527.209l.93649,2.8085C530.05672,602.63606,528.80708,604.30584,530.01745,601.51207Z"/>
      <path class="cls-1" d="M526.27344,639.88866c-2.01532,3.29048-.644,3.23453-3.744.93551,1.89507-4.28,2.351-4.80419.93551-8.42353l-8.42353-1.872c3.46276,9.71342,7.007,14.38754,18.72,15.912l-2.80849-2.808C529.5335,641.74594,528.25245,641.13731,526.27344,639.88866Z"/>
      <polygon class="cls-1" points="536.569 633.337 535.633 635.209 539.377 633.337 536.569 633.337"/>
      <polygon class="cls-1" points="517.849 644.569 518.785 641.761 517.849 641.761 517.849 644.569"/>
      <path class="cls-1" d="M420.50567,652.99269q-2.3405-2.3405-4.6805-4.68C417.304,652.33744,417.09444,651.22474,420.50567,652.99269Z"/>
      <path class="cls-1" d="M482.28084,630.52863q.93649-2.33976,1.8725-4.6805v-.93551l-2.808-.936C479.96759,628.12556,479.275,627.81388,482.28084,630.52863Z"/>
      <path class="cls-1" d="M501.00089,657.67319l2.8085-8.42451h-.93649c-4.83119,1.77826-6.84553,2.43351-9.36,6.55153l-18.71955-11.231-4.68,3.74352,2.808,2.808h3.744c-.72544,4.01642.54923,6.18194,1.87152,10.29554l17.78453-3.743v6.55153l26.20807-3.744-1.872-2.80752C510.76928,658.86,506.65224,655.36043,501.00089,657.67319Z"/>
      <path class="cls-1" d="M473.85731,638.01665l.936-3.7445h-.936c-2.2195,3.15748-1.9.51684-.936,3.7445Z"/>
      <path class="cls-1" d="M445.77725,651.12068c.163,4.41154-1.096,2.79378.936,4.67953l10.296,2.808c.63906-4.24318.09375-.47462,2.808-3.74352l-1.872-1.872Z"/>
      <polygon class="cls-1" points="501.937 616.489 500.065 619.297 504.745 618.361 504.745 617.425 503.809 616.489 501.937 616.489"/>
      <path class="cls-1" d="M302.56938,306.67282,301.254,304.6997c-.18749.28811-.37008.57917-.55659.86778v1.10534Z"/>
      <path class="cls-1" d="M339.07347,603.38408c5.63614,1.40424,5.81775,3.87113,9.36,0l-8.424-1.872Z"/>
      <path class="cls-1" d="M412.08116,232.72912l2.8085-2.80849c2.93709-1.66095,1.38118-.94386,1.872-2.80752l-5.616,3.744Z"/>
      <polygon class="cls-1" points="343.753 595.897 342.817 597.769 348.433 602.449 349.369 600.577 343.753 595.897"/>
      <path class="cls-1" d="M408.33715,224.30559l3.744,2.80752C410.28867,224.84452,411.48039,225.60039,408.33715,224.30559Z"/>
      <path class="cls-1" d="M345.62549,273.91273q.46824-1.40327.93551-2.808l-3.74352-.93551q.46752,2.33976.936,4.68Z"/>
      <polygon class="cls-1" points="348.433 260.809 346.561 258.937 345.625 258.937 343.753 260.809 344.689 263.617 348.433 260.809"/>
      <polygon class="cls-1" points="359.666 263.617 356.858 262.681 355.921 264.553 360.602 265.489 359.666 263.617"/>
      <path class="cls-1" d="M308.1854,297.31279c1.75715-1.56965,4.89842-3.68953,1.872-4.67952l-2.808,6.552h.936Z"/>
      <path class="cls-1" d="M408.33715,230.85712v-4.68h-2.80751q.935,2.33976,1.872,4.68Z"/>
      <path class="cls-1" d="M410.20916,286.08126l2.8085,1.87151C411.33216,286.0415,413.00293,287.29163,410.20916,286.08126Z"/>
      <path class="cls-1" d="M391.48911,602.44856l.93649,5.616,4.67953-1.872-1.872-2.80849Z"/>
      <polygon class="cls-1" points="354.05 600.577 356.858 599.641 356.858 597.769 354.05 597.769 354.05 600.577"/>
      <polygon class="cls-1" points="413.018 293.569 414.89 292.633 413.018 290.761 413.018 293.569"/>
      <polygon class="cls-1" points="349.369 609.001 351.242 609.001 350.306 607.129 349.369 609.001"/>
      <path class="cls-1" d="M419.56918,644.56916v-3.745l-4.67952-.93551q.46751,2.33976.93551,4.6805Z"/>
      <path class="cls-1" d="M498.33768,667.62515A234.50743,234.50743,0,0,1,314.59753,579.049h.13988l-.936-1.873H313.126q-5.82-7.4463-11.05632-15.34857l.49966-1.49849L299.434,557.7158a233.9049,233.9049,0,0,1-22.306-45.681,65.37334,65.37334,0,0,0,10.46536,6.17359c-.936,3.05243-2.515,6.96578-.936,7.48851l.936,1.872,1.872-1.872-.93551-2.808c5.78289,3.73321,6.59864,8.46574,12.16754,10.29553l-2.808,4.68h4.68c-2.66223,8.47311,5.65725,11.89465,8.424,20.59255l-3.744,1.872,10.296,19.65556,4.68,1.872.936-2.80751-2.808-12.16852,1.872.936c4.18477.562,6.56085,4.64762,11.232,7.488l-1.872,3.7445,5.61553-1.873v5.617c13.30527,1.54953,17.48709,9.7139,27.14456,12.16754-1.287,4.08366,1.98342,2.034,2.80751,10.296l2.8085-.936.93551-2.8085c-1.29479-6.80234-4.066-3.11379-.93551-7.48753h.93551c1.67077,2.73979,1.83372,2.29215,4.6805,3.744l-3.744,9.36052,5.616-4.68051,3.744,4.68051c-3.6002,1.39148-3.32092.70875-.9365,3.74352,3.691-3.94525,2.972.1173,8.42452-.936v-.93551l-2.8085-7.489c4.57252-.07166,3.29588-.28026,6.5525-4.67952-.55168-4.48564-2.15766-2.13312,0-5.616h.93552l4.6805,2.808c2.13361-1.9039,1.59812-2.3643,4.67952-3.7445l4.6805,1.8725-5.616,6.552c4.66185,9.22062,10.46241,10.80451,13.104,19.656h-.93649l-9.36-2.808,1.872,2.808,13.104,4.68c-1.713-3.26006-.78974-2.516-4.67952-3.744l2.80752-2.808c5.82216,4.02476,15.22243,6.86123,23.40005,10.296l-.936-2.808c5.38386.91735,6.12353,1.77825,8.424,5.616v.936l-5.616.93552.936-4.67953-4.68,3.744c5.09279,4.83364,9.53868,7.20727,8.424,15.912,1.67077-2.43841,1.49751-1.5083.936-4.68l3.744-4.6805c1.98342,4.89745,9.33892,4.96125,15.912,4.6805v-.93649c-.84225-4.063-1.70512-1.04546.93551-4.67952-4.74038-.60175-5.15365-1.06607-7.48753-3.744,2.24062-1.6531,2.45511-1.1554,4.68-4.6805l11.232,3.744c-.49524-7.58128-2.97145-6.85486,0-10.29554,2.542,2.88359,3.319,2.50664,5.616-1.872l5.616,2.808-2.808-3.744,6.552.936.93551,1.872-8.42353,10.29554h3.744l2.80752-1.87152h-1.87152l.936-1.87249c7.90227,3.26251,14.77087-.28812,22.464-1.872l1.872-3.74352-.936-4.68c-4.73007,4.02476-13.01028,10.81925-18.72,2.8085.85551-3.39552,2.09533-5.95468.936-9.36051,4.118.8771,5.39956,1.42535,9.36-1.87152-4.57644-4.84149-9.98435-9.308-12.16852-16.84853,11.07987,5.01083,21.52855,0,21.52855,0,5.24986,2.35154,2.302,3.931,11.232,3.7445l-1.872-.93649a64.73835,64.73835,0,0,1,4.32711-6.80872c-.484-.56052-.98558-1.10534-1.46462-1.66979l-.055.05449-1.872-1.87152.16688-.33376a238.42921,238.42921,0,0,1-46.21652-88.60855c-1.26584-.27682-2.48456-.56935-3.558-.91391v-.93649c.52764-.60175,1.39689-1.40916,2.41-2.32946A239.44665,239.44665,0,0,1,542.89473,260.7876c-3.29982-.07461-4.42724-.33425-6.32575-1.85041v-1.872l8.27088,1.83765q6.10415-5.81848,12.61174-11.19767H555.289l1.872-2.808c2.01729.69648,2.37559.62237,2.62886.91392,2.84972-2.29951,5.74019-4.55142,8.69642-6.72086-.03141-.24836-.06184-.49672-.09325-.74507l.55463.39658c1.28056-.93551,2.58861-1.83274,3.88782-2.74272-.22921-.452-.457-.90214-.69844-1.39787q.46824-2.808.936-5.616a43.63017,43.63017,0,0,1,5.16495,3.33565,238.96136,238.96136,0,0,1,26.12069-15.01531A238.16282,238.16282,0,0,0,498.84715,192.7927c-132.11032,0-239.20675,107.09643-239.20675,239.20675S366.73683,671.2062,498.84715,671.2062a238.16934,238.16934,0,0,0,105.51156-24.51275c-1.43566-.70679-2.84531-1.45775-4.26477-2.193A234.01287,234.01287,0,0,1,498.33768,667.62515Zm23.25526-79.21662,3.744,1.87151-3.744,3.7445Zm-14.976,2.808h2.80849l-1.872,2.808-1.872-.936Zm-12.16754,30.88807,1.872,1.872h-2.8085Zm-1.872-5.616c-2.87083-1.39836-3.00973-1.044-4.6805-3.7445C491.81707,613.95447,490.8315,613.26241,492.57736,616.4886Zm-9.36-86.11172-1.872,1.872-2.80849-3.744Zm87.04772-304.19977q-.46824-1.87225-.936-3.74352C572.26664,224.93581,570.98265,223.57819,570.26506,226.17711Zm.9365,3.74352v3.7445l-3.744-3.7445Zm-11.23252,0c1.93385,1.83764.96888.35143,1.87249,3.7445l-1.87249.936ZM538.441,255.19318l.9365-1.872,2.80751-1.872,3.744,2.80752C542.95853,256.81928,541.17488,257.04359,538.441,255.19318Zm7.488-6.55153v1.87152h-.936q-.46751-2.80728-.936-5.616l3.744,1.87152Zm11.232-17.78453h-.93551l-2.8085-2.8085.936-1.87151C556.412,227.8734,556.15288,227.94653,557.161,230.85712Zm-2.808-14.976-2.808,2.80752q-.46825-1.87152-.936-3.74352Zm-7.48752-2.808,2.80751,1.872H546.8655Zm-2.8085-3.744-1.872,1.87249-.93551-1.87249Zm-4.67952,29.01607c3.23355,1.45873,2.96016,2.01925,4.67952,4.67952l-6.55153-.93551ZM310.0574,448.94468l-2.808-2.808c1.96576-3.69984,1.93925-2.78,1.8725-7.488l5.61552,5.616-.936,1.872Zm-2.808-13.104q.46825-1.87224.936-3.744c1.498,1.85728,1.21675,1.3002,1.872,4.68Zm2.808-88.91973c2.8296,1.17847,1.123-.01717,2.808,1.87152h-.936Zm2.808,213.408-.936-2.8085c4.50969,1.41652,4.92395,2.31473,5.616,7.488Q315.20566,562.66871,312.86541,560.329ZM327.841,357.21645q-.4675-.93576-.93551-1.87151h2.808Zm0-4.67952h-.93551a25.97053,25.97053,0,0,0-4.68-10.296l-1.872.9365q-.93576,1.87151-1.87152,3.74351l-1.87249-2.808c-.614,3.56338-.98312,4.52834-2.808,6.55152l4.6805-11.23153h4.67952c-1.16227-3.88881-.60862-3.4451.936-8.424l-4.68,3.744q-.46824-2.808-.93551-5.616c8.666-1.20252,8.19235-.2032,11.23154,3.744l1.872-.93551q.46752-1.40474.936-2.8085l-5.616-6.552c2.91256-1.88869,3.65959-1.77825,5.616-4.68,2.79868,1.981,2.995,5.74707,2.808,12.16852h3.744C331.06567,339.41621,330.93855,336.64354,327.841,352.53693Zm.9365-53.35164v.935q-.46825.93649-.9365,1.873l-2.80751-2.808Zm-.9365-.9365v-3.74351l2.8085-2.8085C331.28556,295.04911,330.59792,295.91934,327.841,298.24879Zm12.16852,14.04q.46825-1.404.936-2.808h2.808Zm5.616-3.744h-3.744q-.46824-.93576-.936-1.872l1.872-1.872,3.74352,1.872Q346.09349,307.6093,345.62549,308.54482Zm7.488,9.36v-4.6805l1.872,2.8085Zm14.03954,277.05571q-.4675-1.87225-.93551-3.744l.93551-1.872C369.90167,592.71453,370.22365,591.59055,367.15305,594.96055Zm-.93551-88.91973.93551-2.808,3.744,3.74352Zm-.93649-3.7445-2.80752-1.87152v-5.616c-3.15993,2.26221-.67341,1.44891-4.68,1.872q-.46825-2.808-.936-5.616a49.02271,49.02271,0,0,0,13.104,1.872l.93551.93552Zm-9.36-201.23952v-1.87151c2.49094,2.29853,1.43125,1.27565,1.8725,3.74352Zm17.78454,148.82388,5.616,1.872-.936,1.872h-.936Zm4.68,13.104.936-1.872,1.872,2.80849Zm0-163.79942c-.1875-1.8509-9.10087,1.27369-14.976,0v-.9365l2.808-2.808c5.30974-.0481,5.99-.25523,8.42353-2.80752l7.488,4.67952Zm-2.808-32.76008v-2.808l1.872,1.87151Zm.93551,26.20806v-3.744C377.7205,291.95053,378.26728,289.93079,376.51307,292.63327Zm6.55251,307.94329h1.872C383.30412,601.49146,384.73144,601.43059,383.06558,600.57656Zm3.744-129.16783-.93649-1.87249h2.8085Zm.93551-7.48753v-.93649l.9365-2.808,3.744-2.808c1.6374,2.04821,1.64034,2.51449,1.872,6.5525Zm1.872-186.264h1.872C389.85614,278.57164,391.28346,278.51127,389.61711,277.65723Zm3.744,166.60743v-1.872h1.872Zm.93649-23.39956-1.872-.936-.93649-2.808,4.6805.936Zm1.872-109.51227q-.46824-1.40326-.93649-2.808l1.872,1.8725Zm1.872-26.20807c2.82911,1.17847,1.123-.0162,2.80751,1.872h-.93551ZM404.59314,590.28c-1.3532-3.73321-.07853-.58211-2.80751-2.80751l1.872-2.80752,4.67952.93551Zm4.68-9.35953h-3.74352l-1.872-2.808,5.61553,1.872Zm1.87249-91.72773h-.93649q-.46752-1.87226-.936-3.744h2.808Q411.61292,487.32028,411.14565,489.19278Zm-6.55251-25.27158c-.25081-7.72656.98018-11.05189,6.55251-13.104v-.93649l-12.16852-.936,1.872-3.7445c10.38291,1.6472,16.45342,7.15033,23.40006,12.16852-1.41406,4.43509-1.83715,7.168-5.616,9.36C412.94992,469.37328,407.74767,466.52846,404.59314,463.9212Zm5.616-167.54392h-3.744l-1.872-1.872,1.872-2.8085,3.744,3.744Zm2.8085,147.88738h-2.8085v-2.808Zm2.80751.93552h3.744v2.80849C416.822,447.15169,414.60842,447.7878,415.82517,445.20018Zm3.744-152.56691v-3.744l2.808.93551Zm-.936,248.03914-1.87152-2.808,3.744.9365Zm0-2.808.936-1.87151,1.872,1.87151Zm4.68-1.87151h1.872C423.55173,536.90681,424.97905,536.84594,423.31319,535.99289Zm0-46.80011,2.8085,4.67952C424.0509,491.94188,424.35963,492.57946,423.31319,489.19278Zm.936-187.19949,1.8725-.93649c1.497,1.85728,1.21626,1.3002,1.87151,4.6805Zm4.68,2.80752.9365-2.80752h1.87151Zm5.616,188.136-1.872-1.872,3.744-4.6805q.93649,3.27625,1.872,6.5525Zm4.68,90.79174.936-1.872,1.872,1.872Zm5.6165-276.11921-2.80849.93551c-1.67077-2.43351-1.49751-1.50781-.936-4.68l3.7445,2.808Zm17.78356,321.04732c-5.1193.13939-4.40466.18749-11.232,3.744l-1.872-1.872.936-3.744,8.424-2.808,4.68,1.87151Zm-11.232-71.13618,2.808,1.872v.93649h-.936Zm6.552-147.88738v-2.808h2.808l-1.872,2.808Zm2.808,208.72753.936-1.872,2.808,1.872-.936,2.808Zm4.68-12.168,4.68,4.68-7.488,1.87151v-.93551Zm-.936-88.91973h3.744l.93551,2.80752v.93649h-3.74352C463.28054,517.81668,463.7532,520.79991,464.49729,517.27284Zm7.488,51.47964h1.872l-1.872,1.872Zm0,49.60812,3.744,6.552-2.808,2.80752c-2.72653-3.76463-3.67873-2.25191-8.424-.93552v-3.744h1.872l-.936-1.872h4.68l-1.872-2.808Zm-10.296-236.80809q-.93574-3.74376-1.872-7.48753l4.68.93551c-1.4872-3.1825-1.54217-3.44215-.936-7.487l7.488,1.87151,2.808,7.488C468.54365,377.06637,466.08854,382.28138,461.68928,381.55251Zm4.68-29.01558v-2.808l1.872,3.744Zm8.424,8.424-2.808.93551V360.025h2.808Zm3.74352-66.45567c-3.74352-.4123-1.96527.92864-4.67953-1.872-3.21391-1.80771-3.46325-2.783-4.6805-6.552l5.61651,1.87151-.936-4.67952h2.808C475.63557,288.55845,480.30969,288.85,478.53684,294.50528Zm-9.36-28.08007c3.43774,1.685,3.21883.70777,4.6805,4.67952h-.936C469.02662,269.10511,469.08356,270.28309,469.17681,266.42521Zm12.16852,23.39956-.936-2.808,1.87151,1.87249Zm10.29554-62.71166-1.87152.93551q-.46824-2.33976-.936-4.67952h2.80752Zm2.8085,20.59205v-.93649l1.872-2.80752q.46824,2.33976.93551,4.6805h-.93551Zm4.68,15.912-1.8725-2.808,3.744,1.87152Zm-3.744-31.82408c-.669-3.91432.82458-3.34251-2.808-2.808l3.744-6.55152,3.744,7.487h5.616C502.19261,232.46113,500.25287,232.39045,495.38537,231.79312Zm14.97554,4.68,2.8085,1.872-.93649,1.872h-3.744Zm-2.80751-.93551h1.872C507.79194,236.45154,509.21926,236.39067,507.5534,235.53762Zm1.872-.93649-2.80849-1.872.93649-1.872,6.552-2.8085v4.6805Zm0-8.424-2.80849,1.87151.93649-1.87151Zm-.93649-5.616h3.744v.936l-.93551,2.80849-1.872-.93649Zm3.744-4.68-1.872,1.872-9.36-2.808v-4.68Zm-.93551-2.808h2.808l-1.87249,1.872Zm-4.6805,31.82408v-1.87249l2.80849,1.87249Zm6.5525,15.912-.93649-1.872h2.8085Zm0-37.44009h1.872l-.936-1.872,7.48753,3.74351-1.872,1.8725Zm10.29554,13.104-1.872-.93551c-.91489-3.36215-1.19123-2.63474-.93551-5.617l2.80752.93649.93649,5.616Zm7.488,14.04v-1.87152l-.93552-2.80849,2.80752,2.80849Zm.93649-20.59254q.46751,1.87224.93551,3.7445l-2.80752,1.87249H529.081l1.872-4.6805c-7.20236.10307-8.77938-2.035-7.488-7.488C526.97042,224.84256,530.66485,226.59578,531.88946,229.92063ZM523.465,212.13707l-4.67952.936,1.872-2.808Zm-7.488-5.616h2.8085l.93551,1.872-3.744,5.616h-.93551q-.93649-2.808-1.872-5.616Zm-4.67952-.93649c-.39708.86875.7485.63316-.9365,1.87249Zm-34.17709-6.956c.89035-.08,1.78758-.134,2.68088-.20418l.60813.60862h-1.87249l-1.87152,1.872Q476.89282,199.76756,477.12032,198.6286Zm-24.45386,3.47307.5988-1.19663.92472.92472.94729.94729h-2.808Zm-1.2732.67538,1.872,1.872h-2.808Zm6.552,11.232c-4.18232-1.45284-5.40349-2.07864-10.296-3.744l4.68-4.6805,3.744.93649v5.616c4.25152.374,3.81518,1.0808,6.552-.93551,1.93385-1.83765.96888-.35143,1.872-3.7445q-1.714-3.42866-3.42792-6.85534c3.29491-.52519,6.61975-.95564,9.95883-1.34192-.053.51831.32984.74556,1.89311,1.64524,2.50468,2.727,4.86751,2.407,8.424,1.872q-.93649,3.27552-1.872,6.552c5.92327-4.42577,6.90492-4.12931,15.912-5.61651l-2.808,4.6805c5.0177-.14234,6.38366-.61549,8.42353.936-2.90126,6.20254.6155,11.45093,2.8085,17.784h-3.744v-6.552c-16.32482.92472-24.37925-.00638-45.86411,0l2.808,5.616-4.68,1.87151c-4.2314-1.93876-4.38453-2.75156-6.552-6.55152C452.9423,220.82368,454.87713,218.54331,457.94528,214.00908Zm-9.36.936v-2.808l2.808,2.808Zm3.744,51.48013-3.744-.9365.936-2.808c2.64506.10994.89674.58948,1.872-1.87152l5.616.936Zm4.68,13.104-1.872-2.8085C457.04854,278.40574,455.7989,276.735,457.00927,279.52924Zm-3.744,0-2.808,2.80752-1.872-.93552,1.872-2.80849Zm1.872-18.72005v-3.744l3.744,1.872-.936,1.872Zm-8.424,29.95208v4.67952c5.57576-1.66292,9.47438-.09326,13.104-7.488-4.51608,2.273-5.46926,3.30717-9.36,1.872l4.68-5.616,4.68-1.872v-9.35954c7.4944,1.472,3.96684-.14774,8.424,0v7.48753c-2.1341,3.04606-5.17918,3.72143-7.488,6.552,3.50989-.24492,2.89194-.87122,5.616.936-2.808,3.557-2.50517,3.37-3.744,7.488l7.488.93649c-2.18319,5.25673-1.27909,4.61522-.9365,8.42353H467.3053c-3.00385.57966-6.04009-1.1338-9.36-2.80752q-.46752,2.80728-.936,5.616l5.616-.93649q-.46825,3.27624-.936,6.55152c6.09359.60764,5.47319,1.26044,7.48753,5.617v.93551h-.93551c-5.67884-1.59126-6.19715-1.75814-11.232-4.68q.93649-3.27552,1.872-6.552l-2.808.936c-.06381,3.55112,1.872,1.872-1.872,3.74352.3745-7.39378-.133-11.69929-3.744-14.97555l-7.488,1.87152c.883-5.6808,3.65026-4.02967,0-7.487-.60028,6.421-1.03711,2.92581-4.68,4.67952l1.872,2.80752-3.744-.935-.93551-2.808,1.87151.93551c-2.59106-1.77825-1.46216-.98557-5.616,0a65.35229,65.35229,0,0,0-2.808-10.296c-4.815,1.00815-5.5738-2.51646-12.16754-4.68l3.744,4.68-3.744,1.87249c1.0219,3.744,1.497,3.55652,1.87152,5.616l-7.48753,1.872q.46751-3.74449.93551-7.488h-5.616l-3.744-6.5525q.93649-3.27479,1.872-6.55153h.9365l22.46356,4.67952c.54727,2.91157,4.976,8.94773,7.48851,13.104C441.00349,290.68519,441.65923,290.3799,446.71325,290.76127Zm-44.92762-38.37659v-3.743h7.48753q-.46752,1.87152-.936,3.743Zm9.36.93649,1.872,3.744h-.9365Q411.61292,255.19368,411.14565,253.32117Zm19.65556-27.14406,2.808,1.87151C430.89447,227.5524,429.023,228.79271,430.80121,226.17711Zm3.744,59.90415h-.936l-1.872-1.8725.936-1.872Zm5.616,2.808-2.808-3.7445h2.808ZM295.28162,314.38809q2.61218-4.47633,5.41576-8.82061v-1.70267l.55659.83489c.28125-.43291.55169-.87367.83637-1.30461l3.287.46972v-3.7445l-.94238-.23462a235.9117,235.9117,0,0,1,94.51365-80.21053,62.29729,62.29729,0,0,1,9.38849-2.85857q.14136-.70531.28272-1.41161c.97134-.402,1.96035-.76961,2.93856-1.15933l9.88276,9.12345,14.976-5.616.936.93551-.936,1.87249-12.168,4.67952,1.8725,2.808-3.7445-2.808c-2.52726,2.05312-1.77826.667-2.808,4.68-.57328,4.00709-.87956,3.86769,1.872,6.5525l4.6805-.93551q-.93649,4.21128-1.8725,8.42353l-12.168-4.68c4.04538-.97134,2.621-.32983,4.6805-2.808-1.91176-1.685-.66212-.01374-1.872-2.808l-5.6165.936q-.46752,2.33976-.936,4.68l6.55251,5.616-5.6165,1.87152.936-2.80752-11.232,2.80752q.93649,4.212,1.872,8.42451c-5.67491.25474-5.90609.69893-8.42353,3.744l-4.6805-3.744q-.46824,2.33976-.93551,4.67952c-9.519-.55267-12.84488-.06773-14.976,4.6805-3.41368-1.79936-.6361-2.6534-3.744-.936-4.41545,1.84992-3.81468,3.45786-6.5525,6.552-5.65136-.69256-.10258-2.22786-5.616-.9365q-.4675,3.74451-.93551,7.488h-16.848l-6.552,14.04053c-4.57693-.5404-5.03536-.65574-8.424.93551q-.46824,3.74376-.936,7.48851h-4.68l2.808,4.67952-2.808,1.87249-4.68-.93649q-.46752,4.21275-.936,8.42353c-4.96077-2.22785-4.92985-3.19478-8.42353.93649,2.44823.90607,1.13282-.374,1.87151,3.744-5.95419-.21792-6.875,1.60991-9.36,2.8085q.93649,2.80727,1.872,5.616h-.936l-2.80752-1.873c1.41309-4.64615,2.2362-6.31642,4.67952-9.35953Zm127.09557-81.659-1.87152-.936v-2.808C422.43952,230.82276,421.47407,229.33654,422.37719,232.72912Z"/>
      <path class="cls-1" d="M300.69738,303.86481v1.70267c.18651-.28861.3691-.57967.55659-.86778Z"/>
      <path class="cls-2" d="M453.26526,200.905l-.5988,1.19663c.50555-.09963,1.018-.17571,1.52352-.27191Z"/>
      <polygon class="cls-2" points="521.593 588.409 521.593 594.025 525.337 590.28 521.593 588.409"/>
      <path class="cls-2" d="M527.209,586.53653l.055-.05449c-.59881-.70678-1.16964-1.43713-1.7601-2.15079l-.16688.33376Z"/>
      <polygon class="cls-2" points="499.129 263.617 501.001 262.681 497.257 260.809 499.129 263.617"/>
      <path class="cls-2" d="M496.32137,243.96115l-1.872,2.80752v.93649l1.872.93649h.93551Q496.78937,246.30042,496.32137,243.96115Z"/>
      <polygon class="cls-2" points="511.297 224.306 512.233 221.497 512.233 220.561 508.489 220.561 509.425 223.369 511.297 224.306"/>
      <polygon class="cls-2" points="506.617 228.049 509.425 226.177 507.553 226.177 506.617 228.049"/>
      <polygon class="cls-2" points="514.105 228.049 507.553 230.857 506.617 232.729 509.425 234.601 514.105 232.729 514.105 228.049"/>
      <path class="cls-2" d="M507.5534,235.53762c1.66586.853.23854.91392,1.872,0Z"/>
      <polygon class="cls-2" points="513.169 238.345 510.361 236.473 508.489 240.217 512.233 240.217 513.169 238.345"/>
      <polygon class="cls-2" points="448.585 214.945 451.393 214.945 448.585 212.137 448.585 214.945"/>
      <polygon class="cls-2" points="418.633 537.864 421.441 537.864 419.569 535.993 418.633 537.864"/>
      <polygon class="cls-2" points="451.393 202.777 450.457 204.649 453.265 204.649 451.393 202.777"/>
      <path class="cls-2" d="M401.78563,587.47253c2.729,2.2254,1.45431-.9257,2.80751,2.80751l3.744-4.67952-4.67952-.93551Z"/>
      <polygon class="cls-2" points="418.633 540.672 420.506 538.801 416.762 537.864 418.633 540.672"/>
      <path class="cls-2" d="M420.50567,231.79312l1.87152.936c-.90312-3.39258.06233-1.90636-1.87152-3.744Z"/>
      <path class="cls-2" d="M410.20916,489.19278h.93649q.46751-1.87226.93551-3.744h-2.808Q409.7414,487.32028,410.20916,489.19278Z"/>
      <polygon class="cls-2" points="405.53 580.921 409.273 580.921 409.273 579.985 403.658 578.113 405.53 580.921"/>
      <path class="cls-2" d="M526.27344,595.897c-8.93006.18651-5.98216-1.393-11.232-3.7445,0,0-10.44868,5.01083-21.52855,0,2.18417,7.54054,7.59208,12.007,12.16852,16.84853-3.96046,3.29687-5.242,2.74862-9.36,1.87152,1.15933,3.40583-.08049,5.965-.936,9.36051,5.70976,8.01075,13.99,1.21626,18.72-2.8085l.936,4.68-1.872,3.74352c-7.69318,1.58389-14.56178,5.13452-22.464,1.872l-.936,1.87249h1.87152l-2.80752,1.87152h-3.744l8.42353-10.29554-.93551-1.872-6.552-.936,2.808,3.744-5.616-2.808c-2.29706,4.37864-3.074,4.75559-5.616,1.872-2.97145,3.44068-.49524,2.71426,0,10.29554l-11.232-3.744c-2.22491,3.5251-2.4394,3.0274-4.68,4.6805,2.33388,2.67794,2.74715,3.14226,7.48753,3.744-2.64063,3.63406-1.77776.61647-.93551,4.67952v.93649c-6.57312.28075-13.92862.21695-15.912-4.6805l-3.744,4.6805c.56151,3.17171.73477,2.2416-.936,4.68,1.11466-8.70477-3.33123-11.0784-8.424-15.912l4.68-3.744-.936,4.67953,5.616-.93552v-.936c-2.30049-3.83776-3.04016-4.69866-8.424-5.616l.936,2.808c-8.17762-3.43479-17.57789-6.27126-23.40005-10.296l-2.80752,2.808c3.88978,1.228,2.96654.484,4.67952,3.744l-13.104-4.68-1.872-2.808,9.36,2.808h.93649c-2.64162-8.85153-8.44218-10.43542-13.104-19.656l5.616-6.552-4.6805-1.8725c-3.0814,1.3802-2.54591,1.8406-4.67952,3.7445l-4.6805-2.808h-.93552c-2.15766,3.48289-.55168,1.13037,0,5.616-3.25662,4.39926-1.98,4.60786-6.5525,4.67952l2.8085,7.489v.93551c-5.45257,1.05331-4.73352-3.00924-8.42452.936-2.38442-3.03477-2.6637-2.352.9365-3.74352l-3.744-4.68051-5.616,4.68051,3.744-9.36052c-2.84678-1.45186-3.00973-1.00422-4.6805-3.744h-.93551c-3.13048,4.37374-.35928.68519.93551,7.48753l-.93551,2.8085-2.8085.936c-.82409-8.26205-4.09446-6.21236-2.80751-10.296-9.65747-2.45364-13.83929-10.618-27.14456-12.16754v-5.617l-5.61553,1.873,1.872-3.7445c-4.67118-2.8404-7.04726-6.926-11.232-7.488l-1.872-.936,2.808,12.16852-.936,2.80751-4.68-1.872-10.296-19.65556,3.744-1.872c-2.76677-8.6979-11.08625-12.11944-8.424-20.59255h-4.68l2.808-4.68c-5.5689-1.82979-6.38465-6.56232-12.16754-10.29553l.93551,2.808-1.872,1.872-.936-1.872c-1.579-.52273,0-4.43608.936-7.48851a65.37334,65.37334,0,0,1-10.46536-6.17359,233.9049,233.9049,0,0,0,22.306,45.681l3.13538,2.61315-.49966,1.49849q5.21772,7.90939,11.05632,15.34857h.67537l.936,1.873h-.13988a235.04743,235.04743,0,0,0,285.49641,65.45144,240.23066,240.23066,0,0,1-71.36539-56.34861,64.73835,64.73835,0,0,0-4.32711,6.80872ZM504.74539,618.3606l-4.68.936,1.872-2.808h1.872l.936.936ZM339.07347,603.38408l.936-1.872,8.424,1.872C344.89122,607.25521,344.70961,604.78832,339.07347,603.38408Zm3.744-5.61553.936-1.87151,5.616,4.67952-.936,1.872Zm6.552,11.23252.936-1.872.936,1.872Zm7.488-9.36051-2.808.936v-2.808h2.808Zm35.56808,8.424-.93649-5.616,3.744.93552,1.872,2.80849Zm27.14358,32.75959v3.745h-3.744q-.46824-2.34123-.93551-4.6805Zm-3.744,7.48851q2.33976,2.33976,4.6805,4.68C417.09444,651.22474,417.304,652.33744,415.82517,648.31268Zm21.52805-6.552-2.808-.93649,2.808-3.744,3.744,1.872C436.95271,640.23027,439.19136,638.2709,437.35322,641.76066Zm4.68,1.872,3.744.93649-2.808,1.87151Zm14.976,14.97554-10.296-2.808c-2.032-1.88575-.77305-.268-.936-4.67953l12.168,1.872,1.872,1.872C457.103,658.13359,457.64833,654.365,457.00927,658.60821Zm10.296,0-.936-2.808,2.80751.93649Zm40.2481-43.05561v-.9365l2.80751-1.872h.9365C512.51416,615.33173,510.30005,614.69562,507.5534,615.5526Zm2.80751-3.744-3.744-1.872c2.72211-5.49232,3.63995-4.13961,9.36-6.5525l4.6805,2.80849C515.597,610.31059,511.16243,609.89192,510.36091,611.80859Zm9.36.93551-.93551,2.8085-1.872.936v-4.68l.93551.93551Zm-5.61553,41.1841-.936,1.872-.93649-1.872Zm-5.6165-2.80752,1.872.93552-.93551,2.80849C507.58874,652.43119,508.51149,653.98661,508.48891,651.12068Zm-13.10354-5.616h2.808c-1.04644,3.38669-.73771,2.74911-2.808,4.67952l-1.8725-.93551Zm-14.04-21.52805,2.808.936v.93551q-.93576,2.34123-1.8725,4.6805C479.275,627.81388,479.96759,628.12556,481.34533,623.97662Zm-7.488,10.29553h.936l-.936,3.7445h-.936C471.95733,634.789,471.63781,637.42963,473.85731,634.27215Zm22.46406,29.95257v-6.55153l-17.78453,3.743c-1.32229-4.1136-2.597-6.27912-1.87152-10.29554h-3.744l-2.808-2.808,4.68-3.74352,18.71955,11.231c2.5145-4.118,4.52884-4.77327,9.36-6.55153h.93649l-2.8085,8.42451c5.65135-2.31276,9.76839,1.18682,19.65654,0l1.872,2.80752Zm21.52756-19.65556v-2.8085h.9365Zm9.36,3.74352-.93552,2.808-2.80849,1.872c.06577-4.69817-.28075-2.90764.93649-5.61651H527.209Zm9.36-14.97555h2.8085l-3.7445,1.87152Zm-.936,20.59107h-2.808l.93649-1.872h.93551Zm-1.87152-7.48753c-11.713-1.5245-15.25728-6.19862-18.72-15.912l8.42353,1.872c1.41553,3.61934.95956,4.14354-.93551,8.42353,3.1,2.299,1.72868,2.355,3.744-.93551,1.979,1.24865,3.26006,1.85728,4.67953,3.744Zm-3.744-44.9286c-1.21037,2.79377.03927,1.124-1.872,2.8085l-.93649-2.8085Z"/>
      <path class="cls-2" d="M452.32926,228.04862l4.68-1.87151-2.808-5.616c21.48486-.00638,29.53929.92472,45.86411,0v6.552h3.744c-2.193-6.33311-5.70976-11.5815-2.8085-17.784-2.03987-1.5515-3.40583-1.07835-8.42353-.936l2.808-4.6805c-9.00712,1.4872-9.98877,1.19074-15.912,5.61651q.9365-3.27552,1.872-6.552c-3.55651.535-5.91934.855-8.424-1.872-1.56327-.89968-1.94612-1.12693-1.89311-1.64524-3.33908.38628-6.66392.81673-9.95883,1.34192q1.714,3.42717,3.42792,6.85534c-.90312,3.39307.06185,1.90685-1.872,3.7445-2.73684,2.01631-2.3005,1.30952-6.552.93551v-5.616l-3.744-.93649-4.68,4.6805c4.89254,1.66537,6.11371,2.29117,10.296,3.744-3.06815,4.53423-5.003,6.8146-12.168,7.488C447.94473,225.29706,448.09786,226.10986,452.32926,228.04862Zm33.69608-18.71955,6.552,1.87249-1.872,1.87151-4.68-.936Zm-10.296-3.7445h.936c-.1178,2.9577,1.01257.58113-.936,2.80849l-1.872,1.872C474.28924,206.4278,473.70565,208.876,475.72932,205.58457Zm-24.33606,16.849,2.808,2.807-3.744.9365Q450.9255,224.30486,451.39326,222.43359Z"/>
      <polygon class="cls-2" points="513.169 260.809 515.041 258.937 512.233 258.937 513.169 260.809"/>
      <path class="cls-2" d="M480.40933,199.033l-.60813-.60862c-.8933.07019-1.79053.12418-2.68088.20418q-.22677,1.13823-.455,2.27644l1.87152-1.872Z"/>
      <path class="cls-2" d="M454.19,201.82976c-.50555.0962-1.018.17228-1.52352.27191l-.3372.67538h2.808Z"/>
      <path class="cls-2" d="M296.95337,326.32935h.936q-.93576-2.80947-1.872-5.616c2.485-1.19859,3.40583-3.02642,9.36-2.8085-.73869-4.118.57672-2.83794-1.87151-3.744,3.49368-4.13127,3.46276-3.16434,8.42353-.93649q.46824-4.21053.936-8.42353l4.68.93649,2.808-1.87249-2.808-4.67952h4.68q.46825-3.74451.936-7.48851c3.38866-1.59125,3.84709-1.47591,8.424-.93551l6.552-14.04053h16.848q.46826-3.743.93551-7.488c5.51344-1.29136-.03534.24394,5.616.9365,2.73782-3.09416,2.137-4.7021,6.5525-6.552,3.10791-1.7174.33033-.86336,3.744.936,2.13116-4.74823,5.457-5.23317,14.976-4.6805q.46751-2.33976.93551-4.67952l4.6805,3.744c2.51744-3.04508,2.74862-3.48927,8.42353-3.744q-.93574-4.21275-1.872-8.42451l11.232-2.80752-.936,2.80752,5.6165-1.87152-6.55251-5.616q.46825-2.34049.936-4.68l5.6165-.936c1.20988,2.79426-.03976,1.123,1.872,2.808-2.05949,2.47818-.63512,1.83667-4.6805,2.808l12.168,4.68q.93576-4.21275,1.8725-8.42353l-4.6805.93551c-2.75157-2.68481-2.44529-2.54541-1.872-6.5525,1.02975-4.013.28075-2.6269,2.808-4.68l3.7445,2.808-1.8725-2.808,12.168-4.67952.936-1.87249-.936-.93551-14.976,5.616-9.88276-9.12345c-.97821.38972-1.96722.75735-2.93856,1.15933q-.14136.706-.28272,1.41161a62.29729,62.29729,0,0,0-9.38849,2.85857A235.9117,235.9117,0,0,0,304.435,299.88569l.94238.23462v3.7445l-3.287-.46972c-.28468.43094-.55512.8717-.83637,1.30461l1.31541,1.97312h-1.872v-1.10534q-2.80065,4.34748-5.41576,8.82061l3.54375.70875c-2.44332,3.04311-3.26643,4.71338-4.67952,9.35953Zm117.93629-96.40872-2.8085,2.80849-.93551-1.872,5.616-3.744C416.27084,228.97677,417.82675,228.25968,414.88966,229.92063Zm-2.8085-2.80752-3.744-2.80752C411.48039,225.60039,410.28867,224.84452,412.08116,227.11311Zm-3.744-.936v4.68h-.93551q-.93649-2.3405-1.872-4.68Zm-51.47963,36.5036,2.808.93649.936,1.87151-4.68051-.93551Zm-11.232-3.74352h.93551l1.8725,1.872-3.744,2.808-.936-2.808Zm.93551,12.16754q-.46751,1.40473-.93551,2.808l-1.872.9365q-.46824-2.34049-.936-4.68Zm-36.5036,21.52854c3.02642.99-.11485,3.10987-1.872,4.67952v1.8725h-.936Z"/>
      <path class="cls-2" d="M470.11331,621.16861h-4.68l.936,1.872h-1.872v3.744c4.74529-1.31639,5.69749-2.82911,8.424.93552l2.808-2.80752-3.744-6.552h-3.744Z"/>
      <polygon class="cls-2" points="471.985 568.752 471.985 570.624 473.857 568.752 471.985 568.752"/>
      <polygon class="cls-2" points="461.689 616.489 460.753 618.361 463.561 621.169 464.497 618.361 461.689 616.489"/>
      <path class="cls-2" d="M469.17681,521.01685v-.93649l-.93551-2.80752h-3.744c-.74409,3.52707-1.21675.54384.936,3.744Z"/>
      <polygon class="cls-2" points="462.625 612.744 470.113 610.873 465.433 606.193 462.625 611.809 462.625 612.744"/>
      <path class="cls-2" d="M425.18519,535.99289h-1.872C424.97905,536.84594,423.55173,536.90681,425.18519,535.99289Z"/>
      <polygon class="cls-2" points="509.425 591.217 506.617 591.217 505.681 593.089 507.553 594.025 509.425 591.217"/>
      <polygon class="cls-2" points="496.321 623.977 494.449 622.105 493.513 623.977 496.321 623.977"/>
      <path class="cls-2" d="M492.57736,616.4886c-1.74586-3.22619-.76029-2.53413-4.6805-3.7445C489.56763,615.44462,489.70653,615.09024,492.57736,616.4886Z"/>
      <polygon class="cls-2" points="483.217 530.377 478.537 528.505 481.345 532.249 483.217 530.377"/>
      <polygon class="cls-2" points="460.753 406.825 457.945 406.825 457.945 409.633 458.881 409.633 460.753 406.825"/>
      <polygon class="cls-2" points="428.929 304.801 431.737 301.993 429.866 301.993 428.929 304.801"/>
      <path class="cls-2" d="M432.67321,491.06478l1.872,1.872h3.744q-.93649-3.27624-1.872-6.5525Z"/>
      <path class="cls-2" d="M424.24919,301.99329l3.744,3.744c-.65525-3.3803-.3745-2.82322-1.87151-4.6805Z"/>
      <polygon class="cls-2" points="439.225 583.729 442.033 583.729 440.161 581.857 439.225 583.729"/>
      <polygon class="cls-2" points="471.985 361.896 474.793 360.961 474.793 360.025 471.985 360.025 471.985 361.896"/>
      <path class="cls-2" d="M426.12169,493.8723l-2.8085-4.67952C424.35963,492.57946,424.0509,491.94188,426.12169,493.8723Z"/>
      <polygon class="cls-2" points="466.369 352.537 468.241 353.473 466.369 349.729 466.369 352.537"/>
      <path class="cls-2" d="M463.56129,367.51346c-.60617,4.04488-.5512,4.30453.936,7.487l-4.68-.93551q.93576,3.74451,1.872,7.48753c4.39926.72887,6.85437-4.48614,12.168-4.67952l-2.808-7.488Z"/>
      <path class="cls-2" d="M442.03324,308.54482l2.80849-.93551v-.93649l-3.7445-2.808C440.53573,307.037,440.36247,306.11131,442.03324,308.54482Z"/>
      <polygon class="cls-2" points="454.201 559.392 451.393 557.52 453.265 560.329 454.201 560.329 454.201 559.392"/>
      <path class="cls-2" d="M450.45726,626.78462l-.936,3.744,1.872,1.872c6.82737-3.55652,6.11273-3.60462,11.232-3.744l.936-2.8085-4.68-1.87151Z"/>
      <polygon class="cls-2" points="506.617 244.897 509.425 244.897 506.617 243.025 506.617 244.897"/>
      <path class="cls-2" d="M419.56918,445.20018h-3.744c-1.21675,2.58762.99687,1.95151,3.744,2.80849Z"/>
      <polygon class="cls-2" points="410.209 444.265 413.018 444.265 410.209 441.457 410.209 444.265"/>
      <polygon class="cls-2" points="419.569 292.633 422.377 289.825 419.569 288.889 419.569 292.633"/>
      <path class="cls-2" d="M411.14565,253.32117q.46751,1.87226.93551,3.744h.9365Z"/>
      <polygon class="cls-2" points="404.593 294.505 406.465 296.377 410.209 296.377 410.209 295.441 406.465 291.697 404.593 294.505"/>
      <path class="cls-2" d="M427.9932,280.46475l-22.46356-4.67952h-.9365q-.93574,3.27552-1.872,6.55153l3.744,6.5525h5.616q-.46824,3.743-.93551,7.488l7.48753-1.872c-.3745-2.0595-.84962-1.872-1.87152-5.616l3.744-1.87249-3.744-4.68c6.59374,2.16355,7.35256,5.68816,12.16754,4.68a65.35229,65.35229,0,0,1,2.808,10.296c4.15385-.98557,3.02495-1.77825,5.616,0l-1.87151-.93551.93551,2.808,3.744.935-1.872-2.80752c3.6429-1.75371,4.07973,1.74145,4.68-4.67952,3.65026,3.45737.883,1.80624,0,7.487l7.488-1.87152c3.611,3.27626,4.11851,7.58177,3.744,14.97555,3.744-1.87151,1.80819-.1924,1.872-3.74352l2.808-.936q-.93649,3.27625-1.872,6.552c5.03488,2.92187,5.55319,3.08875,11.232,4.68h.93551v-.93551c-2.01434-4.35656-1.39394-5.00936-7.48753-5.617q.46752-3.27478.936-6.55152l-5.616.93649q.46825-2.808.936-5.616c3.31993,1.67372,6.35617,3.38718,9.36,2.80752h1.87151c-.34259-3.80831-1.24669-3.1668.9365-8.42353l-7.488-.93649c1.23884-4.118.936-3.931,3.744-7.488-2.72408-1.80722-2.10613-1.18092-5.616-.936,2.30884-2.83059,5.35392-3.506,7.488-6.552v-7.48753c-4.45718-.14774-.92962,1.472-8.424,0v9.35954l-4.68,1.872-4.68,5.616c3.89076,1.43517,4.84394.401,9.36-1.872-3.62965,7.39476-7.52827,5.8251-13.104,7.488v-4.67952c-5.054-.38137-5.70976-.07608-11.23154,2.80751C432.96918,289.41248,428.54047,283.37632,427.9932,280.46475Zm-17.784,5.61651c2.79377,1.21037,1.123-.03976,2.8085,1.87151Zm2.8085,7.48752v-2.80751l1.872,1.872Z"/>
      <path class="cls-2" d="M400.84913,287.01677c-1.68451-1.88821.0216-.69354-2.80751-1.872l1.872,1.872Z"/>
      <polygon class="cls-2" points="392.426 419.929 394.298 420.865 396.17 418.057 391.489 417.121 392.426 419.929"/>
      <path class="cls-2" d="M409.27316,248.64165h-7.48753v3.743h6.55152Q408.8054,250.51318,409.27316,248.64165Z"/>
      <polygon class="cls-2" points="393.361 444.265 395.233 442.393 393.361 442.393 393.361 444.265"/>
      <path class="cls-2" d="M389.61711,277.65723c1.66635.854.239.91441,1.872,0Z"/>
      <path class="cls-2" d="M424.24919,457.3687c-6.94664-5.01819-13.01715-10.52132-23.40006-12.16852l-1.872,3.7445,12.16852.936v.93649c-5.57233,2.05214-6.80332,5.37747-6.55251,13.104,3.15453,2.60726,8.35678,5.45208,14.04,2.80752C422.412,464.5367,422.83513,461.80379,424.24919,457.3687Z"/>
      <polygon class="cls-2" points="433.609 286.081 434.545 286.081 432.673 282.337 431.737 284.209 433.609 286.081"/>
      <path class="cls-2" d="M396.16961,311.35283l.93552-.93551-1.872-1.8725Q395.70136,309.94882,396.16961,311.35283Z"/>
      <path class="cls-2" d="M475.72932,493.8723v.93649c1.07343.34456,2.29215.63709,3.558.91391-.38432-1.393-.78876-2.77708-1.148-4.17986C477.12621,492.46314,476.257,493.27055,475.72932,493.8723Z"/>
      <polygon class="cls-2" points="481.345 289.825 482.281 288.889 480.409 287.017 481.345 289.825"/>
      <path class="cls-2" d="M489.76935,228.04862l1.87152-.93551v-3.744h-2.80752Q489.30161,225.70886,489.76935,228.04862Z"/>
      <path class="cls-2" d="M496.32137,222.43359l-3.744,6.55152c3.63259-.5345,2.139-1.10631,2.808,2.808,4.8675.59733,6.80724.668,10.296-1.87249h-5.616Z"/>
      <path class="cls-2" d="M476.66532,283.27325h-2.808l.936,4.67952-5.61651-1.87151c1.21725,3.769,1.46659,4.7443,4.6805,6.552,2.71426,2.80065.936,1.45971,4.67953,1.872C480.30969,288.85,475.63557,288.55845,476.66532,283.27325Z"/>
      <path class="cls-2" d="M473.85731,271.10473c-1.46167-3.97175-1.24276-2.99452-4.6805-4.67952-.09325,3.85788-.15019,2.6799,3.7445,4.67952Z"/>
      <path class="cls-2" d="M433.60922,228.04862l-2.808-1.87151C429.023,228.79271,430.89447,227.5524,433.60922,228.04862Z"/>
      <path class="cls-2" d="M457.00927,279.52924c-1.21037-2.79426.03927-1.1235-1.872-2.8085Z"/>
      <polygon class="cls-2" points="440.161 288.889 440.161 285.145 437.353 285.145 440.161 288.889"/>
      <polygon class="cls-2" points="448.585 281.401 450.457 282.337 453.265 279.529 450.457 278.593 448.585 281.401"/>
      <path class="cls-2" d="M451.39326,260.80919c-.97527,2.461.77305,1.98146-1.872,1.87152l-.936,2.808,3.744.9365,4.68-4.68Z"/>
      <polygon class="cls-2" points="458.881 258.937 455.137 257.065 455.137 260.809 457.945 260.809 458.881 258.937"/>
      <path class="cls-2" d="M376.51307,288.88926v3.744C378.26728,289.93079,377.7205,291.95053,376.51307,288.88926Z"/>
      <polygon class="cls-2" points="353.114 317.905 354.986 316.033 353.114 313.224 353.114 317.905"/>
      <path class="cls-2" d="M327.841,301.99329q.469-.93648.9365-1.873v-.935h-3.744Z"/>
      <path class="cls-2" d="M310.0574,346.92091l1.872,1.87152h.936C311.18041,346.90374,312.887,348.09938,310.0574,346.92091Z"/>
      <path class="cls-2" d="M332.52146,317.90484c-1.95643,2.90176-2.70346,2.79132-5.616,4.68l5.616,6.552q-.46825,1.40474-.936,2.8085l-1.872.93551c-3.03919-3.94721-2.56554-4.94653-11.23154-3.744q.46752,2.808.93551,5.616l4.68-3.744c-1.54463,4.97892-2.09828,4.53521-.936,8.424h-4.67952l-4.6805,11.23153c1.82489-2.02318,2.194-2.98814,2.808-6.55152l1.87249,2.808q.935-1.87224,1.87152-3.74351l1.872-.9365a25.97053,25.97053,0,0,1,4.68,10.296h.93551c3.0976-15.89339,3.22472-13.12072,11.23252-22.46357h-3.744C335.51647,323.65191,335.32014,319.88581,332.52146,317.90484Z"/>
      <path class="cls-2" d="M340.00947,312.28883l3.744-2.808h-2.808Q340.478,310.88557,340.00947,312.28883Z"/>
      <path class="cls-2" d="M340.94548,306.67282q.46751.93648.936,1.872h3.744q.46824-.93576.93551-1.872l-3.74352-1.872Z"/>
      <path class="cls-2" d="M330.64945,291.69678l-2.8085,2.8085v3.74351C330.59792,295.91934,331.28556,295.04911,330.64945,291.69678Z"/>
      <path class="cls-2" d="M308.1854,432.09663q-.46826,1.87225-.936,3.744l2.808.936C309.40215,433.39683,309.68339,433.95391,308.1854,432.09663Z"/>
      <path class="cls-2" d="M314.73741,444.26466l-5.61552-5.616c.06675,4.708.09326,3.78818-1.8725,7.488l2.808,2.808,3.744-2.808Z"/>
      <path class="cls-2" d="M356.85752,491.06478q.46824,2.808.936,5.616c4.0066-.42309,1.52008.39021,4.68-1.872v5.616l2.80752,1.87152,5.616-8.424-.93551-.93552A49.02271,49.02271,0,0,1,356.85752,491.06478Z"/>
      <polygon class="cls-2" points="379.322 451.753 373.706 449.881 377.45 453.625 378.386 453.625 379.322 451.753"/>
      <polygon class="cls-2" points="378.386 462.985 381.194 463.921 379.322 461.113 378.386 462.985"/>
      <polygon class="cls-2" points="366.218 506.041 370.897 506.976 367.153 503.233 366.218 506.041"/>
      <path class="cls-2" d="M384.93759,600.57656h-1.872C384.73144,601.43059,383.30412,601.49146,384.93759,600.57656Z"/>
      <polygon class="cls-2" points="386.81 471.409 388.682 469.536 385.873 469.536 386.81 471.409"/>
      <path class="cls-2" d="M366.21754,591.21654q.46824,1.87224.93551,3.744c3.0706-3.37,2.74862-2.246,0-5.616Z"/>
      <path class="cls-2" d="M355.921,299.18529v1.87151l1.8725,1.872C357.35227,300.46094,358.412,301.48382,355.921,299.18529Z"/>
      <path class="cls-2" d="M388.6816,460.1767l-.9365,2.808v.93649h6.55251c-.23167-4.038-.23461-4.50429-1.872-6.5525Z"/>
      <path class="cls-2" d="M327.841,357.21645l1.8725-1.87151h-2.808Q327.3737,356.28069,327.841,357.21645Z"/>
      <path class="cls-2" d="M311.92941,557.52045l.936,2.8085q2.3405,2.33976,4.68,4.67952C316.85336,559.83518,316.4391,558.937,311.92941,557.52045Z"/>
      <polygon class="cls-2" points="501.001 214.945 510.361 217.753 512.233 215.881 501.001 210.265 501.001 214.945"/>
      <path class="cls-2" d="M366.21754,295.44079l-2.808,2.808v.9365c5.87517,1.27369,14.78854-1.8509,14.976,0l3.74352-1.8725-7.488-4.67952C372.20756,295.18556,371.52728,295.39269,366.21754,295.44079Z"/>
      <polygon class="cls-2" points="375.578 266.425 377.45 265.489 375.578 263.617 375.578 266.425"/>
      <path class="cls-2" d="M520.65743,229.92063c-.25572,2.98225.02062,2.25484.93551,5.617l1.872.93551h.93649l-.93649-5.616Z"/>
      <polygon class="cls-2" points="514.105 213.073 511.297 213.073 512.233 214.945 514.105 213.073"/>
      <polygon class="cls-2" points="514.105 221.497 515.041 223.369 513.169 223.369 519.721 227.113 521.593 225.241 514.105 221.497"/>
      <path class="cls-2" d="M539.37748,238.34514l-1.872,3.744,6.55153.93551C542.33764,240.36439,542.611,239.80387,539.37748,238.34514Z"/>
      <polygon class="cls-2" points="544.057 209.329 541.249 209.329 542.185 211.202 544.057 209.329"/>
      <path class="cls-2" d="M511.29741,205.58457l-.9365,1.87249C512.04591,206.21773,510.90033,206.45332,511.29741,205.58457Z"/>
      <polygon class="cls-2" points="546.865 213.073 546.865 214.945 549.673 214.945 546.865 213.073"/>
      <path class="cls-2" d="M557.161,244.89715l-1.872,2.808h2.16257c.77256-.63954,1.55738-1.26436,2.33829-1.89409C559.53662,245.51952,559.17832,245.59363,557.161,244.89715Z"/>
      <path class="cls-2" d="M553.417,228.04862l2.8085,2.8085h.93551c-1.00815-2.91059-.749-2.98372-2.808-4.68Z"/>
      <path class="cls-2" d="M554.353,215.88108l-3.744-.936q.46826,1.87226.936,3.74352Z"/>
      <polygon class="cls-2" points="523.465 212.137 520.657 210.265 518.785 213.073 523.465 212.137"/>
      <path class="cls-2" d="M515.97693,214.00908l3.744-5.616-.93551-1.872h-2.8085l-2.80752,1.872q.935,2.808,1.872,5.616Z"/>
      <path class="cls-2" d="M530.953,230.85712l-1.872,4.6805h.93649l2.80752-1.87249q-.46824-1.87226-.93551-3.7445c-1.22461-3.32485-4.919-5.07807-8.42451-6.55153C522.17359,228.82216,523.75061,230.96019,530.953,230.85712Z"/>
      <polygon class="cls-2" points="530.953 248.642 530.953 250.513 532.825 248.642 530.017 245.833 530.953 248.642"/>
      <path class="cls-2" d="M536.569,258.93719c1.89851,1.51616,3.02593,1.7758,6.32575,1.85041.64641-.63022,1.29185-1.26142,1.94513-1.88477l-8.27088-1.83765Z"/>
      <path class="cls-2" d="M572.13707,234.60113c.24148.49573.46923.94582.69844,1.39787q2.67622-1.87446,5.40251-3.67824a43.63017,43.63017,0,0,0-5.16495-3.33565Q572.60556,231.79313,572.13707,234.60113Z"/>
      <path class="cls-2" d="M569.32906,222.43359q.4675,1.8715.936,3.74352C570.98265,223.57819,572.26664,224.93581,569.32906,222.43359Z"/>
      <path class="cls-2" d="M559.969,229.92063v4.6805l1.87249-.936C560.93792,230.27206,561.90289,231.75827,559.969,229.92063Z"/>
      <polygon class="cls-2" points="571.202 229.921 567.458 229.921 571.202 233.665 571.202 229.921"/>
      <path class="cls-2" d="M568.48631,239.09021c.1551-.11436.30628-.23511.46138-.34849l-.55463-.39658C568.42447,238.59349,568.4549,238.84185,568.48631,239.09021Z"/>
      <path class="cls-2" d="M539.37748,253.32117l-.9365,1.872c2.7339,1.85041,4.51755,1.6261,7.488-.93649l-3.744-2.80752Z"/>
      <path class="cls-2" d="M544.993,250.51317h.936v-1.87152l1.872-1.873-3.744-1.87152Q544.52524,247.70443,544.993,250.51317Z"/>
    </g>
  </g>
</svg>
