<svg id="Layer_1" data-name="Layer 1" xmlns="http://www.w3.org/2000/svg" width="12in" height="12in" viewBox="0 0 864 864">
  <defs>
    <style>
      .cls-1 {
        fill: none;
      }

      .cls-2 {
        fill:#eedab3;
      }
    </style>
  </defs>
  <g>
    <path d="M550.6578,261.4326a239.63617,239.63617,0,0,0-170.5674-70.64732,1.99405,1.99405,0,0,0-.6793.1178C298.912,219.81853,242.691,318.96116,242.691,431.99607S298.912,644.17754,379.4111,673.09692a1.99405,1.99405,0,0,0,.6793.1178c133.00951,0,241.21864-108.20913,241.21864-241.21865A239.62411,239.62411,0,0,0,550.6578,261.4326Z"/>
    <g>
      <path class="cls-1" d="M380.43531,644.57431h-2.808l-1.872,3.744,1.872.93551C379.6976,647.32342,379.38888,647.961,380.43531,644.57431Z"/>
      <path class="cls-1" d="M412.25939,600.58171h-2.80825l.936,2.8085C412.29866,601.7057,411.049,603.37549,412.25939,600.58171Z"/>
      <path class="cls-1" d="M398.21911,602.45372c-5.71982,2.41289-6.63791,1.06018-9.36,6.55251l3.744,1.872c.80151-1.91667,5.23611-1.498,10.29627-5.616Z"/>
      <polygon class="cls-1" points="493.691 492.006 493.691 491.07 491.819 490.134 490.883 491.07 491.819 492.942 493.691 492.006"/>
      <path class="cls-1" d="M416.00316,645.51032l-2.808-2.808c-1.42-1.88673-2.70052-2.49535-4.68-3.744-2.01508,3.29049-.644,3.23453-3.744.93551,1.89556-4.28,2.35129-4.80419.93625-8.42353l-8.424-1.872C400.74637,639.31169,404.29012,643.98581,416.00316,645.51032Z"/>
      <polygon class="cls-1" points="399.155 615.558 401.027 614.622 401.963 611.814 400.091 611.814 399.155 610.878 399.155 615.558"/>
      <path class="cls-1" d="M392.6031,651.12584l-1.87176-.93551c.02233,2.86592-.90066,1.3105.93576,3.744Z"/>
      <polygon class="cls-1" points="396.347 652.998 394.475 652.998 395.411 654.87 396.347 652.998"/>
      <polygon class="cls-1" points="415.067 652.998 417.875 652.998 416.939 651.126 416.003 651.126 415.067 652.998"/>
      <polygon class="cls-1" points="401.027 640.83 400.091 640.83 400.091 643.639 401.027 640.83"/>
      <path class="cls-1" d="M392.6031,611.81374l-2.80776,1.872v.93649c2.74714-.857,4.96076-.22087,3.744-2.8085Z"/>
      <path class="cls-1" d="M491.8191,521.9585l9.36,10.29554,2.808-4.67953c-2.33166-3.744-1.96551-.97379.936-5.616-1.85237-2.31375-4.20637-8.1094-1.87225-4.6805-.28051-6.07445,2.50321-9.68348,4.68026-14.03955,4.02476,2.45953,3.22373,5.082,5.616,0h-4.68026c-.4275-8.89177-2.1714-14.72522-7.48777-18.72-2.17337,6.61631-3.42105,9.23093-4.68,15.912,2.86322.617,1.44621-.92177,2.808,2.808l-.936.93552-1.872-.93552c-2.05189-2.92236-3.21245-2.192-4.68-8.42451h-.936a85.83777,85.83777,0,0,1-.936,18.72054c3.609.78777,3.5175.07215,5.616,1.872h-12.168l3.744,4.68c-2.76948,5.09181-4.49277,3.61737-4.68,9.36l2.808-.93649-.936-2.808,3.744,1.87249c-3.0036,3.57124-4.93377,5.89677-6.55177,11.23154-3.716-1.9098-.67513-2.56259-4.68026-.93551.53917,5.57724-2.16208,4.74824-5.616,8.424,10.58806-2.88948,22.38724-3.53884,29.01607-10.29652C498.90071,535.24905,492.35361,526.9011,491.8191,521.9585Zm5.616-2.8085h1.872l-1.872,1.8725Zm-6.552,19.65605-1.872-.93551.936-1.8725c1.91127,1.685.66163.01424,1.872,2.808Z"/>
      <polygon class="cls-1" points="474.971 518.214 474.035 521.022 477.779 518.214 474.971 518.214"/>
      <path class="cls-1" d="M487.13909,477.96639l-10.296-.936-2.808,3.744v4.67952c7.03769.802,8.74429,2.38933,8.424,8.42451l1.872-.93649C485.80233,487.57919,485.32426,481.79433,487.13909,477.96639Zm-8.424,5.616-1.872-1.8725.936-1.872,2.808,1.872Z"/>
      <polygon class="cls-1" points="474.971 463.926 474.035 466.734 475.907 463.926 474.971 463.926"/>
      <polygon class="cls-1" points="418.811 632.407 417.875 634.278 421.619 632.407 418.811 632.407"/>
      <polygon class="cls-1" points="486.203 473.286 486.203 472.35 482.459 471.414 483.395 474.223 486.203 473.286"/>
      <polygon class="cls-1" points="384.179 615.558 382.307 618.366 386.987 617.43 386.987 616.494 386.051 615.558 384.179 615.558"/>
      <path class="cls-1" d="M405.70738,652.06233l2.80776-1.872.936-2.808v-.93649h-2.808C405.42638,649.15469,405.77266,647.36416,405.70738,652.06233Z"/>
      <path class="cls-1" d="M440.33922,559.39859l-2.808,4.67952H443.147C441.68334,561.4041,442.08483,560.61535,440.33922,559.39859Z"/>
      <polygon class="cls-1" points="456.251 562.207 452.507 561.27 453.443 564.078 456.251 562.207"/>
      <polygon class="cls-1" points="414.131 588.414 413.195 589.35 416.003 591.222 414.131 588.414"/>
      <path class="cls-1" d="M364.523,629.59828q.93649-2.33976,1.87225-4.68051v-.93551l-2.808-.936C362.20953,627.1952,361.517,626.88353,364.523,629.59828Z"/>
      <path class="cls-1" d="M591.03485,522.894l-2.808,5.616,1.872-.93552Q590.56709,525.23475,591.03485,522.894Z"/>
      <path class="cls-1" d="M581.67483,536.93405h2.808c-.90508-3.19085-.47439-5.2906-1.87176-6.552-1.47051,3.03919-3.34718,5.6273,0,8.424Q582.1432,537.87029,581.67483,536.93405Z"/>
      <path class="cls-1" d="M581.67483,547.23007h-.93576q-.46824,1.40475-.936,2.808l2.808-.93551Q582.1432,548.16608,581.67483,547.23007Z"/>
      <path class="cls-1" d="M595.71511,500.43045l-.936-.936q-.46788,1.87151-.93625,3.744h.93625Q595.247,501.83445,595.71511,500.43045Z"/>
      <polygon class="cls-1" points="603.203 496.686 598.523 494.814 598.523 498.558 603.203 497.622 603.203 496.686"/>
      <path class="cls-1" d="M584.48284,444.26982l8.424-2.80752-2.808-3.744h-.93576v3.744l-8.3877-1.86366-.03632.026v.90164C584.67033,441.96491,583.03024,440.354,584.48284,444.26982Z"/>
      <path class="cls-1" d="M348.61123,654.86985l.25155.75489c.55463.35732,1.10436.72642,1.66193,1.07588l.89453-.89428Z"/>
      <path class="cls-1" d="M576.99506,550.97457v-.93649l-3.744-1.87151C575.0433,550.43516,573.85182,549.6788,576.99506,550.97457Z"/>
      <polygon class="cls-1" points="599.459 504.174 600.395 504.174 602.267 502.302 599.459 500.43 599.459 504.174"/>
      <polygon class="cls-1" points="591.035 427.423 591.035 430.231 592.907 429.294 591.035 427.423"/>
      <path class="cls-1" d="M447.82723,467.67037c4.41031-1.21676,4.37939-1.22412,5.616-5.616H451.571Z"/>
      <path class="cls-1" d="M430.04319,450.82233l2.808.93649-1.872-3.7445,3.744-1.87152c-1.67076-2.43841-1.49775-1.50781-.93625-4.6805h-6.55177l-.936,2.80752h3.744c-3.32386,2.83107-3.80021,2.74665-3.744,9.36051l5.616,3.74352c4.42527-2.14637,5.19194-.74016,7.488-4.67952C434.39361,453.38934,433.12557,453.79918,430.04319,450.82233Z"/>
      <path class="cls-1" d="M404.77113,659.55035l-1.87176-2.80752c-9.88815,1.18682-14.00543-2.31276-19.65629,0l2.808-8.42451h-.93575c-4.83168,1.77826-6.846,2.43351-9.36,6.55153l-18.72-11.23105-4.68,3.74352,2.80826,2.808h3.74376c-.72544,4.01641.54948,6.18193,1.872,10.29553l17.784-3.743v6.55153Z"/>
      <path class="cls-1" d="M356.09925,637.08629l.936-3.7445h-.936c-2.21926,3.15748-1.9.51684-.93575,3.7445Z"/>
      <polygon class="cls-1" points="436.595 442.398 440.339 448.014 440.339 445.206 438.467 442.398 436.595 442.398"/>
      <polygon class="cls-1" points="418.811 454.567 417.875 454.567 416.939 457.374 419.747 457.374 418.811 454.567"/>
      <path class="cls-1" d="M423.49117,470.47837l1.872,2.808C424.18471,470.45678,425.38011,472.16337,423.49117,470.47837Z"/>
      <polygon class="cls-1" points="428.171 460.182 430.043 459.246 428.171 457.374 428.171 460.182"/>
      <path class="cls-1" d="M417.87516,466.73436l6.552.936,2.808-8.424c-3.276-.29646-1.26166-.3745-4.68-1.8725Q420.21505,462.05484,417.87516,466.73436Z"/>
      <path class="cls-1" d="M475.90706,561.27011c.91465-1.633.85354-.20566,0-1.87152Z"/>
      <path class="cls-1" d="M513.34715,498.558v-.93551c-.78728-2.41584-1.42854-4.90137-2.808-6.552.12983,3.4078-1.41161,4.17938,1.87176,7.48753Z"/>
      <path class="cls-1" d="M507.73114,591.22218v.936c6.4217.32787,7.08259,2.59745,10.29578-.936v-.936l-3.74377-.93649Z"/>
      <path class="cls-1" d="M489.94709,550.03808v1.87151C490.8615,550.27711,490.80064,551.70443,489.94709,550.03808Z"/>
      <path class="cls-1" d="M505.85889,594.96668c.91465-1.634.85379-.20664,0-1.87249Z"/>
      <polygon class="cls-1" points="520.835 585.606 524.579 583.735 520.835 582.798 520.835 585.606"/>
      <polygon class="cls-1" points="489.947 546.295 489.011 546.295 488.075 550.038 490.883 549.103 489.947 546.295"/>
      <path class="cls-1" d="M452.507,449.88681v-2.80849l-7.48777-3.744-.936,1.872c4.33913,1.73163,2.675,1.99864,4.67976,5.616Z"/>
      <path class="cls-1" d="M528.32294,567.82212c-3.2468-3.62817-4.02451-8.237-8.42377-5.61552-6.288,3.06275-7.09487,10.402-14.04028,12.16754-.349-4.23925,1.22927-1.87151-1.87176-4.68l-.93625,2.8085c.71071,3.95555,2.17828,1.76893-1.87176,4.67952h-.936q.46824-3.27625.936-6.55153l-5.616,2.80752v6.552h5.616c-1.96575,4.91856-1.76157,7.488.936,10.296v-6.55153l5.616.93552v-4.68l4.67976,2.808c7.34593-6.24623,4.26257-7.20727,15.912-7.48753q-.93576-2.34049-1.87176-4.68a24.27687,24.27687,0,0,0,13.10379-7.48851v-.93551C534.95545,562.905,530.19495,564.58857,528.32294,567.82212Zm-14.03979,8.42353v-5.615C517.031,573.99964,517.35326,572.87663,514.28315,576.24565Zm2.808-3.743,1.87176-2.8085,2.808,2.8085Zm8.424-3.744-.93625-1.8725h2.808Z"/>
      <path class="cls-1" d="M505.85889,554.71809l-2.808,6.552,6.55226-1.87152C508.20454,556.52727,508.5594,556.38886,505.85889,554.71809Z"/>
      <path class="cls-1" d="M437.53121,425.55075l-.93625-.93649-2.808,3.744c4.06992.98067,1.72059-.4388,1.87225,3.744l1.872.93649,5.61577-2.808C438.72269,428.5654,438.44,428.28268,437.53121,425.55075Z"/>
      <path class="cls-1" d="M457.18726,456.43834q.46788,3.27625.93575,6.55251h6.552C462.75443,460.33058,458.96551,456.99984,457.18726,456.43834Z"/>
      <polygon class="cls-1" points="460.931 445.206 456.251 444.27 457.187 448.014 460.931 445.206"/>
      <polygon class="cls-1" points="517.091 557.527 516.155 561.27 519.899 557.527 517.091 557.527"/>
      <path class="cls-1" d="M458.123,432.10228l-.93575-1.87151h-2.808v3.74351h-4.68c3.35626,3.68806,1.25774,1.72918,2.80776,4.68051l3.74426-2.8085Z"/>
      <path class="cls-1" d="M462.80327,490.13442v-.936h-8.424C457.45108,491.15534,458.47224,490.71065,462.80327,490.13442Z"/>
      <path class="cls-1" d="M292.45134,285.1509l2.808,1.87151C293.57435,285.11114,295.24511,286.36127,292.45134,285.1509Z"/>
      <polygon class="cls-1" points="478.715 549.103 477.779 548.167 477.779 552.846 480.587 549.103 478.715 549.103"/>
      <polygon class="cls-1" points="477.779 610.878 479.651 609.006 475.907 607.134 477.779 610.878"/>
      <path class="cls-1" d="M478.71507,563.14211l3.744,5.61651,3.744-.9365-3.744-5.61552C480.00765,564.34316,482.5592,563.12788,478.71507,563.14211Z"/>
      <path class="cls-1" d="M482.45907,547.23007l.936,2.808h.936C483.15286,547.20848,484.34777,548.91507,482.45907,547.23007Z"/>
      <polygon class="cls-1" points="518.027 583.735 516.155 586.542 519.899 586.542 518.963 583.735 518.027 583.735"/>
      <polygon class="cls-1" points="538.619 477.966 536.747 477.966 534.875 481.71 539.555 479.838 538.619 477.966"/>
      <polygon class="cls-1" points="526.451 503.238 525.515 505.11 527.387 505.11 526.451 503.238"/>
      <polygon class="cls-1" points="541.427 505.11 540.491 507.918 542.363 505.11 541.427 505.11"/>
      <path class="cls-1" d="M524.57893,526.63851l.16394.32738c.08687-.12074.17375-.23069.26063-.35339C524.85576,526.62232,524.75416,526.61937,524.57893,526.63851Z"/>
      <polygon class="cls-1" points="530.195 559.399 529.259 563.142 532.067 563.142 533.939 559.399 530.195 559.399"/>
      <path class="cls-1" d="M493.69086,546.29456c3.40264-.60273,2.83353-.374,4.68025-1.872h-3.744Z"/>
      <path class="cls-1" d="M518.02692,525.702h-2.808C516.79912,528.02313,515.78066,526.79754,518.02692,525.702Z"/>
      <path class="cls-1" d="M514.28315,541.61406h-5.61626v-4.68l-2.808,1.872c-.37426,9.43708-10.89852,22.44688-15.9118,29.01607l6.552-2.80751,2.808,2.80751c-.9576-4.8621.39413-17.597,10.296-15.91253.00835-6.88037.33793-8.293,7.488-8.42353l-2.808,4.68051,3.74377.936h.936v-5.61651c11.14417.85355,20.82617-11.56088,25.27231-20.592l-.93625-.93551c-2.7734,2.56014-1.84476,3.212-5.616,2.808l1.872,3.74352h-3.744c-1.872-3.931-3.70842-4.65106-7.488-6.55153-1.27393,1.66635-2.31374,3.23355-3.31944,4.654,2.84923-.19928.86728.97968,3.31944-.91048l2.808,1.87249c1.11491-2.34025-.59881-.92176,1.872-1.87249l.936,4.68-6.552,1.872-2.64407-5.28815c-2.6723,3.71554-5.21673,6.27176-11.39572,6.22464Q513.815,537.4018,514.28315,541.61406Zm9.36-12.16754,6.55177,8.424h-3.74377l-2.808-.93649c-.6236-3.90451,1.618-1.4337-1.87225-3.74352Z"/>
      <path class="cls-1" d="M518.96292,519.15l2.808-1.872V506.98246c-2.66444,3.03968-1.885,2.55327-3.744,5.61553l.936,1.87249Z"/>
      <polygon class="cls-1" points="537.683 522.894 541.427 520.086 539.555 520.086 537.683 522.894"/>
      <path class="cls-1" d="M537.683,510.72647l.93624,4.68,2.808-.936c-2.39915-3.65664-2.04919-.54187-.93625-4.6805h-.936Z"/>
      <path class="cls-1" d="M535.08356,549.51879l1.6634,3.3273h-.936l-.80323-3.21294a99.15393,99.15393,0,0,0-4.81278,8.82895l8.42426-4.67952c1.08448-3.46375,2.542-6.4671.93576-10.29652A46.04105,46.04105,0,0,0,535.08356,549.51879Z"/>
      <path class="cls-1" d="M543.299,535.06253c.05252,4.2476.18725,5.37895,1.872,7.488v-1.872l3.744-5.616Z"/>
      <path class="cls-1" d="M547.979,542.55055l-.936,1.872.936.93551,1.872-.93551q-.46788-.93649-.936-1.872Z"/>
      <path class="cls-1" d="M534.8752,549.10257l.13253.53058c.02429-.03878.05129-.07559.07583-.11436Z"/>
      <path class="cls-1" d="M556.403,507.918h-1.872q-.46788.93648-.936,1.872l2.808.93649Z"/>
      <polygon class="cls-1" points="548.915 501.366 545.171 501.366 546.107 504.174 548.915 501.366"/>
      <path class="cls-1" d="M547.979,466.73436q-.46788,2.80728-.936,5.616l1.872-.936Z"/>
      <polygon class="cls-1" points="545.171 519.15 544.235 514.47 540.491 519.15 545.171 519.15"/>
      <path class="cls-1" d="M549.851,521.0225q.46786-.93723.936-1.8725.93612-2.808,1.872-5.61552l-3.744-.93649Q549.38287,516.81073,549.851,521.0225Z"/>
      <path class="cls-1" d="M411.32314,449.88681l-5.61576-4.6805,4.67976,4.6805,4.68026,1.872.93576-1.872-.93576-2.80849C413.23736,448.98271,412.20025,449.00824,411.32314,449.88681Z"/>
      <path class="cls-1" d="M468.419,287.02241l-3.744-.936C467.29014,287.81558,464.80338,286.76227,468.419,287.02241Z"/>
      <polygon class="cls-1" points="295.259 292.638 297.131 291.703 295.259 289.831 295.259 292.638"/>
      <path class="cls-1" d="M467.483,281.4064c-4.267-4.1033.52616-2.192-1.87176-5.616l-5.616,2.8085.93576,3.744h3.744Z"/>
      <path class="cls-1" d="M466.547,295.44692l1.872,1.87152v-8.424h-1.872C465.78037,292.24626,464.86228,293.62891,466.547,295.44692Z"/>
      <path class="cls-1" d="M333.63544,221.50323q-.46824,1.87152-.93624,3.74352l3.74425-.93649Z"/>
      <path class="cls-1" d="M338.2276,215.77236c-1.48229,1.123-2.942,2.29412-4.39828,3.47112A11.20869,11.20869,0,0,0,338.2276,215.77236Z"/>
      <polygon class="cls-1" points="374.819 210.271 368.267 208.399 368.267 211.207 372.947 212.143 374.819 210.271"/>
      <path class="cls-1" d="M358.90726,204.65421h-.936c-2.02367,3.29147-1.43959.84323-1.872,4.6805l1.872-1.872C359.91983,205.23534,358.78946,207.61192,358.90726,204.65421Z"/>
      <path class="cls-1" d="M474.9713,263.62284l.93576-1.87249c-1.52008-3.27625-.92766-2.059-3.74377-3.74352q.93576,2.808,1.87176,5.616Z"/>
      <polygon class="cls-1" points="386.987 483.582 389.795 485.454 389.795 484.518 387.923 482.646 386.987 483.582"/>
      <path class="cls-1" d="M471.22705,252.39082v1.872C472.14145,252.62936,472.08084,254.05667,471.22705,252.39082Z"/>
      <polygon class="cls-1" points="465.611 245.838 464.675 248.646 466.547 245.838 465.611 245.838"/>
      <polygon class="cls-1" points="392.603 486.39 392.603 489.198 394.475 488.262 392.603 486.39"/>
      <polygon class="cls-1" points="434.723 282.343 436.595 280.471 434.723 281.406 434.723 282.343"/>
      <path class="cls-1" d="M447.82723,257.07034c-.71218,1.11613.37426,1.14951-.936.93649l-1.872-1.872c-.39413,7.82276-3.4154,1.71739.93575,8.42353l3.74426.93649c-.8744-5.72007-.788-2.19889.936-7.488Z"/>
      <polygon class="cls-1" points="446.891 250.519 445.019 250.519 442.211 252.391 443.147 254.263 444.083 254.263 446.891 250.519"/>
      <path class="cls-1" d="M380.09174,192.79049v.00343h-.00025a149.94287,149.94287,0,0,0-20.8112,9.3615,17.87191,17.87191,0,0,0,4.307-.30873q-.93612,3.27552-1.872,6.552c5.923-4.42577,6.90467-4.12931,15.912-5.61651l-2.808,4.68051c5.01794-.14234,6.38342-.6155,8.42378.936-2.90151,6.20255.615,11.45093,2.808,17.784h-3.74376v-6.552c-16.32482.92471-24.379-.00639-45.86387,0l2.80776,5.616-4.68,1.87151c-3.14741-1.442-4.039-2.26564-5.18065-4.15434-18.87343,16.26789-35.38649,37.11615-48.703,61.41,2.1903.86582.81746-.06528,2.40381,1.71249h-.936l-1.55469-1.55444c-22.53621,41.18214-35.90038,92.18764-35.90038,147.46527a332.87294,332.87294,0,0,0,5.39245,59.85212c.70531.03534,1.40375.15216,2.11079.15707l.93575.93551-2.21214,3.31846q.95784,4.854,2.05361,9.62753l.15853.158-.12638-.025A284.77943,284.77943,0,0,0,284.338,586.07638l1.56156-2.34173,4.67977.93552-3.744,4.67952c-1.14068-3.14619-.43978-1.43125-1.81753-2.138.56421.95024,1.126,1.902,1.70022,2.83991l2.92531,1.17062-1.28424,1.49849a228.93027,228.93027,0,0,0,19.98539,27.2064c4.75069,2.0168,10.08718,3.86573,14.99469,5.9272l-.936-2.808c5.3841.91735,6.12353,1.77826,8.42427,5.616v.936l-5.61626.93551.936-4.67952-4.67977,3.744c4.19483,3.98156,7.89811,6.34734,8.46918,11.904.40665.348.80692.70826,1.216,1.05184-.06921-.39659-.185-.93257-.32517-1.72378l3.74376-4.6805c1.98367,4.89745,9.33867,4.96126,15.912,4.6805v-.93649c-.84226-4.063-1.70512-1.04546.936-4.67952-4.74087-.60175-5.15439-1.06607-7.488-3.744,2.24086-1.6531,2.45511-1.1554,4.68-4.6805l11.232,3.744c-.49524-7.58128-2.97169-6.85486,0-10.29554,2.542,2.8836,3.3192,2.50664,5.616-1.872l5.616,2.808-2.808-3.744,6.552.936.936,1.872L367.331,630.53379h3.74425l2.80776-1.87152h-1.87176l.936-1.87249c7.90252,3.26251,14.77112-.28812,22.46382-1.872l1.87225-3.74351-.936-4.68c-4.72983,4.02476-13.01053,10.81925-18.72,2.8085.8555-3.39552,2.09557-5.95468.936-9.36051,4.11826.8771,5.3998,1.42535,9.36-1.87152-4.5762-4.84149-9.9846-9.308-12.168-16.84853,11.07938,5.01083,21.52806,0,21.52806,0,5.24985,2.35154,2.30221,3.931,11.23178,3.7445l-1.872-.93649c7.08088-12.98918,15.95033-16.848,14.976-33.69609l3.744,2.808,2.808-.93551c-2.00772-5.87566-.54384-6.6708,2.808-11.232l1.872.935-.936,3.745,2.808-1.872c2.2416-5.0496,3.50719-5.52276,2.808-12.16852h6.552l-2.808-5.616,5.616-4.67952c1.09307,3.21981,3.773-.69206,2.808,4.67952,1.13061,3.23257-.79563,4.386.936,5.616l.93576,1.872,8.42426-4.68,1.87176,1.8725c-.20492,3.11673-.87317,2.15275.93625,4.67952,2.527-2.05263,1.77826-.66654,2.808-4.67952-2.89047-1.20939-4.00439-12.65542-2.808-17.78454l7.48777-2.80751-3.744-11.232h.936l.936,1.872,5.616,7.488-.936-1.872c1.537-1.82145.86483-.99981.936-5.616l2.808,1.87152-7.48777-8.424,2.808-1.87152,5.61577-1.872,3.74426,5.61552,2.80776-10.29553h-.936c-2.97464,2.16993-1.04448,1.48229-2.808,3.744l-1.872-.9365q.46824-5.147.936-10.29553l-5.616,2.808c2.4102,1.85532.5166,5.16-1.87176,7.48753h-.93624c-.78336-4.85671-.25278-5.74314,1.872-9.35953l-.93576-1.87151a156.46639,156.46639,0,0,1-14.976,15.91154l-4.68026-.936c3.37736-1.685,3.32018-1.91519,4.68026-5.616l-5.61626,5.616-2.808-3.7445c3.0544-1.6688,2.14638-2.52676,1.87225-8.42353l2.808,1.872-.93625-4.67952,5.616-2.8085c2.637,1.63444,2.40382,2.031,6.552,2.8085q2.34014-6.08427,4.68026-12.16852c-9.2918.452-15.53018,8.18057-18.72005,13.104v-1.872c-2.96531-4.66381-1.95274-9.60347.93576-12.16754,4.10648,2.66125,2.86887,4.21815,6.552.93552l-2.808-2.808c-4.43853.94876-5.44006-.33523-9.36-1.872v6.552l-2.808.936-3.74377-1.87151,3.74377-4.6805-.93576-1.872-2.808,1.872c-1.60892,8.29591-2.88015,6.21776,1.872,11.232l-.936,1.872-2.808,2.8085-4.68-3.7445c3.35356-1.66783,1.10828.4972,2.808-2.808-2.96433-.613-2.41215-1.3478-5.616-3.744l-.936,4.67952-.936-1.872c-5.31931-3.61836-5.616-6.55938-7.488-11.232-3.20116.28173-1.39,1.14951-3.744-.93551-5.6862-8.31555-6.22537-10.13847-12.168-17.78356l-1.87176.93552-1.87225,3.7445c.33057-7.90277,1.42094-6.983-.93576-13.10453,3.36951-1.31,5.63442-1.8828,9.35978-.936-1.80844-2.83353-.18725-1.51518-3.74376-2.808l1.87176-2.808,6.552-2.808-1.87176-.936c-.17154-4.49252-2.55548-3.8731-4.68025-8.424,6.93952-2.52677,8.62525-7.62055,14.04-11.232.78434,4.56957,1.0295,4.306,3.744,6.552-.20492-3.11722-.87318-2.15226.936-4.68h4.68v5.61651c7.98866-2.34025,7.956,3.44313,17.7838,5.61552l-4.67976-3.744c2.9474.68814,4.72492,1.231,6.552,2.8085l.93576,4.67952,5.61626-2.80752-.936-3.744c5.1404,2.01729,3.06225,4.0601,6.552,2.80752l2.808-1.872c-3.96881-.88251,1.98612-4.07238,4.67976-4.68,1.22142,2.67451,7.41784-4.34821,16.84805-3.74351-4.50945,6.6222-5.83591,16.15107-5.61577,28.07957h4.67976c.03387-4.8675-1.22976-4.47681,4.68-5.61552.73942,2.726.02527,1.20252,2.80776,3.74352l10.29627-5.616c5.67786,4.4184,4.46184,5.81283,12.168,4.68v-.93551c-2.07791-3.77837-2.20233-3.41123-1.872-8.424h.93576l4.68026,2.808c-2.37854,6.55153-1.271,4.40662,0,11.231-3.33614-.03681-1.95373-.854-4.68026.93649l.93625,2.808c2.48774,4.07924,1.26461,5.67933,7.488,6.55251-1.52573,2.53609-2.183.12319-.936,2.807,1.9822.94631,2.68064.99441,2.808,6.55251,3.09416-1.285,4.01617-1.69826,7.48777-.93551l2.808,10.29553h3.744c1.55665-3.75432,4.55853-7.88264,4.68026-13.104,3.49589.91882.75587,1.80083,3.74376,0,1.69433-2.22491.59046-2.47965.936-6.552,2.91845.51684,5.74339-.161,8.424,1.87152-1.79715,2.35252-1.60156,1.284.936,2.80849l-2.808,9.36-4.68-.936,5.616,6.552,3.744,1.872v-2.808l2.80776-1.872-2.80776-10.296,5.616-2.8085c-3.36215-7.1626-2.64506-13.9993,0-18.71906q2.34012,2.33976,4.68,4.67952l-2.808,8.42451,3.744-.93649a28.28674,28.28674,0,0,1,9.36-11.19767v-.03436l.03632.00834c3.07232-2.26221,6.50441-4.19508,10.25946-6.55987-1.89164-4.8891-.3875-8.64047-2.808-13.104,3.05906-3.94034,3.60756-3.39945,7.48826-8.42451l1.87176.93649c2.16993,8.985,2.56382,11.03717,10.296,16.84755.32-5.672.38849-2.92973,2.80826-7.48753h.93575c2.04527,9.48862,3.96317,13.97378.936,23.39957l2.6345-.4388a234.70555,234.70555,0,0,1-6.82246,44.80934c-1.10215,2.54836-2.20945,4.96763-3.30006,7.10959l1.23859.30971a233.19216,233.19216,0,0,1-8.05443,23.25821l-.67218-.16786c-.03166.79857-.13449,1.64818-.25008,2.50615-35.53913,84.64759-119.19918,144.10214-216.75717,144.10214-4.11017,0-8.185-.14676-12.24288-.35536,3.86671,1.77924,7.77637,3.43185,11.75475,4.86113h.00025v.00393c132.11032,0,239.207-107.09693,239.207-239.20725S512.20206,192.79049,380.09174,192.79049Zm86.4553,286.1119-1.872,1.872-.936-1.872Zm99.216-72.07217,1.872,1.87249-2.808,2.80752Q565.29491,409.17047,565.763,406.83022Zm-9.36-93.59974,2.808.936-2.808,2.808ZM554.531,325.399l2.808,1.87151h-2.808Zm4.68,78.62321q-.46825.9365-.936,1.87249l-1.872-1.87249v-1.872Zm-19.656-85.17572c3.83751,2.53707,2.488,3.04949,7.488,2.808-1.35517,4.77376.83023,4.43411,0,7.48851h-3.744c-1.11393-3.4986,1.256-4.5686-4.67977-3.744Zm-1.872,0-1.872,1.872v-1.872l-.93576-2.80752Zm-29.01608-65.52016,1.87225,1.872h-2.808Zm-6.55177-4.68-3.744-3.74352C501.90554,246.40914,500.5435,245.30773,502.11512,248.64632Zm-6.552,21.52805,2.808,3.7445C494.06,272.09742,495.20456,273.21944,495.56311,270.17437Zm.936,19.65654-3.744-.93649.93576-2.808,1.87225-1.872C498.38142,287.4509,497.99661,285.8994,496.49911,289.83091Zm-5.616-41.18459,6.552,1.87249-1.872.93551-1.87225,2.8085-3.74377-.93649-.936-2.80752Zm.936,32.76008-1.872,1.872v-1.872Zm-1.872-7.48753c-3.41736-.99147-2.75279-.76225-4.68-2.808C488.68445,272.10184,488.01987,271.87262,489.94709,273.91887ZM452.507,225.24675q-.46788-1.87225-.936-3.74352C454.50834,224.00545,453.22508,222.64783,452.507,225.24675Zm.93625,3.74352v3.7445l-3.744-3.7445Zm3.744,13.104-.936,2.8085-1.872.93551-2.80825-.93551q-.46788-3.74376-.93576-7.488Zm-14.976-13.104c1.9336,1.83764.96864.35143,1.872,3.7445l-1.872.936Zm.93576,17.78453h-5.61577l1.872-2.808C442.98525,245.20318,441.34982,243.9668,443.147,246.7748Zm-3.74377-16.848h-.936l-2.808-2.8085.93576-1.87151C438.65422,226.943,438.39506,227.01617,439.40321,229.92676Zm-2.80825-14.976-2.808,2.80752q-.46787-1.87152-.93575-3.74352Zm-7.48777-2.808,2.808,1.872h-2.808Zm-1.872,37.44009q-.46824-2.80727-.936-5.616l3.744,1.87151-1.872,1.873v1.87151Zm.936,3.74352c-2.971,2.56259-4.75413,2.7869-7.488.93649l.936-1.872,2.808-1.872Zm-1.872-44.92762-1.872,1.87249-.936-1.87249Zm-4.68,29.01607c3.2338,1.45873,2.96041,2.01925,4.68,4.67952l-6.552-.93551Zm-2.808,18.72005,8.424,1.872-.936,1.872c-4.24759-.05251-5.37944-.18749-7.488-1.872Zm-13.10378-44.92812-4.68026.936,1.87225-2.808Zm-7.48827-5.616h2.808l.936,1.872-3.744,5.616h-.93575l-1.87225-5.616Zm-8.42377,29.01656h1.87176C390.03412,235.52118,391.46119,235.46032,389.79534,234.60726Zm2.80776.93551,2.808,1.872-.936,1.872h-3.74376Zm-.936,8.424h-2.808v-1.8725Zm0,136.65535,3.744,1.8725q-.46788,2.33976-.936,4.67952l-5.616-5.61553Zm2.808-122.61532h2.80826l-1.87225,1.872Zm1.87225-26.20806-4.68025,1.872-2.808-1.872.93625-1.872,6.552-2.8085Zm-4.68025-6.552-2.808,1.87151.93625-1.87151Zm-.93576-5.616h3.74376v.936l-.93575,2.8085-1.87225-.9365Zm5.616-7.488-1.87225,1.872-.93575-1.872Zm-2.808-7.48851c-.39684.86876.7485.63316-.93625,1.87249Zm-10.29627,9.36051v-4.68l11.232,5.616-1.872,1.872Zm-4.67977,7.48851,3.744,7.487h5.616c-3.48853,2.54051-5.42876,2.46983-10.296,1.87249-.66924-3.91432.82458-3.34251-2.808-2.808Zm6.552,219.95907h-.936l.936-2.80751C386.63811,441.01369,386.03709,438.80989,385.11533,441.4623Zm-5.61626,32.76057,2.80825,4.67952v4.68h-8.42427v-7.48753Zm-2.808-227.44807v-.93649l1.87225-2.80752q.46788,2.33976.93576,4.68051h-.93576Zm4.68026,15.912-1.87225-2.808,3.744,1.87152Zm-7.48827-40.2481v3.744l-1.87176.93551q-.46788-2.33976-.936-4.67952ZM370.13929,439.5903l-1.872,1.872H367.331q-.93576-3.27626-1.87176-6.552ZM364.523,287.9589l-.93576.93552-.936-2.808Zm-3.74377,5.616c-3.744-.41229-1.96575.92864-4.68-1.872-3.21416-1.8077-3.46325-2.783-4.68-6.552l5.616,1.87151-.936-4.67952h2.808C357.87751,287.62809,362.55188,287.91964,360.77926,293.57492Zm-16.848,87.04723q-.93574-3.74376-1.872-7.48753l4.68.93552c-1.4872-3.18251-1.54242-3.44216-.93576-7.487l7.48778,1.87151,2.808,7.488C350.78559,376.136,348.33048,381.351,343.93122,380.62215Zm12.168,187.2-1.872,1.872v-1.872Zm-8.424,37.4401,4.68,4.68-7.488,1.87151v-.93551Zm-.936-88.91973h3.744l.936,2.80751v.9365h-3.744C345.52248,516.88632,345.99514,519.86955,346.73923,516.34249ZM342.99547,405.8947l-1.87225,2.808h-.93576v-2.808Zm5.61576-54.28813v-2.808l1.872,3.744Zm5.616,9.35953v-1.87151h2.808v.936Zm-2.808-95.47125c3.437,1.685,3.21809.70777,4.68,4.67952h-.93575C351.26856,268.17475,351.32574,269.35273,351.41924,265.49485Zm-14.04-9.36,3.744,1.872-.93576,1.872h-2.80825Zm-5.616,5.61552c2.64506.10994.89674.58948,1.87225-1.87152l5.61577.936-4.68,4.68-3.74376-.93649Zm7.488,16.84853-1.872-2.8085C339.29048,277.47538,338.04108,275.80462,339.25121,278.59888Zm-6.552-.93649,2.808.93649-2.808,2.80752-1.87176-.93551Zm-10.296,6.552v3.7445l-2.808-3.7445Zm-7.48777-2.808,1.87176,3.7445h-.93576l-1.87225-1.8725ZM255.9475,448.95032l5.616,1.872-.936,1.872h-.93625Zm4.68,13.104.936-1.872,1.87176,2.8085Zm8.42377,8.424-.936-1.87249h2.80825Zm.936-7.48752v-.9365l.93624-2.808,3.74377-2.808c1.63812,2.04821,1.64107,2.51449,1.87225,6.55251Zm5.616-19.65654v-1.872h1.872Zm.93625-23.39957-1.87225-.936-.93576-2.808,4.67977.936Zm1.87176-109.51227q-.46788-1.40326-.936-2.808l1.872,1.8725Zm13.104,269.56768h-3.744l-1.87176-2.808,5.61577,1.872Zm1.872-91.72773h-.936q-.46788-1.87225-.936-3.744h2.808Q293.85547,486.38992,293.38734,488.26242Zm-6.552-25.27157c-.25081-7.72656.98017-11.0519,6.552-13.104v-.93649l-12.168-.936,1.872-3.7445c10.38315,1.64721,16.45317,7.15033,23.40006,12.16852-1.41431,4.43509-1.83741,7.168-5.616,9.36C295.19186,468.44292,289.98961,465.59811,286.83533,462.99085Zm5.616-167.54393h-3.744l-1.872-1.872,1.872-2.8085,3.744,3.744Zm2.808,147.88739h-2.808v-2.808Zm2.808.93551h3.744v2.8085C299.06422,446.22134,296.85036,446.85744,298.06736,444.26982Zm3.744-152.56691v-3.744l2.80777.93552Zm-.936,248.03914-1.872-2.808,3.744.93649Zm0-2.808.936-1.87152,1.872,1.87152Zm4.68-1.87152h1.87176C305.79416,535.97645,307.22123,535.91559,305.55537,535.06253Zm0-46.80011,2.808,4.67952C306.29284,491.01153,306.60181,491.64911,305.55537,488.26242Zm.936-187.19948,1.872-.9365c1.49751,1.85728,1.21675,1.3002,1.87176,4.68051Zm4.68,2.80751.936-2.80751h1.87176Zm5.61577,188.136-1.87176-1.872,3.744-4.6805q.93574,3.27625,1.872,6.55251Zm4.68025,90.79173.93576-1.872,1.87225,1.872Zm5.616-276.11921-2.808.93551c-1.67077-2.43351-1.49775-1.50781-.93625-4.68l3.74426,2.808Zm-1.87225-7.489c.88274-5.6808,3.6505-4.02967,0-7.487-.6,6.421-1.03712,2.92581-4.67977,4.67952l1.87176,2.80752-3.74376-.935-.936-2.808,1.87176.93551c-2.59081-1.77825-1.46192-.98557-5.616,0a65.40582,65.40582,0,0,0-2.80776-10.296c-4.81475,1.00815-5.574-2.51646-12.168-4.68l3.744,4.68-3.744,1.87249c1.02214,3.744,1.4975,3.55652,1.872,5.616l-7.488,1.872q.46788-3.7445.936-7.488h-5.616l-3.744-6.5525q.93576-3.27479,1.872-6.55153h.936l22.46381,4.67952c.54776,2.91157,4.976,8.94773,7.48826,13.104,5.52227-2.8836,6.17752-3.18889,11.23179-2.80752v4.67952c5.57576-1.66291,9.47438-.09326,13.104-7.488-4.51632,2.273-5.469,3.30718-9.36,1.872l4.68-5.616,4.68-1.872v-9.35953c7.49464,1.472,3.96684-.14774,8.424,0v7.48752c-2.13411,3.04606-5.17894,3.72143-7.48777,6.552,3.50964-.24492,2.89193-.87121,5.61576.936-2.80776,3.557-2.50467,3.37-3.744,7.488l7.488.93649c-2.18269,5.25673-1.27933,4.61523-.936,8.42353h-1.872c-3.0036.57967-6.04009-1.1338-9.35978-2.80751q-.46824,2.80727-.93625,5.616l5.616-.93649q-.46788,3.27625-.936,6.55152c6.09359.60764,5.47294,1.26044,7.488,5.617v.93551h-.936c-5.67859-1.59125-6.1974-1.75813-11.232-4.68q.93613-3.27552,1.872-6.552l-2.808.936c-.06356,3.55112,1.87225,1.872-1.87176,3.74352.374-7.39378-.13326-11.69929-3.74425-14.97554ZM336.44345,558.4621v.93649h-.93625l-1.87176-2.80849Zm8.42378,69.26417c-5.11881.1394-4.40491.1875-11.23179,3.744l-1.87225-1.872.936-3.744,8.424-2.808,4.68025,1.87151Zm-1.87176-10.296.93575-1.872,2.808,1.872-.93576,2.808Zm12.168,9.35953c-2.72678-3.76463-3.67873-2.2519-8.42427-.93551v-3.744h1.872l-.936-1.872h4.68l-1.872-2.808h3.744l3.744,6.552Zm8.42377-95.47126-2.808-3.744,4.68,1.872Zm6.552,80.49522c3.91972,1.21037,2.93415.51831,4.68,3.7445C371.94871,614.15988,371.81005,614.51426,370.13929,611.81374Zm6.55177,9.36052,1.87225,1.872h-2.808Zm1.87225-133.84735c-3.3781,1.54364-2.19889.25621-3.744,3.74351l2.808-.936q-.93614,4.21128-1.872,8.42353c-4.18207-2.405-12.50964-2.98716-17.784-4.67952v-.93649c2.06858-2.35989,9.32812-7.82178,10.296-11.232l3.744.93649-2.808,5.616,2.808.936c1.88231-2.12478,2.95869-2.22785,6.552-2.808Zm11.232,105.76728-1.872-.936.93576-1.872h2.808Zm5.61577-85.17621c-4.78849-2.25583-6.57043-5.33527-9.36-7.48753l.93625-2.808c3.83751.39659,2.41387.02749,3.744-.936C395.35883,498.96828,395.74364,500.67242,395.41111,507.918Zm5.616.93649-2.808.93551-.93575-3.744,3.74376.93649Zm.936,26.20806h1.872C402.20191,535.97645,403.62923,535.91559,401.96312,535.06253Zm1.872,58.03166v-5.616l3.744,1.87152Zm6.552-53.35214h-.936l-3.74376-8.42353C408.86166,533.752,409.69091,534.558,410.38714,539.742Zm-3.744-18.71955q.46826-3.27552.936-6.552l2.808,1.872-2.808,4.68Zm2.808,64.58367-1.872-1.87152.936-1.872h4.68Zm4.68-60.83966-1.87176-1.8725.93576-1.87151C415.26373,523.41723,414.3184,521.56437,414.13115,524.76651Zm-1.87176-21.52806h2.808V506.046Zm7.48778,28.08007-1.872,1.872-2.80776-2.8085Zm-1.872,12.16754h-.936c-1.54144-2.69266-1.81752-3.0009-.936-6.552l4.68,2.808Zm6.552,10.29652-1.872-.93649,1.872-2.808,1.872,1.87151Zm-2.808-19.65654.936-4.67952q.93614,2.33976,1.872,4.67952Zm-3.744-9.35953v-.936h4.68c-.95367-3.62033-1.445-.44076,0-3.744l3.744,2.80751C423.85438,528.78292,421.33842,529.4102,417.87516,524.76651Zm3.744-40.2481-1.872-2.8085C422.58978,483.52891,420.7244,482.01766,421.61917,484.51841Zm.936,30.88807-1.872,1.87152h-.936l-.936-3.74352ZM436.595,536.93405l-1.87176-.936,2.808-3.744C438.45862,535.06253,438.17615,534.75822,436.595,536.93405Zm2.80825-15.91155,1.872-2.808,1.87176,1.872Zm11.232,1.87151h-.936l.936-2.80751C452.158,522.4454,451.55726,520.2416,450.63524,522.894ZM445.955,499.49445l2.808,1.87151-.93576,1.87249-2.808-1.87249Zm-7.48777-11.232c1.98809,2.193.41278-.10553.936,2.808H436.595Zm11.232,22.464c1.576-3.315,1.08276-1.85924,3.744.9365-5.23514,2.28135-1.7785,1.6423-2.808,5.615-4.26821-2.29215-3.78327-3.50547-6.552-2.80752-7.04358,2.34025-5.75075.70434-14.976,0L433.787,509.79l2.808-4.67952Zm-17.784-15.91253,3.744,4.68051H433.787l-.93575.936c-3.41737-.991-2.75279-.76176-4.68-2.808C431.75322,496.38605,430.118,497.62244,431.9152,494.81394Zm-6.552,1.8725,2.808,5.616h-.936l-2.808-1.872-.936-2.808Zm-6.552-24.33606,3.744,6.552-2.808.93552-1.872-.93552-.936-2.80751Zm-1.872,46.79962h3.744v.9365l-1.872,2.80751-1.872-.93551Zm-6.552-41.18361v-1.87151l5.616,3.743c-1.81679,2.91059-2.3194,1.2889-1.872,4.6805-3.01391-1.56622-3.21883-3.23257-5.616-6.552Zm-2.808-23.39956c-.39684.86777.74875.63267-.936,1.87151Zm.936,51.47914h-4.68l-1.872-1.872,4.68-2.808C408.14088,503.22373,407.86013,502.66615,408.51514,506.046Zm-6.552-23.39957,1.872-.93649,1.87225,3.744h-3.74426l-.936-1.87151Zm-.936-.93649c-2.57192,5.03586-5.47834,9.31094-10.29578,12.16852h-.936v-5.616l-1.872.936c-.19289,2.084.71685,2.9955-.936,1.872-3.86205.374-4.68.68667-7.48826-1.872l5.61626-.936q-.93613-3.74451-1.87225-7.488c3.62621-.70482,3.74425-.57721,5.616-2.808Zm-1.872-50.54363-2.80776,3.744-4.68025.936v-3.744l2.808-7.488,5.61626,3.744Zm-3.744-208.72754h1.87225l-.936-1.872,7.48778,3.74352-1.872,1.87249Zm10.29627,13.104-1.87225-.93551c-.91539-3.36214-1.19148-2.63474-.93576-5.617l2.808.93649.93575,5.616Zm0-13.104c3.50522,1.47346,7.19941,3.22668,8.42377,6.55153q.46788,1.87224.93625,3.7445l-2.808,1.87249h-.93625l1.872-4.6805C405.99279,230.02983,404.41553,227.8918,405.70738,222.43874Zm6.552,22.46406,2.808,2.8085-1.87225,1.87151V247.7113Zm.93576,122.61581-2.808.936V366.5831h-2.808l2.808-4.6805,1.87225-.9365,3.74377,2.8085Zm6.552-78.62419-1.872-2.808-.936-2.808,5.616,5.616Zm6.552,115.12779-1.872.936-1.872-1.87151v-.9365l1.872-.93551h2.808Zm.936-4.67952-1.872-2.8085,3.744.93649ZM448.763,411.51023h-.93576l-1.87225-.93551-.93575-3.7445h4.68Q449.231,409.17072,448.763,411.51023Zm36.50409,23.40006v-2.808c1.8028,1.41995,1.65653,1.67666,2.808,3.744Zm-14.04-129.16783c-1.3402-6.32182-3.931-5.70927-6.552-9.36-5.26115,2.39081-16.42667,5.01525-20.5918,5.616-2.2043-2.33142-2.52751-1.7866-3.744-5.616L436.595,299.19c-.61844-5.3495-6.16794-12.33785-5.61577-16.84706l4.68-4.6805c-5.456-1.33357-3.52313-2.142-9.36-1.872l1.872-2.808,12.168-7.48753v-.93649l-12.168-6.55153.936-1.872,11.232-8.42353c5.09549,1.0376,13.2687,1.36154,15.912,3.743,2.21435.26063,1.16718-.20762,3.744.9365l-2.808,1.872c-.88177-1.1554-4.5789-1.56966-7.488-1.872l1.87176,4.67952,9.36-1.872c-.187,3.85494-2.40627,1.81507.936,3.744,2.22761,1.94858-.1497.8187,2.808.93649v-.93649q-.46788-3.743-.936-7.488c-4.13323.72839-2.05263.90312-5.616-2.808l.936-1.87152,6.55226-3.744c-6.979-1.21724-8.61152-3.97322-11.232-9.36l.93576-5.616c5.3252,2.82911,10.255,7.39378,14.976,11.232q-.46787,2.33976-.93575,4.68l12.168,1.87151c-2.16994,2.97489-1.48278,1.04644-3.74426,2.808l8.424,4.68v.93649c-5.86878.429-4.82308-.33965-4.67976,3.744l-1.87225,4.68c4.14084,1.17258,4.16145.5885,5.616,4.68l-1.872.93551c-3.66548-1.59076-6.66982-1.86415-11.23179-.93551,2.09092,2.568,2.192,1.7866,2.808,6.552-3.92,1.20988-2.93464.51733-4.68026,3.74352l5.616,1.872v.9365c-5.20789.66065-5.966,1.56327-8.424,4.68,5.39342,1.924,6.70932,11.61143,9.36,15.912l8.424-3.7445-3.74376-5.61553.93575-.93649c4.92813,3.52118,4.16809,4.37521,10.296,6.552q-.46788-2.80728-.936-5.61553c7.30077-.4383,5.776-1.57162,10.296.93552,3.155,7.273,7.36826,4.74087,11.232,7.488l-3.744,2.808c7.824,7.10419,14.51638,8.81472,24.33582,12.168q-.46788,5.616-.936,11.232l-12.168-.93551c-1.95716-5.52276-2.30417-6.13433-7.48777-8.42451l-3.744,3.744q-.46824-4.68025-.93625-9.36h-5.616l-1.87176-4.67952C499.11987,308.975,481.20944,304.06433,471.22705,305.74246Zm13.104-33.69559h-7.488v-.936l1.872-3.744C482.42177,268.75834,482.40754,269.03909,484.33108,272.04687Zm39.3121,114.19179-1.87225,2.808-1.87176-.936v-4.6805Zm-6.552,2.808-6.552-3.7445.936-1.872Zm-14.976,12.168c1.91127,1.68451.66163.01375,1.872,2.80752Zm6.55177,8.42353,1.87225-2.808h1.87176c-2.4978-4.45227-5.08322-6.662-10.29578-8.424,2.17436-6.2644-.028-11.7582-1.872-18.71907l3.744,3.743,3.744-3.743,2.808.935q-.46786,10.29627-.936,20.59254c6.21875,1.54708,4.665,2.26418,8.42378,7.488l-.93576,2.80752C511.27759,408.93242,514.17714,411.02529,508.66689,409.63822Zm14.97629,24.33606-1.87225-.93551.93624-1.87249,1.87176,1.87249Zm-4.68026-12.16754-3.744-10.29651,5.616,1.872-.93575,1.872,4.67976,3.7445C526.47646,423.988,520.10605,423.60071,518.96292,421.80674Zm47.73612,9.35954,1.872,1.87249-.936.93551-1.872-.93551v-.93649l.936-.936q-2.34013-2.339-4.68-4.68l2.808-.93552-2.808-.93649-4.68,5.61651q2.33976,4.67952,4.68,9.35953h-4.68c-.292,2.50958.35855,2.24012-1.872,4.67952h-.936c-3.34988-9.74679-9.241-11.52849-5.616-21.52756l-13.104-3.74352,2.80825-3.7445-.93624-1.872h-4.68c.39684,4.0925.1929,3.7445-.93575,7.488-6.03444-3.50154-3.68806-5.65135-9.36-6.55152,2.017-4.47583-.15068-7.90032-3.74425-12.16853l.93625-2.80751c4.05666,1.63444,4.23336,2.33927,7.48777-.93649l6.552,4.6805,5.616-3.744c1.69973,2.12331,1.78587,3.23551,1.87225,7.48753l8.42378-5.61553q-.93614,2.808-1.872,5.61553c4.04538,1.50928,5.23317,2.113,6.552,6.552-3.85813.60224-1.19884,1.79446-2.808,7.488l7.488-3.74352c-2.86593-.02258-1.3105.89968-3.744-.936l3.744-7.488v1.872c2.40455,1.32228,2.3589,8.744,4.68,13.104h3.744v-3.744q-.46788-3.74449-.936-7.488l2.808.93551c-.95563,4.07532-1.62683,1.44548,1.872,3.7445Q569.03891,424.14675,566.699,431.16628Zm4.68,3.744q.46788-1.87225.93576-3.744l3.74425,2.808Zm3.74376-22.46357-2.808,2.80752c-.87024-5.70927-1.95888-4.23484-.93576-7.488l7.48777,2.8085Zm1.87225-7.48851h1.87176C577.2336,405.87311,578.66092,405.81176,576.99506,404.95821Zm11.23179-25.27108v1.87151l-2.80777-.93649q-2.34012-7.95651-4.68-15.91155l2.808-2.808c4.14918.95121,3.75873.61844,5.616,3.744C590.94135,369.19036,590.66035,377.341,588.22685,379.68713Zm8.424-13.104-1.87176,2.80751-1.87225-2.80751Zm-1.87176,14.039v-.935q.46788-.9365.936-1.873l1.87176,2.808Zm4.67976,2.808h-2.808q.46788-.935.936-1.87152l1.872,1.87152h1.87225C599.69766,384.34506,601.12522,384.28419,599.45887,383.43016Zm13.104,40.24859q-.46788-2.808-.936-5.61651h2.808Q613.49879,420.871,612.56291,423.67875Z"/>
      <path class="cls-2" d="M422.55517,529.44652l-.936,4.67952h2.808Q423.491,531.78628,422.55517,529.44652Z"/>
      <path class="cls-2" d="M422.55517,523.83051h-4.68v.936c3.46326,4.64369,5.97922,4.01641,8.424-1.8725l-3.744-2.80751C421.11018,523.38975,421.6015,520.21018,422.55517,523.83051Z"/>
      <polygon class="cls-2" points="422.555 552.846 424.427 553.783 426.299 551.91 424.427 550.038 422.555 552.846"/>
      <path class="cls-2" d="M401.96312,535.06253c1.66611.85306.23879.91392,1.872,0Z"/>
      <polygon class="cls-2" points="403.835 593.094 407.579 589.35 403.835 587.478 403.835 593.094"/>
      <path class="cls-2" d="M416.93916,543.48606h.936l2.808-3.744-4.68-2.808C415.12164,540.48516,415.39772,540.7934,416.93916,543.48606Z"/>
      <polygon class="cls-2" points="419.747 517.278 420.683 517.278 422.555 515.406 418.811 513.534 419.747 517.278"/>
      <path class="cls-2" d="M419.74717,481.70991l1.872,2.8085C420.7244,482.01766,422.58978,483.52891,419.74717,481.70991Z"/>
      <path class="cls-2" d="M407.57914,514.47048q-.46788,3.27552-.936,6.552h.936l2.808-4.68Z"/>
      <path class="cls-2" d="M409.45114,539.742h.936c-.69623-5.18408-1.52548-5.99-4.67976-8.42353Z"/>
      <polygon class="cls-2" points="407.579 583.735 409.451 585.606 413.195 581.863 408.515 581.863 407.579 583.735"/>
      <polygon class="cls-2" points="419.747 531.319 415.067 530.382 417.875 533.191 419.747 531.319"/>
      <polygon class="cls-2" points="415.067 503.238 412.259 503.238 415.067 506.046 415.067 503.238"/>
      <path class="cls-2" d="M412.25939,522.894l1.87176,1.8725c.18725-3.20214,1.13258-1.34928-.936-3.744Z"/>
      <polygon class="cls-2" points="439.403 521.022 443.147 520.086 441.275 518.214 439.403 521.022"/>
      <path class="cls-2" d="M383.24308,480.7744q.93648,3.7445,1.87225,7.488l-5.61626.936c2.80825,2.55867,3.62621,2.246,7.48826,1.872,1.65285,1.1235.74311.212.936-1.872l1.872-.936v5.616h.936c4.81744-2.85758,7.72386-7.13266,10.29578-12.16852l-12.168-3.74352C386.98733,480.19719,386.86929,480.06958,383.24308,480.7744Zm9.36,5.616,1.872,1.872-1.872.936Zm-2.80776-.93649-2.808-1.87151.936-.936,1.872,1.872Z"/>
      <polygon class="cls-2" points="373.883 483.582 382.307 483.582 382.307 478.902 379.499 474.223 373.883 476.095 373.883 483.582"/>
      <polygon class="cls-2" points="379.499 259.879 381.371 262.687 383.243 261.75 379.499 259.879"/>
      <path class="cls-2" d="M378.56331,243.03079l-1.87225,2.80752v.93649l1.87225.9365h.93576Q379.03119,245.37006,378.56331,243.03079Z"/>
      <polygon class="cls-2" points="401.963 485.454 405.707 485.454 403.835 481.71 401.963 482.646 401.027 483.582 401.963 485.454"/>
      <polygon class="cls-2" points="525.515 568.759 527.387 566.886 524.579 566.886 525.515 568.759"/>
      <polygon class="cls-2" points="393.539 223.375 394.475 220.567 394.475 219.631 390.731 219.631 391.667 222.439 393.539 223.375"/>
      <path class="cls-2" d="M385.11533,441.4623c.92176-2.65241,1.52278-.44861,0-2.80751l-.936,2.80751Z"/>
      <polygon class="cls-2" points="388.859 227.118 391.667 225.247 389.795 225.247 388.859 227.118"/>
      <polygon class="cls-2" points="388.859 231.799 391.667 233.671 396.347 231.799 396.347 227.118 389.795 229.927 388.859 231.799"/>
      <path class="cls-2" d="M391.6671,234.60726h-1.87176C391.46119,235.46032,390.03412,235.52118,391.6671,234.60726Z"/>
      <polygon class="cls-2" points="394.475 239.287 395.411 237.415 392.603 235.543 390.731 239.287 394.475 239.287"/>
      <path class="cls-2" d="M438.46721,488.26242l-1.87225,2.808h2.80825C438.88,488.15689,440.4553,490.45542,438.46721,488.26242Z"/>
      <path class="cls-2" d="M432.8512,500.43045l.93575-.936h1.87225l-3.744-4.68051c-1.79716,2.8085-.162,1.57211-3.744,2.8085C430.09841,499.66869,429.43383,499.43947,432.8512,500.43045Z"/>
      <path class="cls-2" d="M429.10719,514.47048c9.22529.70434,7.93246,2.34025,14.976,0,2.76874-.69795,2.2838.51537,6.552,2.80752,1.02951-3.97273-2.42713-3.33368,2.808-5.615-2.66125-2.79574-2.168-4.25153-3.744-.9365l-13.10428-5.616L433.787,509.79Z"/>
      <polygon class="cls-2" points="448.763 501.366 445.955 499.494 445.019 501.366 447.827 503.238 448.763 501.366"/>
      <polygon class="cls-2" points="427.235 502.302 428.171 502.302 425.363 496.686 423.491 497.622 424.427 500.43 427.235 502.302"/>
      <path class="cls-2" d="M403.83513,506.046h4.68c-.655-3.37982-.37426-2.82224-1.872-4.68l-4.68,2.808Z"/>
      <path class="cls-2" d="M449.69924,522.894h.936c.922-2.65241,1.52278-.44861,0-2.80751Z"/>
      <path class="cls-2" d="M407.57914,454.56683l-.936,1.87151C408.32789,455.1995,407.1823,455.4346,407.57914,454.56683Z"/>
      <path class="cls-2" d="M414.13115,484.51841c-.44739-3.3916.05522-1.76991,1.872-4.6805l-5.616-3.743v1.87151h-1.872C410.91232,481.28584,411.11724,482.95219,414.13115,484.51841Z"/>
      <polygon class="cls-2" points="419.747 479.838 422.555 478.902 418.811 472.35 416.939 476.095 417.875 478.902 419.747 479.838"/>
      <polygon class="cls-2" points="420.683 520.086 420.683 519.15 416.939 519.15 416.939 521.959 418.811 522.894 420.683 520.086"/>
      <path class="cls-2" d="M434.7232,535.998l1.87176.936c1.58119-2.17583,1.86366-1.87152.93625-4.68Z"/>
      <path class="cls-2" d="M583.54708,361.9026l-2.808,2.808q2.34014,7.95651,4.68,15.91155l2.80777.93649v-1.87151c2.4335-2.34614,2.7145-10.49677.93624-14.04052C587.30581,362.521,587.69626,362.85381,583.54708,361.9026Z"/>
      <path class="cls-2" d="M595.71511,377.81414q-.46826.93649-.936,1.873v.935h2.80776Z"/>
      <polygon class="cls-2" points="300.875 536.934 303.683 536.934 301.811 535.063 300.875 536.934"/>
      <path class="cls-2" d="M286.83533,589.34969l3.744-4.67952-4.67977-.93552-1.56156,2.34173c.22382.38137.45426.75538.67979,1.13527C286.39555,587.91844,285.69465,586.2035,286.83533,589.34969Z"/>
      <polygon class="cls-2" points="300.875 539.742 302.747 537.871 299.003 536.934 300.875 539.742"/>
      <path class="cls-2" d="M292.45134,488.26242h.936q.46788-1.87225.936-3.744h-2.808Q291.98322,486.38992,292.45134,488.26242Z"/>
      <path class="cls-2" d="M596.65087,383.43016h2.808l-1.872-1.87152Q597.119,382.4944,596.65087,383.43016Z"/>
      <polygon class="cls-2" points="287.771 579.99 291.515 579.99 291.515 579.054 285.9 577.182 287.771 579.99"/>
      <polygon class="cls-2" points="398.219 509.79 401.027 508.854 401.027 506.982 397.283 506.046 398.219 509.79"/>
      <path class="cls-2" d="M321.46741,629.59828l4.67977-3.744-.936,4.67952,5.61626-.93551v-.936c-2.30074-3.83775-3.04017-4.69866-8.42427-5.616l.936,2.808c-4.90751-2.06147-10.244-3.9104-14.99469-5.9272a198.51142,198.51142,0,0,0,21.59211,21.57517C329.36552,635.94562,325.66224,633.57984,321.46741,629.59828Z"/>
      <path class="cls-2" d="M286.718,590.05156c.54531.89183,1.08669,1.78808,1.64107,2.66911l1.28424-1.49849Z"/>
      <path class="cls-2" d="M597.33679,522.59265c.11559-.858.21842-1.70758.25008-2.50615l.67218.16786a233.19216,233.19216,0,0,0,8.05443-23.25821l-1.23859-.30971c1.09061-2.142,2.19791-4.56123,3.30006-7.10959a234.70555,234.70555,0,0,0,6.82246-44.80934l-2.6345.4388c3.02716-9.42579,1.10926-13.91095-.936-23.39957h-.93575c-2.41977,4.5578-2.48824,1.81556-2.80826,7.48753-7.7322-5.81038-8.12609-7.86252-10.296-16.84755l-1.87176-.93649c-3.8807,5.02506-4.4292,4.48417-7.48826,8.42451,2.4205,4.46356.91636,8.21493,2.808,13.104-3.755,2.36479-7.18714,4.29766-10.25946,6.55987l8.3877,1.86366v-3.744h.93576l2.808,3.744-8.424,2.80752c-1.4526-3.9158.18749-2.30491-3.74377-3.74352v-.90164a28.28674,28.28674,0,0,0-9.36,11.19767l-3.744.93649,2.808-8.42451q-2.34013-2.33976-4.68-4.67952c-2.64506,4.71976-3.36215,11.55646,0,18.71906l-5.616,2.8085,2.80776,10.296-2.80776,1.872v2.808l-3.744-1.872-5.616-6.552,4.68.936,2.808-9.36c-2.53757-1.5245-2.73316-.456-.936-2.80849-2.68063-2.03251-5.50557-1.35468-8.424-1.87152-.34554,4.07237.75833,4.32711-.936,6.552-2.98789,1.80083-.24787.91882-3.74376,0-.12173,5.22139-3.12361,9.34971-4.68026,13.104h-3.744l-2.808-10.29553c-3.4716-.76275-4.39361-.34947-7.48777.93551-.12737-5.5581-.82581-5.6062-2.808-6.55251-1.24694-2.68383-.58972-.27093.936-2.807-6.22341-.87318-5.00028-2.47327-7.488-6.55251l-.93625-2.808c2.72653-1.79053,1.34412-.9733,4.68026-.93649-1.271-6.82443-2.37854-4.67952,0-11.231l-4.68026-2.808h-.93576c-.33032,5.01279-.2059,4.64565,1.872,8.424v.93551c-7.70619,1.13282-6.49017-.26161-12.168-4.68l-10.29627,5.616c-2.78249-2.541-2.06834-1.01748-2.80776-3.74352-5.90978,1.13871-4.64615.748-4.68,5.61552h-4.67976c-.22014-11.9285,1.10632-21.45737,5.61577-28.07957-9.43021-.6047-15.62663,6.418-16.848,3.74351-2.69364.60764-8.64857,3.79751-4.67976,4.68l-2.808,1.872c-3.48976,1.25258-1.41161-.79023-6.552-2.80752l.936,3.744-5.61626,2.80752-.93576-4.67952c-1.82709-1.57751-3.60461-2.12036-6.552-2.8085l4.67976,3.744c-9.82778-2.17239-9.79514-7.95577-17.7838-5.61552v-5.61651h-4.68c-1.80918,2.52775-1.14092,1.56279-.936,4.68-2.71451-2.246-2.95967-1.98244-3.744-6.552-5.41478,3.61148-7.10051,8.70526-14.04,11.232,2.12477,4.55092,4.50871,3.9315,4.68025,8.424l1.87176.936-6.552,2.808-1.87176,2.808c3.55651,1.29283,1.93532-.02552,3.74376,2.808-3.72536-.9468-5.99027-.374-9.35978.936,2.3567,6.12157,1.26633,5.20176.93576,13.10453l1.87225-3.7445,1.87176-.93552c5.94266,7.64509,6.48183,9.468,12.168,17.78356,2.354,2.085.54285,1.21724,3.744.93551,1.872,4.67265,2.16871,7.61367,7.488,11.232l.936,1.872.936-4.67952c3.20386,2.39621,2.65168,3.131,5.616,3.744-1.69972,3.30521.54556,1.14018-2.808,2.808l4.68,3.7445,2.808-2.8085.936-1.872c-4.75216-5.01426-3.48093-2.93611-1.872-11.232l2.808-1.872.93576,1.872-3.74377,4.6805,3.74377,1.87151,2.808-.936v-6.552c3.92,1.53678,4.9215,2.82077,9.36,1.872l2.808,2.808c-3.68314,3.28263-2.44553,1.72573-6.552-.93552-2.8885,2.56407-3.90107,7.50373-.93576,12.16754v1.872c3.18987-4.92346,9.42825-12.652,18.72005-13.104q-2.3405,6.08426-4.68026,12.16852c-4.1482-.77747-3.91506-1.17406-6.552-2.8085l-5.616,2.8085.93625,4.67952-2.808-1.872c.27413,5.89677,1.18215,6.75473-1.87225,8.42353l2.808,3.7445,5.61626-5.616c-1.36008,3.70082-1.3029,3.931-4.68026,5.616l4.68026.936a156.46639,156.46639,0,0,0,14.976-15.91154l.93576,1.87151c-2.12478,3.61639-2.65536,4.50282-1.872,9.35953h.93624c2.38836-2.32749,4.282-5.63221,1.87176-7.48753l5.616-2.808q-.46788,5.14776-.936,10.29553l1.872.9365c1.76353-2.26172-.16663-1.57408,2.808-3.744h.936L481.52332,506.046l-3.74426-5.61552-5.61577,1.872-2.808,1.87152,7.48777,8.424-2.808-1.87152c-.07117,4.61621.601,3.79457-.936,5.616l.936,1.872-5.616-7.488-.936-1.872h-.936l3.744,11.232-7.48777,2.80751c-1.19638,5.12912-.08246,16.57515,2.808,17.78454-1.02975,4.013-.281,2.62689-2.808,4.67952-1.80942-2.52677-1.14117-1.56279-.93625-4.67952l-1.87176-1.8725-8.42426,4.68-.93576-1.872c-1.73163-1.23.19461-2.38345-.936-5.616.965-5.37158-1.71494-1.45971-2.808-4.67952l-5.616,4.67952,2.808,5.616h-6.552c.69918,6.64576-.56641,7.11892-2.808,12.16852l-2.808,1.872.936-3.745-1.872-.935c-3.35184,4.56123-4.81572,5.35637-2.808,11.232l-2.808.93551-3.744-2.808c.97429,16.848-7.89516,20.70691-14.976,33.69609l1.872.93649c-8.92957.18651-5.98193-1.393-11.23178-3.7445,0,0-10.44868,5.01083-21.52806,0,2.18343,7.54054,7.59183,12.007,12.168,16.84853-3.96022,3.29687-5.24176,2.74862-9.36,1.87152,1.15957,3.40583-.0805,5.965-.936,9.36051,5.70951,8.01075,13.99021,1.21626,18.72-2.8085l.936,4.68-1.87225,3.74351c-7.6927,1.58389-14.5613,5.13452-22.46382,1.872l-.936,1.87249h1.87176l-2.80776,1.87152H367.331l8.42426-10.29554-.936-1.872-6.552-.936,2.808,3.744-5.616-2.808c-2.29682,4.37864-3.074,4.7556-5.616,1.872-2.97169,3.44068-.49524,2.71426,0,10.29554l-11.232-3.744c-2.2249,3.5251-2.43915,3.0274-4.68,4.6805,2.33363,2.67794,2.74715,3.14226,7.488,3.744-2.64112,3.63406-1.77826.61648-.936,4.67952v.93649c-6.57337.28076-13.92837.21695-15.912-4.6805l-3.74376,4.6805c.14013.79121.256,1.32719.32517,1.72378a174.1756,174.1756,0,0,0,17.71017,13.07066l-.25155-.75489,2.808.93649-.89453.89428a156.91443,156.91443,0,0,0,17.812,9.63881c4.05789.2086,8.13271.35536,12.24288.35536C478.13761,666.69479,561.79766,607.24024,597.33679,522.59265Zm3.05809-18.41868h-.936v-3.74352l2.808,1.872Zm-1.87176-9.36,4.67976,1.8725v.936l-4.67976.93551Zm-3.744,4.68051.936.936q-.46826,1.40326-.936,2.808h-.93625Q594.31074,501.36695,594.77911,499.49445Zm-3.74426-69.26368v-2.808l1.872,1.87151Zm0,92.66324q-.46788,2.33976-.936,4.6805l-1.872.93552Zm-8.42377,7.488c1.39737,1.26142.96668,3.36117,1.87176,6.552h-2.808q.46788.93576.93625,1.872C579.2639,536.00933,581.14057,533.42122,582.61108,530.382Zm-1.872,16.848h.93576q.46788.9365.93625,1.8725l-2.808.93551Q580.271,548.63482,580.73907,547.23007Zm-3.744,2.808v.93649c-3.14324-1.29577-1.95176-.53941-3.744-2.808ZM415.0674,451.75882l-4.68026-1.872-4.67976-4.6805,5.61576,4.6805c.87711-.87857,1.91422-.9041,3.74426-2.80849l.93576,2.80849Zm2.80776,2.808h.936l.936,2.807h-2.808Zm5.616,15.91154c1.88894,1.685.69354-.02159,1.872,2.808Zm.936-2.808-6.552-.936q2.34013-4.68025,4.68-9.36051c3.41835,1.498,1.404,1.576,4.68,1.8725Zm3.744-7.488v-2.8085l1.872,1.8725Zm3.744-2.8085-5.616-3.74352c-.0562-6.61386.42015-6.52944,3.744-9.36051h-3.744l.936-2.80752H433.787c-.5615,3.17269-.73451,2.24209.93625,4.6805l-3.744,1.87152,1.872,3.7445-2.808-.93649c3.08238,2.97685,4.35042,2.567,9.36,1.872C437.10714,456.63369,436.34047,455.22748,431.9152,457.37385Zm8.424-9.35953-3.74426-5.616h1.87225l1.872,2.808Zm-2.808-14.97555-1.872-.93649c-.15166-4.18281,2.19767-2.76334-1.87225-3.744l2.808-3.744.93625.93649c.90876,2.73193,1.19148,3.01465,5.61577,4.68Zm6.552,12.16754.936-1.872,7.48777,3.744v2.80849l-3.744.93552C446.75822,447.205,448.42236,446.93794,444.08323,445.20631Zm3.744,22.46406,3.74377-5.616h1.87225C452.20662,466.44625,452.23754,466.45361,447.82723,467.67037Zm4.67977-29.01558c-1.55-2.95133.5485-.99245-2.80776-4.68051h4.68v-3.74351h2.808l.93575,1.87151-1.87175,3.744Zm8.424,6.55152-3.74376,2.808-.936-3.7445Zm-2.808,17.78454q-.46787-3.277-.93575-6.55251c1.77825.5615,5.56717,3.89224,7.48777,6.55251Zm4.68026,27.14357c-4.331.57623-5.35219,1.02092-8.424-.936h8.424Zm14.97579,120.74381-1.872-3.744,3.744,1.872Zm-1.872-49.60812v-1.87152C476.7606,561.06445,476.82171,559.63713,475.90706,561.27011Zm6.552,7.48851-3.744-5.61651c3.84413-.01423,1.29258,1.20105,3.744-.93551l3.744,5.61552Zm-4.68-15.91253v-4.67952l.936.936h1.872Zm4.68-5.616c1.8887,1.685.69379-.02159,1.872,2.808h-.936Zm5.616,2.808.936-3.74352h.936l.936,2.808Zm1.872,1.87151v-1.87151C490.80064,551.70443,490.8615,550.27711,489.94709,551.90959Zm15.9118,43.05709v-1.87249C506.71268,594.76,506.77354,593.33273,505.85889,594.96668Zm12.168-3.7445c-3.21319,3.53345-3.87408,1.26387-10.29578.936v-.936l6.552-1.87249,3.74377.93649Zm-1.87176-4.68,1.87176-2.80752h.936l.93625,2.80752Zm4.67976-.936v-2.808l3.744.93649ZM539.555,563.14211a24.27687,24.27687,0,0,1-13.10379,7.48851q.93576,2.33976,1.87176,4.68c-11.64947.28026-8.56611,1.2413-15.912,7.48753l-4.67976-2.808v4.68l-5.616-.93552v6.55153c-2.69757-2.808-2.90175-5.37747-.936-10.296h-5.616v-6.552l5.616-2.80752q-.46788,3.27552-.936,6.55153h.936c4.05-2.91059,2.58247-.724,1.87176-4.67952l.93625-2.8085c3.101,2.8085,1.52278.44076,1.87176,4.68,6.94541-1.7655,7.75232-9.10479,14.04028-12.16754,4.39926-2.62149,5.177,1.98735,8.42377,5.61552,1.872-3.23355,6.63251-4.91708,11.232-5.61552Zm-36.50409-1.872,2.808-6.552c2.70051,1.67077,2.34565,1.80918,3.74425,4.6805Zm13.10428,0,.936-3.74352h2.808Zm13.104,1.872.93576-3.74352h3.744l-1.87176,3.74352Zm9.36-9.35953-8.42426,4.67952a99.15393,99.15393,0,0,1,4.81278-8.82895l-.13253-.53058.20836.41622a46.04105,46.04105,0,0,1,4.47141-6.03273C541.16119,547.31548,539.70369,550.31883,538.61921,553.78258Zm6.55177-11.232c-1.68475-2.10907-1.81948-3.24042-1.872-7.488h5.616l-3.744,5.616Zm2.808,2.80752-.936-.93551.936-1.872h.936q.46788.9365.936,1.872Zm6.552-37.44009h1.872v2.80849l-2.808-.93649Q554.06288,508.855,554.531,507.918Zm-1.872,5.6165q-.93612,2.808-1.872,5.61552-.46788.9365-.936,1.8725-.46788-4.212-.936-8.42451Zm-4.68-46.80012.936,4.68-1.872.936Q547.51123,469.54237,547.979,466.73436Zm.936,34.6316-2.808,2.808-.936-2.808Zm-3.744,17.784h-4.68l3.74426-4.67952Zm-3.74376.9365L537.683,522.894l1.872-2.80751Zm0-14.976h.93576l-1.872,2.80752ZM540.491,509.79c-1.11294,4.13863-1.4629,1.02386.93625,4.6805l-2.808.936-.93624-4.68,1.872-.93649Zm-3.744-31.82359h1.87225l.93576,1.87152-4.67977,1.872Zm-10.29578,25.27206.93576,1.872h-1.87176Zm-1.70831,23.72744-.16394-.32738c.17523-.01914.27683-.01619.42457-.026,1.0057-1.42045,2.04551-2.98765,3.31944-4.654,3.7796,1.90047,5.616,2.62051,7.488,6.55153h3.744l-1.872-3.74352c3.77125.404,2.84261-.24787,5.616-2.808l.93625.93551c-4.44614,9.03117-14.12814,21.4456-25.27231,20.592v5.61651h-.936l-3.74377-.936,2.808-4.68051c-7.15009.13056-7.47967,1.54316-7.488,8.42353-9.90189-1.68451-11.25362,11.05043-10.296,15.91253l-2.808-2.80751-6.552,2.80751c5.01328-6.56919,15.53754-19.579,15.9118-29.01607l2.808-1.872v4.68h5.61626q-.46824-4.212-.936-8.42353C519.52614,533.23765,522.07057,530.68143,524.74287,526.96589Zm-31.052,19.32867.93624-1.872h3.744C496.52439,545.92055,497.0935,545.69183,493.69086,546.29456Zm28.08007-39.3121V517.278l-2.808,1.872v-4.67952l-.936-1.87249C519.88592,509.53573,519.10649,510.02214,521.77093,506.98246Zm-3.744,18.71956c-2.24626,1.09552-1.2278,2.32111-2.808,0Zm-7.48778-34.6316c1.37947,1.65065,2.02073,4.13618,2.808,6.552v.93551h-.93625C509.12753,495.2498,510.669,494.47822,510.53914,491.07042Zm-18.72-.936,1.87176.936v.936l-1.87176.93551-.936-1.87152Zm-5.616-17.784v.936l-2.808.93649-.936-2.80849Zm-11.23178-8.424h.93576l-1.872,2.808Zm7.48777,29.95207c.32027-6.03518-1.38633-7.6225-8.424-8.42451V480.7744l2.808-3.744,10.296.936c-1.81483,3.82794-1.33676,9.6128-2.808,14.97555Zm-7.48777,24.33606h2.80776l-3.744,2.808Zm1.87176,19.65605c4.00513-1.62708.96423-.97429,4.68026.93551,1.618-5.33477,3.54817-7.6603,6.55177-11.23154l-3.744-1.87249.936,2.808-2.808.93649c.18725-5.74265,1.91054-4.26821,4.68-9.36l-3.744-4.68h12.168c-2.09852-1.79985-2.007-1.08423-5.616-1.872a85.83777,85.83777,0,0,0,.936-18.72054h.936c1.46756,6.23249,2.62812,5.50215,4.68,8.42451l1.872.93552.936-.93552c-1.3618-3.72977.05521-2.191-2.808-2.808,1.259-6.68111,2.50664-9.29573,4.68-15.912,5.31637,3.99482,7.06027,9.82827,7.48777,18.72h4.68026c-2.39228,5.082-1.59125,2.45953-5.616,0-2.17705,4.35607-4.96077,7.9651-4.68026,14.03955-2.33412-3.4289.01988,2.36675,1.87225,4.6805-2.90151,4.64222-3.26766,1.872-.936,5.616l-2.808,4.67953-9.36-10.29554c.53451,4.9426,7.08161,13.29055,8.424,14.03954-6.62883,6.75768-18.428,7.407-29.01607,10.29652C474.681,542.61878,477.38223,543.44778,476.84306,537.87054Zm-20.5918,24.33606-2.808,1.87151-.93625-2.808Zm-15.912-2.808c1.74561,1.21676,1.34412,2.00551,2.80776,4.67952h-5.61577Zm-53.35189,58.03166-4.68.936,1.872-2.808h1.87176l.93625.936Zm22.46381,29.95207-.936,2.808-2.80776,1.872c.06528-4.69817-.281-2.90764.93575-5.6165h2.808Zm9.36-14.97555h2.808l-3.744,1.87152Zm-.936,20.59107H415.0674l.93576-1.872h.936Zm-3.744-64.58367,1.872,2.808-2.808-1.87249Zm-1.87176,12.16754c-1.21037,2.79378.03927,1.124-1.87225,2.8085l-.936-2.8085Zm-22.464,14.04053v-.93649l2.80776-1.872h.93625C394.7561,614.40137,392.54248,613.76526,389.79534,614.62224Zm2.80776-3.744-3.744-1.872c2.72211-5.49233,3.6402-4.13962,9.36-6.55251l4.68026,2.8085C397.83921,609.38023,393.40461,608.96156,392.6031,610.87823Zm9.36.93551-.936,2.8085-1.872.936v-4.68l.93625.93551Zm3.74426,19.65654c1.415,3.61934.95931,4.14354-.93625,8.42353,3.1,2.299,1.72893,2.355,3.744-.93551,1.97949,1.24866,3.26005,1.85728,4.68,3.744l2.808,2.808c-11.713-1.52451-15.25679-6.19863-18.7198-15.912Zm-4.68026,9.36-.93576,2.8085v-2.8085Zm-4.67977,12.16754-.93624,1.872-.936-1.872Zm-5.616-2.80751,1.87176.93551-.936,2.8085C389.83068,651.50083,390.75367,653.05625,390.73134,650.19033Zm-13.104-5.616h2.808c-1.04643,3.38669-.73771,2.74911-2.808,4.67952l-1.872-.93551Zm-14.04-21.52805,2.808.936v.93551q-.93612,2.34125-1.87225,4.68051C361.517,626.88353,362.20953,627.1952,363.58727,623.04626Zm-7.488,10.29553h.936l-.936,3.7445h-.93575C354.19927,633.85863,353.88,636.49927,356.09925,633.34179Zm4.68,27.14407c-1.32252-4.1136-2.59744-6.27912-1.872-10.29553H355.1635l-2.80826-2.808,4.68-3.74352,18.72,11.23105c2.514-4.118,4.52835-4.77327,9.36-6.55153h.93575l-2.808,8.42451c5.65086-2.31276,9.76814,1.18682,19.65629,0l1.87176,2.80752-26.20782,3.744v-6.55153Z"/>
      <path class="cls-2" d="M334.5712,227.11826l4.68-1.87151-2.80776-5.616c21.48486-.00639,29.53905.92471,45.86387,0v6.552h3.74376c-2.193-6.33311-5.70951-11.58149-2.808-17.784-2.04036-1.5515-3.40584-1.07834-8.42378-.936l2.808-4.68051c-9.00737,1.4872-9.989,1.19074-15.912,5.61651q.93612-3.27552,1.872-6.552a17.87191,17.87191,0,0,1-4.307.30873,165.83226,165.83226,0,0,0-21.05269,13.61694,11.20869,11.20869,0,0,1-4.39828,3.47112c-1.49554,1.2089-2.97145,2.45608-4.43877,3.72044C330.53221,224.85262,331.42379,225.67622,334.5712,227.11826Zm33.69608-18.71955,6.552,1.87249-1.872,1.87152-4.68-.936Zm-10.296-3.7445h.936c-.1178,2.95771,1.01257.58113-.936,2.8085l-1.872,1.872C356.53167,205.49744,355.94759,207.94568,357.97126,204.65421Zm-24.33582,16.849,2.808,2.807-3.74425.93649Q333.16744,223.3745,333.63544,221.50323Z"/>
      <polygon class="cls-2" points="397.283 258.007 394.475 258.007 395.411 259.879 397.283 258.007"/>
      <path class="cls-2" d="M580.73907,439.5903v.03436l.03632-.026Z"/>
      <path class="cls-2" d="M612.56291,423.67875q.93574-2.808,1.872-5.61651h-2.808Q612.09478,420.871,612.56291,423.67875Z"/>
      <path class="cls-2" d="M601.33112,383.43016h-1.87225C601.12522,384.28419,599.69766,384.34506,601.33112,383.43016Z"/>
      <polygon class="cls-2" points="466.547 478.902 463.739 478.902 464.675 480.774 466.547 478.902"/>
      <path class="cls-2" d="M536.747,552.84609l-1.6634-3.3273c-.02454.03877-.05154.07558-.07583.11436l.80323,3.21294Z"/>
      <polygon class="cls-2" points="596.651 366.583 592.907 366.583 594.779 369.391 596.651 366.583"/>
      <path class="cls-2" d="M350.48324,617.43025l1.872,2.808h-4.68l.936,1.872h-1.872v3.744c4.74554-1.31639,5.69749-2.82912,8.42427.93551l2.80776-2.80752-3.744-6.552Z"/>
      <polygon class="cls-2" points="356.099 567.822 354.227 567.822 354.227 569.694 356.099 567.822"/>
      <polygon class="cls-2" points="343.931 615.558 342.995 617.43 345.803 620.238 346.739 617.43 343.931 615.558"/>
      <path class="cls-2" d="M351.41924,520.0865V519.15l-.936-2.80751h-3.744c-.74409,3.52706-1.21675.54383.936,3.744Z"/>
      <polygon class="cls-2" points="344.867 611.814 352.355 609.942 347.675 605.262 344.867 610.878 344.867 611.814"/>
      <path class="cls-2" d="M307.42713,535.06253h-1.87176C307.22123,535.91559,305.79416,535.97645,307.42713,535.06253Z"/>
      <path class="cls-2" d="M390.73134,496.68644c-1.33014.96349.0935,1.33259-3.744.936l-.93625,2.808c2.7896,2.15226,4.57154,5.2317,9.36,7.48753C395.74364,500.67242,395.35883,498.96828,390.73134,496.68644Z"/>
      <polygon class="cls-2" points="387.923 592.158 389.795 593.094 391.667 590.286 388.859 590.286 387.923 592.158"/>
      <polygon class="cls-2" points="378.563 623.046 376.691 621.174 375.755 623.046 378.563 623.046"/>
      <path class="cls-2" d="M370.13929,611.81374c1.67076,2.70052,1.80942,2.34614,4.68,3.7445C373.07344,612.33205,374.059,613.02411,370.13929,611.81374Z"/>
      <polygon class="cls-2" points="363.587 531.319 365.459 529.447 360.779 527.575 363.587 531.319"/>
      <polygon class="cls-2" points="340.187 408.703 341.123 408.703 342.995 405.895 340.187 405.895 340.187 408.703"/>
      <polygon class="cls-2" points="311.171 303.87 313.979 301.063 312.107 301.063 311.171 303.87"/>
      <path class="cls-2" d="M314.9154,490.13442l1.87176,1.872h3.74425q-.93612-3.27625-1.872-6.55251Z"/>
      <path class="cls-2" d="M306.49138,301.06294l3.74376,3.744c-.655-3.38031-.37425-2.82323-1.87176-4.68051Z"/>
      <polygon class="cls-2" points="321.467 582.798 324.275 582.798 322.403 580.926 321.467 582.798"/>
      <polygon class="cls-2" points="357.035 359.095 354.227 359.095 354.227 360.966 357.035 360.031 357.035 359.095"/>
      <path class="cls-2" d="M308.36338,492.94194l-2.808-4.67952C306.60181,491.64911,306.29284,491.01153,308.36338,492.94194Z"/>
      <polygon class="cls-2" points="348.611 351.607 350.483 352.543 348.611 348.799 348.611 351.607"/>
      <path class="cls-2" d="M353.29125,368.45461l-7.48778-1.87151c-.60666,4.04488-.55144,4.30453.93576,7.487l-4.68-.93552q.93612,3.74451,1.872,7.48753c4.39926.72888,6.85437-4.48613,12.168-4.67952Z"/>
      <path class="cls-2" d="M324.27542,307.61446l2.808-.93551v-.93649l-3.74426-2.808C322.77767,306.10665,322.60465,305.181,324.27542,307.61446Z"/>
      <polygon class="cls-2" points="336.443 559.399 336.443 558.462 333.635 556.59 335.507 559.399 336.443 559.399"/>
      <path class="cls-2" d="M332.6992,625.85427l-.936,3.744,1.87225,1.872c6.82688-3.55651,6.113-3.60461,11.23179-3.744l.93624-2.8085-4.68025-1.87151Z"/>
      <polygon class="cls-2" points="388.859 243.967 391.667 243.967 388.859 242.094 388.859 243.967"/>
      <path class="cls-2" d="M301.81136,444.26982h-3.744c-1.217,2.58762.99686,1.95152,3.744,2.8085Z"/>
      <polygon class="cls-2" points="292.451 443.334 295.259 443.334 292.451 440.526 292.451 443.334"/>
      <polygon class="cls-2" points="301.811 291.703 304.619 288.894 301.811 287.959 301.811 291.703"/>
      <path class="cls-2" d="M523.64318,536.93405l2.808.93649h3.74377l-6.55177-8.424-1.87225,3.744C525.26118,535.50035,523.01958,533.02954,523.64318,536.93405Z"/>
      <polygon class="cls-2" points="286.835 293.575 288.707 295.447 292.451 295.447 292.451 294.51 288.707 290.766 286.835 293.575"/>
      <path class="cls-2" d="M336.44345,312.294c3.744-1.87151,1.8082-.1924,1.87176-3.74352l2.808-.936q-.93576,3.27625-1.872,6.552c5.03463,2.92188,5.55344,3.08876,11.232,4.68h.936V317.911c-2.01508-4.35656-1.39443-5.00936-7.488-5.617q.46825-3.27477.936-6.55152l-5.616.93649q.46825-2.808.93625-5.616c3.31969,1.67371,6.35618,3.38718,9.35978,2.80751h1.872c-.34333-3.8083-1.24669-3.1668.936-8.42353l-7.488-.93649c1.23933-4.118.93624-3.931,3.744-7.488-2.72383-1.80721-2.10612-1.18092-5.61576-.936,2.30883-2.83059,5.35366-3.506,7.48777-6.552v-7.48752c-4.45718-.14774-.92938,1.472-8.424,0v9.35953l-4.68,1.872-4.68,5.616c3.891,1.43517,4.8437.401,9.36-1.872-3.62965,7.39476-7.52827,5.82511-13.104,7.488v-4.67952c-5.05427-.38137-5.70952-.07608-11.23179,2.80752-2.51228-4.15631-6.9405-10.19247-7.48826-13.104l-22.46381-4.67952h-.936q-.93576,3.27552-1.872,6.55153l3.744,6.5525h5.616q-.46788,3.743-.936,7.488l7.488-1.872c-.3745-2.0595-.84986-1.872-1.872-5.616l3.744-1.87249-3.744-4.68c6.594,2.16355,7.35328,5.68816,12.168,4.68a65.40582,65.40582,0,0,1,2.80776,10.296c4.15409-.98557,3.0252-1.77825,5.616,0l-1.87176-.93551.936,2.808,3.74376.935-1.87176-2.80752c3.64265-1.75371,4.07973,1.74145,4.67977-4.67952,3.6505,3.45737.88274,1.80624,0,7.487l7.488-1.87151C336.31019,300.59469,336.81746,304.9002,336.44345,312.294ZM292.45134,285.1509c2.79377,1.21037,1.123-.03976,2.808,1.87151Zm2.808,7.48753v-2.80752l1.872,1.872Z"/>
      <path class="cls-2" d="M283.09132,286.08641c-1.58635-1.77777-.21351-.84667-2.40381-1.71249-.029.053-.05817.105-.08688.15805l1.55469,1.55444Z"/>
      <polygon class="cls-2" points="274.667 418.999 276.54 419.935 278.411 417.127 273.732 416.191 274.667 418.999"/>
      <polygon class="cls-2" points="275.603 443.334 277.475 441.462 275.603 441.462 275.603 443.334"/>
      <path class="cls-2" d="M306.49138,456.43834c-6.94689-5.01819-13.01691-10.52131-23.40006-12.16852l-1.872,3.7445,12.168.936v.93649c-5.57184,2.05214-6.80282,5.37748-6.552,13.104,3.15428,2.60726,8.35653,5.45207,14.04,2.80751C304.654,463.60634,305.07707,460.87343,306.49138,456.43834Z"/>
      <polygon class="cls-2" points="316.787 285.151 314.915 281.406 313.979 283.278 315.851 285.151 316.787 285.151"/>
      <path class="cls-2" d="M278.41131,310.42247l.936-.93551-1.872-1.8725Q277.94355,309.01846,278.41131,310.42247Z"/>
      <path class="cls-2" d="M368.26728,441.4623l1.872-1.872-4.68-4.68q.93612,3.27551,1.87176,6.552Z"/>
      <path class="cls-2" d="M372.01129,489.19842l-2.808-.936,2.808-5.616-3.744-.93649c-.9679,3.41025-8.22744,8.87214-10.296,11.232v.93649c5.2744,1.69236,13.602,2.27448,17.784,4.67952q.93576-4.21126,1.872-8.42353l-2.808.936c1.54512-3.4873.36591-2.19987,3.744-3.74351v-.9365C374.97,486.97057,373.8936,487.07364,372.01129,489.19842Z"/>
      <polygon class="cls-2" points="364.523 287.959 362.651 286.086 363.587 288.894 364.523 287.959"/>
      <path class="cls-2" d="M373.88305,226.18275v-3.744h-2.80776q.46788,2.33976.936,4.67952Z"/>
      <path class="cls-2" d="M377.62731,230.86276c4.86726.59734,6.80749.668,10.296-1.87249h-5.616l-3.744-7.487-3.744,6.55153C378.45189,227.52025,376.95807,226.94844,377.62731,230.86276Z"/>
      <path class="cls-2" d="M356.09925,282.34289l.936,4.67952-5.616-1.87151c1.21676,3.769,1.46585,4.74431,4.68,6.552,2.71426,2.80065.936,1.45972,4.68,1.872,1.77262-5.65528-2.90175-5.94683-1.872-11.232Z"/>
      <path class="cls-2" d="M355.1635,270.17437h.93575c-1.46192-3.97175-1.243-2.99452-4.68-4.67952C351.32574,269.35273,351.26856,268.17475,355.1635,270.17437Z"/>
      <path class="cls-2" d="M339.25121,278.59888c-1.21013-2.79426.03927-1.1235-1.872-2.8085Z"/>
      <polygon class="cls-2" points="322.403 284.214 319.595 284.214 322.403 287.959 322.403 284.214"/>
      <polygon class="cls-2" points="335.507 278.599 332.699 277.662 330.827 280.471 332.699 281.406 335.507 278.599"/>
      <path class="cls-2" d="M339.25121,260.81484l-5.61577-.936c-.97551,2.461.77281,1.98146-1.87225,1.87152l-.93575,2.808,3.74376.93649Z"/>
      <polygon class="cls-2" points="341.123 258.007 337.379 256.135 337.379 259.879 340.187 259.879 341.123 258.007"/>
      <path class="cls-2" d="M489.94709,535.998l-.936,1.8725,1.872.93551h.936C490.60872,536.01228,491.85836,537.68305,489.94709,535.998Z"/>
      <polygon class="cls-2" points="497.435 519.15 497.435 521.022 499.307 519.15 497.435 519.15"/>
      <polygon class="cls-2" points="476.843 481.71 478.715 483.582 480.587 481.71 477.779 479.838 476.843 481.71"/>
      <path class="cls-2" d="M533.939,530.382l-.936-4.68c-2.47081.95073-.75709-.46776-1.872,1.87249l-2.808-1.87249c-2.45216,1.89016-.47021.7112-3.31944.91048-.08688.1227-.17376.23265-.26063.35339l2.64407,5.28815Z"/>
      <path class="cls-2" d="M252.20349,492.00643c-.707-.00491-1.40548-.12173-2.11079-.15707q.40455,2.21313.8344,4.411l2.21214-3.31846Z"/>
      <polygon class="cls-2" points="261.564 450.822 255.947 448.95 259.691 452.694 260.628 452.694 261.564 450.822"/>
      <polygon class="cls-2" points="260.628 462.054 263.435 462.991 261.564 460.182 260.628 462.054"/>
      <path class="cls-2" d="M252.98071,505.88793c.01031.04417.02184.08834.03215.133l.12638.025Z"/>
      <polygon class="cls-2" points="269.051 470.478 270.924 468.606 268.115 468.606 269.051 470.478"/>
      <path class="cls-2" d="M270.92353,459.24635l-.93624,2.808v.9365h6.55226c-.23118-4.038-.23413-4.5043-1.87225-6.55251Z"/>
      <polygon class="cls-2" points="394.475 214.951 383.243 209.335 383.243 214.015 392.603 216.823 394.475 214.951"/>
      <path class="cls-2" d="M571.37905,434.91029l4.68-.936-3.74425-2.808Q571.84693,433.03852,571.37905,434.91029Z"/>
      <polygon class="cls-2" points="556.403 313.23 556.403 316.974 559.211 314.166 556.403 313.23"/>
      <polygon class="cls-2" points="565.763 433.039 567.635 433.974 568.571 433.039 566.699 431.166 565.763 432.102 565.763 433.039"/>
      <path class="cls-2" d="M394.4751,387.17417q.46825-2.339.936-4.67952l-3.744-1.8725-2.808.93649Z"/>
      <polygon class="cls-2" points="554.531 325.399 554.531 327.271 557.339 327.271 554.531 325.399"/>
      <path class="cls-2" d="M578.86682,404.95821h-1.87176C578.66092,405.81176,577.2336,405.87311,578.86682,404.95821Z"/>
      <path class="cls-2" d="M565.763,406.83022q-.46825,2.3405-.936,4.68l2.808-2.80752Z"/>
      <path class="cls-2" d="M572.31481,415.25424l2.808-2.80752,3.744-1.872-7.48777-2.8085C570.35593,411.0194,571.44457,409.545,572.31481,415.25424Z"/>
      <path class="cls-2" d="M556.403,404.02221l1.872,1.87249q.46788-.93574.936-1.87249l-2.808-1.872Z"/>
      <polygon class="cls-2" points="508.667 253.326 507.731 255.198 510.539 255.198 508.667 253.326"/>
      <polygon class="cls-2" points="535.811 320.718 537.683 318.846 534.875 316.039 535.811 318.846 535.811 320.718"/>
      <path class="cls-2" d="M498.37111,244.9028l3.744,3.74352C500.5435,245.30773,501.90554,246.40914,498.37111,244.9028Z"/>
      <path class="cls-2" d="M543.299,329.143h3.744c.83023-3.0544-1.35517-2.71475,0-7.48851-5,.24148-3.65051-.27094-7.488-2.808l-.93576,6.55251C544.555,324.57441,542.18505,325.64441,543.299,329.143Z"/>
      <polygon class="cls-2" points="519.899 388.111 521.771 389.047 523.643 386.239 519.899 383.43 519.899 388.111"/>
      <path class="cls-2" d="M569.507,413.38223l-2.808-.93551q.46788,3.74376.936,7.488v3.744h-3.744c-2.32111-4.36-2.27546-11.78175-4.68-13.104v-1.872l-3.744,7.488c2.43351,1.83568.87808.91342,3.744.936l-7.488,3.74352c1.60917-5.69356-1.05012-6.88578,2.808-7.488-1.31885-4.439-2.50664-5.04273-6.552-6.552q.93612-2.808,1.872-5.61553l-8.42378,5.61553c-.08638-4.252-.17252-5.36422-1.87225-7.48753l-5.616,3.744-6.552-4.6805c-3.25441,3.27576-3.43111,2.57093-7.48777.93649l-.93625,2.80751c3.59357,4.26821,5.7613,7.6927,3.74425,12.16853,5.672.90017,3.32559,3.05,9.36,6.55152,1.12865-3.74352,1.33259-3.39552.93575-7.488h4.68l.93624,1.872-2.80825,3.7445,13.104,3.74352c-3.625,9.99907,2.26614,11.78077,5.616,21.52756h.936c2.23055-2.4394,1.58-2.16994,1.872-4.67952h4.68q-2.33976-4.68026-4.68-9.35953l4.68-5.61651,2.808.93649-2.808.93552q2.34012,2.33976,4.68,4.68,2.33976-7.02,4.68-14.03955C567.88021,414.82771,568.55141,417.45755,569.507,413.38223Z"/>
      <polygon class="cls-2" points="510.539 385.302 517.091 389.047 511.475 383.43 510.539 385.302"/>
      <path class="cls-2" d="M402.89937,228.99027c-.25572,2.98225.02037,2.25485.93576,5.617l1.87225.93551h.93575l-.93575-5.616Z"/>
      <polygon class="cls-2" points="394.475 214.015 396.347 212.143 393.539 212.143 394.475 214.015"/>
      <path class="cls-2" d="M519.89917,415.25424l.93575-1.872-5.616-1.872,3.744,10.29651c1.14313,1.794,7.51354,2.18123,5.616-2.808Z"/>
      <polygon class="cls-2" points="396.347 220.567 397.283 222.439 395.411 222.439 401.963 226.183 403.835 224.31 396.347 220.567"/>
      <polygon class="cls-2" points="427.235 399.343 429.107 397.471 425.363 396.534 427.235 399.343"/>
      <polygon class="cls-2" points="391.667 432.102 391.667 435.846 396.347 434.91 399.155 431.166 400.091 428.358 394.475 424.614 391.667 432.102"/>
      <polygon class="cls-2" points="422.555 402.15 422.555 403.087 424.427 404.958 426.299 404.022 427.235 401.215 424.427 401.215 422.555 402.15"/>
      <path class="cls-2" d="M495.56311,270.17437c-.35855,3.04507-1.50315,1.923,2.808,3.7445Z"/>
      <path class="cls-2" d="M445.955,410.57472l1.87225.93551h.93576q.46825-2.33976.93625-4.68h-4.68Z"/>
      <polygon class="cls-2" points="521.771 433.039 523.643 433.974 524.579 433.039 522.707 431.166 521.771 433.039"/>
      <path class="cls-2" d="M518.02692,408.70271c-3.75874-5.22384-2.205-5.94094-8.42378-7.488q.46788-10.297.936-20.59254l-2.808-.935-3.744,3.743-3.744-3.743c1.844,6.96087,4.04636,12.45467,1.872,18.71907,5.21256,1.76206,7.798,3.97175,10.29578,8.424h-1.87176l-1.87225,2.808c5.51025,1.38707,2.6107-.7058,8.42427,1.872Z"/>
      <path class="cls-2" d="M485.26708,432.10228v2.808l2.808.936C486.92361,433.77894,487.06988,433.52223,485.26708,432.10228Z"/>
      <path class="cls-2" d="M502.11512,401.21469l1.872,2.80752C502.77675,401.22844,504.02639,402.8992,502.11512,401.21469Z"/>
      <path class="cls-2" d="M421.61917,237.41478l-1.872,3.744,6.552.93551C424.57958,239.434,424.853,238.87351,421.61917,237.41478Z"/>
      <polygon class="cls-2" points="426.299 208.399 423.491 208.399 424.427 210.271 426.299 208.399"/>
      <path class="cls-2" d="M393.53935,204.65421l-.93625,1.87249C394.28785,205.28737,393.14251,205.523,393.53935,204.65421Z"/>
      <polygon class="cls-2" points="429.107 212.143 429.107 214.015 431.915 214.015 429.107 212.143"/>
      <path class="cls-2" d="M437.53121,246.7748H443.147c-1.79716-2.808-.16173-1.57162-3.74377-2.808Z"/>
      <path class="cls-2" d="M492.7551,288.89442l3.744.93649c1.4975-3.93151,1.88231-2.38-.936-5.61651l-1.87225,1.872Z"/>
      <path class="cls-2" d="M435.6592,227.11826l2.808,2.8085h.936c-1.00815-2.91059-.749-2.98372-2.80825-4.68Z"/>
      <path class="cls-2" d="M436.595,214.95072l-3.74376-.936q.46788,1.87225.93575,3.74352Z"/>
      <polygon class="cls-2" points="405.707 211.207 402.899 209.335 401.027 212.143 405.707 211.207"/>
      <path class="cls-2" d="M398.21911,213.07872l3.744-5.616-.936-1.872h-2.808l-2.808,1.872,1.87225,5.616Z"/>
      <path class="cls-2" d="M411.32314,234.60726h.93625l2.808-1.87249q-.46861-1.87225-.93625-3.7445c-1.22436-3.32485-4.91855-5.07807-8.42377-6.55153-1.29185,5.45306.28541,7.59109,7.48777,7.488Z"/>
      <polygon class="cls-2" points="410.387 361.903 407.579 366.583 410.387 366.583 410.387 368.455 413.195 367.519 416.003 363.775 412.259 360.966 410.387 361.903"/>
      <polygon class="cls-2" points="415.067 247.711 412.259 244.903 413.195 247.711 413.195 249.583 415.067 247.711"/>
      <polygon class="cls-2" points="416.939 283.278 417.875 286.086 419.747 288.894 422.555 288.894 416.939 283.278"/>
      <path class="cls-2" d="M427.23518,258.00683l-8.424-1.872v1.872c2.10858,1.68451,3.24043,1.81949,7.488,1.872Z"/>
      <polygon class="cls-2" points="517.091 572.503 521.771 572.503 518.963 569.694 517.091 572.503"/>
      <path class="cls-2" d="M503.05088,311.35847h5.616q.46825,4.68025.93625,9.36l3.744-3.744c5.1836,2.29018,5.53061,2.90175,7.48777,8.42451l12.168.93551q.46825-5.61528.936-11.232c-9.81944-3.35331-16.51183-5.06384-24.33582-12.168l3.744-2.808c-3.86377-2.74714-8.077-.215-11.232-7.488-4.52-2.50714-2.99525-1.37382-10.296-.93552q.46788,2.808.936,5.61553c-6.12794-2.17681-5.3679-3.03084-10.296-6.552l-.93575.93649,3.74376,5.61553-8.424,3.7445c-2.6507-4.30061-3.9666-13.988-9.36-15.912,2.458-3.11674,3.21613-4.01936,8.424-4.68v-.9365l-5.616-1.872c1.74562-3.22619.76029-2.53364,4.68026-3.74352-.616-4.76542-.71709-3.984-2.808-6.552,4.562-.92864,7.56631-.65525,11.23179.93551l1.872-.93551c-1.45456-4.09151-1.47517-3.50743-5.616-4.68l1.87225-4.68c-.14332-4.08366-1.189-3.315,4.67976-3.744v-.93649l-8.424-4.68c2.26148-1.76157,1.57432.16688,3.74426-2.808l-12.168-1.87151q.46788-2.33976.93575-4.68c-4.721-3.83824-9.65083-8.40291-14.976-11.232l-.93576,5.616c2.62051,5.3868,4.253,8.14278,11.232,9.36l-6.55226,3.744-.936,1.87152c3.56339,3.71112,1.48279,3.53639,5.616,2.808q.46824,3.74451.936,7.488v.93649c-2.95771-.11779-.5804,1.01209-2.808-.93649-3.34227-1.92894-1.123.11093-.936-3.744l-9.36,1.872-1.87176-4.67952c2.90912.30234,6.60625.7166,7.488,1.872l2.808-1.872c-2.57682-1.14412-1.52965-.67587-3.744-.9365-2.64334-2.38148-10.81655-2.70542-15.912-3.743l-11.232,8.42353-.936,1.872,12.168,6.55153v.93649l-12.168,7.48753-1.872,2.808c5.83689-.27,3.904.53844,9.36,1.872l-4.68,4.6805c-.55217,4.50921,4.99733,11.49756,5.61577,16.84706l3.74426-2.80752c1.2165,3.82942,1.53971,3.2846,3.744,5.616,4.16513-.60077,15.33065-3.22521,20.5918-5.616,2.621,3.65076,5.21182,3.03821,6.552,9.36,9.98239-1.67813,27.89282,3.23257,29.95207.93649Zm-27.14382-49.60812-.93576,1.87249h-.93625q-.93574-2.80873-1.87176-5.616C474.9794,259.69134,474.387,258.4741,475.90706,261.75035Zm-4.68-9.35953c.85379,1.66585.9144.23854,0,1.872ZM434.7232,282.34289v-.93649l1.87176-.93551Zm8.42378-28.08007-.93576-1.872,2.808-1.872h1.872l-2.808,3.744Zm6.55226,11.232-3.74426-.93649c-4.35115-6.70614-1.32988-.60077-.93575-8.42353l1.872,1.872c1.31026.213.22382.17964.936-.93649l2.808.93649C448.91122,263.296,448.82484,259.77478,449.69924,265.49485Zm15.912-19.65654h.93576l-1.872,2.808ZM460.931,282.34289l-.93576-3.744,5.616-2.8085c2.39792,3.424-2.39522,1.51272,1.87176,5.616l-2.808.93649Zm7.488,14.97555-1.872-1.87152c-1.68476-1.818-.76667-3.20066,0-6.5525h1.872Zm-3.744-11.232,3.744.936C464.80338,286.76227,467.29014,287.81558,464.675,286.08641Z"/>
      <path class="cls-2" d="M489.94709,273.91887c-1.92722-2.04625-1.26264-1.817-4.68-2.808C487.1943,273.15662,486.52973,272.9274,489.94709,273.91887Z"/>
      <path class="cls-2" d="M514.28315,576.24565c3.07011-3.369,2.74788-2.246,0-5.615Z"/>
      <polygon class="cls-2" points="493.691 254.263 495.563 251.454 497.435 250.519 490.883 248.646 489.011 250.519 489.947 253.326 493.691 254.263"/>
      <polygon class="cls-2" points="489.947 283.278 491.819 281.406 489.947 281.406 489.947 283.278"/>
      <path class="cls-2" d="M451.571,221.50323q.46824,1.87152.936,3.74352C453.22508,222.64783,454.50834,224.00545,451.571,221.50323Z"/>
      <path class="cls-2" d="M442.21122,228.99027v4.6805l1.872-.936C443.17986,229.3417,444.14482,230.82791,442.21122,228.99027Z"/>
      <polygon class="cls-2" points="453.443 228.99 449.699 228.99 453.443 232.735 453.443 228.99"/>
      <path class="cls-2" d="M451.571,244.9028l2.80825.93551,1.872-.93551.936-2.8085-6.552-4.67952Q451.10312,241.15854,451.571,244.9028Z"/>
      <path class="cls-2" d="M478.71507,267.36685l-1.872,3.744v.936h7.488C482.40754,269.03909,482.42177,268.75834,478.71507,267.36685Z"/>
      <path class="cls-2" d="M421.61917,252.39082l-.936,1.872c2.73389,1.85041,4.51706,1.6261,7.488-.93649l-3.744-2.80752Z"/>
      <path class="cls-2" d="M428.17119,247.7113l1.872-1.873-3.744-1.87151q.46788,2.80727.936,5.616h.936Z"/>
    </g>
  </g>
</svg>
