<svg id="Layer_1" data-name="Layer 1" xmlns="http://www.w3.org/2000/svg" width="12in" height="12in" viewBox="0 0 864 864">
  <defs>
    <style>
      .cls-1 {
        fill: none;
      }

      .cls-2 {
        fill: #fff;
      }
    </style>
  </defs>
  <g>
    <path d="M551.60411,190.78332c-133.00951,0-241.21864,108.20913-241.21864,241.21472,0,133.00951,108.20913,241.21864,241.21864,241.21864a2.00926,2.00926,0,0,0,2.01042-2.01042V192.79374A2.00926,2.00926,0,0,0,551.60411,190.78332Z"/>
    <g>
      <polygon class="cls-1" points="406.806 600.578 409.614 599.641 409.614 597.769 406.806 597.769 406.806 600.578"/>
      <polygon class="cls-1" points="520.062 658.609 521.934 656.737 519.126 655.801 520.062 658.609"/>
      <path class="cls-1" d="M444.2458,602.44906q.46824,2.808.936,5.61552l4.68-1.872-1.872-2.808Z"/>
      <path class="cls-1" d="M462.96585,286.08175l2.80849,1.872C464.08885,286.04248,465.75962,287.29212,462.96585,286.08175Z"/>
      <path class="cls-1" d="M472.32587,644.56916v-3.7445l-4.68-.93551q.46751,2.339.936,4.68Z"/>
      <polygon class="cls-1" points="465.774 293.569 467.646 292.633 465.774 290.761 465.774 293.569"/>
      <polygon class="cls-1" points="396.51 595.897 395.574 597.769 401.19 602.449 402.126 600.578 396.51 595.897"/>
      <path class="cls-1" d="M535.03753,630.52863q.9365-2.33976,1.872-4.67952v-.93649l-2.80752-.93551C532.72379,628.12654,532.03172,627.81437,535.03753,630.52863Z"/>
      <path class="cls-1" d="M546.26956,649.24868l1.872.93649c2.07029-1.9309,1.76206-1.29381,2.80849-4.6805h-2.80849Z"/>
      <path class="cls-1" d="M546.26956,655.80119l-18.72-11.232-4.67953,3.744,2.808,2.808h3.74352c-.72544,4.01641.54972,6.18193,1.872,10.296l17.78454-3.744v6.552l2.52578-.36076V650.839A11.20192,11.20192,0,0,0,546.26956,655.80119Z"/>
      <path class="cls-1" d="M391.82967,603.38457c5.63663,1.40425,5.81823,3.87113,9.36,0l-8.42353-1.87152Z"/>
      <path class="cls-1" d="M525.678,638.01665h.936l.93552-3.744H526.614C524.3945,637.42963,524.71353,634.78948,525.678,638.01665Z"/>
      <path class="cls-1" d="M487.30191,640.82466l2.808.936c1.83814-3.48927-.40051-1.53039,3.74352-2.808l-3.74352-1.87151Z"/>
      <polygon class="cls-1" points="402.126 609.001 403.998 609.001 403.062 607.129 402.126 609.001"/>
      <path class="cls-1" d="M473.26187,652.99318l-4.68-4.68C470.06071,652.33793,469.85113,651.22474,473.26187,652.99318Z"/>
      <polygon class="cls-1" points="401.19 260.809 399.318 258.937 398.382 258.937 396.51 260.809 397.446 263.618 401.19 260.809"/>
      <path class="cls-1" d="M398.38218,273.91323q.46751-1.40328.93551-2.80752l-3.744-.93649q.46824,2.33976.93649,4.6805Z"/>
      <path class="cls-1" d="M360.94209,297.31328c1.75666-1.56916,4.89793-3.68952,1.872-4.68l-2.808,6.55251h.936Z"/>
      <polygon class="cls-1" points="412.422 263.618 409.614 262.681 408.678 264.553 413.358 265.49 412.422 263.618"/>
      <polygon class="cls-1" points="538.782 212.137 543.462 213.074 545.334 211.202 538.782 209.33 538.782 212.137"/>
      <polygon class="cls-1" points="494.79 643.633 495.726 646.441 498.534 644.569 494.79 643.633"/>
      <path class="cls-1" d="M461.09384,230.85761v-4.68h-2.808q.93574,2.33976,1.872,4.68Z"/>
      <path class="cls-1" d="M498.53393,651.12118c.163,4.411-1.096,2.79377.93552,4.68L509.766,658.6087c.63906-4.24317.09326-.47462,2.80752-3.744l-1.87152-1.87151Z"/>
      <path class="cls-1" d="M551.09437,667.62564A234.50562,234.50562,0,0,1,367.35422,579.049h.13939l-.93551-1.872h-.67538q-5.82067-7.44777-11.05631-15.34906l.49966-1.499-3.13539-2.61315a233.906,233.906,0,0,1-22.306-45.681A65.30471,65.30471,0,0,0,340.35,518.20934c-.936,3.05194-2.515,6.96529-.936,7.488l.936,1.872,1.872-1.872-.936-2.8085c5.78338,3.7337,6.59864,8.46672,12.168,10.296l-2.808,4.68h4.68c-2.66223,8.4731,5.65724,11.89464,8.424,20.592l-3.744,1.872,10.296,19.65605,4.68,1.87151.936-2.80751-2.8085-12.168,1.8725.936c4.18428.5615,6.56036,4.64713,11.23154,7.488l-1.87152,3.744,5.61553-1.872v5.616c13.30527,1.55,17.48709,9.7144,27.14455,12.16754-1.28694,4.08464,1.98294,2.034,2.80752,10.29651l2.8085-.936.93551-2.808c-1.29529-6.80282-4.066-3.11428-.93551-7.488h.93551c1.67077,2.73979,1.83372,2.29215,4.6805,3.744l-3.7445,9.36,5.616-4.68,3.744,4.68c-3.59971,1.392-3.32043.70875-.936,3.744,3.691-3.94525,2.97195.11779,8.42451-.936v-.936l-2.80849-7.488c4.57252-.07215,3.29539-.28075,6.552-4.6805-.55119-4.48515-2.15717-2.13263,0-5.61552h.936l4.6805,2.808c2.13361-1.9039,1.59812-2.3643,4.67952-3.744l4.68,1.872-5.616,6.552c4.66234,9.22112,10.4629,10.80452,13.104,19.656h-.936l-9.36-2.808,1.872,2.808,13.104,4.68c-1.713-3.26006-.79023-2.51646-4.68-3.7445l2.808-2.80752c5.82216,4.02476,15.22243,6.86074,23.39956,10.296l-.93551-2.808c5.38385.91686,6.12353,1.77826,8.424,5.616v.93551l-5.616.9365.936-4.68-4.68,3.74351c5.0923,4.83364,9.53868,7.20727,8.424,15.91253,1.67077-2.43841,1.4975-1.5083.936-4.6805l3.744-4.67952c1.98342,4.897,9.33843,4.96027,15.912,4.67952v-.936c-.84225-4.063-1.70512-1.04546.93551-4.68-4.74038-.60175-5.15415-1.06607-7.488-3.744,2.24111-1.6531,2.45511-1.15442,4.68051-4.68l11.232,3.7445c-.49573-7.58177-2.97194-6.85584,0-10.29652,2.542,2.88409,3.319,2.50713,5.616-1.872l5.616,2.80849-2.8085-3.744,6.55251.93552.93551,1.872L537.846,631.46513h3.744l2.80752-1.872h-1.872l.9365-1.87249a17.73439,17.73439,0,0,0,8.14179,1.26583v-5.68571a9.07619,9.07619,0,0,1-3.46227-3.06765c.856-3.395,2.09582-5.9537.93649-9.36.97969.20909,1.79249.39462,2.52578.51831V601.758a26.15651,26.15651,0,0,1-5.33428-9.60494,24.70226,24.70226,0,0,0,5.33428,1.69825V491.39756a13.11227,13.11227,0,0,1-1.59027-1.26829l1.59027-.26505v-5.351h-7.20628v-7.488l5.616-1.872,1.59027,2.65V263.1946l-1.59027-2.38541,1.59027.79514V232.11559c-.99637-.04024-2.10956-.15608-3.46227-.322-.669-3.91481.82458-3.34251-2.80752-2.80751l3.744-6.55251,2.52578,5.05156v-6.86123c-15.50711.81035-23.71173-.06823-44.64588-.06234l2.808,5.616-4.68,1.872c-4.23189-1.93974-4.38453-2.752-6.552-6.5525,7.16506-.67292,9.09989-2.95379,12.168-7.48753-4.18231-1.45284-5.40348-2.07864-10.296-3.7445l4.68-4.68,3.74352.93649v5.61552c4.25152.375,3.81567,1.0808,6.55251-.93551,1.93384-1.83765.96839-.35094,1.872-3.744l-3.42792-6.85583c3.29442-.52519,6.61975-.95515,9.95883-1.34192-.053.5188.32984.746,1.89311,1.64574,2.50468,2.72653,4.867,2.40651,8.424,1.87151q-.93649,3.27625-1.872,6.55251c5.92278-4.42626,6.90492-4.1298,15.91155-5.616l-2.80752,4.68c3.20558-.0908,4.91708-.31118,6.26979-.05791V192.7927c-132.11032,0-239.20724,107.09692-239.20724,239.20724S419.49352,671.2062,551.60384,671.2062v-3.59038C551.433,667.61631,551.26517,667.62564,551.09437,667.62564Zm-3.88831-420.856,1.872-2.808q.4675,2.33976.93551,4.68h-.93551l-1.872-.93649Zm-45.86412-34.63258,2.808,2.8085h-2.808Zm28.53507-13.508c.89035-.08,1.78758-.134,2.68088-.20369l.60764.60764h-1.872l-1.872,1.8725Q529.64976,199.768,529.877,198.62909Zm-24.45386,3.47258.5988-1.19613.92472.92422.94729.94729h-2.808Zm-1.2732.67538,1.872,1.873h-2.80849ZM362.81409,448.94517l-2.808-2.808c1.96576-3.70033,1.93925-2.78052,1.872-7.48851l5.61552,5.617-.93551,1.87151Zm-2.808-13.104q.46752-1.87151.936-3.744c1.4975,1.85728,1.21675,1.30019,1.872,4.68Zm2.808-88.91972c2.82911,1.178,1.123-.01669,2.808,1.872h-.936Zm2.808,213.40754-.936-2.8085c4.5097,1.417,4.924,2.31522,5.616,7.489Q367.96235,562.66822,365.6221,560.329Zm14.97554-203.112q-.46751-.93576-.93551-1.872h2.80752Zm0-4.67952h-.93551a25.98245,25.98245,0,0,0-4.68-10.29652l-1.8725.9365q-.935,1.87224-1.87151,3.744l-1.872-2.8085c-.614,3.56338-.98313,4.52884-2.808,6.552l4.68-11.23153h4.68c-1.16276-3.88881-.60862-3.44559.93551-8.42451l-4.67952,3.7445q-.46824-2.808-.936-5.61651c8.66649-1.20252,8.19235-.20271,11.23154,3.7445l1.87249-.936q.46752-1.40474.936-2.8085l-5.616-6.55152c2.91255-1.8887,3.65959-1.77875,5.616-4.68051,2.79868,1.981,2.995,5.74756,2.80751,12.16852h3.744C383.82236,339.4167,383.69524,336.644,380.59764,352.53742Zm.9365-53.35164v.93551q-.46825.935-.9365,1.872l-2.80751-2.80751Zm-.9365-.93649v-3.744l2.8085-2.808C384.04225,295.04911,383.3546,295.91983,380.59764,298.24929Zm12.16852,14.04052q.46752-1.40473.936-2.8085h2.808Zm5.616-3.7445h-3.744q-.46825-.93576-.936-1.87249l1.87151-1.872,3.744,1.872Q398.84945,307.6093,398.38218,308.54531Zm7.488,9.35953v-4.67952l1.872,2.808Zm14.03954,277.05571q-.46751-1.87152-.93551-3.74352l.93551-1.87152C422.65787,592.71453,422.98034,591.59153,419.90974,594.96055Zm-.93551-88.91875.93551-2.8085,3.744,3.74352Zm-.93649-3.745-2.808-1.872v-5.61552c-3.15944,2.26221-.67292,1.44842-4.68,1.872q-.46752-2.808-.93551-5.616a48.99971,48.99971,0,0,0,13.104,1.87151l.93551.9365Zm-9.36-201.239v-1.872c2.49094,2.29853,1.43125,1.27565,1.872,3.74352Zm17.78454,148.8229,5.616,1.872-.93649,1.8725h-.936Zm4.67952,13.104.93649-1.872,1.87152,2.80849Zm0-163.79893c-.187-1.8509-9.10087,1.27369-14.976,0v-.93649l2.8085-2.80752c5.30974-.04908,5.99-.25621,8.42353-2.8085l7.488,4.68Zm-2.80752-32.76008v-2.808l1.87152,1.872Zm.93551,26.20757v-3.744C430.47719,291.951,431.024,289.93177,429.26976,292.63327Zm6.55251,307.94427h1.872C436.06081,601.49146,437.48813,601.43059,435.82227,600.57754Zm3.74352-129.16832-.936-1.872h2.80849Zm.936-7.488v-.93649l.93649-2.80752,3.74352-2.80751c1.63788,2.04772,1.64083,2.514,1.8725,6.55152Zm1.872-186.264h1.872C442.61234,278.57213,444.04015,278.51127,442.3738,277.65723Zm3.744,166.60842v-1.8725h1.872Zm.93649-23.40055-1.8725-.93551-.936-2.8085,4.68.93649Zm1.87151-109.51178q-.46751-1.40327-.936-2.808l1.872,1.8725Zm1.8725-26.20807c2.82911,1.17847,1.123-.01669,2.80751,1.872h-.936ZM457.34983,590.281c-1.35369-3.73322-.07853-.5831-2.808-2.8085l1.87249-2.80752,4.67952.936Zm4.68-9.36h-3.744l-1.87152-2.80751,5.61552,1.87151Zm1.872-91.72822h-.936q-.46825-1.87152-.936-3.744h2.808Q464.36961,487.321,463.90185,489.19278Zm-6.552-25.27158c-.25081-7.72656.98018-11.0514,6.552-13.104v-.93649l-12.168-.93551,1.872-3.744c10.38291,1.64622,16.45342,7.15033,23.40006,12.16852-1.41406,4.43509-1.83715,7.16751-5.616,9.35953C465.70661,469.37328,460.50387,466.529,457.34983,463.9212Zm5.616-167.54392h-3.744l-1.872-1.872,1.872-2.808,3.744,3.7445Zm2.80849,147.88837h-2.80849v-2.8085Zm2.80752.93551h3.744v2.808C469.57873,447.15169,467.36511,447.78829,468.58186,445.20116Zm3.744-152.56789v-3.744l2.808.936Zm-.936,248.04012-1.872-2.80849,3.744.93649Zm0-2.80849.936-1.872,1.872,1.872Zm4.68-1.872h1.872C476.30842,536.9073,477.73574,536.84643,476.06988,535.99289Zm0-46.80011,2.808,4.6805C476.8071,491.94237,477.11632,492.57946,476.06988,489.19278Zm.936-187.19949,1.872-.93551c1.4975,1.8563,1.21675,1.29971,1.872,4.67952Zm4.68,2.80752.936-2.80752h1.87151Zm5.616,188.136-1.872-1.87151,3.744-4.68q.93576,3.27552,1.872,6.55152Zm4.68,90.79174.936-1.872,1.872,1.872Zm5.616-276.11921-2.808.936c-1.67077-2.43351-1.498-1.50781-.9365-4.68l3.7445,2.80752Zm17.784,321.04781c-5.1193.13939-4.40466.187-11.232,3.74352l-1.872-1.872.93552-3.74351,8.42451-2.808,4.68,1.872ZM504.15,557.52045l2.808,1.873v.93551h-.936Zm12.168-190.007,7.48753,1.872,2.80849,7.488c-5.31366.19338-7.76877,5.40889-12.16852,4.67952q-.935-3.74376-1.872-7.48753l4.6805.93551C515.76678,371.81848,515.71132,371.55883,516.318,367.51346Zm2.808-14.976V349.7299l1.872,3.743Zm5.616,9.35953v-1.87151h2.80752v.93649Zm1.872,206.856-1.872,1.87152V568.753Zm-8.42451,37.4396,4.6805,4.68051-7.488,1.872v-.93649Zm-.93551-88.91973h3.744l.93551,2.808v.93649h-3.744C516.03674,517.81668,516.50989,520.79991,517.254,517.27284ZM513.51,406.82555l-1.872,2.80752h-.936v-2.80752Zm0,211.53554.93551-1.872,2.8085,1.872-.936,2.80752Zm12.168,9.35954c-2.72653-3.76512-3.67873-2.25191-8.424-.93551v-3.744h1.872l-.9365-1.8725H522.87l-1.872-2.80752h3.744l3.744,6.55153Zm8.424-95.47126-2.8085-3.7445,4.68051,1.872Zm6.55153,80.49571c3.92021,1.21037,2.93464.51733,4.6805,3.744C542.46322,615.09073,542.32431,615.44511,540.65355,612.74508Zm6.55251,9.36,1.872,1.872h-2.8085Zm-2.8085-398.736v3.744l-1.872.93649q-.4675-2.33976-.93551-4.6805Zm-3.744,217.152-1.872,1.872H537.846q-.9365-3.27552-1.872-6.552Zm-1.872,42.11961,3.744.93649-2.80751,5.61553,2.80751.93649c1.88281-2.12429,2.95869-2.22785,6.55251-2.8085v.93649c-3.37835,1.54414-2.19889.25671-3.744,3.744l2.80752-.936q-.93576,4.212-1.872,8.424c-4.18182-2.406-12.50915-2.98814-17.78355-4.68v-.936C530.55434,491.51241,537.81364,486.05052,538.78154,482.64076Zm-3.744-193.7515-.93551.936-.93649-2.808Zm-3.744,5.616c-3.744-.41131-1.96526.92864-4.67952-1.872-3.21441-1.80721-3.46325-2.783-4.6805-6.55152l5.616,1.872-.93552-4.6805h2.80752C528.39226,288.55943,533.06638,288.85049,531.29352,294.50528Zm-9.36-28.07958c3.43725,1.685,3.21834.70728,4.6805,4.68h-.936C521.78331,269.10609,521.84025,270.28309,521.9335,266.4257ZM507.894,257.06518l3.744,1.872-.936,1.872h-2.808Zm-5.616,5.616c2.64457.10994.89625.589,1.872-1.872l5.616.9365-4.68,4.68-3.744-.936Zm7.488,16.84853-1.872-2.808C509.80523,278.40623,508.55559,276.73547,509.766,279.52973Zm-6.5525-.93649,2.80849.93649-2.80849,2.808-1.87152-.9365Zm-3.744,12.168v4.6805c5.57576-1.6634,9.47487-.09424,13.104-7.488-4.51559,2.27252-5.46877,3.30669-9.36,1.87151l4.6805-5.616,4.67952-1.87151v-9.36c7.49489,1.4715,3.96733-.14724,8.42451,0v7.48753c-2.1341,3.04557-5.17918,3.72143-7.488,6.552,3.50989-.24541,2.89194-.87073,5.616.93649-2.808,3.55652-2.50517,3.369-3.744,7.488l7.488.93551c-2.18318,5.25673-1.27957,4.61571-.93649,8.42353H520.062c-3.00385.58016-6.04058-1.1338-9.36-2.80752q-.46824,2.808-.936,5.616l5.616-.93649q-.46826,3.27624-.9365,6.5525c6.09408.60715,5.47319,1.26044,7.488,5.616v.93551H520.998c-5.67884-1.59027-6.19715-1.75715-11.232-4.67952q.93576-3.27625,1.872-6.552l-2.8085.936c-.06332,3.55161,1.87249,1.872-1.87151,3.744.37449-7.39427-.133-11.70027-3.7445-14.976l-7.48753,1.872c.8825-5.68129,3.65026-4.03065,0-7.488-.60028,6.421-1.03711,2.9263-4.68,4.68l1.872,2.808-3.744-.93551-.936-2.8085,1.872.936c-2.59106-1.77825-1.46216-.98557-5.6165,0a65.36651,65.36651,0,0,0-2.80752-10.296c-4.815,1.00815-5.5738-2.516-12.168-4.67952l3.744,4.67952-3.744,1.872c1.02239,3.744,1.49751,3.55652,1.872,5.616l-7.488,1.872q.46751-3.74376.936-7.488h-5.616l-3.744-6.55152q.9365-3.27625,1.872-6.55251h.936l22.464,4.68c.54727,2.91108,4.97549,8.94724,7.488,13.10354C493.76018,290.68568,494.41543,290.38039,499.46945,290.76127Zm-44.92762-38.37561v-3.744h7.488q-.46751,1.87152-.936,3.744Zm9.36.93551,1.87249,3.744h-.93649Q464.36961,255.19368,463.90185,253.32117Zm19.656-27.14357,2.808,1.872C483.65115,227.55289,481.77915,228.79271,483.5579,226.1776Zm3.744,59.90415h-.936l-1.87249-1.8725.93649-1.87151Zm5.616,2.80751-2.808-3.744h2.808ZM348.03831,314.38858q2.61216-4.47633,5.41576-8.82061V303.8653l.55659.8344c.28124-.43291.55169-.87367.83588-1.30412l3.28705.46972v-3.744l-.94239-.2356a235.91914,235.91914,0,0,1,94.51415-80.21,62.15038,62.15038,0,0,1,9.38849-2.85808q.14136-.70678.28272-1.4121c.97134-.402,1.96035-.76961,2.93807-1.15932l9.88324,9.123,14.976-5.61552.936.93551-.936,1.87249-12.168,4.67952,1.872,2.8085-3.744-2.8085c-2.52726,2.05312-1.77826.66654-2.808,4.68-.57377,4.00709-.87956,3.8672,1.872,6.552l4.68-.93551q-.93576,4.212-1.872,8.424l-12.168-4.68c4.04538-.97183,2.621-.32983,4.68-2.8085-1.91127-1.68451-.66163-.01374-1.872-2.80751l-5.616.93551q-.46751,2.34123-.936,4.6805l6.552,5.616-5.616,1.872.936-2.808-11.232,2.808q.9365,4.21128,1.872,8.424c-5.67491.25474-5.90609.69942-8.424,3.74352l-4.68-3.74352q-.46824,2.339-.936,4.67952c-9.519-.55316-12.84439-.06822-14.976,4.68-3.41368-1.79887-.63562-2.6534-3.74352-.93551-4.41545,1.84943-3.81468,3.45835-6.5525,6.55153-5.65136-.69207-.10308-2.22737-5.616-.9365q-.46824,3.74451-.93551,7.489h-16.848l-6.552,14.03955c-4.57694-.53991-5.03586-.65525-8.424.936q-.46824,3.74376-.936,7.48851h-4.68l2.80751,4.67952-2.80751,1.872-4.68-.93649q-.46752,4.21275-.936,8.42451c-4.96125-2.22834-4.92984-3.19527-8.424.936,2.44873.90607,1.13332-.374,1.87152,3.74352-5.9537-.21792-6.87449,1.6104-9.35953,2.8085q.93574,2.808,1.872,5.616h-.936l-2.808-1.872c1.41308-4.64664,2.23669-6.31691,4.68-9.36Zm127.09557-81.65946-1.872-.93551V228.9861C475.19572,230.82276,474.23027,229.33654,475.13388,232.72912Z"/>
      <path class="cls-1" d="M355.32607,306.67282l-1.31541-1.97312c-.18749.28861-.37057.57917-.55659.86827v1.10485Z"/>
      <path class="cls-1" d="M464.83785,232.72912l2.808-2.808c2.93758-1.661,1.38167-.94386,1.872-2.808l-5.616,3.7445Z"/>
      <path class="cls-1" d="M528.486,205.58506c-2.02416,3.29147-1.44008.84274-1.872,4.68l1.872-1.87152c1.94857-2.22785.81771.14971.93551-2.80849Z"/>
      <path class="cls-1" d="M503.21346,226.1776l3.7445-.9365-2.808-2.80751Q503.6817,224.30584,503.21346,226.1776Z"/>
      <path class="cls-1" d="M461.09384,224.30559l3.744,2.80752C463.04536,224.84452,464.23708,225.60088,461.09384,224.30559Z"/>
      <path class="cls-1" d="M353.45407,303.8653V305.568c.186-.2891.3691-.57966.55659-.86827Z"/>
      <path class="cls-2" d="M506.022,200.90554l-.5988,1.19613c.50506-.09914,1.018-.17522,1.52352-.27191Z"/>
      <path class="cls-2" d="M551.60384,491.39756v-1.53334l-1.59027.26505A13.11227,13.11227,0,0,0,551.60384,491.39756Z"/>
      <polygon class="cls-2" points="544.398 477.025 544.398 484.513 551.604 484.513 551.604 477.803 550.014 475.153 544.398 477.025"/>
      <polygon class="cls-2" points="551.604 263.195 551.604 261.604 550.014 260.809 551.604 263.195"/>
      <path class="cls-2" d="M550.01357,248.64165q-.46824-2.3405-.93551-4.68l-1.872,2.808v.93551l1.872.93649Z"/>
      <polygon class="cls-2" points="501.342 212.137 501.342 214.946 504.15 214.946 501.342 212.137"/>
      <polygon class="cls-2" points="471.39 537.865 474.198 537.865 472.326 535.993 471.39 537.865"/>
      <polygon class="cls-2" points="504.15 202.777 503.213 204.65 506.022 204.65 504.15 202.777"/>
      <path class="cls-2" d="M454.54183,587.47253c2.72947,2.2254,1.45431-.92472,2.808,2.8085l3.744-4.68-4.67952-.936Z"/>
      <polygon class="cls-2" points="471.39 540.673 473.262 538.801 469.518 537.865 471.39 540.673"/>
      <path class="cls-2" d="M473.26187,231.79361l1.872.93551c-.90361-3.39258.06184-1.90636-1.872-3.743Z"/>
      <path class="cls-2" d="M462.96585,489.19278h.936q.46751-1.87152.936-3.744h-2.808Q462.49736,487.321,462.96585,489.19278Z"/>
      <polygon class="cls-2" points="458.286 580.921 462.03 580.921 462.03 579.985 456.414 578.113 458.286 580.921"/>
      <path class="cls-2" d="M551.60384,601.758v-7.90669a24.70226,24.70226,0,0,1-5.33428-1.69825A26.15651,26.15651,0,0,0,551.60384,601.758Z"/>
      <path class="cls-2" d="M548.14157,620.2331a9.07619,9.07619,0,0,0,3.46227,3.06765V611.39139c-.73329-.12369-1.54609-.30922-2.52578-.51831C550.23739,614.2794,548.99756,616.83807,548.14157,620.2331Z"/>
      <path class="cls-2" d="M543.46205,627.72063l-.9365,1.87249h1.872l-2.80752,1.872h-3.744l8.42353-10.29652-.93551-1.872-6.55251-.93552,2.8085,3.744-5.616-2.80849c-2.29706,4.37913-3.074,4.75609-5.616,1.872-2.97194,3.44068-.49573,2.71475,0,10.29652l-11.232-3.7445c-2.2254,3.52559-2.4394,3.02691-4.68051,4.68,2.33387,2.67794,2.74764,3.14226,7.488,3.744-2.64063,3.63455-1.77776.617-.93551,4.68v.936c-6.57361.28075-13.92862.21744-15.912-4.67952l-3.744,4.67952c.5615,3.1722.73477,2.24209-.936,4.6805,1.11466-8.70526-3.33172-11.07889-8.424-15.91253l4.68-3.74351-.936,4.68,5.616-.9365v-.93551c-2.30049-3.83775-3.04017-4.69915-8.424-5.616l.93551,2.808c-8.17713-3.43529-17.5774-6.27127-23.39956-10.296l-2.808,2.80752c3.88978,1.228,2.967.48444,4.68,3.7445l-13.104-4.68-1.872-2.808,9.36,2.808h.936c-2.64113-8.85152-8.44169-10.43492-13.104-19.656l5.616-6.552-4.68-1.872c-3.0814,1.3797-2.54591,1.8401-4.67952,3.744l-4.6805-2.808h-.936c-2.15717,3.48289-.55119,1.13037,0,5.61552-3.25662,4.39975-1.97949,4.60835-6.552,4.6805l2.80849,7.488v.936c-5.45256,1.0538-4.73351-3.00924-8.42451.936-2.38442-3.03526-2.6637-2.352.936-3.744l-3.744-4.68-5.616,4.68,3.7445-9.36c-2.84678-1.45186-3.00973-1.00422-4.6805-3.744h-.93551c-3.13048,4.37374-.35978.6852.93551,7.488l-.93551,2.808-2.8085.936c-.82458-8.26254-4.09446-6.21187-2.80752-10.29651-9.65746-2.45314-13.83928-10.61752-27.14455-12.16754v-5.616l-5.61553,1.872,1.87152-3.744c-4.67118-2.84089-7.04726-6.92652-11.23154-7.488l-1.8725-.936,2.8085,12.168-.936,2.80751-4.68-1.87151-10.296-19.65605,3.744-1.872c-2.76678-8.69741-11.08625-12.119-8.424-20.592h-4.68l2.808-4.68c-5.56939-1.8293-6.38465-6.56232-12.168-10.296l.936,2.8085-1.872,1.872-.936-1.872c-1.579-.52273,0-4.43608.936-7.488a65.30471,65.30471,0,0,1-10.46536-6.17457,233.906,233.906,0,0,0,22.306,45.681l3.13539,2.61315-.49966,1.499q5.21772,7.9094,11.05631,15.34906h.67538l.93551,1.872h-.13939a234.50562,234.50562,0,0,0,183.74015,88.57664c.1708,0,.33867-.00933.50947-.00982v-3.75137l-2.52578.36076v-6.552l-17.78454,3.744c-1.32228-4.11409-2.59744-6.27961-1.872-10.296H525.678l-2.808-2.808,4.67953-3.744,18.72,11.232a11.20192,11.20192,0,0,1,5.33428-4.96224V628.98646A17.73439,17.73439,0,0,1,543.46205,627.72063ZM391.82967,603.38457l.93649-1.87152,8.42353,1.87152C397.6479,607.2557,397.4663,604.78882,391.82967,603.38457Zm3.744-5.61553.93649-1.872,5.616,4.6805-.9365,1.87152Zm6.55251,11.232.93551-1.872.93649,1.872Zm7.488-9.36-2.8085.93649V597.769h2.8085Zm35.56759,8.42353q-.46751-2.808-.936-5.61552l3.744.93551,1.872,2.808Zm27.14407,32.76008v3.7445h-3.744q-.46824-2.3405-.936-4.68Zm-3.744,7.48851,4.68,4.68C469.85113,651.22474,470.06071,652.33793,468.58186,648.31317Zm21.52805-6.55251-2.808-.936,2.808-3.74352,3.74352,1.87151C489.7094,640.23027,491.94805,638.27139,490.10991,641.76066Zm4.68,1.872,3.744.93649-2.808,1.872Zm14.976,14.976-10.29651-2.80751c-2.03153-1.88624-.77256-.269-.93552-4.68l12.168,1.872,1.87152,1.87151C509.85922,658.13408,510.405,654.36553,509.766,658.6087Zm10.296,0-.936-2.80751,2.80751.93551Zm6.552-20.592h-.936c-.96447-3.22717-1.2835-.587.936-3.744h.93552Zm10.29554-12.16754q-.935,2.33976-1.872,4.67952c-3.00581-2.71426-2.31374-2.40209-.93551-6.55152l2.80752.93551Zm11.232,24.33606-1.872-.93649,1.872-3.744h2.80849C549.90363,648.89136,550.21186,648.25427,548.14157,650.18517Z"/>
      <path class="cls-2" d="M545.33405,208.39355l2.80752-4.68c-9.00663,1.48622-9.98877,1.18976-15.91155,5.616q.93576-3.27625,1.872-6.55251c-3.557.535-5.91934.855-8.424-1.87151-1.56327-.89969-1.94612-1.12694-1.89311-1.64574-3.33908.38677-6.66441.81673-9.95883,1.34192l3.42792,6.85583c-.90361,3.39307.06184,1.90636-1.872,3.744-2.73684,2.01631-2.301,1.3105-6.55251.93551v-5.61552l-3.74352-.93649-4.68,4.68c4.89254,1.66586,6.11371,2.29166,10.296,3.7445-3.06814,4.53374-5.003,6.81461-12.168,7.48753,2.16749,3.80045,2.32013,4.61276,6.552,6.5525l4.68-1.872-2.808-5.616c20.93415-.00589,29.13877.87269,44.64588.06234V208.33564C550.25113,208.08237,548.53963,208.30275,545.33405,208.39355ZM503.21346,226.1776q.46824-1.87152.93649-3.744l2.808,2.80751ZM528.486,208.39355l-1.872,1.87152c.43193-3.83727-.15215-1.38854,1.872-4.68h.93551C529.30372,208.54326,530.43458,206.1657,528.486,208.39355Zm14.976,4.68-4.68051-.9365v-2.80751l6.55251,1.872Z"/>
      <path class="cls-2" d="M533.16553,199.033l-.60764-.60764c-.8933.0697-1.79053.12369-2.68088.20369q-.22751,1.139-.45549,2.27645l1.872-1.8725Z"/>
      <path class="cls-2" d="M506.94667,201.82976c-.50555.09669-1.01846.17277-1.52352.27191l-.3372.67538h2.808Z"/>
      <path class="cls-2" d="M349.71006,326.32935h.936q-.93576-2.808-1.872-5.616c2.485-1.1981,3.40583-3.02642,9.35953-2.8085-.7382-4.11752.57721-2.83745-1.87152-3.74352,3.49418-4.13127,3.46277-3.16434,8.424-.936q.46826-4.21127.936-8.42451l4.68.93649,2.80751-1.872-2.80751-4.67952h4.68q.4675-3.7445.936-7.48851c3.38816-1.59125,3.84708-1.47591,8.424-.936l6.552-14.03955h16.848q.4675-3.7445.93551-7.489c5.51294-1.29087-.03534.24443,5.616.9365,2.73782-3.09318,2.13705-4.7021,6.5525-6.55153,3.1079-1.71789.32984-.86336,3.74352.93551,2.13165-4.74823,5.457-5.23317,14.976-4.68q.46824-2.33976.936-4.67952l4.68,3.74352c2.51793-3.0441,2.74911-3.48878,8.424-3.74352q-.93649-4.212-1.872-8.424l11.232-2.808-.936,2.808,5.616-1.872-6.552-5.616q.46825-2.34123.936-4.6805l5.616-.93551c1.21037,2.79377-.03927,1.123,1.872,2.80751-2.059,2.47867-.63463,1.83667-4.68,2.8085l12.168,4.68q.93576-4.212,1.872-8.424l-4.68.93551c-2.75156-2.68481-2.44577-2.54492-1.872-6.552,1.02975-4.01348.28075-2.6269,2.808-4.68l3.744,2.8085-1.872-2.8085,12.168-4.67952.936-1.87249-.936-.93551-14.976,5.61552-9.88324-9.123c-.97772.38971-1.96673.75734-2.93807,1.15932q-.14136.706-.28272,1.4121a62.15038,62.15038,0,0,0-9.38849,2.85808,235.91914,235.91914,0,0,0-94.51415,80.21l.94239.2356v3.744l-3.28705-.46972c-.28419.43045-.55464.87121-.83588,1.30412l1.31541,1.97312h-1.872V305.568q-2.80065,4.34748-5.41576,8.82061l3.54375.70875c-2.44332,3.04311-3.26693,4.71338-4.68,9.36Zm117.9358-96.40823-2.808,2.808-.936-1.87151,5.616-3.7445C469.02753,228.97726,470.58344,228.26017,467.64586,229.92112Zm-2.808-2.808-3.744-2.80752C464.23708,225.60088,463.04536,224.84452,464.83785,227.11311Zm-3.744-.93551v4.68h-.936q-.93576-2.3405-1.872-4.68Zm-51.47963,36.5036,2.80751.93649.9365,1.872-4.68051-.9365Zm-11.232-3.744h.93551l1.872,1.872-3.744,2.8085-.93551-2.8085Zm.93551,12.16852q-.46824,1.40327-.93551,2.80752l-1.872.93649q-.46824-2.34123-.93649-4.6805Zm-36.5036,21.52756c3.02593.99049-.11534,3.11085-1.872,4.68v1.8725h-.936Z"/>
      <path class="cls-2" d="M520.998,618.36109l1.872,2.80752h-4.6805l.9365,1.8725h-1.872v3.744c4.74529-1.3164,5.69749-2.82961,8.424.93551l2.808-2.808-3.744-6.55153Z"/>
      <polygon class="cls-2" points="526.614 568.753 524.742 568.753 524.742 570.624 526.614 568.753"/>
      <polygon class="cls-2" points="514.445 616.489 513.51 618.361 516.318 621.169 517.254 618.361 514.445 616.489"/>
      <path class="cls-2" d="M521.9335,521.01734v-.93649l-.93551-2.808h-3.744c-.74409,3.52707-1.21724.54384.93551,3.7445Z"/>
      <polygon class="cls-2" points="515.382 612.745 522.87 610.873 518.189 606.193 515.382 611.809 515.382 612.745"/>
      <path class="cls-2" d="M477.94188,535.99289h-1.872C477.73574,536.84643,476.30842,536.9073,477.94188,535.99289Z"/>
      <polygon class="cls-2" points="549.078 623.977 547.206 622.105 546.27 623.977 549.078 623.977"/>
      <path class="cls-2" d="M540.65355,612.74508c1.67076,2.7,1.80967,2.34565,4.6805,3.744C543.58819,613.26241,544.57376,613.95545,540.65355,612.74508Z"/>
      <polygon class="cls-2" points="534.102 532.249 535.974 530.377 531.294 528.505 534.102 532.249"/>
      <polygon class="cls-2" points="510.702 409.633 511.638 409.633 513.51 406.826 510.702 406.826 510.702 409.633"/>
      <polygon class="cls-2" points="481.686 304.801 484.493 301.993 482.622 301.993 481.686 304.801"/>
      <path class="cls-2" d="M485.4299,491.06527l1.872,1.87151h3.744q-.9365-3.27551-1.872-6.55152Z"/>
      <path class="cls-2" d="M477.00588,301.99329l3.744,3.744c-.65525-3.37981-.3745-2.82322-1.872-4.67952Z"/>
      <polygon class="cls-2" points="491.982 583.729 494.79 583.729 492.918 581.857 491.982 583.729"/>
      <polygon class="cls-2" points="527.55 360.025 524.742 360.025 524.742 361.897 527.55 360.962 527.55 360.025"/>
      <path class="cls-2" d="M478.87789,493.87328l-2.808-4.6805C477.11632,492.57946,476.8071,491.94237,478.87789,493.87328Z"/>
      <polygon class="cls-2" points="519.126 352.537 520.998 353.473 519.126 349.73 519.126 352.537"/>
      <path class="cls-2" d="M514.44548,381.553c4.39975.72937,6.85486-4.48614,12.16852-4.67952l-2.80849-7.488-7.48753-1.872c-.60666,4.04537-.5512,4.305.936,7.48752l-4.6805-.93551Q513.51,377.80925,514.44548,381.553Z"/>
      <path class="cls-2" d="M494.78993,308.54531l2.808-.936v-.93649l-3.7445-2.80752C493.29193,307.0375,493.11916,306.1118,494.78993,308.54531Z"/>
      <polygon class="cls-2" points="506.958 559.393 504.15 557.52 506.022 560.329 506.958 560.329 506.958 559.393"/>
      <path class="cls-2" d="M503.21346,626.78512l-.93552,3.74351,1.872,1.872c6.82737-3.55652,6.11273-3.60413,11.232-3.74352l.936-2.808-4.68-1.872Z"/>
      <path class="cls-2" d="M472.32587,445.20116h-3.744c-1.21675,2.58713.99687,1.95053,3.744,2.808Z"/>
      <polygon class="cls-2" points="462.966 444.266 465.774 444.266 462.966 441.457 462.966 444.266"/>
      <polygon class="cls-2" points="472.326 292.633 475.134 289.825 472.326 288.889 472.326 292.633"/>
      <path class="cls-2" d="M463.90185,253.32117q.46751,1.873.936,3.744h.93649Z"/>
      <polygon class="cls-2" points="457.35 294.505 459.222 296.377 462.966 296.377 462.966 295.442 459.222 291.697 457.35 294.505"/>
      <path class="cls-2" d="M480.74989,280.46524l-22.464-4.68h-.936q-.93574,3.27625-1.872,6.55251l3.744,6.55152h5.616q-.46824,3.74451-.936,7.488l7.488-1.872c-.3745-2.0595-.84962-1.872-1.872-5.616l3.744-1.872-3.744-4.67952c6.59423,2.16355,7.353,5.68767,12.168,4.67952a65.36651,65.36651,0,0,1,2.80752,10.296c4.15434-.98557,3.02544-1.77825,5.6165,0l-1.872-.936.936,2.8085,3.744.93551-1.872-2.808c3.6429-1.75371,4.07973,1.741,4.68-4.68,3.65026,3.45737.8825,1.80673,0,7.488l7.48753-1.872c3.61148,3.27576,4.119,7.58176,3.7445,14.976,3.744-1.872,1.80819-.1924,1.87151-3.744l2.8085-.936q-.93649,3.27552-1.872,6.552c5.03488,2.92237,5.55319,3.08925,11.232,4.67952h.93551v-.93551c-2.01483-4.35558-1.39394-5.00887-7.488-5.616q.46826-3.27552.9365-6.5525l-5.616.93649q.46825-2.808.936-5.616c3.31945,1.67372,6.35618,3.38768,9.36,2.80752h1.87151c-.34308-3.80782-1.24669-3.1668.93649-8.42353l-7.488-.93551c1.23884-4.119.936-3.9315,3.744-7.488-2.72408-1.80722-2.10613-1.1819-5.616-.93649,2.30884-2.83059,5.35392-3.50645,7.488-6.552v-7.48753c-4.45718-.14724-.92962,1.4715-8.42451,0v9.36l-4.67952,1.87151-4.6805,5.616c3.89125,1.43518,4.84443.401,9.36-1.87151-3.62916,7.39378-7.52827,5.82462-13.104,7.488v-4.6805c-5.054-.38088-5.70927-.07559-11.23154,2.80751C485.72538,289.41248,481.29716,283.37632,480.74989,280.46524Zm-17.784,5.61651c2.79377,1.21037,1.123-.03927,2.80849,1.872Zm2.80849,7.487v-2.80751l1.87152,1.872Z"/>
      <path class="cls-2" d="M453.60582,287.01726c-1.68451-1.8887.0216-.69354-2.80751-1.872l1.87151,1.872Z"/>
      <polygon class="cls-2" points="445.182 419.93 447.054 420.865 448.926 418.058 444.246 417.121 445.182 419.93"/>
      <path class="cls-2" d="M462.02984,248.64165h-7.488v3.744h6.552Q461.5621,250.51342,462.02984,248.64165Z"/>
      <polygon class="cls-2" points="446.118 444.266 447.99 442.393 446.118 442.393 446.118 444.266"/>
      <path class="cls-2" d="M442.3738,277.65723c1.66635.854.23854.9149,1.872,0Z"/>
      <path class="cls-2" d="M477.00588,457.36968c-6.94664-5.01819-13.01715-10.5223-23.40006-12.16852l-1.872,3.744,12.168.93551v.93649c-5.57184,2.05263-6.80283,5.37747-6.552,13.104,3.154,2.60775,8.35678,5.45208,14.04,2.808C475.16873,464.53719,475.59182,461.80477,477.00588,457.36968Z"/>
      <polygon class="cls-2" points="486.366 286.082 487.302 286.082 485.43 282.338 484.493 284.209 486.366 286.082"/>
      <path class="cls-2" d="M448.92581,311.35332l.936-.93551-1.872-1.8725Q448.45805,309.94931,448.92581,311.35332Z"/>
      <path class="cls-2" d="M538.78154,442.39315l1.872-1.872-4.67952-4.68q.93576,3.27625,1.872,6.552Z"/>
      <path class="cls-2" d="M528.486,493.87328v.936c5.2744,1.69187,13.60173,2.274,17.78355,4.68q.9365-4.212,1.872-8.424l-2.80752.936c1.54512-3.4873.36566-2.19987,3.744-3.744v-.93649c-3.59382.58065-4.6697.68421-6.55251,2.8085l-2.80751-.93649,2.80751-5.61553-3.744-.93649C537.81364,486.05052,530.55434,491.51241,528.486,493.87328Z"/>
      <polygon class="cls-2" points="535.038 288.889 533.166 287.017 534.102 289.825 535.038 288.889"/>
      <path class="cls-2" d="M544.39756,227.11311v-3.744H541.59q.46825,2.34123.93551,4.6805Z"/>
      <path class="cls-2" d="M545.33405,228.9861c3.6321-.535,2.13852-1.1073,2.80752,2.80751,1.35271.1659,2.4659.28174,3.46227.322v-4.63044l-2.52578-5.05156Z"/>
      <path class="cls-2" d="M526.614,283.27325l.93552,4.6805-5.616-1.872c1.21725,3.76855,1.46609,4.74431,4.6805,6.55152,2.71426,2.80065.93552,1.4607,4.67952,1.872,1.77286-5.65479-2.90126-5.94585-1.872-11.232Z"/>
      <path class="cls-2" d="M525.678,271.10571h.936c-1.46216-3.97273-1.24325-2.995-4.6805-4.68C521.84025,270.28309,521.78331,269.10609,525.678,271.10571Z"/>
      <path class="cls-2" d="M486.3659,228.0496l-2.808-1.872C481.77915,228.79271,483.65115,227.55289,486.3659,228.0496Z"/>
      <path class="cls-2" d="M509.766,279.52973c-1.21037-2.79426.03927-1.1235-1.872-2.808Z"/>
      <polygon class="cls-2" points="492.918 288.889 492.918 285.145 490.11 285.145 492.918 288.889"/>
      <polygon class="cls-2" points="506.022 279.53 503.213 278.593 501.342 281.401 503.213 282.338 506.022 279.53"/>
      <path class="cls-2" d="M509.766,261.74569l-5.616-.9365c-.97576,2.461.77256,1.98195-1.872,1.872l-.936,2.8085,3.744.936Z"/>
      <polygon class="cls-2" points="511.638 258.937 507.894 257.065 507.894 260.809 510.702 260.809 511.638 258.937"/>
      <path class="cls-2" d="M429.26976,288.88926v3.744C431.024,289.93177,430.47719,291.951,429.26976,288.88926Z"/>
      <polygon class="cls-2" points="405.87 317.905 407.742 316.033 405.87 313.225 405.87 317.905"/>
      <path class="cls-2" d="M380.59764,301.99329q.46825-.93574.9365-1.872v-.93551h-3.744Z"/>
      <path class="cls-2" d="M362.81409,346.92141l1.872,1.872h.936C363.9371,346.90472,365.6432,348.09938,362.81409,346.92141Z"/>
      <path class="cls-2" d="M385.27815,317.90484c-1.95643,2.90176-2.70347,2.79181-5.616,4.68051l5.616,6.55152q-.46825,1.40474-.936,2.8085l-1.87249.936c-3.03919-3.94721-2.565-4.947-11.23154-3.7445q.4675,2.808.936,5.61651l4.67952-3.7445c-1.54413,4.97892-2.09827,4.5357-.93551,8.42451h-4.68l-4.68,11.23153c1.82488-2.02317,2.194-2.98863,2.808-6.552l1.872,2.8085q.93576-1.87152,1.87151-3.744l1.8725-.9365a25.98245,25.98245,0,0,1,4.68,10.29652h.93551c3.0976-15.89339,3.22472-13.12072,11.232-22.46406h-3.744C388.27316,323.6524,388.07683,319.88581,385.27815,317.90484Z"/>
      <path class="cls-2" d="M392.76616,312.28981l3.744-2.8085h-2.808Q393.23392,310.88606,392.76616,312.28981Z"/>
      <path class="cls-2" d="M393.70217,306.67282q.4675.93648.936,1.87249h3.744q.46751-.93576.93551-1.87249l-3.744-1.872Z"/>
      <path class="cls-2" d="M383.40614,291.69727l-2.8085,2.808v3.744C383.3546,295.91983,384.04225,295.04911,383.40614,291.69727Z"/>
      <path class="cls-2" d="M360.94209,432.09713q-.46825,1.87224-.936,3.744l2.808.936C362.15884,433.39732,362.43959,433.95441,360.94209,432.09713Z"/>
      <path class="cls-2" d="M367.49361,444.26565l-5.61552-5.617c.06724,4.708.09375,3.78818-1.872,7.48851l2.808,2.808,3.744-2.808Z"/>
      <path class="cls-2" d="M409.61421,491.06527q.46824,2.80726.93551,5.616c4.00709-.42358,1.52057.39021,4.68-1.872v5.61552l2.808,1.872,5.616-8.42353-.93551-.9365A48.99971,48.99971,0,0,1,409.61421,491.06527Z"/>
      <polygon class="cls-2" points="432.078 451.753 426.462 449.881 430.206 453.625 431.142 453.625 432.078 451.753"/>
      <polygon class="cls-2" points="431.142 462.985 433.95 463.921 432.078 461.113 431.142 462.985"/>
      <polygon class="cls-2" points="418.974 506.042 423.654 506.977 419.91 503.233 418.974 506.042"/>
      <path class="cls-2" d="M437.69428,600.57754h-1.872C437.48813,601.43059,436.06081,601.49146,437.69428,600.57754Z"/>
      <polygon class="cls-2" points="439.566 471.409 441.438 469.537 438.63 469.537 439.566 471.409"/>
      <path class="cls-2" d="M418.97423,591.217q.46751,1.87224.93551,3.74352c3.0706-3.369,2.74813-2.246,0-5.615Z"/>
      <path class="cls-2" d="M408.67771,299.18578v1.872l1.872,1.87152C410.109,300.46143,411.16865,301.48431,408.67771,299.18578Z"/>
      <path class="cls-2" d="M441.43828,460.17719l-.93649,2.80752v.93649h6.55251c-.23167-4.03752-.23462-4.5038-1.8725-6.55152Z"/>
      <path class="cls-2" d="M380.59764,357.21694l1.872-1.872h-2.80752Q380.12965,356.28142,380.59764,357.21694Z"/>
      <path class="cls-2" d="M364.68609,557.52045l.936,2.8085q2.33976,2.33976,4.68,4.6805C369.61005,559.83567,369.19579,558.93746,364.68609,557.52045Z"/>
      <path class="cls-2" d="M418.97423,295.44177l-2.8085,2.80752v.93649c5.87517,1.27369,14.789-1.8509,14.976,0l3.744-1.8725-7.488-4.68C424.96425,295.18556,424.284,295.39269,418.97423,295.44177Z"/>
      <polygon class="cls-2" points="428.334 266.426 430.206 265.49 428.334 263.618 428.334 266.426"/>
    </g>
  </g>
</svg>
