<svg id="Layer_1" data-name="Layer 1" xmlns="http://www.w3.org/2000/svg" width="12in" height="12in" viewBox="0 0 864 864">
  <defs>
    <style>
      .cls-1 {
        fill: none;
      }

      .cls-2 {
        fill: #fff;
      }
    </style>
  </defs>
  <g>
    <path d="M312.39589,190.78332a2.00926,2.00926,0,0,0-2.01042,2.01042V671.20626a2.00926,2.00926,0,0,0,2.01042,2.01042c133.00951,0,241.21864-108.20913,241.21864-241.21864C553.61453,298.99245,445.4054,190.78332,312.39589,190.78332Z"/>
    <g>
      <path class="cls-1" d="M469.98668,510.72819l.936,4.6805,2.808-.93649c-2.39915-3.65615-2.04895-.54187-.936-4.68h-.936Z"/>
      <polygon class="cls-1" points="473.731 505.113 472.795 507.92 474.667 505.113 473.731 505.113"/>
      <polygon class="cls-1" points="470.923 477.969 469.051 477.969 467.179 481.712 471.859 479.84 470.923 477.969"/>
      <polygon class="cls-1" points="469.987 522.896 473.731 520.088 471.859 520.088 469.987 522.896"/>
      <path class="cls-1" d="M425.99457,546.29628c3.40264-.60273,2.83328-.374,4.68026-1.872h-3.744Z"/>
      <path class="cls-1" d="M451.26663,519.15172l2.808-1.87151v-10.296c-2.66469,3.04017-1.88526,2.55327-3.744,5.616l.936,1.872Z"/>
      <path class="cls-1" d="M446.58662,541.61627h-5.616v-4.68l-2.808,1.872c-.3745,9.43708-10.89851,22.44639-15.912,29.01558l6.552-2.80751,2.808,2.80751c-.95735-4.86211.39438-17.597,10.29627-15.91155.0081-6.88136.33769-8.29395,7.48778-8.42451l-2.808,4.6805,3.744.9365h.936v-5.617c11.14393.854,20.82618-11.56088,25.27206-20.59156l-.936-.936c-2.7734,2.56014-1.845,3.21245-5.616,2.8085l1.872,3.74352h-3.744c-1.872-3.931-3.70842-4.65106-7.488-6.552-1.27394,1.66684-2.31375,3.23355-3.31945,4.654,2.84924-.19928.86729.97968,3.31945-.91l2.808,1.872c1.11466-2.34025-.59905-.92127,1.872-1.872l.936,4.68-6.552,1.87151-2.64407-5.28814c-2.67229,3.71554-5.21673,6.27176-11.39572,6.22464Zm9.36-12.168,6.552,8.42451h-3.744l-2.808-.93649c-.62334-3.905,1.61825-1.43419-1.872-3.744Z"/>
      <polygon class="cls-1" points="458.755 503.24 457.819 505.113 459.691 505.113 458.755 503.24"/>
      <path class="cls-1" d="M456.88265,526.64072l.16393.32689c.08688-.12025.17351-.2302.26063-.35339C457.15947,526.62452,457.05787,526.62158,456.88265,526.64072Z"/>
      <path class="cls-1" d="M450.33063,525.70423h-2.808C449.10283,528.02534,448.08437,526.79975,450.33063,525.70423Z"/>
      <path class="cls-1" d="M467.387,549.521l1.66365,3.3273h-.936l-.80323-3.21343a99.03987,99.03987,0,0,0-4.81278,8.82944l8.424-4.68c1.08472-3.46326,2.54223-6.46662.936-10.29652A46.035,46.035,0,0,0,467.387,549.521Z"/>
      <path class="cls-1" d="M480.2827,542.55227l-.93624,1.872.93624.93552,1.872-.93552q-.46826-.935-.936-1.872Z"/>
      <path class="cls-1" d="M475.60269,535.06425c.05252,4.2476.18725,5.37944,1.872,7.488v-1.872l3.744-5.616Z"/>
      <polygon class="cls-1" points="477.475 519.152 476.539 514.472 472.795 519.152 477.475 519.152"/>
      <polygon class="cls-1" points="462.499 559.4 461.563 563.144 464.371 563.144 466.243 559.4 462.499 559.4"/>
      <path class="cls-1" d="M467.17867,549.10478l.13277.53009c.0243-.03829.05129-.07559.07559-.11387Z"/>
      <path class="cls-1" d="M488.70648,507.91969h-1.87176q-.46788.93723-.93625,1.8725l2.808.936Z"/>
      <polygon class="cls-1" points="481.219 501.368 477.475 501.368 478.411 504.176 481.219 501.368"/>
      <path class="cls-1" d="M480.2827,466.73657q-.46786,2.80728-.93624,5.616l1.87225-.9365Z"/>
      <path class="cls-1" d="M482.15471,521.02471q.46788-.93723.936-1.873.93612-2.80726,1.872-5.615l-3.744-.93649Q481.68659,516.81293,482.15471,521.02471Z"/>
      <path class="cls-1" d="M445.65086,498.56016v-.936c-.78728-2.41584-1.42854-4.90088-2.808-6.55153.12982,3.4078-1.41161,4.17937,1.87176,7.48753Z"/>
      <path class="cls-1" d="M344.56286,600.58392h-2.808l.936,2.808C344.60213,601.70742,343.35273,603.3777,344.56286,600.58392Z"/>
      <path class="cls-1" d="M324.90681,611.81644l-2.80776,1.87151v.9365c2.7469-.85747,4.96076-.22087,3.74376-2.808Z"/>
      <polygon class="cls-1" points="347.371 653 350.179 653 349.243 651.128 348.307 651.128 347.371 653"/>
      <path class="cls-1" d="M330.52282,602.45593c-5.72006,2.4124-6.63815,1.05969-9.36,6.552l3.744,1.872c.80127-1.91618,5.23612-1.49751,10.296-5.616Z"/>
      <polygon class="cls-1" points="449.395 557.528 448.459 561.272 452.203 557.528 449.395 557.528"/>
      <polygon class="cls-1" points="346.435 588.416 345.499 589.352 348.307 591.224 346.435 588.416"/>
      <polygon class="cls-1" points="327.715 654.872 328.651 653 326.779 653 327.715 654.872"/>
      <polygon class="cls-1" points="332.395 643.641 333.331 640.832 332.395 640.832 332.395 643.641"/>
      <polygon class="cls-1" points="331.459 615.56 333.331 614.624 334.267 611.816 332.395 611.816 331.459 610.88 331.459 615.56"/>
      <path class="cls-1" d="M323.97081,653.93605l.936-2.808-1.872-.93551C323.05738,653.05846,322.13439,651.50255,323.97081,653.93605Z"/>
      <polygon class="cls-1" points="351.115 632.408 350.179 634.28 353.923 632.408 351.115 632.408"/>
      <path class="cls-1" d="M419.44255,477.9686l-10.29578-.93649-2.808,3.7445v4.68c7.03768.80152,8.74428,2.38835,8.424,8.424l1.87176-.93649C418.106,487.5814,417.628,481.79605,419.44255,477.9686Zm-8.42377,5.616-1.872-1.87249.93576-1.872,2.80825,1.872Z"/>
      <polygon class="cls-1" points="407.275 463.929 406.339 466.737 408.211 463.929 407.275 463.929"/>
      <polygon class="cls-1" points="418.507 473.288 418.507 472.353 414.763 471.416 415.699 474.225 418.507 473.288"/>
      <polygon class="cls-1" points="425.995 492.008 425.995 491.073 424.123 490.136 423.187 491.073 424.123 492.944 425.995 492.008"/>
      <polygon class="cls-1" points="407.275 518.217 406.339 521.025 410.083 518.217 407.275 518.217"/>
      <polygon class="cls-1" points="316.483 615.56 314.611 618.368 319.291 617.432 319.291 616.496 318.355 615.56 316.483 615.56"/>
      <path class="cls-1" d="M424.12281,521.96022l9.36,10.29553,2.808-4.67952c-2.33166-3.744-1.96575-.9733.93576-5.616-1.85213-2.31375-4.20637-8.1094-1.872-4.68-.2805-6.07494,2.503-9.68348,4.68026-14.04,4.02476,2.46,3.22349,5.082,5.616,0h-4.68025c-.42776-8.89177-2.17141-14.72473-7.48778-18.72-2.17361,6.6168-3.42129,9.23142-4.68025,15.91253,2.86322.61647,1.44646-.92177,2.808,2.80751l-.93575.936-1.87225-.936c-2.05165-2.92237-3.2122-2.192-4.67977-8.42451h-.936a85.82679,85.82679,0,0,1-.93625,18.721c3.60928.78777,3.51774.07166,5.61626,1.872h-12.168l3.74376,4.67952c-2.76947,5.09182-4.49276,3.61738-4.67976,9.36l2.808-.936-.93624-2.808,3.74425,1.872c-3.00384,3.57173-4.93377,5.89677-6.552,11.232-3.716-1.9098-.67513-2.56259-4.68-.93551.53893,5.57724-2.16208,4.74824-5.616,8.42353,10.58807-2.889,22.38724-3.53786,29.01607-10.296C431.20443,535.25126,424.65732,526.90331,424.12281,521.96022Zm5.616-2.8085h1.87176l-1.87176,1.873Zm-6.552,19.65654-1.872-.93551.93576-1.8725c1.91152,1.685.66188.01424,1.87225,2.808Z"/>
      <path class="cls-1" d="M338.01084,652.064l2.808-1.87151.936-2.808V646.448h-2.808C337.73009,649.15641,338.07637,647.36637,338.01084,652.064Z"/>
      <path class="cls-1" d="M372.64293,559.40031l-2.808,4.68h5.61577C373.98705,561.40631,374.38855,560.61756,372.64293,559.40031Z"/>
      <polygon class="cls-1" points="388.555 562.209 384.811 561.272 385.747 564.08 388.555 562.209"/>
      <polygon class="cls-1" points="531.763 504.176 532.699 504.176 534.571 502.305 531.763 500.433 531.763 504.176"/>
      <path class="cls-1" d="M513.97854,547.23228h-.936q-.46788,1.404-.93576,2.808l2.808-.93551Z"/>
      <path class="cls-1" d="M528.01858,500.43266l-.93576-.9365q-.46824,1.87152-.93625,3.744h.93625Q527.5507,501.83691,528.01858,500.43266Z"/>
      <polygon class="cls-1" points="360.475 460.184 362.347 459.249 360.475 457.376 360.475 460.184"/>
      <polygon class="cls-1" points="523.339 427.424 523.339 430.233 525.211 429.296 523.339 427.424"/>
      <path class="cls-1" d="M523.33857,522.89622l-2.808,5.616,1.872-.936Q522.87044,525.23647,523.33857,522.89622Z"/>
      <path class="cls-1" d="M513.97854,536.93626h2.808c-.90508-3.19085-.47438-5.29109-1.87176-6.552-1.47051,3.03869-3.34718,5.6273,0,8.424Q514.44655,537.87177,513.97854,536.93626Z"/>
      <path class="cls-1" d="M355.79489,470.48058l1.872,2.80752C356.48842,470.459,357.68383,472.16509,355.79489,470.48058Z"/>
      <path class="cls-1" d="M350.17863,466.73657l6.552.936,2.808-8.424c-3.276-.29645-1.26166-.375-4.67976-1.87249Q352.51876,462.05632,350.17863,466.73657Z"/>
      <polygon class="cls-1" points="351.115 454.569 350.179 454.569 349.243 457.376 352.051 457.376 351.115 454.569"/>
      <path class="cls-1" d="M343.62686,449.88853l-5.616-4.68,4.68,4.68,4.68,1.872.936-1.872-.936-2.8085C345.54107,448.98492,344.504,449.01045,343.62686,449.88853Z"/>
      <path class="cls-1" d="M509.29853,550.97678v-.93649l-3.74376-1.872C507.347,550.43737,506.15554,549.681,509.29853,550.97678Z"/>
      <polygon class="cls-1" points="322.099 484.52 320.227 482.649 319.291 483.585 322.099 485.457 322.099 484.52"/>
      <path class="cls-1" d="M516.78655,444.272l8.424-2.808-2.808-3.744h-.936v3.744l-8.38745-1.86317-.03657.02552v.90214C516.9738,441.96761,515.334,440.35623,516.78655,444.272Z"/>
      <polygon class="cls-1" points="324.907 486.392 324.907 489.201 326.779 488.264 324.907 486.392"/>
      <path class="cls-1" d="M320.2268,608.07243a108.24412,108.24412,0,0,1-7.83111-8.52169v10.72059C315.376,610.89565,316.80477,610.92118,320.2268,608.07243Z"/>
      <path class="cls-1" d="M335.20284,656.74455c-9.88791,1.18682-14.00519-2.31227-19.656,0l2.808-8.42451h-.936a35.67488,35.67488,0,0,0-5.0231,2.10466v12.65345l24.67915-3.52608Z"/>
      <polygon class="cls-1" points="535.507 496.689 530.827 494.816 530.827 498.56 535.507 497.624 535.507 496.689"/>
      <path class="cls-1" d="M329.58682,621.17646l-.93575-4.6805c-4.08538,3.47651-10.81679,8.9978-16.25538,5.28225V628.075c5.11808-.09178,10.02608-2.06539,15.31913-3.155Z"/>
      <path class="cls-1" d="M438.1626,554.7203l-2.808,6.552,6.55226-1.872C440.50825,556.52948,440.86312,556.39107,438.1626,554.7203Z"/>
      <path class="cls-1" d="M312.39569,644.576v1.11663c.09768-.31659.20885-.68127.34334-1.11663Z"/>
      <path class="cls-1" d="M345.49886,642.704c-1.41995-1.88673-2.70051-2.49536-4.68-3.74352-2.01508,3.29-.644,3.234-3.744.935,1.89532-4.2795,2.3513-4.8037.936-8.42353l-8.424-1.872c3.463,9.71342,7.007,14.388,18.72005,15.91253Z"/>
      <path class="cls-1" d="M408.21077,561.27232c.91441-1.63347.85355-.20615,0-1.872Z"/>
      <polygon class="cls-1" points="422.251 546.296 421.315 546.296 420.379 550.04 423.187 549.105 422.251 546.296"/>
      <path class="cls-1" d="M414.76279,547.23228l.936,2.808h.93576C415.45632,547.21069,416.65148,548.91728,414.76279,547.23228Z"/>
      <polygon class="cls-1" points="411.019 549.105 410.083 548.168 410.083 552.848 412.891 549.105 411.019 549.105"/>
      <path class="cls-1" d="M438.1626,594.9684c.91441-1.63346.85379-.20615,0-1.872Z"/>
      <path class="cls-1" d="M422.25056,550.04029v1.872C423.16521,550.27932,423.10435,551.70664,422.25056,550.04029Z"/>
      <path class="cls-1" d="M460.62666,567.82384c-3.24681-3.62768-4.02477-8.23652-8.424-5.615-6.288,3.06274-7.09486,10.40155-14.04,12.16754-.349-4.23925,1.229-1.872-1.87176-4.6805l-.93625,2.80849c.71047,3.95605,2.17828,1.76894-1.87176,4.68h-.936q.46788-3.277.936-6.552l-5.616,2.80752v6.5525h5.616c-1.96575,4.91855-1.76181,7.488.93576,10.296v-6.552l5.61626.936v-4.68l4.67977,2.80752c7.34592-6.24623,4.26256-7.20678,15.912-7.487q-.93614-2.34123-1.872-4.6805a24.27591,24.27591,0,0,0,13.104-7.488v-.93551C467.25917,562.90676,462.49866,564.59029,460.62666,567.82384Zm-14.04,8.424v-5.61552C449.33475,574.00185,449.65673,572.87835,446.58662,576.24786Zm2.808-3.74352,1.872-2.80849,2.808,2.80849Zm8.42426-3.744-.93624-1.872h2.808Z"/>
      <path class="cls-1" d="M440.03485,591.22439v.93551c6.4217.32787,7.0826,2.59794,10.29578-.93551v-.936l-3.744-.9365Z"/>
      <polygon class="cls-1" points="453.139 585.608 456.883 583.736 453.139 582.8 453.139 585.608"/>
      <polygon class="cls-1" points="450.331 583.736 448.459 586.544 452.203 586.544 451.267 583.736 450.331 583.736"/>
      <path class="cls-1" d="M395.10674,490.13614v-.93551h-8.424C389.75479,491.15706,390.776,490.71237,395.10674,490.13614Z"/>
      <path class="cls-1" d="M384.81071,449.88853V447.08l-7.488-3.743-.93576,1.87151c4.33913,1.73163,2.67475,1.99815,4.67976,5.61552Z"/>
      <polygon class="cls-1" points="410.083 610.88 411.955 609.008 408.211 607.136 410.083 610.88"/>
      <polygon class="cls-1" points="368.899 442.401 372.643 448.017 372.643 445.209 370.771 442.401 368.899 442.401"/>
      <path class="cls-1" d="M380.1307,467.67258c4.41055-1.21676,4.37963-1.22461,5.61626-5.61651h-1.87225Z"/>
      <path class="cls-1" d="M369.83492,425.55247l-.93625-.93649-2.808,3.7445c4.06991.98017,1.72058-.43929,1.872,3.744l1.87225.936,5.61577-2.80752C371.0264,428.56712,370.74368,428.2844,369.83492,425.55247Z"/>
      <path class="cls-1" d="M362.34666,450.824l2.808.9365-1.87176-3.744,3.744-1.872c-1.67077-2.43841-1.49776-1.50781-.93625-4.6805h-6.552l-.93576,2.808h3.74377c-3.32362,2.83058-3.8,2.74665-3.74377,9.36051l5.616,3.74352c4.42527-2.14638,5.19194-.74065,7.48777-4.68C366.69733,453.39106,365.429,453.80138,362.34666,450.824Z"/>
      <path class="cls-1" d="M389.49073,456.44055q.46824,3.27552.936,6.552h6.552C395.05815,460.3323,391.26923,457.00156,389.49073,456.44055Z"/>
      <polygon class="cls-1" points="393.235 445.209 388.555 444.272 389.491 448.017 393.235 445.209"/>
      <path class="cls-1" d="M390.42673,432.10449l-.936-1.87152h-2.808v3.74352H382.003c3.35626,3.68757,1.25774,1.72918,2.80776,4.68L388.555,435.848Z"/>
      <path class="cls-1" d="M411.01878,563.14432l3.744,5.616,3.744-.93649-3.744-5.615C412.31136,564.34488,414.86292,563.1296,411.01878,563.14432Z"/>
      <polygon class="cls-1" points="397.915 245.841 396.979 248.649 398.851 245.841 397.915 245.841"/>
      <path class="cls-1" d="M398.85075,295.44864l1.872,1.872v-8.424h-1.872C398.08408,292.24847,397.166,293.63063,398.85075,295.44864Z"/>
      <path class="cls-1" d="M399.78675,281.40861c-4.26723-4.1033.52616-2.19252-1.87176-5.616l-5.61626,2.808.936,3.744h3.744Z"/>
      <path class="cls-1" d="M380.1307,257.073c-.71218,1.11515.3745,1.14853-.93575.93551l-1.87225-1.872c-.39389,7.82326-3.41516,1.71789.936,8.424l3.74425.9365c-.8744-5.72056-.78826-2.1989.93576-7.48851Z"/>
      <polygon class="cls-1" points="367.027 282.345 368.899 280.473 367.027 281.409 367.027 282.345"/>
      <polygon class="cls-1" points="379.195 250.521 377.323 250.521 374.515 252.393 375.451 254.265 376.387 254.265 379.195 250.521"/>
      <path class="cls-1" d="M403.53076,252.39253v1.872C404.44517,252.63108,404.3843,254.05839,403.53076,252.39253Z"/>
      <path class="cls-1" d="M407.27477,263.62456l.936-1.872c-1.52008-3.27626-.92766-2.0595-3.744-3.744q.93613,2.808,1.872,5.616Z"/>
      <path class="cls-1" d="M312.39569,192.7927v14.50435a5.00185,5.00185,0,0,1,3.1511,1.10387c-2.90151,6.202.615,11.45093,2.808,17.78355h-3.744v-6.55153c-.761.0432-1.48769.07805-2.2151.11338v4.81647l2.2151,4.42969h5.616a9.86063,9.86063,0,0,1-7.83111,2.13067V260.177l3.1511,1.57555-1.87176.93649-1.27934-1.91912V475.21262l2.2151,3.69149v4.6805h-2.2151v5.51687l5.0231-.83734q-.93576-3.74378-1.872-7.48753c3.626-.70483,3.74425-.5777,5.616-2.808l12.168,3.74352c-2.57192,5.03586-5.47834,9.31045-10.296,12.16852h-.93576v-5.6165l-1.87225.93649c-.19289,2.084.71709,2.995-.93576,1.872-3.56682.34554-4.55583.60863-6.89535-1.36449V592.71159a28.05483,28.05483,0,0,0,17.19113-1.4872c5.25011,2.351,2.30246,3.9315,11.232,3.744l-1.872-.93649c7.08063-12.98869,15.95032-16.84755,14.976-33.6956l3.744,2.808,2.808-.93551c-2.008-5.87615-.54383-6.6708,2.808-11.232l1.87176.93551-.93576,3.744,2.808-1.872c2.24159-5.04911,3.50718-5.52276,2.808-12.168h6.552l-2.808-5.616,5.616-4.68c1.09306,3.21981,3.77272-.69157,2.808,4.68,1.13037,3.23208-.79562,4.38552.93576,5.616l.936,1.87151,8.424-4.67952,1.872,1.872c-.20492,3.11673-.87343,2.15275.936,4.67952,2.52725-2.05214,1.7785-.66654,2.80825-4.67952-2.89071-1.2094-4.00439-12.65493-2.80825-17.784l7.488-2.808-3.744-11.232h.936l.936,1.872,5.616,7.48851-.936-1.8725c1.537-1.821.86484-.99931.936-5.616l2.808,1.872-7.488-8.424,2.808-1.87151,5.61577-1.872,3.74426,5.61552,2.80776-10.296h-.93576c-2.97464,2.17043-1.04447,1.48229-2.808,3.744l-1.872-.936q.46788-5.147.936-10.296l-5.616,2.80849c2.41019,1.85532.51659,5.16-1.872,7.48753h-.936c-.78336-4.85671-.25277-5.74314,1.872-9.35953l-.936-1.872a156.38834,156.38834,0,0,1-14.976,15.91155l-4.68-.93551c3.37712-1.685,3.32019-1.9152,4.68-5.616l-5.616,5.616-2.808-3.7445c3.05416-1.6688,2.14613-2.52725,1.872-8.424l2.80825,1.872-.93625-4.67952,5.616-2.80849c2.63695,1.63493,2.40381,2.031,6.552,2.80849q2.34014-6.08425,4.68-12.16852c-9.2918.45254-15.52994,8.18107-18.72,13.104v-1.872c-2.96507-4.66381-1.9525-9.60347.936-12.16754,4.10624,2.66174,2.86887,4.21815,6.552.93551l-2.808-2.80751c-4.43853.94827-5.44-.33573-9.36-1.872v6.55153l-2.808.93649-3.744-1.872,3.744-4.68051-.936-1.87151-2.808,1.87151c-1.60868,8.29592-2.88016,6.21777,1.87225,11.23252l-.936,1.87152-2.808,2.80849-4.68025-3.744c3.3538-1.66782,1.10852.49672,2.808-2.808-2.96409-.613-2.41191-1.3483-5.616-3.7445l-.93576,4.68-.936-1.872c-5.31931-3.61786-5.616-6.55986-7.48826-11.232-3.20092.28124-1.38977,1.14951-3.74377-.93551-5.6862-8.316-6.22537-10.139-12.168-17.784l-1.872.93551-1.872,3.745c.33057-7.90325,1.42069-6.98345-.936-13.105,3.36951-1.30952,5.63466-1.8828,9.36-.93551-1.80844-2.83353-.18725-1.51518-3.744-2.8085l1.872-2.80752,6.552-2.808-1.872-.936c-.1713-4.493-2.55523-3.87359-4.68-8.42452,6.93927-2.52676,8.625-7.62,14.04-11.232.78434,4.57006,1.02951,4.30649,3.744,6.5525-.20492-3.11722-.87317-2.15275.936-4.6805h4.68v5.617c7.98866-2.34026,7.95577,3.44264,17.78379,5.615l-4.67976-3.74352c2.9474.68764,4.72492,1.2305,6.55177,2.808l.936,4.68,5.616-2.808-.93576-3.744c5.14016,2.01778,3.06225,4.0601,6.55177,2.80752l2.80825-1.872c-3.96881-.882,1.98612-4.07188,4.67977-4.67952,1.22141,2.674,7.41783-4.3487,16.84779-3.744-4.50945,6.62221-5.8359,16.15107-5.61576,28.08007h4.68c.03362-4.8675-1.23-4.47681,4.68-5.616.73943,2.72653.025,1.20252,2.80776,3.744l10.29627-5.616c5.67761,4.41841,4.46184,5.81235,12.168,4.68v-.936c-2.07815-3.77836-2.20257-3.41123-1.87225-8.42353h.936l4.68,2.80752c-2.37829,6.552-1.271,4.40662,0,11.23154-3.33588-.03681-1.95348-.85453-4.68.93649l.93625,2.808c2.48774,4.07875,1.26436,5.67982,7.48777,6.5525-1.52548,2.53609-2.18269.1232-.93575,2.807,1.98219.94582,2.68064.99392,2.808,6.55251,3.09416-1.285,4.01593-1.69875,7.48778-.936l2.808,10.29554h3.744c1.55641-3.75383,4.55829-7.88264,4.68-13.104,3.4959.91931.75612,1.80132,3.744,0,1.69408-2.22442.59047-2.47916.936-6.55153,2.91844.51635,5.74338-.161,8.424,1.872-1.79716,2.352-1.60156,1.283.936,2.808l-2.808,9.36-4.68-.936,5.61577,6.55153,3.74425,1.872v-2.80751l2.80777-1.872-2.80777-10.29651,5.61577-2.808c-3.3619-7.1626-2.64505-13.9993,0-18.71956q2.34014,2.33976,4.68026,4.68051l-2.808,8.42353,3.74377-.9365a28.29079,28.29079,0,0,1,9.36-11.19767v-.03386l.03657.00834c3.07207-2.2627,6.5044-4.19557,10.25946-6.56036-1.89164-4.88861-.38751-8.64047-2.808-13.104,3.05882-3.93985,3.60731-3.399,7.488-8.42451l1.872.93649c2.16969,8.985,2.56382,11.03766,10.296,16.848.32-5.672.38848-2.93022,2.808-7.488h.936c2.04526,9.48862,3.96316,13.97427.936,23.40006l2.63425-.43929a234.66518,234.66518,0,0,1-6.82246,44.80933c-1.1019,2.54886-2.2092,4.96813-3.29981,7.11009l1.2386.30922a233.1947,233.1947,0,0,1-8.05443,23.25821l-.67219-.16787c-.03166.79907-.13473,1.64819-.25007,2.50664C494.10138,607.242,410.44108,666.69651,312.88308,666.69651c-.16369,0-.32394-.01374-.48739-.01374v4.52343c132.11033,0,239.20651-107.09692,239.20651-239.20724S444.506,192.7927,312.39569,192.7927Zm5.0231,248.67132H316.483l.93575-2.80752C318.94182,441.01541,318.34081,438.8116,317.41879,441.464Zm4.68026,151.63237-1.87225-.93649.936-1.87151h2.808Zm5.61577-85.1767c-4.78873-2.25534-6.57067-5.33477-9.36-7.487l.93625-2.8085c3.83751.39708,2.41363.02847,3.74377-.93551C327.66255,498.97049,328.04735,500.67463,327.71482,507.91969Zm71.13593-29.01558-1.872,1.8725-.936-1.8725Zm-65.51992,29.95208-2.808.936-.936-3.744,3.744.936Zm.936,26.20806h1.872C334.50537,535.97817,335.93294,535.9178,334.26683,535.06425Zm1.872,58.03214v-5.616l3.744,1.87151Zm6.552-53.35164h-.936l-3.744-8.42451C341.16513,533.75375,341.99462,534.55968,342.69085,539.74475Zm-3.744-18.72q.46787-3.27625.936-6.55251l2.808,1.872-2.808,4.68051Zm2.808,64.58367-1.872-1.872.936-1.872h4.68Zm4.68-60.83966-1.872-1.8725.936-1.87151C347.56744,523.41944,346.62211,521.56658,346.43486,524.76872Zm-1.872-21.52855h2.808v2.808Zm7.488,28.08007-1.87225,1.872-2.80776-2.808Zm-1.87225,12.16754h-.93576c-1.54168-2.69217-1.81777-3.00041-.936-6.55152l4.67977,2.80849Zm6.552,10.29652-1.87175-.936,1.87175-2.808,1.87225,1.872Zm-2.80776-19.65605.936-4.68q.93574,2.33976,1.87175,4.68Zm-3.74425-9.35953v-.9365h4.68026c-.95392-3.62032-1.44524-.44076,0-3.744l3.744,2.808C356.1581,528.78464,353.64213,529.41192,350.17863,524.76872Zm3.74425-40.24859-1.872-2.808C354.89324,483.53062,353.02786,482.01987,353.92288,484.52013Zm.936,30.88856-1.87225,1.87152h-.93576l-.936-3.74352Zm14.03978,21.52757-1.87175-.936,2.808-3.7445C370.76233,535.06425,370.47987,534.75994,368.89867,536.93626Zm2.808-15.91155,1.87225-2.808,1.87176,1.87151Zm11.232,1.87151H382.003l.93576-2.808C384.46149,522.44712,383.86072,520.24381,382.93871,522.89622Zm-4.68-23.40006,2.808,1.872-.936,1.872-2.808-1.872Zm-7.48778-11.232c1.98784,2.193.41254-.105.93576,2.80849h-2.808Zm11.232,22.464c1.576-3.31454,1.08276-1.85875,3.744.93649-5.23513,2.28136-1.77875,1.6423-2.80825,5.61553-4.268-2.29264-3.783-3.50547-6.55177-2.808-7.04358,2.34025-5.751.70482-14.976,0l4.67977-4.68,2.808-4.67952Zm-17.784-15.91253,3.74376,4.6805h-1.872l-.936.9365c-3.41713-.99147-2.75279-.76176-4.67977-2.8085C364.05694,496.38826,362.42175,497.62416,364.21891,494.81566Zm-6.552,1.873,2.808,5.616h-.93625l-2.808-1.872-.93575-2.8085Zm-6.552-24.33606,3.744,6.55152-2.808.936-1.87225-.936-.93576-2.80751Zm-1.872,46.79913h3.74377v.93649l-1.87176,2.808-1.872-.936Zm-6.552-41.18312v-1.872l5.616,3.74351c-1.81679,2.91059-2.31964,1.28842-1.872,4.68-3.0139-1.56573-3.21882-3.23257-5.616-6.55153Zm-2.808-23.39957c-.39683.86778.74875.63219-.936,1.87152Zm.936,51.47915h-4.68l-1.872-1.872,4.68-2.808C340.4446,503.22545,340.1636,502.66836,340.81885,506.04818Zm-6.552-23.39957,1.872-.93649,1.872,3.7445h-3.744l-.936-1.872ZM498.0665,406.83243l1.87225,1.872-2.808,2.80752Zm-9.36-93.59975,2.808.936-2.808,2.80751Zm-1.87176,12.168,2.808,1.872h-2.808Zm4.67977,78.62371q-.46788.93649-.93576,1.87249l-1.87225-1.87249v-1.872Zm-19.65581-85.17621c3.83751,2.53756,2.48775,3.05,7.48778,2.8085-1.35517,4.77375.83047,4.4341,0,7.488h-3.74377c-1.11392-3.49859,1.256-4.5681-4.68-3.744Q471.39056,322.12447,471.85868,318.84821Zm-1.872,0-1.872,1.872v-1.872l-.936-2.80752Zm-29.01607-65.51967,1.87225,1.87151h-2.808Zm-6.552-4.68-3.74376-3.744C434.20925,246.41135,432.84722,245.30994,434.41859,248.64853Zm-6.55177,21.52805,2.808,3.7445C426.36342,272.09914,427.50827,273.22165,427.86682,270.17658Zm.93576,19.656-3.744-.936.936-2.808,1.87225-1.872C430.68513,287.45311,430.30033,285.90112,428.80258,289.83263Zm-5.61577-41.1841,6.552,1.872-1.872.936-1.87225,2.808-3.744-.936-.93576-2.808Zm.936,32.76008-1.87225,1.872v-1.872Zm-1.87225-7.48753c-3.41712-.99147-2.75279-.76176-4.67977-2.8085C420.98816,272.104,420.32358,271.87434,422.25056,273.92108ZM384.81071,225.249q-.46788-1.87226-.936-3.744C386.81205,224.00766,385.52854,222.64955,384.81071,225.249Zm.93625,3.74352v3.7445l-3.744-3.7445Zm3.74377,13.104-.93576,2.808-1.87225.936-2.808-.936q-.46788-3.743-.936-7.488Zm-14.976-13.104c1.93385,1.83764.96889.35094,1.87225,3.7445l-1.87225.93551Zm.936,17.784h-5.61577l1.87176-2.80752C375.289,245.2049,373.65354,243.969,375.45069,246.77652Zm-3.744-16.84755h-.93576l-2.80825-2.8085.936-1.87151C370.95793,226.94525,370.69877,227.01838,371.70668,229.929Zm-2.808-14.97555-2.808,2.807q-.46788-1.87225-.936-3.74352Zm-7.48777-2.80849,2.808,1.872h-2.808ZM359.53865,249.585q-.46788-2.808-.93576-5.616l3.74377,1.87152L360.4749,247.713v1.872Zm.93625,3.74352c-2.971,2.56259-4.75413,2.78641-7.48826.936l.93624-1.872,2.80776-1.872Zm-1.872-44.92762-1.87225,1.872-.93575-1.872Zm-4.68,29.01558c3.2338,1.45971,2.96041,2.01925,4.68,4.68l-6.552-.93551Zm-2.808,18.72,8.42377,1.872-.93576,1.872c-4.24759-.052-5.37943-.18749-7.488-1.872Zm-13.104-44.92811-4.68.9365,1.872-2.8085Zm-7.488-5.61552h2.808l.936,1.87151-3.744,5.616h-.936q-.93576-2.808-1.872-5.616Zm-7.488,33.69559,1.872-3.744,2.808,1.872-.936,1.872Zm.936,4.6805h-2.808v-1.87249Zm-1.87176-9.36h1.87176C322.33759,235.5229,323.76491,235.46253,322.09905,234.609Zm7.48777,23.39957-1.872,1.872-.936-1.872Zm-.93575-26.20807-4.68026,1.872-2.808-1.872.93625-1.87151,6.552-2.8085Zm-4.68026-6.55152-2.808,1.87151.93625-1.87151Zm-.936-5.616h3.744v.93552l-.936,2.80849-1.872-.93649Zm5.61626-7.488-1.87225,1.872-.936-1.872Zm-2.80826-7.48851c-.39683.86925.74876.63316-.936,1.87249Zm-10.296,9.36051v-4.6805l11.232,5.617-1.872,1.87152Zm8.424,166.60743,3.744,1.872q-.46788,2.33976-.936,4.67952l-5.616-5.615Zm7.488,50.54413-2.80776,3.744-4.68026.93552v-3.74352l2.808-7.48851,5.616,3.7445Zm-3.744-208.728h1.872l-.93575-1.872,7.48777,3.744-1.872,1.872Zm10.296,13.104-1.872-.93551c-.91539-3.36215-1.19148-2.63425-.936-5.6165l2.808.93649q.46826,2.80727.936,5.61552Zm0-13.104c3.50547,1.47346,7.19966,3.22668,8.424,6.552q.46788,1.87224.936,3.7445l-2.808,1.872h-.936l1.872-4.68C338.2965,230.03155,336.71924,227.894,338.01084,222.44046Zm6.552,22.46406,2.808,2.80849-1.872,1.872v-1.872Zm.936,122.61581-2.808.93649v-1.872h-2.808l2.808-4.68,1.872-.93649,3.744,2.808Zm6.552-78.62371-1.87225-2.808-.93576-2.808,5.616,5.616Zm6.552,115.1278-1.87225.936-1.87175-1.872v-.936l1.87175-.936h2.808Zm.93576-4.68-1.87176-2.808,3.744.936ZM381.0667,411.512h-.936l-1.872-.93552-.936-3.744H382.003Q381.53471,409.17219,381.0667,411.512Zm36.50409,23.40054v-2.808c1.80256,1.42,1.65654,1.67616,2.808,3.74352Zm-14.04-129.16831c-1.34044-6.32133-3.931-5.70928-6.552-9.36-5.26114,2.3913-16.42667,5.01525-20.5918,5.61651-2.20429-2.33191-2.5275-1.7871-3.744-5.61651l-3.74426,2.8085c-.61868-5.35-6.16819-12.33835-5.61576-16.848l4.67976-4.68c-5.45576-1.33357-3.52289-2.14245-9.35978-1.872l1.872-2.808,12.168-7.48753v-.9365l-12.168-6.552.936-1.872,11.232-8.42353c5.09549,1.03761,13.2687,1.36155,15.912,3.74352,2.21435.26063,1.16693-.20762,3.74376.936l-2.808,1.872c-.88153-1.15491-4.57891-1.56966-7.48778-1.872l1.87176,4.68051,9.36-1.873c-.187,3.85494-2.40626,1.81507.936,3.7445,2.2276,1.94857-.1497.8182,2.808.936v-.936q-.46788-3.74376-.936-7.488c-4.13323.72789-2.05263.90312-5.616-2.808l.936-1.872,6.55226-3.744c-6.979-1.21675-8.61151-3.97273-11.23227-9.36q.46788-2.808.936-5.61552c5.325,2.82862,10.255,7.39427,14.976,11.23153q-.46788,2.33976-.936,4.6805l12.168,1.87152c-2.16969,2.97489-1.48279,1.046-3.74426,2.808l8.42427,4.68v.936c-5.86879.42947-4.82309-.33965-4.68,3.744l-1.872,4.6805c4.14084,1.17209,4.16146.5885,5.616,4.67952l-1.872.93551c-3.66548-1.59027-6.67006-1.86415-11.232-.93551,2.09116,2.56849,2.192,1.7866,2.808,6.55251-3.92,1.21037-2.9344.51733-4.68,3.74352l5.616,1.87151v.93649c-5.20789.66065-5.966,1.56377-8.424,4.68051,5.39318,1.924,6.70908,11.61094,9.36,15.91154l8.424-3.744-3.744-5.616.936-.93649c4.92788,3.52166,4.16808,4.37521,10.29578,6.55251l-.93576-5.616c7.30077-.43781,5.77578-1.57162,10.29578.93551,3.15527,7.27353,7.3685,4.74137,11.23227,7.48851l-3.744,2.808c7.824,7.10419,14.51614,8.81423,24.33582,12.16754q-.46788,5.616-.936,11.232l-12.168-.93552c-1.95717-5.52275-2.30442-6.13432-7.48778-8.42451l-3.744,3.744q-.46824-4.67952-.93624-9.35953h-5.616l-1.87176-4.68C431.42358,308.97675,413.51315,304.06654,403.53076,305.74418Zm13.10379-33.69511h-7.48778v-.93649l1.872-3.744C414.72549,268.76055,414.71125,269.0413,416.63455,272.04907Zm39.31209,114.1918-1.872,2.808-1.872-.93649v-4.67952Zm-6.552,2.808-6.55177-3.7445.93575-1.87151Zm-14.976,12.16754c1.91152,1.685.66188.01424,1.87225,2.808Zm6.552,8.424,1.87225-2.808h1.87176c-2.49806-4.45276-5.08323-6.66246-10.296-8.424,2.1746-6.26439-.028-11.75868-1.87176-18.71955l3.744,3.744,3.744-3.744,2.808.93551q-.46825,10.29627-.936,20.592c6.21875,1.54708,4.6648,2.26467,8.42378,7.488l-.936,2.80752C443.5813,408.93414,446.48085,411.028,440.97061,409.64043Zm14.976,24.33606-1.872-.936.93625-1.872,1.87176,1.872Zm-4.68-12.168-3.744-10.29651,5.616,1.872-.936,1.8725,4.68,3.7445C458.77993,423.99067,452.40952,423.60292,451.26663,421.80846Zm47.73612,9.36,1.87176,1.872-.93576.936-1.87225-.936v-.936l.93625-.936q-2.34014-2.33976-4.68026-4.68l2.80826-.936-2.80826-.93649-4.67976,5.617q2.33976,4.67952,4.67976,9.35954h-4.67976c-.29229,2.50958.35854,2.23963-1.872,4.67952h-.936c-3.35012-9.7468-9.24124-11.529-5.616-21.52806l-13.104-3.743,2.808-3.7445-.936-1.8725h-4.68c.39683,4.093.19289,3.745-.936,7.48851-6.03419-3.50154-3.68781-5.65086-9.35977-6.552,2.01679-4.47533-.15069-7.90031-3.74426-12.168l.936-2.808c4.05667,1.63493,4.23337,2.33976,7.488-.936l6.552,4.68,5.616-3.744c1.69973,2.12379,1.78587,3.23551,1.872,7.488l8.424-5.616q-.93612,2.808-1.872,5.616c4.04538,1.50879,5.23317,2.1125,6.552,6.55152-3.85813.60273-1.19908,1.79495-2.808,7.48851l7.48778-3.74352c-2.86568-.02258-1.31026.89968-3.74377-.93649l3.74377-7.488v1.872c2.40479,1.32229,2.3589,8.74453,4.68025,13.104h3.744v-3.744q-.46824-3.74451-.936-7.488l2.808.93551c-.95564,4.07581-1.62684,1.446,1.87176,3.745Q501.34276,424.14822,499.00275,431.16849Zm4.67977,3.744q.46824-1.87224.936-3.744l3.74425,2.808Zm3.744-22.464-2.808,2.808c-.87023-5.70977-1.95888-4.23533-.936-7.488l7.488,2.808Zm1.872-7.488h1.872C509.53732,405.87532,510.96463,405.81347,509.29853,404.96042Zm11.232-25.27157v1.872l-2.80776-.93649-4.68026-15.91155,2.808-2.808c4.14918.95073,3.759.61795,5.616,3.74352C523.24506,369.19257,522.96407,377.34271,520.53056,379.68885Zm8.424-13.104-1.87176,2.80751-1.87225-2.80751Zm-1.87176,14.03954v-.93551q.46788-.93649.93576-1.8725l1.872,2.808Zm4.67977,2.8085h-2.808q.46788-.93649.936-1.872l1.872,1.872h1.872C532.00137,384.34677,533.42869,384.28591,531.76259,383.43286Zm13.104,40.24761q-.46825-2.808-.936-5.616h2.808Q545.8025,420.87247,544.86662,423.68047Z"/>
      <path class="cls-1" d="M400.72275,287.02511l-3.744-.93649C399.59386,287.8173,397.10685,286.76448,400.72275,287.02511Z"/>
      <path class="cls-2" d="M354.85889,529.44824l-.936,4.68h2.80776Q355.7949,531.78849,354.85889,529.44824Z"/>
      <path class="cls-2" d="M354.85889,523.83222h-4.68026v.9365c3.4635,4.6432,5.97947,4.01592,8.42426-1.8725l-3.744-2.808C353.41365,523.39146,353.905,520.2119,354.85889,523.83222Z"/>
      <polygon class="cls-2" points="354.859 552.848 356.731 553.784 358.603 551.912 356.731 550.04 354.859 552.848"/>
      <path class="cls-2" d="M334.26683,535.06425c1.66611.85355.23854.91392,1.872,0Z"/>
      <polygon class="cls-2" points="336.139 593.096 339.883 589.352 336.139 587.48 336.139 593.096"/>
      <path class="cls-2" d="M349.24287,543.48778h.93576l2.808-3.743-4.67977-2.80849C347.4251,540.48737,347.70119,540.79561,349.24287,543.48778Z"/>
      <polygon class="cls-2" points="352.051 517.28 352.987 517.28 354.859 515.409 351.115 513.537 352.051 517.28"/>
      <path class="cls-2" d="M352.05088,481.71212l1.872,2.808C353.02786,482.01987,354.89324,483.53062,352.05088,481.71212Z"/>
      <path class="cls-2" d="M339.88285,514.4722q-.46788,3.27625-.936,6.55251h.936l2.808-4.68051Z"/>
      <path class="cls-2" d="M341.75485,539.74475h.936c-.69623-5.18507-1.52572-5.991-4.68-8.42451Z"/>
      <polygon class="cls-2" points="339.883 583.736 341.755 585.608 345.499 581.864 340.819 581.864 339.883 583.736"/>
      <polygon class="cls-2" points="352.051 531.32 347.371 530.384 350.179 533.192 352.051 531.32"/>
      <polygon class="cls-2" points="347.371 503.24 344.563 503.24 347.371 506.048 347.371 503.24"/>
      <path class="cls-2" d="M344.56286,522.89622l1.872,1.8725c.18725-3.20214,1.13258-1.34928-.936-3.744Z"/>
      <polygon class="cls-2" points="371.707 521.025 375.451 520.088 373.579 518.217 371.707 521.025"/>
      <path class="cls-2" d="M319.291,491.07263c1.65285,1.123.74287.212.93576-1.872l1.87225-.93649v5.6165h.93576c4.81768-2.85807,7.7241-7.13266,10.296-12.16852l-12.168-3.74352c-1.87176,2.23031-1.99,2.10318-5.616,2.808q.93612,3.74376,1.872,7.48753l-5.0231.83734v.60666C314.73521,491.68126,315.72422,491.41817,319.291,491.07263Zm5.61577-4.6805,1.872,1.872-1.872.93649Zm-4.68-3.74352,1.87225,1.87152v.93649l-2.808-1.872Z"/>
      <polygon class="cls-2" points="314.611 478.904 312.396 475.213 312.396 483.585 314.611 483.585 314.611 478.904"/>
      <polygon class="cls-2" points="315.547 261.753 312.396 260.177 312.396 260.77 313.675 262.689 315.547 261.753"/>
      <polygon class="cls-2" points="334.267 485.457 338.011 485.457 336.139 481.712 334.267 482.649 333.331 483.585 334.267 485.457"/>
      <polygon class="cls-2" points="457.819 568.76 459.691 566.888 456.883 566.888 457.819 568.76"/>
      <polygon class="cls-2" points="325.843 223.377 326.779 220.568 326.779 219.633 323.035 219.633 323.971 222.44 325.843 223.377"/>
      <path class="cls-2" d="M316.483,441.464h.93575c.922-2.65242,1.523-.44861,0-2.80752Z"/>
      <polygon class="cls-2" points="321.163 227.12 323.971 225.249 322.099 225.249 321.163 227.12"/>
      <polygon class="cls-2" points="321.163 231.8 323.971 233.672 328.651 231.8 328.651 227.12 322.099 229.929 321.163 231.8"/>
      <path class="cls-2" d="M323.97081,234.609h-1.87176C323.76491,235.46253,322.33759,235.5229,323.97081,234.609Z"/>
      <polygon class="cls-2" points="327.715 237.416 324.907 235.544 323.035 239.289 326.779 239.289 327.715 237.416"/>
      <path class="cls-2" d="M370.77092,488.26414l-1.87225,2.80849h2.808C371.18346,488.1591,372.75876,490.45714,370.77092,488.26414Z"/>
      <path class="cls-2" d="M365.15467,500.43266l.936-.9365h1.872l-3.74376-4.6805c-1.79716,2.8085-.162,1.5726-3.744,2.8085C362.40188,499.6709,361.73754,499.44119,365.15467,500.43266Z"/>
      <path class="cls-2" d="M361.4109,514.4722c9.225.70482,7.93246,2.34025,14.976,0,2.76874-.69746,2.2838.51537,6.55177,2.808,1.0295-3.97323-2.42688-3.33417,2.80825-5.61553-2.66125-2.79524-2.168-4.251-3.744-.93649l-13.10428-5.61552-2.808,4.67952Z"/>
      <polygon class="cls-2" points="381.067 501.368 378.259 499.496 377.323 501.368 380.131 503.24 381.067 501.368"/>
      <polygon class="cls-2" points="359.539 502.305 360.475 502.305 357.667 496.689 355.795 497.624 356.731 500.433 359.539 502.305"/>
      <path class="cls-2" d="M336.13884,506.04818h4.68c-.65525-3.37982-.37425-2.82273-1.872-4.68l-4.68,2.808Z"/>
      <path class="cls-2" d="M382.003,522.89622h.93576c.922-2.65241,1.52278-.4491,0-2.808Z"/>
      <path class="cls-2" d="M339.88285,454.569l-.936,1.87152C340.6316,455.20122,339.486,455.43681,339.88285,454.569Z"/>
      <path class="cls-2" d="M346.43486,484.52013c-.44763-3.3916.05522-1.76943,1.872-4.68l-5.616-3.74351v1.872h-1.872C343.216,481.28756,343.421,482.9544,346.43486,484.52013Z"/>
      <polygon class="cls-2" points="352.051 479.84 354.859 478.904 351.115 472.353 349.243 476.097 350.179 478.904 352.051 479.84"/>
      <polygon class="cls-2" points="352.987 520.088 352.987 519.152 349.243 519.152 349.243 521.96 351.115 522.896 352.987 520.088"/>
      <path class="cls-2" d="M367.02692,536.00025l1.87175.936c1.5812-2.17632,1.86366-1.872.93625-4.68051Z"/>
      <path class="cls-2" d="M515.85055,361.9048l-2.808,2.808,4.68026,15.91155,2.80776.93649v-1.872c2.43351-2.34614,2.7145-10.49628.936-14.04053C519.60953,362.52275,519.99973,362.85553,515.85055,361.9048Z"/>
      <path class="cls-2" d="M528.01858,377.81635q-.46788.93576-.93576,1.8725v.93551h2.80776Z"/>
      <path class="cls-2" d="M528.95458,383.43286h2.808l-1.872-1.872Q529.42234,382.49661,528.95458,383.43286Z"/>
      <polygon class="cls-2" points="330.523 509.792 333.331 508.856 333.331 506.984 329.587 506.048 330.523 509.792"/>
      <path class="cls-2" d="M529.64051,522.59485c.11534-.85845.21841-1.70757.25007-2.50664l.67219.16787a233.1947,233.1947,0,0,0,8.05443-23.25821l-1.2386-.30922c1.09061-2.142,2.19791-4.56123,3.29981-7.11009a234.66518,234.66518,0,0,0,6.82246-44.80933l-2.63425.43929c3.02716-9.42579,1.10926-13.91144-.936-23.40006h-.936c-2.41952,4.5578-2.488,1.816-2.808,7.488-7.73221-5.81038-8.12634-7.863-10.296-16.848l-1.872-.93649c-3.88071,5.02555-4.4292,4.48466-7.488,8.42451,2.4205,4.46356.91637,8.21542,2.808,13.104-3.75506,2.36479-7.18739,4.29766-10.25946,6.56036l8.38745,1.86317V437.72h.936l2.808,3.744-8.424,2.808c-1.4526-3.9158.18725-2.30442-3.744-3.74352v-.90214a28.29079,28.29079,0,0,0-9.36,11.19767l-3.74377.9365,2.808-8.42353q-2.34014-2.34125-4.68026-4.68051c-2.64505,4.72026-3.3619,11.557,0,18.71956l-5.61577,2.808,2.80777,10.29651-2.80777,1.872v2.80751l-3.74425-1.872-5.61577-6.55153,4.68.936,2.808-9.36c-2.53756-1.525-2.73316-.456-.936-2.808-2.68064-2.033-5.50558-1.35566-8.424-1.872-.34554,4.07237.75807,4.32711-.936,6.55153-2.98789,1.80132-.24811.91931-3.744,0-.12172,5.22139-3.1236,9.3502-4.68,13.104h-3.744l-2.808-10.29554c-3.47185-.76274-4.39362-.349-7.48778.936-.12736-5.55859-.82581-5.60669-2.808-6.55251-1.24694-2.68383-.58973-.27094.93575-2.807-6.22341-.87268-5-2.47375-7.48777-6.5525l-.93625-2.808c2.72653-1.791,1.34413-.9733,4.68-.93649-1.271-6.82492-2.37829-4.67952,0-11.23154l-4.68-2.80752h-.936c-.33032,5.0123-.2059,4.64517,1.87225,8.42353v.936c-7.70619,1.13233-6.49042-.26161-12.168-4.68l-10.29627,5.616c-2.78273-2.54149-2.06833-1.01748-2.80776-3.744-5.91,1.1392-4.64639.74851-4.68,5.616h-4.68c-.22014-11.929,1.10631-21.45786,5.61576-28.08007-9.43-.60469-15.62638,6.418-16.84779,3.744-2.69365.60764-8.64858,3.79751-4.67977,4.67952l-2.80825,1.872c-3.48952,1.25258-1.41161-.78974-6.55177-2.80752l.93576,3.744-5.616,2.808-.936-4.68c-1.82685-1.57751-3.60437-2.12037-6.55177-2.808l4.67976,3.74352c-9.828-2.17239-9.79513-7.95529-17.78379-5.615v-5.617h-4.68c-1.80917,2.52775-1.14092,1.56328-.936,4.6805-2.7145-2.246-2.95967-1.98244-3.744-6.5525-5.415,3.612-7.10076,8.70526-14.04,11.232,2.12478,4.55093,4.50871,3.93151,4.68,8.42452l1.872.936-6.552,2.808-1.872,2.80752c3.55676,1.29332,1.93557-.025,3.744,2.8085-3.72536-.94729-5.99051-.374-9.36.93551,2.35669,6.12156,1.26657,5.20176.936,13.105l1.872-3.745,1.872-.93551c5.94266,7.64508,6.48183,9.468,12.168,17.784,2.354,2.085.54285,1.21675,3.74377.93551,1.87225,4.67216,2.16895,7.61416,7.48826,11.232l.936,1.872.93576-4.68c3.2041,2.3962,2.65192,3.13146,5.616,3.7445-1.69948,3.30472.5458,1.14018-2.808,2.808l4.68025,3.744,2.808-2.80849.936-1.87152c-4.75241-5.01475-3.48093-2.9366-1.87225-11.23252l2.808-1.87151.936,1.87151-3.744,4.68051,3.744,1.872,2.808-.93649v-6.55153c3.92,1.53628,4.92149,2.82028,9.36,1.872l2.808,2.80751c-3.68315,3.28264-2.44578,1.72623-6.552-.93551-2.8885,2.56407-3.90107,7.50373-.936,12.16754v1.872c3.19011-4.923,9.42825-12.6515,18.72-13.104q-2.34013,6.08427-4.68,12.16852c-4.1482-.77746-3.91506-1.17356-6.552-2.80849l-5.616,2.80849.93625,4.67952-2.80825-1.872c.27412,5.89677,1.18215,6.75522-1.872,8.424l2.808,3.7445,5.616-5.616c-1.35983,3.70081-1.3029,3.931-4.68,5.616l4.68.93551a156.38834,156.38834,0,0,0,14.976-15.91155l.936,1.872c-2.12477,3.61639-2.65536,4.50282-1.872,9.35953h.936c2.3886-2.32749,4.2822-5.63221,1.872-7.48753l5.616-2.80849q-.46788,5.14776-.936,10.296l1.872.936c1.76354-2.26172-.16663-1.57358,2.808-3.744h.93576l-2.80776,10.296-3.74426-5.61552-5.61577,1.872-2.808,1.87151,7.488,8.424-2.808-1.872c-.07117,4.6167.601,3.79506-.936,5.616l.936,1.8725-5.616-7.48851-.936-1.872h-.936l3.744,11.232-7.488,2.808c-1.19614,5.12912-.08246,16.57465,2.80825,17.784-1.02975,4.013-.281,2.62738-2.80825,4.67952-1.80943-2.52677-1.14092-1.56279-.936-4.67952l-1.872-1.872-8.424,4.67952-.936-1.87151c-1.73138-1.2305.19461-2.38394-.93576-5.616.96472-5.37158-1.71494-1.4602-2.808-4.68l-5.616,4.68,2.808,5.616h-6.552c.69918,6.64527-.56641,7.11892-2.808,12.168l-2.808,1.872.93576-3.744-1.87176-.93551c-3.35184,4.56123-4.816,5.35588-2.808,11.232l-2.808.93551-3.744-2.808c.97429,16.848-7.8954,20.70691-14.976,33.6956l1.872.93649c-8.92957.18749-5.98192-1.393-11.232-3.744a28.05483,28.05483,0,0,1-17.19113,1.4872v6.83915a108.24412,108.24412,0,0,0,7.83111,8.52169c-3.422,2.84875-4.85082,2.82322-7.83111,2.1989v11.50688c5.43859,3.71555,12.17-1.80574,16.25538-5.28225l.93575,4.6805-1.872,3.74352c-5.293,1.08963-10.201,3.06324-15.31913,3.155v16.501h.34334c-.13449.43536-.24566.8-.34334,1.11663v4.732a35.67488,35.67488,0,0,1,5.0231-2.10466h.936l-2.808,8.42451c5.65086-2.31227,9.76814,1.18682,19.656,0l1.872,2.80752-24.67915,3.52608v3.60462c.16345,0,.3237.01374.48739.01374C410.44108,666.69651,494.10138,607.242,529.64051,522.59485Zm3.05808-18.41868h-.936v-3.74351l2.808,1.872Zm-1.872-9.36051,4.68,1.873v.93551l-4.68.936Zm-3.74376,4.6805.93576.9365q-.46788,1.40327-.93576,2.80751h-.93625Q526.61445,501.36867,527.08282,499.49616ZM523.33857,430.233v-2.80849l1.872,1.872Zm0,92.66325q-.46788,2.33976-.936,4.68l-1.872.936Zm-8.42378,7.488c1.39738,1.26093.96668,3.36117,1.87176,6.552h-2.808q.46788.93574.93625,1.872C511.56761,536.01154,513.44428,533.42293,514.91479,530.38424Zm-1.87225,16.848h.936l.93625,1.8725-2.808.93551Q512.57466,548.637,513.04254,547.23228Zm-3.744,2.808v.93649c-3.143-1.29578-1.95152-.53941-3.74376-2.8085ZM347.37087,451.76054l-4.68-1.872-4.68-4.68,5.616,4.68c.8771-.87808,1.91421-.90361,3.744-2.8085l.936,2.8085Zm2.80776,2.80849h.93625l.936,2.807h-2.808Zm5.61626,15.91155c1.88894,1.68451.69353-.02159,1.872,2.80752Zm.93575-2.808-6.552-.936q2.3405-4.67952,4.68026-9.36051c3.4181,1.4975,1.40375,1.576,4.67976,1.87249Zm3.74426-7.48851v-2.808l1.87176,1.87249Zm3.744-2.808-5.616-3.74352c-.0562-6.61386.42015-6.52993,3.74377-9.36051h-3.74377l.93576-2.808h6.552c-.56151,3.17269-.73452,2.24209.93625,4.6805l-3.744,1.872,1.87176,3.744-2.808-.9365c3.08238,2.97734,4.35067,2.567,9.36,1.872C369.41085,456.63541,368.64418,455.22968,364.21891,457.37606Zm8.424-9.35953-3.74426-5.616h1.87225l1.872,2.808Zm-2.808-14.976-1.87225-.936c-.15142-4.1833,2.19791-2.76384-1.872-3.744l2.808-3.7445.93625.93649c.90876,2.73193,1.19148,3.01465,5.61577,4.6805Zm6.552,12.168.93576-1.87151,7.488,3.743v2.8085l-3.744.93551C379.06169,447.20667,380.72607,446.94015,376.38694,445.20852Zm3.74376,22.46406,3.744-5.61651H385.747C384.51033,466.448,384.54125,466.45582,380.1307,467.67258Zm4.68-29.01608c-1.55-2.95083.5485-.99244-2.80776-4.68h4.67977V430.233h2.808l.936,1.87152L388.555,435.848Zm8.424,6.552-3.744,2.808-.93576-3.7445Zm-2.808,17.784q-.46788-3.27626-.936-6.552c1.7785.561,5.56742,3.89175,7.488,6.552Zm4.68,27.14358c-4.33079.57623-5.35195,1.02092-8.424-.93551h8.424ZM410.08253,610.88l-1.87176-3.744,3.744,1.872Zm-1.87176-49.60763v-1.872C409.06432,561.06617,409.12518,559.63885,408.21077,561.27232Zm6.552,7.488-3.744-5.616c3.84414-.01472,1.29258,1.20056,3.744-.93551l3.744,5.615Zm-4.68026-15.912v-4.68l.93625.9365h1.872Zm4.68026-5.616c1.88869,1.685.69353-.02159,1.87176,2.808h-.93576Zm5.616,2.808.936-3.744h.93576l.93625,2.8085Zm1.87176,1.872v-1.872C423.10435,551.70664,423.16521,550.27932,422.25056,551.91229Zm15.912,43.05611v-1.872C439.01639,594.76225,439.077,593.33494,438.1626,594.9684Zm12.168-3.744c-3.21318,3.53345-3.87408,1.26338-10.29578.93551v-.93551l6.55177-1.8725,3.744.9365Zm-1.87176-4.6805,1.87176-2.80752h.936l.936,2.80752Zm4.67977-.93551v-2.8085l3.744.93649Zm18.72-22.46406a24.27591,24.27591,0,0,1-13.104,7.488q.93612,2.33976,1.872,4.6805c-11.64948.28026-8.56612,1.24081-15.912,7.487l-4.67977-2.80752v4.68l-5.61626-.936v6.552c-2.69757-2.808-2.90151-5.37748-.93576-10.296h-5.616v-6.5525l5.616-2.80752q-.46824,3.27625-.936,6.552h.936c4.05-2.91108,2.58223-.724,1.87176-4.68l.93625-2.80849c3.10078,2.80849,1.52278.44125,1.87176,4.6805,6.94517-1.766,7.75208-9.1048,14.04-12.16754,4.39926-2.62149,5.17722,1.98735,8.424,5.615,1.872-3.23355,6.63251-4.91708,11.232-5.615Zm-36.50409-1.872,2.808-6.552c2.70052,1.67077,2.34565,1.80918,3.74425,4.68Zm13.10428,0,.93576-3.744h2.808Zm13.10379,1.872.936-3.744h3.744l-1.872,3.744Zm9.36-9.36-8.424,4.68a99.03987,99.03987,0,0,1,4.81278-8.82944l-.13277-.53009.20836.41622a46.035,46.035,0,0,1,4.47165-6.03322C473.46491,547.31768,472.0074,550.321,470.92268,553.7843Zm6.552-11.232c-1.68476-2.10858-1.81949-3.24042-1.872-7.488h5.616l-3.744,5.616Zm2.808,2.80752-.93624-.93552.93624-1.872h.936q.46788.9365.936,1.872Zm6.552-37.4401h1.87176v2.8085l-2.808-.936Q486.36635,508.85643,486.83472,507.91969Zm-1.872,5.617q-.93613,2.808-1.872,5.615-.46788.9365-.936,1.873-.46826-4.212-.936-8.42451Zm-4.68-46.80012.936,4.67952-1.87225.9365Q479.81508,469.54457,480.2827,466.73657Zm.936,34.6316-2.808,2.808-.936-2.808Zm-3.744,17.78355h-4.68l3.744-4.67952Zm-3.744.93649-3.744,2.808,1.872-2.808Zm0-14.97554h.936l-1.872,2.807Zm-.936,4.67952c-1.113,4.13814-1.46315,1.02386.936,4.68l-2.808.93649-.936-4.6805,1.872-.936Zm-3.744-31.82359h1.872l.936,1.87151-4.68,1.872Zm-10.296,25.27157.936,1.8725h-1.87176Zm-1.70807,23.72744-.16393-.32689c.17522-.01914.27682-.0162.42456-.0265,1.0057-1.42045,2.04551-2.98716,3.31945-4.654,3.77959,1.901,5.616,2.621,7.488,6.552h3.744l-1.872-3.74352c3.771.404,2.84261-.24836,5.616-2.8085l.936.936c-4.44588,9.03068-14.12813,21.4456-25.27206,20.59156v5.617h-.936l-3.744-.9365,2.808-4.6805c-7.15009.13056-7.47968,1.54315-7.48778,8.42451-9.90189-1.68549-11.25362,11.04944-10.29627,15.91155l-2.808-2.80751-6.552,2.80751c5.01353-6.56919,15.53754-19.5785,15.912-29.01558l2.808-1.872v4.68h5.616l-.93576-8.424C451.82985,533.23937,454.37429,530.68315,457.04658,526.96761Zm-31.052,19.32867.93625-1.872h3.744C428.82785,545.92227,429.39721,545.69355,425.99457,546.29628Zm28.08007-39.3121v10.296l-2.808,1.87151V514.4722l-.936-1.872C452.18938,509.53745,451.41,510.02435,454.07464,506.98418Zm-3.744,18.72005c-2.24626,1.09552-1.2278,2.32111-2.808,0Zm-7.48777-34.6316c1.37946,1.65065,2.02072,4.13569,2.808,6.55153v.936h-.93624C441.43125,495.252,442.97268,494.48043,442.84286,491.07263Zm-18.72-.93649,1.87176.93649v.93551l-1.87176.936-.936-1.87152Zm-5.616-17.78355v.93551l-2.808.93649-.936-2.8085Zm-11.232-8.424h.936l-1.872,2.808Zm7.488,29.95207c.32026-6.03567-1.38634-7.6225-8.424-8.424v-4.68l2.808-3.7445,10.29578.93649c-1.81457,3.82745-1.33651,9.6128-2.808,14.97555Zm-7.488,24.33606h2.80776l-3.74376,2.808Zm1.872,19.65605c4.00489-1.62708.964-.97429,4.68.93551,1.61824-5.33526,3.54817-7.6603,6.552-11.232l-3.74425-1.872.93624,2.808-2.808.936c.187-5.74265,1.91029-4.26821,4.67976-9.36l-3.74376-4.67952h12.168c-2.09852-1.80034-2.007-1.08423-5.61626-1.872a85.82679,85.82679,0,0,0,.93625-18.721h.936c1.46757,6.23249,2.62812,5.50214,4.67977,8.42451l1.87225.936.93575-.936c-1.36154-3.72928.05522-2.191-2.808-2.80751,1.259-6.68111,2.50664-9.29573,4.68025-15.91253,5.31637,3.99531,7.06,9.82827,7.48778,18.72h4.68025c-2.39252,5.082-1.59125,2.46-5.616,0-2.1773,4.35656-4.96076,7.9651-4.68026,14.04-2.33436-3.42939.01988,2.36626,1.872,4.68-2.90151,4.64271-3.26742,1.872-.93576,5.616l-2.808,4.67952-9.36-10.29553c.53451,4.94309,7.08162,13.291,8.424,14.04-6.62883,6.75817-18.428,7.407-29.01607,10.296C406.98469,542.621,409.6857,543.45,409.14677,537.87275ZM388.555,562.20881l-2.808,1.87151-.93625-2.808Zm-15.912-2.8085c1.74562,1.21725,1.34412,2.006,2.80776,4.68h-5.61577ZM319.291,617.43245l-4.68025.93552,1.87225-2.80752h1.87175l.93625.93551Zm22.46381,29.95208-.936,2.808-2.808,1.87151c.06553-4.69768-.28075-2.90764.936-5.616h2.808Zm9.36-14.976h2.808l-3.74425,1.872Zm-.93625,20.59107h-2.80776l.936-1.87151h.936Zm-3.74377-64.58318,1.872,2.808-2.808-1.8725Zm-1.872,12.16754c-1.21013,2.79378.03927,1.1235-1.872,2.808l-.936-2.808Zm-22.46381,14.04053v-.9365l2.80776-1.87151h.936C327.05981,614.40358,324.846,613.767,322.09905,614.62445Zm2.80776-3.7445-3.744-1.872c2.72187-5.49232,3.64-4.13961,9.36-6.552l4.68,2.808C330.14293,609.38244,325.70808,608.96377,324.90681,610.88Zm9.36.93649-.936,2.808-1.872.936V610.88l.936.93649Zm-10.296,42.11961c-1.83642-2.4335-.91343-.87759-.936-3.74351l1.872.93551Zm3.744.936-.936-1.8725h1.87225Zm4.68-11.23154V640.832h.936ZM329.58682,629.6l8.424,1.872c1.4153,3.61983.95932,4.144-.936,8.42353,3.10005,2.299,1.72893,2.355,3.744-.935,1.9795,1.24816,3.26006,1.85679,4.68,3.74352l2.808,2.80849C336.59383,643.988,333.04983,639.31341,329.58682,629.6Z"/>
      <path class="cls-2" d="M314.61079,226.18447h3.744c-2.193-6.33262-5.70951-11.5815-2.808-17.78355a5.00185,5.00185,0,0,0-3.1511-1.10387v12.44927c.72741-.03533,1.45407-.07018,2.2151-.11338Z"/>
      <polygon class="cls-2" points="329.587 258.009 326.779 258.009 327.715 259.881 329.587 258.009"/>
      <path class="cls-2" d="M513.04254,439.59251v.03386l.03657-.02552Z"/>
      <path class="cls-2" d="M544.86662,423.68047q.93576-2.808,1.872-5.616h-2.808Q544.39848,420.87247,544.86662,423.68047Z"/>
      <path class="cls-2" d="M533.63459,383.43286h-1.872C533.42869,384.28591,532.00137,384.34677,533.63459,383.43286Z"/>
      <polygon class="cls-2" points="398.851 478.904 396.043 478.904 396.979 480.777 398.851 478.904"/>
      <path class="cls-2" d="M469.05068,552.8483,467.387,549.521c-.0243.03828-.05129.07558-.07559.11387l.80323,3.21343Z"/>
      <polygon class="cls-2" points="528.955 366.585 525.211 366.585 527.083 369.392 528.955 366.585"/>
      <path class="cls-2" d="M323.03481,496.68865c-1.33014.964.09374,1.33259-3.74377.93551l-.93625,2.8085c2.78936,2.15226,4.5713,5.23169,9.36,7.487C328.04735,500.67463,327.66255,498.97049,323.03481,496.68865Z"/>
      <polygon class="cls-2" points="320.227 592.16 322.099 593.096 323.971 590.288 321.163 590.288 320.227 592.16"/>
      <polygon class="cls-2" points="321.163 243.969 323.971 243.969 321.163 242.097 321.163 243.969"/>
      <path class="cls-2" d="M455.94664,536.93626l2.808.93649h3.744l-6.552-8.42451-1.872,3.744C457.56489,535.50207,455.3233,533.03126,455.94664,536.93626Z"/>
      <path class="cls-2" d="M320.2268,228.99248h-5.616l-2.2151-4.42969v6.56036A9.86063,9.86063,0,0,0,320.2268,228.99248Z"/>
      <path class="cls-2" d="M422.25056,536.00025l-.93576,1.8725,1.872.93551h.936C422.91244,536.01449,424.16208,537.68525,422.25056,536.00025Z"/>
      <polygon class="cls-2" points="429.739 519.152 429.739 521.025 431.611 519.152 429.739 519.152"/>
      <polygon class="cls-2" points="409.147 481.712 411.019 483.585 412.891 481.712 410.083 479.84 409.147 481.712"/>
      <path class="cls-2" d="M466.24267,530.38424l-.936-4.68c-2.47106.95073-.75735-.46825-1.872,1.872l-2.808-1.872c-2.45216,1.88967-.47021.71071-3.31945.91-.08712.12319-.17375.23314-.26063.35339l2.64407,5.28814Z"/>
      <polygon class="cls-2" points="326.779 214.953 315.547 209.336 315.547 214.017 324.907 216.825 326.779 214.953"/>
      <path class="cls-2" d="M503.68252,434.91249l4.68025-.936-3.74425-2.808Q504.15064,433.04073,503.68252,434.91249Z"/>
      <polygon class="cls-2" points="488.706 313.233 488.706 316.976 491.514 314.169 488.706 313.233"/>
      <polygon class="cls-2" points="498.067 433.04 499.939 433.976 500.875 433.04 499.003 431.168 498.067 432.104 498.067 433.04"/>
      <path class="cls-2" d="M327.71482,382.49637l-3.744-1.872-2.808.93649,5.616,5.615Q327.24669,384.8376,327.71482,382.49637Z"/>
      <polygon class="cls-2" points="486.835 325.401 486.835 327.273 489.643 327.273 486.835 325.401"/>
      <path class="cls-2" d="M511.17054,404.96042h-1.872C510.96463,405.81347,509.53732,405.87532,511.17054,404.96042Z"/>
      <path class="cls-2" d="M498.0665,406.83243l-.93575,4.67952,2.808-2.80752Z"/>
      <path class="cls-2" d="M504.61852,415.25645l2.808-2.808,3.744-1.872-7.488-2.808C502.65964,411.02112,503.74829,409.54668,504.61852,415.25645Z"/>
      <path class="cls-2" d="M488.70648,404.02442l1.87225,1.87249q.46788-.93649.93576-1.87249l-2.808-1.872Z"/>
      <polygon class="cls-2" points="440.971 253.329 440.035 255.2 442.843 255.2 440.971 253.329"/>
      <polygon class="cls-2" points="468.115 320.72 469.987 318.848 467.179 316.041 468.115 318.848 468.115 320.72"/>
      <path class="cls-2" d="M430.67483,244.90452l3.74376,3.744C432.84722,245.30994,434.20925,246.41135,430.67483,244.90452Z"/>
      <path class="cls-2" d="M475.60269,329.14472h3.74377c.83047-3.05391-1.35517-2.71426,0-7.488-5,.24148-3.65027-.27094-7.48778-2.8085q-.46788,3.27625-.936,6.5525C476.85871,324.57662,474.48877,325.64613,475.60269,329.14472Z"/>
      <polygon class="cls-2" points="452.203 388.112 454.075 389.049 455.947 386.241 452.203 383.433 452.203 388.112"/>
      <path class="cls-2" d="M501.81076,413.384l-2.808-.93551q.46788,3.7445.936,7.488v3.744h-3.744c-2.32135-4.35951-2.27546-11.78175-4.68025-13.104v-1.872l-3.74377,7.488c2.43351,1.83617.87809.91391,3.74377.93649l-7.48778,3.74352c1.60893-5.69356-1.05012-6.88578,2.808-7.48851-1.31885-4.439-2.50664-5.04273-6.552-6.55152q.93614-2.808,1.872-5.616l-8.424,5.616c-.08614-4.25251-.17228-5.36423-1.872-7.488l-5.616,3.744-6.552-4.68c-3.25465,3.27577-3.43135,2.57094-7.488.936l-.936,2.808c3.59357,4.26772,5.761,7.6927,3.74426,12.168,5.672.90116,3.32558,3.05048,9.35977,6.552,1.1289-3.74352,1.33284-3.39552.936-7.48851h4.68l.936,1.8725-2.808,3.7445,13.104,3.743c-3.62523,9.99908,2.26589,11.78126,5.616,21.52806h.936c2.23055-2.43989,1.57972-2.16994,1.872-4.67952h4.67976q-2.33976-4.68027-4.67976-9.35954l4.67976-5.617,2.80826.93649-2.80826.936q2.34049,2.33976,4.68026,4.68,2.33976-7.02,4.67977-14.03955C500.18392,414.82992,500.85512,417.45976,501.81076,413.384Z"/>
      <polygon class="cls-2" points="442.843 385.304 449.395 389.049 443.779 383.433 442.843 385.304"/>
      <path class="cls-2" d="M335.20284,228.99248c-.25548,2.98225.02061,2.25435.936,5.6165l1.872.93551h.936q-.46788-2.808-.936-5.61552Z"/>
      <polygon class="cls-2" points="326.779 214.017 328.651 212.145 325.843 212.145 326.779 214.017"/>
      <path class="cls-2" d="M452.20263,415.25645l.936-1.8725-5.616-1.872,3.744,10.29651c1.14289,1.79446,7.5133,2.18221,5.616-2.80751Z"/>
      <polygon class="cls-2" points="328.651 220.568 329.587 222.44 327.715 222.44 334.267 226.184 336.139 224.312 328.651 220.568"/>
      <polygon class="cls-2" points="359.539 399.344 361.411 397.472 357.667 396.536 359.539 399.344"/>
      <polygon class="cls-2" points="323.971 432.104 323.971 435.848 328.651 434.912 331.459 431.168 332.395 428.36 326.779 424.616 323.971 432.104"/>
      <polygon class="cls-2" points="354.859 402.152 354.859 403.088 356.731 404.96 358.603 404.024 359.539 401.216 356.731 401.216 354.859 402.152"/>
      <path class="cls-2" d="M427.86682,270.17658c-.35855,3.04507-1.5034,1.92256,2.808,3.7445Z"/>
      <path class="cls-2" d="M378.2587,410.57643l1.872.93552h.936q.46788-2.33976.93625-4.67952H377.3227Z"/>
      <polygon class="cls-2" points="454.075 433.04 455.947 433.976 456.883 433.04 455.011 431.168 454.075 433.04"/>
      <path class="cls-2" d="M450.33063,408.70443c-3.759-5.22335-2.205-5.94094-8.42378-7.488q.46788-10.29627.936-20.592l-2.808-.93551-3.744,3.744-3.744-3.744c1.84378,6.96087,4.04636,12.45516,1.87176,18.71955,5.2128,1.76157,7.798,3.97127,10.296,8.424h-1.87176l-1.87225,2.808c5.51024,1.38756,2.61069-.70629,8.424,1.87152Z"/>
      <path class="cls-2" d="M417.57079,432.10449v2.808l2.808.93552C419.22733,433.78065,419.37335,433.52444,417.57079,432.10449Z"/>
      <path class="cls-2" d="M434.41859,401.21641l1.87225,2.808C435.08047,401.23065,436.33011,402.90141,434.41859,401.21641Z"/>
      <path class="cls-2" d="M353.92288,237.4165l-1.872,3.7445,6.552.93551C356.88329,239.43575,357.15668,238.87621,353.92288,237.4165Z"/>
      <polygon class="cls-2" points="358.603 208.401 355.795 208.401 356.731 210.273 358.603 208.401"/>
      <path class="cls-2" d="M325.84281,204.65642l-.936,1.87249C326.59157,205.28958,325.446,205.52567,325.84281,204.65642Z"/>
      <polygon class="cls-2" points="361.411 212.145 361.411 214.017 364.219 214.017 361.411 212.145"/>
      <path class="cls-2" d="M369.83492,246.77652h5.61577c-1.79715-2.80752-.16173-1.57162-3.744-2.80752Z"/>
      <path class="cls-2" d="M425.05857,288.89662l3.744.936c1.49775-3.93151,1.88255-2.37952-.93576-5.616l-1.87225,1.872Z"/>
      <path class="cls-2" d="M367.96267,227.12047l2.80825,2.8085h.93576c-1.00791-2.91059-.74875-2.98372-2.808-4.68Z"/>
      <path class="cls-2" d="M368.89867,214.95342l-3.744-.93649q.46824,1.87152.936,3.74352Z"/>
      <polygon class="cls-2" points="338.011 211.208 335.203 209.336 333.331 212.145 338.011 211.208"/>
      <path class="cls-2" d="M330.52282,213.08044l3.744-5.616-.936-1.87151h-2.808l-2.808,1.87151q.93576,2.808,1.872,5.616Z"/>
      <path class="cls-2" d="M343.62686,234.609h.936l2.808-1.872q-.46826-1.87225-.936-3.7445c-1.22436-3.32534-4.91855-5.07856-8.424-6.552-1.2916,5.45355.28566,7.59109,7.488,7.48851Z"/>
      <polygon class="cls-2" points="342.691 361.905 339.883 366.585 342.691 366.585 342.691 368.457 345.499 367.52 348.307 363.776 344.563 360.968 342.691 361.905"/>
      <polygon class="cls-2" points="347.371 247.713 344.563 244.905 345.499 247.713 345.499 249.585 347.371 247.713"/>
      <polygon class="cls-2" points="349.243 283.281 350.179 286.089 352.051 288.897 354.859 288.897 349.243 283.281"/>
      <path class="cls-2" d="M359.53865,258.00855l-8.42377-1.872v1.872c2.10858,1.68451,3.24042,1.82,7.488,1.872Z"/>
      <polygon class="cls-2" points="449.395 572.504 454.075 572.504 451.267 569.696 449.395 572.504"/>
      <path class="cls-2" d="M435.35459,311.36068h5.616q.46788,4.68025.93624,9.35953l3.744-3.744c5.18336,2.29019,5.53061,2.90176,7.48778,8.42451l12.168.93552q.46788-5.61454.936-11.232c-9.81968-3.35331-16.51183-5.06335-24.33582-12.16754l3.744-2.808c-3.86377-2.74714-8.077-.215-11.23227-7.48851-4.52-2.50713-2.995-1.37332-10.29578-.93551l.93576,5.616c-6.1277-2.1773-5.3679-3.03085-10.29578-6.55251l-.936.93649,3.744,5.616-8.424,3.744c-2.65094-4.3006-3.96684-13.98751-9.36-15.91154,2.45805-3.11674,3.21613-4.01986,8.424-4.68051v-.93649l-5.616-1.87151c1.74561-3.22619.76-2.53315,4.68-3.74352-.616-4.76591-.71685-3.984-2.808-6.55251,4.562-.92864,7.56655-.65476,11.232.93551l1.872-.93551c-1.45455-4.091-1.47517-3.50743-5.616-4.67952l1.872-4.6805c-.14308-4.08366-1.18878-3.31454,4.68-3.744v-.936l-8.42427-4.68c2.26147-1.76206,1.57457.16688,3.74426-2.808l-12.168-1.87152q.46787-2.33976.936-4.6805c-4.721-3.83726-9.65108-8.40291-14.976-11.23153q-.46788,2.808-.936,5.61552c2.62076,5.38729,4.25324,8.14327,11.23227,9.36l-6.55226,3.744-.936,1.872c3.56338,3.71112,1.48278,3.53589,5.616,2.808q.46788,3.74376.936,7.488v.936c-2.9577-.1178-.5804,1.01257-2.808-.936-3.34227-1.92943-1.123.11044-.936-3.7445l-9.36,1.873-1.87176-4.68051c2.90887.30235,6.60625.7171,7.48778,1.872l2.808-1.872c-2.57683-1.14362-1.52941-.67537-3.74376-.936-2.64334-2.382-10.81655-2.70591-15.912-3.74352l-11.232,8.42353-.936,1.872,12.168,6.552v.9365l-12.168,7.48753-1.872,2.808c5.83689-.27044,3.904.53844,9.35978,1.872l-4.67976,4.68c-.55243,4.50969,4.99708,11.49805,5.61576,16.848l3.74426-2.8085c1.21651,3.82941,1.53972,3.2846,3.744,5.61651,4.16513-.60126,15.33066-3.22521,20.5918-5.61651,2.621,3.65075,5.21158,3.0387,6.552,9.36,9.98239-1.67764,27.89282,3.23257,29.95207.93649Zm-27.14382-49.60812-.936,1.872h-.936q-.93614-2.808-1.872-5.616C407.28311,259.69306,406.69069,258.4763,408.21077,261.75256Zm-4.68-9.36c.85354,1.66586.91441.23855,0,1.872Zm-36.50384,29.95208v-.936l1.87175-.936Zm8.42377-28.08007-.936-1.872,2.808-1.872H379.195l-2.808,3.744Zm6.55226,11.23252-3.74425-.9365c-4.35116-6.70613-1.32989-.60076-.936-8.424l1.87225,1.872c1.31025.213.22357.17964.93575-.93551l2.808.93551C381.21469,263.29816,381.12855,259.7765,382.003,265.49706Zm15.912-19.65654h.93576l-1.872,2.808Zm-4.68026,36.50409-.936-3.744,5.61626-2.808c2.39792,3.4235-2.39547,1.51272,1.87176,5.616l-2.808.936Zm7.488,14.976-1.872-1.872c-1.68476-1.818-.76667-3.20017,0-6.552h1.872Zm-3.744-11.232,3.744.93649C397.10685,286.76448,399.59386,287.8173,396.97874,286.08862Z"/>
      <path class="cls-2" d="M422.25056,273.92108c-1.927-2.04674-1.2624-1.817-4.67977-2.8085C419.49777,273.15932,418.83344,272.92961,422.25056,273.92108Z"/>
      <path class="cls-2" d="M446.58662,576.24786c3.07011-3.36951,2.74813-2.246,0-5.61552Z"/>
      <polygon class="cls-2" points="425.995 254.265 427.867 251.457 429.739 250.521 423.187 248.649 421.315 250.521 422.251 253.329 425.995 254.265"/>
      <polygon class="cls-2" points="422.251 283.281 424.123 281.409 422.251 281.409 422.251 283.281"/>
      <path class="cls-2" d="M383.87471,221.505q.46788,1.87151.936,3.744C385.52854,222.64955,386.81205,224.00766,383.87471,221.505Z"/>
      <path class="cls-2" d="M374.51469,228.99248v4.68l1.87225-.93551C375.48358,229.34342,376.44854,230.83012,374.51469,228.99248Z"/>
      <polygon class="cls-2" points="385.747 228.992 382.003 228.992 385.747 232.737 385.747 228.992"/>
      <path class="cls-2" d="M383.87471,244.90452l2.808.936,1.87225-.936.93576-2.808-6.552-4.68Q383.407,241.161,383.87471,244.90452Z"/>
      <path class="cls-2" d="M411.01878,267.36857l-1.872,3.744v.93649h7.48778C414.71125,269.0413,414.72549,268.76055,411.01878,267.36857Z"/>
      <path class="cls-2" d="M353.92288,252.39253l-.93624,1.872c2.73413,1.85041,4.5173,1.62659,7.48826-.936l-3.74426-2.808Z"/>
      <path class="cls-2" d="M360.4749,247.713l1.87176-1.87249-3.74377-1.87152q.46788,2.80728.93576,5.616h.93625Z"/>
    </g>
  </g>
</svg>
